<svg width="25" height="24" viewBox="0 0 25 24" fill="none" xmlns="http://www.w3.org/2000/svg">
<g clip-path="url(#clip0_584_24525)">
<path d="M19.4435 20.276C18.0555 19.808 16.5675 20.644 16.2435 22.072C15.7275 24.34 12.6515 24.708 11.6155 22.624C10.9635 21.312 9.31951 20.848 8.07951 21.632C6.11151 22.872 3.67551 20.956 4.41551 18.752C4.88351 17.364 4.04751 15.876 2.61951 15.552C0.351512 15.036 -0.0164882 11.96 2.06751 10.924C3.37951 10.272 3.84351 8.62798 3.05951 7.38798C1.81951 5.41998 3.73551 2.98398 5.93951 3.72398C7.32751 4.19198 8.81551 3.35598 9.13951 1.92798C9.65551 -0.340017 12.7315 -0.708017 13.7675 1.37598C14.4195 2.68798 16.0635 3.15198 17.3035 2.36798C19.2715 1.12798 21.7075 3.04398 20.9675 5.24798C20.4995 6.63598 21.3355 8.12398 22.7635 8.44798C25.0315 8.96398 25.3995 12.04 23.3155 13.076C22.0035 13.728 21.5395 15.372 22.3235 16.612C23.5635 18.58 21.6475 21.016 19.4435 20.276Z" fill="#FFC61E"/>
<path d="M16.9556 4.06402C16.8476 4.01602 16.7236 4.06402 16.6756 4.17202L16.6036 4.33602C16.5916 4.36402 16.5876 4.39202 16.5876 4.42002C16.5876 4.49202 16.6236 4.56002 16.6876 4.59602C16.6756 4.63202 16.6596 4.66802 16.6436 4.70402C16.5476 4.68402 16.4476 4.73202 16.4076 4.82402L16.3356 4.98802C16.3116 5.04002 16.3116 5.09602 16.3356 5.14802C16.3516 5.18402 16.3756 5.21602 16.4076 5.23602C16.3876 5.27602 16.3676 5.32002 16.3476 5.36002C16.3076 5.34802 16.2636 5.34802 16.2276 5.36002C16.1716 5.37602 16.1276 5.41202 16.1036 5.46402L16.0196 5.62402C16.0036 5.65602 15.9956 5.68802 15.9956 5.72002C15.9956 5.78002 16.0236 5.83602 16.0676 5.87602C16.0396 5.92802 16.0076 5.97602 15.9756 6.02802C15.8836 5.99602 15.7796 6.02802 15.7276 6.11602L15.6276 6.26802C15.5996 6.31602 15.5876 6.36802 15.5996 6.42402C15.6076 6.46002 15.6276 6.49602 15.6556 6.52402C15.6236 6.57202 15.5876 6.62002 15.5556 6.66802C15.5196 6.65202 15.4836 6.64802 15.4436 6.65602C15.3876 6.66402 15.3396 6.69202 15.3076 6.74002L15.1996 6.88802C15.1676 6.93202 15.1556 6.98802 15.1636 7.04402C15.1716 7.07602 15.1836 7.10802 15.2036 7.13202C15.1756 7.16802 15.1476 7.20402 15.1156 7.23602C15.0796 7.21602 15.0356 7.20802 14.9916 7.21202C14.9356 7.22002 14.8876 7.24802 14.8516 7.28802L14.7356 7.43202C14.6996 7.47602 14.6836 7.53202 14.6916 7.58402C14.6916 7.61602 14.7076 7.64802 14.7276 7.67202C14.6876 7.71202 14.6516 7.75602 14.6116 7.79602C14.5756 7.77202 14.5356 7.76402 14.4956 7.76802C14.4396 7.76802 14.3876 7.79602 14.3516 7.83602L14.2276 7.97202C14.1916 8.01202 14.1716 8.06802 14.1716 8.12402C14.1716 8.15202 14.1836 8.18402 14.1956 8.20802C14.1556 8.24402 14.1156 8.28402 14.0716 8.32002C13.9876 8.26002 13.8716 8.26802 13.7996 8.34002L13.6716 8.46802C13.6076 8.53202 13.5916 8.62402 13.6316 8.70402C13.5836 8.74402 13.5316 8.78402 13.4796 8.82802C13.4516 8.80802 13.4156 8.79202 13.3796 8.78802C13.3236 8.78002 13.2676 8.79602 13.2236 8.82802L13.0796 8.94002C13.0236 8.98002 12.9956 9.04402 12.9956 9.10402C12.9956 9.13202 12.9996 9.15602 13.0116 9.18402C12.8716 9.28402 12.7276 9.38402 12.5796 9.48402C12.4916 9.42402 12.4076 9.36402 12.3236 9.30002C12.3396 9.26402 12.3436 9.22802 12.3396 9.18802C12.3316 9.13202 12.3036 9.08402 12.2596 9.05202L12.1156 8.94002C12.0396 8.88002 11.9356 8.88402 11.8636 8.93602C11.8116 8.89602 11.7636 8.85202 11.7156 8.80802C11.7556 8.73202 11.7436 8.63202 11.6756 8.56802L11.5436 8.44002C11.4756 8.37602 11.3636 8.36402 11.2836 8.41202C11.2396 8.37202 11.1996 8.33202 11.1596 8.28802C11.1836 8.25602 11.1956 8.22002 11.1996 8.18002C11.1996 8.12402 11.1836 8.07202 11.1476 8.02802L11.0236 7.89202C10.9836 7.85202 10.9356 7.82802 10.8756 7.82402C10.8356 7.82402 10.7956 7.83202 10.7596 7.85202C10.7236 7.81202 10.6876 7.76802 10.6516 7.72802C10.7076 7.66002 10.7116 7.55602 10.6556 7.48002L10.5476 7.33202C10.4876 7.24802 10.3716 7.22002 10.2796 7.26802C10.2516 7.23202 10.2236 7.19602 10.1956 7.16002C10.2156 7.13602 10.2276 7.10402 10.2356 7.07202C10.2436 7.01602 10.2356 6.96002 10.1996 6.91602L10.0916 6.76802C10.0396 6.69202 9.94357 6.66402 9.85957 6.68802C9.82757 6.64002 9.79157 6.58802 9.75957 6.54002C9.78757 6.51602 9.80757 6.48002 9.81557 6.44002C9.82757 6.38802 9.81557 6.32802 9.78757 6.28402L9.68757 6.13202C9.63557 6.05202 9.53557 6.02002 9.44757 6.04402C9.41957 5.99602 9.39157 5.94402 9.36357 5.89602C9.42757 5.83202 9.44357 5.73602 9.40357 5.65602L9.31957 5.49602C9.27557 5.40802 9.17557 5.36802 9.08357 5.38802C9.06357 5.34402 9.03957 5.30002 9.01557 5.25602C9.04357 5.23602 9.05957 5.20802 9.07157 5.17602C9.09157 5.12402 9.09157 5.06802 9.07157 5.01602L8.99957 4.85202C8.95957 4.76002 8.85957 4.71202 8.76357 4.73202C8.74757 4.69602 8.72757 4.65602 8.71157 4.62002C8.74357 4.59602 8.76757 4.56802 8.78357 4.52802C8.80357 4.47602 8.80357 4.42002 8.78357 4.36802L8.70757 4.20402C8.68757 4.15202 8.64357 4.11602 8.59157 4.09202C8.53957 4.07202 8.47957 4.07202 8.43157 4.09202C8.37957 4.11602 8.33957 4.15602 8.31957 4.20802C8.29957 4.26002 8.29957 4.31602 8.31957 4.36802L8.39157 4.53202C8.42757 4.60802 8.50357 4.65602 8.58357 4.65602C8.59957 4.65602 8.61157 4.65602 8.62757 4.65602C8.64357 4.69202 8.65957 4.73202 8.67957 4.76802C8.59957 4.82402 8.56357 4.93202 8.60757 5.02002L8.67957 5.18802C8.71557 5.26402 8.79157 5.31202 8.87557 5.31202C8.89557 5.31202 8.91557 5.31202 8.93557 5.30002C8.95957 5.34002 8.97957 5.38402 8.99957 5.42402C8.91557 5.48402 8.88757 5.59602 8.93557 5.68802L9.01957 5.84802C9.04757 5.90002 9.09157 5.93602 9.14357 5.95202C9.16357 5.96002 9.18757 5.96402 9.20757 5.96402C9.23157 5.96402 9.25557 5.96002 9.27957 5.94802C9.30757 5.99602 9.33557 6.04402 9.36357 6.08802C9.32757 6.11602 9.30757 6.15602 9.29157 6.20002C9.27957 6.25202 9.29157 6.31202 9.31957 6.35602L9.41557 6.50802C9.45557 6.57202 9.52357 6.60802 9.59557 6.60802C9.62357 6.60802 9.64757 6.60402 9.67157 6.59202C9.70357 6.64002 9.73557 6.68802 9.76757 6.73602C9.68357 6.80402 9.66757 6.92402 9.73157 7.01602L9.83957 7.16402C9.87957 7.22002 9.94357 7.25202 10.0116 7.25202C10.0476 7.25202 10.0836 7.24402 10.1156 7.22402C10.1436 7.26002 10.1676 7.29602 10.1956 7.32802C10.1396 7.40002 10.1316 7.50002 10.1876 7.58002L10.2956 7.72802C10.3356 7.78402 10.3996 7.81602 10.4676 7.81602C10.4996 7.81602 10.5356 7.80802 10.5676 7.79202C10.5996 7.83602 10.6396 7.87602 10.6756 7.91602C10.6516 7.94802 10.6356 7.98802 10.6356 8.02802C10.6356 8.08402 10.6516 8.13602 10.6916 8.18002L10.8156 8.31602C10.8516 8.35602 10.9036 8.38002 10.9596 8.38402H10.9716C11.0116 8.38402 11.0476 8.37202 11.0796 8.35202C11.1196 8.39202 11.1636 8.43602 11.2036 8.47602C11.1476 8.55602 11.1556 8.66802 11.2276 8.74002L11.3596 8.86802C11.3996 8.90802 11.4556 8.92802 11.5076 8.92802C11.5556 8.92802 11.6036 8.91202 11.6396 8.88002C11.6876 8.92402 11.7356 8.96802 11.7836 9.00402C11.7556 9.04402 11.7476 9.08802 11.7556 9.13602C11.7636 9.19202 11.7916 9.24002 11.8356 9.27202L11.9796 9.38402C12.0156 9.41202 12.0636 9.42802 12.1116 9.42802C12.1196 9.42802 12.1276 9.42802 12.1396 9.42802C12.1836 9.42402 12.2236 9.40402 12.2556 9.37602C12.3476 9.44402 12.4436 9.51202 12.5356 9.57602L12.5596 9.59202L12.5836 9.57602C12.7396 9.47202 12.8916 9.36402 13.0396 9.25602C13.0796 9.29602 13.1316 9.31602 13.1836 9.31602C13.2276 9.31602 13.2756 9.30402 13.3116 9.27202L13.4556 9.16002C13.5396 9.09602 13.5596 8.98402 13.5116 8.89602C13.5596 8.85602 13.6116 8.81602 13.6556 8.77602C13.6956 8.81202 13.7436 8.82802 13.7916 8.82802C13.8476 8.82802 13.8996 8.80802 13.9396 8.76402L14.0676 8.63602C14.1396 8.56802 14.1476 8.46402 14.0996 8.38402C14.1396 8.34802 14.1796 8.31202 14.2196 8.27602C14.2596 8.30802 14.3036 8.32002 14.3516 8.32002C14.4076 8.32002 14.4676 8.29602 14.5116 8.25202L14.6356 8.11602C14.7036 8.04002 14.7076 7.93202 14.6476 7.85602C14.6876 7.81602 14.7236 7.77602 14.7596 7.73602C14.7956 7.76002 14.8316 7.77202 14.8716 7.77202C14.9356 7.77202 14.9956 7.74402 15.0396 7.69202L15.1556 7.54802C15.2156 7.47202 15.2116 7.36802 15.1556 7.29202C15.1836 7.25602 15.2116 7.22402 15.2396 7.19202C15.2716 7.20802 15.3076 7.21602 15.3436 7.21602C15.3556 7.21602 15.3676 7.21602 15.3796 7.21602C15.4356 7.20402 15.4836 7.17602 15.5156 7.13202L15.6236 6.98402C15.6556 6.94002 15.6676 6.88402 15.6596 6.83202C15.6516 6.78802 15.6316 6.75202 15.6036 6.72002C15.6356 6.67202 15.6716 6.62802 15.7036 6.58002C15.7276 6.58802 15.7556 6.59202 15.7796 6.59202C15.8516 6.59202 15.9196 6.55602 15.9596 6.49202L16.0556 6.34002C16.0876 6.29202 16.0956 6.24002 16.0836 6.18402C16.0756 6.14402 16.0516 6.10802 16.0236 6.08002C16.0556 6.02802 16.0876 5.98002 16.1156 5.92802C16.1356 5.93602 16.1556 5.94002 16.1756 5.94002C16.2516 5.94002 16.3276 5.90002 16.3636 5.82802L16.4476 5.66402C16.4756 5.61602 16.4756 5.56002 16.4596 5.50402C16.4476 5.46802 16.4236 5.43202 16.3956 5.40802C16.4156 5.36402 16.4396 5.32402 16.4556 5.28002C16.4716 5.28002 16.4876 5.28402 16.5036 5.28402C16.5316 5.28402 16.5556 5.28402 16.5796 5.27202C16.6316 5.25202 16.6716 5.21202 16.6956 5.16002L16.7676 4.99602C16.8076 4.90402 16.7756 4.80002 16.6956 4.74402C16.7116 4.70802 16.7276 4.66802 16.7396 4.63202C16.7516 4.63202 16.7596 4.63202 16.7716 4.63202C16.8516 4.63202 16.9316 4.58402 16.9636 4.50802L17.0356 4.34402C17.0836 4.24002 17.0356 4.11602 16.9276 4.06802L16.9556 4.06402ZM8.59157 4.57602C8.53957 4.57602 8.49157 4.55202 8.47157 4.50402L8.39557 4.34002C8.38357 4.31202 8.38357 4.27602 8.39557 4.24802C8.40357 4.22802 8.41557 4.21202 8.42757 4.20402C8.43957 4.19202 8.44757 4.18802 8.45957 4.18002C8.47557 4.17202 8.49157 4.16802 8.50757 4.16802C8.55557 4.16802 8.59957 4.19602 8.62357 4.24002L8.69557 4.40802C8.70757 4.43602 8.71157 4.47202 8.69557 4.50002C8.68757 4.51602 8.67957 4.52802 8.66757 4.54002C8.65557 4.55202 8.64357 4.56002 8.63157 4.56402C8.61557 4.56802 8.60357 4.57202 8.58757 4.57602H8.59157ZM8.92357 5.21602C8.92357 5.21602 8.90757 5.22402 8.89557 5.22402C8.83957 5.23202 8.78357 5.20402 8.75957 5.15202L8.68757 4.98402C8.66357 4.93602 8.67957 4.88002 8.71557 4.84402C8.72757 4.83602 8.73557 4.82802 8.75157 4.82002C8.76757 4.81202 8.78357 4.81202 8.79957 4.81202C8.84757 4.81202 8.89157 4.83602 8.91557 4.88402L8.98757 5.04802C8.98757 5.04802 8.99957 5.08002 8.99957 5.10002C8.99957 5.12402 8.99157 5.15202 8.97557 5.17202C8.96357 5.18802 8.94757 5.20002 8.92757 5.20802L8.92357 5.21602ZM9.26757 5.86002C9.26757 5.86002 9.25157 5.86802 9.24357 5.87202C9.21957 5.87602 9.19557 5.87202 9.17157 5.87202C9.13957 5.86402 9.11557 5.84002 9.09957 5.81202L9.01557 5.64802C8.98757 5.60002 8.99957 5.54002 9.03957 5.50402C9.04757 5.49602 9.05557 5.48802 9.06757 5.48402C9.08757 5.47602 9.10357 5.47202 9.12357 5.47202C9.16757 5.47202 9.21157 5.49602 9.23557 5.54002L9.31957 5.70002C9.33957 5.74002 9.33557 5.78802 9.31157 5.82002C9.30357 5.83602 9.28357 5.85202 9.26757 5.86402V5.86002ZM9.67157 6.50002C9.67157 6.50002 9.64757 6.51202 9.63557 6.51202C9.58357 6.52402 9.52757 6.50402 9.49957 6.46002L9.39957 6.30802C9.38357 6.28002 9.37557 6.24802 9.38357 6.21602C9.38757 6.19602 9.39957 6.17602 9.41157 6.16402C9.41957 6.15602 9.42757 6.14802 9.43957 6.14002C9.45557 6.12802 9.47557 6.12402 9.49157 6.12402C9.49557 6.12402 9.49957 6.12402 9.50757 6.12402C9.54757 6.12402 9.58757 6.14402 9.61157 6.18002L9.70757 6.33202C9.72357 6.36002 9.73157 6.39202 9.72357 6.42402C9.72357 6.44002 9.71557 6.45202 9.70757 6.46402C9.69557 6.47602 9.68357 6.48802 9.67157 6.50002ZM10.0916 7.14002C10.0916 7.14002 10.0796 7.14802 10.0716 7.15202C10.0196 7.17602 9.95557 7.16002 9.91957 7.11202L9.81557 6.96402C9.77957 6.91202 9.78757 6.84802 9.83157 6.80802C9.83157 6.80002 9.83957 6.79602 9.84757 6.79602C9.86757 6.78402 9.89157 6.77602 9.91557 6.77202H9.91957C9.95957 6.77202 9.99557 6.78802 10.0196 6.82402L10.1276 6.97202C10.1476 7.00002 10.1556 7.03202 10.1476 7.06402C10.1476 7.07202 10.1476 7.08002 10.1396 7.08802C10.1316 7.10802 10.1196 7.12802 10.0996 7.14002H10.0916ZM10.5476 7.70402C10.5476 7.70402 10.5276 7.71602 10.5196 7.72002C10.4676 7.73602 10.4076 7.72002 10.3756 7.67602L10.2676 7.52802C10.2396 7.48802 10.2396 7.44002 10.2596 7.40002C10.2676 7.38402 10.2796 7.37202 10.2956 7.36002C10.3036 7.35202 10.3156 7.34802 10.3236 7.34802C10.3396 7.34402 10.3516 7.34002 10.3676 7.34002C10.4076 7.34002 10.4436 7.36002 10.4676 7.39202L10.5756 7.54002C10.5916 7.56402 10.5996 7.58802 10.5996 7.61202C10.5996 7.63202 10.5956 7.65202 10.5836 7.67202C10.5756 7.68802 10.5636 7.70402 10.5476 7.71202V7.70402ZM11.0596 8.26002C11.0596 8.26002 11.0356 8.28002 11.0236 8.28402C11.0076 8.29202 10.9876 8.29602 10.9716 8.29202C10.9396 8.29202 10.9076 8.27602 10.8836 8.25202L10.7596 8.11602C10.7396 8.09202 10.7276 8.06002 10.7276 8.02802C10.7276 8.01202 10.7316 7.99602 10.7436 7.98002C10.7516 7.96802 10.7596 7.95602 10.7716 7.94402C10.7836 7.93202 10.7956 7.92802 10.8076 7.92002C10.8236 7.91602 10.8356 7.91202 10.8556 7.91202H10.8636C10.8956 7.91202 10.9276 7.92802 10.9476 7.95202L11.0716 8.08802C11.0956 8.11202 11.1036 8.14402 11.1036 8.17602C11.1036 8.19202 11.0996 8.21202 11.0876 8.22402C11.0836 8.23602 11.0716 8.24802 11.0596 8.26002ZM11.4236 8.80402L11.2916 8.67602C11.2516 8.64002 11.2476 8.58002 11.2716 8.53602C11.2756 8.52402 11.2836 8.51202 11.2916 8.50402C11.3036 8.49202 11.3156 8.48402 11.3316 8.47602C11.3316 8.47602 11.3596 8.46802 11.3756 8.46802C11.4076 8.46802 11.4396 8.48002 11.4636 8.50402L11.5956 8.63202C11.6196 8.65602 11.6316 8.68802 11.6316 8.72002C11.6316 8.73202 11.6316 8.74402 11.6276 8.75202C11.6236 8.77202 11.6116 8.78802 11.5956 8.80402C11.5916 8.81202 11.5836 8.81602 11.5756 8.82002C11.5276 8.85202 11.4636 8.84402 11.4196 8.80402H11.4236ZM12.1316 9.34002C12.0996 9.34402 12.0636 9.34002 12.0396 9.31602L11.8956 9.20402C11.8676 9.18402 11.8516 9.15602 11.8476 9.12402C11.8476 9.10002 11.8476 9.08002 11.8596 9.06002C11.8596 9.05202 11.8676 9.04402 11.8716 9.03602C11.8836 9.02002 11.8996 9.00802 11.9156 9.00002C11.9316 8.99202 11.9516 8.98802 11.9676 8.98802C11.9956 8.98802 12.0196 8.99602 12.0436 9.01202L12.1876 9.12402C12.2156 9.14402 12.2316 9.17202 12.2356 9.20402V9.21602C12.2356 9.21602 12.2356 9.23602 12.2316 9.24802C12.2316 9.26402 12.2236 9.28002 12.2116 9.29602C12.2036 9.30402 12.1956 9.31202 12.1836 9.32002C12.1676 9.33202 12.1516 9.33602 12.1276 9.34002H12.1316ZM13.4116 9.09202L13.2676 9.20402C13.2236 9.24002 13.1596 9.24002 13.1156 9.20402C13.1076 9.20002 13.0996 9.19202 13.0916 9.18002C13.0796 9.16402 13.0716 9.14802 13.0716 9.12802C13.0596 9.08402 13.0756 9.03602 13.1156 9.00802L13.2596 8.89602C13.2876 8.87602 13.3196 8.86802 13.3516 8.87202C13.3676 8.87202 13.3796 8.88002 13.3916 8.88402C13.4076 8.89202 13.4236 8.90402 13.4356 8.92002C13.4436 8.92802 13.4476 8.94002 13.4516 8.94802C13.4716 8.99602 13.4596 9.05602 13.4156 9.08802L13.4116 9.09202ZM14.0196 8.57602L13.8916 8.70402C13.8476 8.74802 13.7796 8.75202 13.7316 8.71602C13.7236 8.71602 13.7196 8.70802 13.7156 8.70402C13.6996 8.68802 13.6876 8.66802 13.6836 8.64802C13.6716 8.60802 13.6836 8.56402 13.7156 8.53202L13.8436 8.40402C13.8676 8.38002 13.8996 8.36802 13.9316 8.36802C13.9516 8.36802 13.9716 8.37202 13.9876 8.38002C13.9996 8.38402 14.0076 8.39202 14.0156 8.40402C14.0276 8.41602 14.0356 8.42802 14.0436 8.44402C14.0596 8.48802 14.0516 8.54002 14.0156 8.57602H14.0196ZM14.5796 8.06002L14.4556 8.19602C14.4156 8.24002 14.3476 8.24802 14.2956 8.21602C14.2916 8.21602 14.2836 8.20802 14.2796 8.20402C14.2636 8.18802 14.2476 8.16802 14.2396 8.14402C14.2396 8.13602 14.2396 8.12802 14.2396 8.12002C14.2396 8.08802 14.2516 8.05602 14.2716 8.03202L14.3956 7.89602C14.4196 7.87202 14.4476 7.86002 14.4836 7.85602C14.4996 7.85602 14.5156 7.85602 14.5316 7.86402C14.5476 7.86402 14.5596 7.87602 14.5716 7.88802C14.5836 7.90002 14.5916 7.90802 14.5956 7.92002C14.6236 7.96402 14.6156 8.02002 14.5796 8.06002ZM15.0956 7.49202L14.9836 7.63602C14.9596 7.66802 14.9236 7.68402 14.8836 7.68402C14.8676 7.68402 14.8476 7.68402 14.8316 7.67202C14.8236 7.67202 14.8156 7.66402 14.8036 7.66002C14.7876 7.64802 14.7756 7.63202 14.7676 7.61202C14.7596 7.60002 14.7596 7.59202 14.7556 7.58002C14.7556 7.54802 14.7596 7.51602 14.7796 7.49202L14.8956 7.34802C14.9156 7.32402 14.9476 7.30802 14.9796 7.30402C14.9836 7.30402 14.9916 7.30402 14.9956 7.30402C15.0116 7.30402 15.0236 7.30402 15.0356 7.31202C15.0356 7.31202 15.0596 7.32402 15.0676 7.33202C15.0836 7.34402 15.0916 7.35602 15.0996 7.36802C15.1236 7.40802 15.1196 7.46402 15.0876 7.50002L15.0956 7.49202ZM15.5836 6.84002C15.5876 6.87202 15.5836 6.90402 15.5636 6.92802L15.4556 7.07602C15.4356 7.10002 15.4076 7.12002 15.3756 7.12802C15.3676 7.12802 15.3636 7.12802 15.3556 7.12802C15.3396 7.12802 15.3196 7.12802 15.3076 7.11602C15.2996 7.11602 15.2916 7.10802 15.2836 7.10402C15.2676 7.09202 15.2516 7.07602 15.2436 7.05602C15.2396 7.04802 15.2356 7.03602 15.2316 7.02802C15.2236 6.99602 15.2316 6.96402 15.2516 6.93602L15.3596 6.78802C15.3796 6.76002 15.4076 6.74402 15.4396 6.73602C15.4476 6.73602 15.4556 6.73602 15.4596 6.73602C15.4636 6.73602 15.4756 6.73602 15.4836 6.73602C15.4996 6.73602 15.5196 6.74402 15.5316 6.75602C15.5436 6.76402 15.5516 6.77202 15.5596 6.78002C15.5716 6.79602 15.5796 6.81202 15.5836 6.83202V6.84002ZM16.0076 6.20002C16.0156 6.23202 16.0076 6.26402 15.9916 6.29202L15.8916 6.44402C15.8636 6.48802 15.8116 6.50802 15.7636 6.49602C15.7476 6.49602 15.7356 6.48802 15.7236 6.48002C15.7076 6.47202 15.6996 6.46002 15.6876 6.44802C15.6876 6.44802 15.6716 6.42002 15.6676 6.40402C15.6596 6.37202 15.6676 6.34002 15.6836 6.31202L15.7796 6.16002C15.8076 6.11602 15.8596 6.09602 15.9076 6.10802C15.9236 6.10802 15.9356 6.11602 15.9516 6.12402C15.9636 6.13202 15.9756 6.14002 15.9836 6.15202C15.9956 6.16402 16.0036 6.18002 16.0076 6.20002ZM16.3876 5.52802C16.3996 5.56002 16.3956 5.59202 16.3796 5.62002L16.2956 5.78402C16.2716 5.83202 16.2196 5.85602 16.1676 5.84802C16.1516 5.84802 16.1396 5.84402 16.1276 5.83602C16.1116 5.82802 16.0996 5.81602 16.0916 5.80402C16.0596 5.76802 16.0516 5.71602 16.0756 5.67202L16.1596 5.51202C16.1756 5.48402 16.1996 5.46002 16.2316 5.45202C16.2476 5.44802 16.2676 5.44402 16.2876 5.45202C16.3036 5.45202 16.3156 5.45202 16.3276 5.46402C16.3436 5.47202 16.3556 5.48002 16.3636 5.49202C16.3716 5.50402 16.3836 5.52002 16.3876 5.53602V5.52802ZM16.7036 4.96002L16.6316 5.12402C16.6116 5.17202 16.5636 5.19602 16.5156 5.19602H16.5076C16.5076 5.19602 16.4796 5.19202 16.4636 5.18402C16.4476 5.18002 16.4356 5.17202 16.4236 5.16002C16.4116 5.14802 16.4036 5.13202 16.3956 5.11602C16.3836 5.08802 16.3836 5.05202 16.3956 5.02402L16.4676 4.86002C16.4876 4.81602 16.5356 4.78802 16.5836 4.78802C16.5836 4.78802 16.5876 4.78802 16.5916 4.78802C16.6076 4.78802 16.6196 4.78802 16.6356 4.79602C16.6516 4.80402 16.6636 4.81202 16.6756 4.82002C16.7116 4.85602 16.7196 4.90802 16.7036 4.95602V4.96002ZM16.9756 4.30802L16.8996 4.47202C16.8796 4.51602 16.8356 4.54402 16.7916 4.54402C16.7756 4.54402 16.7556 4.54402 16.7396 4.53202C16.7276 4.53202 16.7196 4.52002 16.7116 4.51202C16.6956 4.50002 16.6836 4.48402 16.6756 4.46402C16.6636 4.43602 16.6636 4.40002 16.6756 4.37202L16.7476 4.20802C16.7676 4.16802 16.8076 4.14002 16.8476 4.13602C16.8676 4.13602 16.8876 4.13602 16.9076 4.14402C16.9156 4.14402 16.9236 4.15202 16.9316 4.15602C16.9796 4.18802 16.9956 4.24802 16.9756 4.30402V4.30802Z" fill="#F0BA07"/>
<path d="M13.0036 9.69606C13.0036 9.69606 13.0036 9.73206 12.9996 9.74806L12.7396 11.3681C12.7316 11.4241 12.6796 11.4641 12.6156 11.4641C12.5516 11.4641 12.5036 11.4241 12.4916 11.3681L12.2316 9.74806C12.1956 9.53206 12.3796 9.33606 12.6156 9.33606C12.6196 9.33606 12.6276 9.33606 12.6316 9.33606C12.8396 9.34406 13.0036 9.50406 13.0036 9.69606Z" fill="#FFBF4D"/>
<path d="M12.5996 10.7401C12.5996 10.6241 12.5916 10.5121 12.5876 10.3961C12.5796 10.2841 12.5716 10.1761 12.5636 10.0641C12.5556 9.95208 12.5516 9.83208 12.5076 9.72408C12.4756 9.64808 12.3676 9.66408 12.3596 9.74408C12.3476 9.85208 12.3756 9.96808 12.3916 10.0761C12.4076 10.1881 12.4236 10.3041 12.4396 10.4161C12.4516 10.5281 12.4676 10.6361 12.4796 10.7481C12.4916 10.8521 12.4956 10.9561 12.5476 11.0521C12.5476 11.0561 12.5556 11.0521 12.5596 11.0521C12.6036 10.9521 12.5956 10.8441 12.5956 10.7401H12.5996Z" fill="#FFD180"/>
<path d="M12.5516 9.456C12.5316 9.424 12.4956 9.42 12.4596 9.432C12.4196 9.448 12.3956 9.476 12.3796 9.516C12.3796 9.524 12.3716 9.536 12.3716 9.548C12.3716 9.552 12.3716 9.556 12.3716 9.564C12.3716 9.556 12.3716 9.56 12.3716 9.564C12.3756 9.584 12.3796 9.596 12.3956 9.604C12.4036 9.612 12.4156 9.616 12.4276 9.612C12.4396 9.608 12.4516 9.6 12.4596 9.592C12.4676 9.584 12.4756 9.576 12.4836 9.568C12.4796 9.572 12.4836 9.568 12.4916 9.564C12.4916 9.564 12.5116 9.548 12.5116 9.544C12.5116 9.544 12.5116 9.544 12.5196 9.544C12.5516 9.528 12.5636 9.488 12.5436 9.46L12.5516 9.456Z" fill="#FFD180"/>
<path d="M12.6316 9.34009C12.7676 9.42409 12.7916 9.60409 12.7916 9.74809C12.7916 9.94009 12.7796 10.1321 12.7636 10.3241C12.7476 10.5201 12.7276 10.7161 12.6956 10.9121C12.6796 11.0081 12.6636 11.1041 12.6476 11.2001C12.6396 11.2441 12.6316 11.2881 12.6196 11.3321C12.6156 11.3561 12.6116 11.3801 12.6036 11.4041C12.5756 11.4041 12.5476 11.3961 12.5196 11.3801C12.5116 11.3761 12.4996 11.3721 12.4916 11.3761C12.5036 11.4321 12.5516 11.4721 12.6156 11.4721C12.6796 11.4721 12.7276 11.4321 12.7396 11.3761L12.9996 9.75609C12.9996 9.75609 13.0036 9.72009 13.0036 9.70409C13.0036 9.51609 12.8396 9.35209 12.6316 9.34409V9.34009Z" fill="#F5AD2F"/>
<path d="M12.4876 13.1241L10.5756 16.4401C10.5516 16.4801 10.5516 16.5321 10.5756 16.5721L12.4916 19.8841C12.5436 19.9721 12.6676 19.9721 12.7196 19.8841L14.6316 16.5681C14.6556 16.5281 14.6556 16.4761 14.6316 16.4361L12.7156 13.1241C12.6636 13.0361 12.5396 13.0361 12.4876 13.1241Z" fill="#FFE675" stroke="#F0BA07" stroke-width="0.228" stroke-linecap="round" stroke-linejoin="round"/>
<path d="M12.6037 13.7921L11.8197 16.5041H13.3877L12.6037 13.7921Z" fill="url(#paint0_linear_584_24525)"/>
<path d="M14.1676 16.5041H13.3836L12.6036 13.7921L14.1676 16.5041Z" fill="url(#paint1_linear_584_24525)"/>
<path d="M12.6036 13.7921L11.8196 16.5041H11.0356L12.6036 13.7921Z" fill="url(#paint2_linear_584_24525)"/>
<path d="M12.6037 19.2202L13.3877 16.5042H11.8197L12.6037 19.2202Z" fill="url(#paint3_linear_584_24525)"/>
<path d="M11.0356 16.5042H11.8196L12.6036 19.2202L11.0356 16.5042Z" fill="url(#paint4_linear_584_24525)"/>
<path d="M12.6036 19.2202L13.3836 16.5042H14.1676L12.6036 19.2202Z" fill="url(#paint5_linear_584_24525)"/>
<path opacity="0.6" d="M12.1997 15.1841L11.8197 16.3881C11.8037 16.4441 11.7637 16.4801 11.7157 16.4841L11.0717 16.5081L11.7277 16.5441C11.7677 16.5441 11.8037 16.5761 11.8197 16.6241L11.9837 17.0801L11.8517 16.5961C11.8477 16.5721 11.8637 16.5441 11.8837 16.5441L12.5677 16.5081L11.9037 16.4921C11.8757 16.4921 11.8557 16.4561 11.8637 16.4201L12.1997 15.1881V15.1841Z" fill="white"/>
<path opacity="0.46" d="M11.8596 16.4842C11.8596 16.4842 11.9036 16.4202 11.9036 16.4122C11.9036 16.4122 11.8516 16.4642 11.8476 16.4682C11.8476 16.4402 11.8316 16.2762 11.8316 16.2682C11.8316 16.2762 11.8156 16.4402 11.8156 16.4682C11.8116 16.4642 11.7636 16.4162 11.7596 16.4122C11.7596 16.4162 11.7996 16.4762 11.8036 16.4842C11.7836 16.4842 11.6516 16.5042 11.6436 16.5042C11.6516 16.5042 11.7836 16.5242 11.8036 16.5242C11.7996 16.5282 11.7596 16.5882 11.7596 16.5962C11.7596 16.5962 11.8116 16.5442 11.8156 16.5402C11.8156 16.5682 11.8316 16.7322 11.8316 16.7402C11.8316 16.7322 11.8476 16.5682 11.8476 16.5402C11.8516 16.5442 11.8996 16.5922 11.9036 16.5962C11.9036 16.5922 11.8636 16.5322 11.8596 16.5242C11.8796 16.5242 12.0116 16.5042 12.0196 16.5042C12.0116 16.5042 11.8796 16.4842 11.8596 16.4842Z" fill="white"/>
<path style="mix-blend-mode:color-dodge" opacity="0.54" d="M11.4556 16.5041C11.4556 16.7641 11.6236 16.9721 11.8316 16.9721C12.0396 16.9721 12.2076 16.7601 12.2076 16.5041C12.2076 16.2481 12.0396 16.0361 11.8316 16.0361C11.6236 16.0361 11.4556 16.2481 11.4556 16.5041Z" fill="url(#paint6_radial_584_24525)"/>
<path d="M13.3876 11.3761C13.2836 11.1721 13.0636 11.1601 12.8916 11.2521C12.8356 11.1761 12.7516 11.1241 12.6596 11.1081C12.5436 11.0921 12.3996 11.1681 12.3196 11.2481C12.2316 11.2121 12.1316 11.1681 12.0356 11.1881C11.8316 11.2281 11.7836 11.3801 11.7836 11.5601C11.7836 11.6121 11.7836 11.6641 11.7916 11.7161C11.7916 11.7441 11.8036 11.7881 11.8156 11.8481C11.8756 12.1161 12.0516 12.6561 12.2516 12.8401C12.2756 12.8641 12.2996 12.8801 12.3236 12.8921C12.3676 12.9121 12.4076 12.9241 12.4476 12.9361C12.4476 12.9361 12.4516 12.9361 12.4556 12.9361C12.4556 12.9361 12.4556 12.9361 12.4596 12.9361C12.4596 12.9361 12.4636 12.9361 12.4676 12.9361C12.5636 12.9561 12.6476 12.9441 12.7276 12.9161C12.7276 12.9161 12.7276 12.9161 12.7316 12.9161C12.7316 12.9161 12.7316 12.9161 12.7356 12.9161C12.7556 12.9081 12.7756 12.8961 12.7956 12.8881C12.8356 12.8681 12.8716 12.8401 12.9036 12.8081C12.9916 12.7281 13.0636 12.6201 13.1236 12.5001C13.1756 12.3961 13.2716 12.1161 13.3356 11.8601C13.3636 11.7521 13.3836 11.6521 13.3916 11.5641C13.3996 11.4801 13.3996 11.4121 13.3796 11.3761H13.3876Z" fill="#FFBF4D"/>
<path d="M12.4076 11.74C12.3996 11.616 12.4076 11.484 12.3836 11.36C12.3756 11.328 12.3316 11.332 12.3236 11.36C12.2876 11.488 12.3036 11.636 12.3116 11.768C12.3196 11.904 12.3316 12.044 12.3756 12.172C12.3916 12.212 12.4556 12.208 12.4556 12.16C12.4556 12.02 12.4236 11.876 12.4116 11.736L12.4076 11.74Z" fill="#F5AD2F"/>
<path d="M12.9036 11.4242C12.9036 11.4242 12.8796 11.4122 12.8716 11.4242C12.7996 11.6082 12.8036 11.8322 12.7716 12.0282C12.7436 12.2122 12.6836 12.4042 12.6836 12.5882C12.6836 12.6202 12.7356 12.6402 12.7516 12.6082C12.8356 12.4282 12.8556 12.2162 12.8796 12.0202C12.9036 11.8282 12.9516 11.6122 12.9036 11.4242Z" fill="#F5AD2F"/>
<path d="M12.3316 12.5761C12.2916 12.3681 12.1756 12.1721 12.1236 11.9641C12.0716 11.7561 12.0716 11.5321 12.0116 11.3281C12.0036 11.3001 11.9596 11.2961 11.9516 11.3281C11.9036 11.5321 11.9596 11.7921 12.0076 11.9961C12.0556 12.2001 12.1156 12.4601 12.2556 12.6201C12.2876 12.6561 12.3396 12.6201 12.3316 12.5761Z" fill="#FFE6BA"/>
<path d="M12.6716 11.2441C12.6716 11.2161 12.6356 11.2121 12.6236 11.2321C12.4876 11.4361 12.4596 11.7881 12.5276 12.0201C12.5436 12.0681 12.6116 12.0561 12.6156 12.0081C12.6196 11.8801 12.6076 11.7521 12.6156 11.6201C12.6276 11.4921 12.6636 11.3681 12.6676 11.2401L12.6716 11.2441Z" fill="#FFE6BA"/>
<path d="M13.1076 11.3361C13.0116 11.6121 12.9396 11.8961 12.9196 12.1881C12.9196 12.2201 12.9636 12.2241 12.9756 12.1961C13.0676 11.9161 13.1036 11.6281 13.1116 11.3361H13.1076Z" fill="#FFE6BA"/>
<path d="M12.5636 12.2521C12.5636 12.2161 12.5076 12.2161 12.5036 12.2521C12.4916 12.3921 12.4676 12.5521 12.4996 12.6881C12.5076 12.7201 12.5596 12.7201 12.5676 12.6881C12.5996 12.5521 12.5756 12.3881 12.5636 12.2521Z" fill="#FFE6BA"/>
</g>
<defs>
<linearGradient id="paint0_linear_584_24525" x1="8.80189" y1="15.1114" x2="12.7459" y2="15.194" gradientUnits="userSpaceOnUse">
<stop stop-color="#55F9BA"/>
<stop offset="1" stop-color="#00BD7B"/>
</linearGradient>
<linearGradient id="paint1_linear_584_24525" x1="11.3699" y1="15.2105" x2="13.7019" y2="15.1777" gradientUnits="userSpaceOnUse">
<stop stop-color="#55F9BA"/>
<stop offset="1" stop-color="#00BD7B"/>
</linearGradient>
<linearGradient id="paint2_linear_584_24525" x1="11.0859" y1="15.1826" x2="12.6499" y2="15.1821" gradientUnits="userSpaceOnUse">
<stop stop-color="#55F9BA"/>
<stop offset="1" stop-color="#00BD7B"/>
</linearGradient>
<linearGradient id="paint3_linear_584_24525" x1="16.4988" y1="17.8216" x2="12.5507" y2="17.739" gradientUnits="userSpaceOnUse">
<stop stop-color="#55F9BA"/>
<stop offset="1" stop-color="#00BD7B"/>
</linearGradient>
<linearGradient id="paint4_linear_584_24525" x1="13.9267" y1="17.7225" x2="11.5947" y2="17.7513" gradientUnits="userSpaceOnUse">
<stop stop-color="#55F9BA"/>
<stop offset="1" stop-color="#00BD7B"/>
</linearGradient>
<linearGradient id="paint5_linear_584_24525" x1="14.2147" y1="17.7464" x2="12.6467" y2="17.747" gradientUnits="userSpaceOnUse">
<stop stop-color="#55F9BA"/>
<stop offset="1" stop-color="#00BD7B"/>
</linearGradient>
<radialGradient id="paint6_radial_584_24525" cx="0" cy="0" r="1" gradientUnits="userSpaceOnUse" gradientTransform="translate(16.6151 17.0244) rotate(179.98) scale(0.37664 0.4708)">
<stop stop-color="#83B6FC"/>
<stop offset="0.17" stop-color="#6187BB"/>
<stop offset="0.33" stop-color="#445E82"/>
<stop offset="0.49" stop-color="#2C3D54"/>
<stop offset="0.64" stop-color="#192330"/>
<stop offset="0.78" stop-color="#0B1117"/>
<stop offset="0.9" stop-color="#030507"/>
<stop offset="1" stop-color="#010202"/>
</radialGradient>
<clipPath id="clip0_584_24525">
<rect width="24" height="24" fill="white" transform="translate(0.695557)"/>
</clipPath>
</defs>
</svg>
