<svg width="36" height="63" viewBox="0 0 36 63" fill="none" xmlns="http://www.w3.org/2000/svg">
<g id="Group">
<g id="Group_2">
<g id="Group_3">
<g id="Group_4">
<path id="Vector" d="M1.74444 21.5794C1.77803 11.2056 7.41205 2.26933 18.0671 2.31137C28.7306 2.3534 34.2891 11.3233 34.2555 21.6971C34.2219 30.0197 24.7675 51.4651 19.822 59.5103C18.9152 60.9815 16.7909 60.9731 15.8925 59.4935C11.0057 51.4147 1.70247 29.902 1.73605 21.5794H1.74444Z" fill="#7747F2"/>
</g>
<path id="Vector_2" d="M17.8575 62.0659C16.5392 62.0659 15.3385 61.385 14.6584 60.2501C9.59535 51.8686 0.258497 30.2803 0.292083 21.571C0.308875 15.9554 1.9042 10.8357 4.77578 7.1452C8.00002 3.00912 12.5929 0.831794 18.0758 0.848607C23.5587 0.865421 28.1431 3.07637 31.3337 7.23767C34.1801 10.9534 35.7335 16.0899 35.7167 21.6971C35.6831 30.4064 26.1951 51.9275 21.0733 60.2669C20.3764 61.3934 19.1757 62.0659 17.8575 62.0575V62.0659ZM18.0674 3.76572C7.84049 3.73209 3.23924 12.6852 3.20565 21.5794C3.18046 29.5237 12.4837 51.0112 17.1522 58.7369C17.3705 59.1068 17.7315 59.1488 17.8659 59.1488C18.0002 59.1488 18.3612 59.1068 18.5879 58.7453C23.3151 51.0532 32.7695 29.6414 32.8031 21.6971C32.8367 12.8029 28.2942 3.81616 18.0674 3.77413V3.76572Z" fill="#F39800"/>
</g>
<g id="Vector_3" filter="url(#filter0_d_626_25506)">
<path d="M18 27.3212C21.2368 27.3212 23.8607 24.694 23.8607 21.4533C23.8607 18.2126 21.2368 15.5854 18 15.5854C14.7632 15.5854 12.1393 18.2126 12.1393 21.4533C12.1393 24.694 14.7632 27.3212 18 27.3212Z" fill="#F5F5CB"/>
</g>
</g>
<path id="Vector_4" d="M17.639 36.5349C18.9188 36.5349 19.9564 35.4961 19.9564 34.2147C19.9564 32.9332 18.9188 31.8944 17.639 31.8944C16.3591 31.8944 15.3215 32.9332 15.3215 34.2147C15.3215 35.4961 16.3591 36.5349 17.639 36.5349Z" fill="#F5F5CB"/>
<path id="Vector_5" d="M17.6137 43.42C18.4531 43.42 19.1335 42.7387 19.1335 41.8984C19.1335 41.058 18.4531 40.3768 17.6137 40.3768C16.7744 40.3768 16.094 41.058 16.094 41.8984C16.094 42.7387 16.7744 43.42 17.6137 43.42Z" fill="#F5F5CB"/>
</g>
<defs>
<filter id="filter0_d_626_25506" x="10.1889" y="13.6351" width="15.6221" height="15.6364" filterUnits="userSpaceOnUse" color-interpolation-filters="sRGB">
<feFlood flood-opacity="0" result="BackgroundImageFix"/>
<feColorMatrix in="SourceAlpha" type="matrix" values="0 0 0 0 0 0 0 0 0 0 0 0 0 0 0 0 0 0 127 0" result="hardAlpha"/>
<feOffset/>
<feGaussianBlur stdDeviation="0.975173"/>
<feColorMatrix type="matrix" values="0 0 0 0 0.368627 0 0 0 0 0.0352941 0 0 0 0 0.847059 0 0 0 0.75 0"/>
<feBlend mode="normal" in2="BackgroundImageFix" result="effect1_dropShadow_626_25506"/>
<feBlend mode="normal" in="SourceGraphic" in2="effect1_dropShadow_626_25506" result="shape"/>
</filter>
</defs>
</svg>
