<svg width="120" height="127" viewBox="0 0 120 127" fill="none" xmlns="http://www.w3.org/2000/svg">
<g id="_&#229;&#155;&#190;&#229;&#177;&#130;_1" clip-path="url(#clip0_626_25778)">
<path id="Vector" d="M119.296 68.09C121.938 33.6009 97.4164 3.5998 64.5263 1.0806C31.6363 -1.43861 2.83208 24.4781 0.190406 58.9671C-2.45127 93.4561 22.0699 123.457 54.96 125.976C87.8501 128.496 116.654 102.579 119.296 68.09Z" fill="#DED7FF"/>
<path id="Vector_2" d="M60.2658 120.397C93.2522 120.397 119.993 93.6562 119.993 60.6698C119.993 27.6834 93.2522 0.942627 60.2658 0.942627C27.2794 0.942627 0.538574 27.6834 0.538574 60.6698C0.538574 93.6562 27.2794 120.397 60.2658 120.397Z" fill="#7747F2"/>
<g id="Group">
<path id="Vector_3" d="M113.535 68.2683C119.2 38.8489 99.9433 10.4071 70.524 4.74185C41.1046 -0.923433 12.6628 18.3331 6.99752 47.7525C1.33224 77.1719 20.5888 105.614 50.0082 111.279C79.4275 116.944 107.869 97.6877 113.535 68.2683Z" fill="#C0171B"/>
<path id="Vector_4" d="M60.2654 4.6415C74.5197 4.6415 87.9222 10.1919 98.0023 20.2719C108.082 30.352 113.633 43.7545 113.633 58.0088C113.633 72.2631 108.082 85.6657 98.0023 95.7457C87.9222 105.826 74.5197 111.376 60.2654 111.376C46.0111 111.376 32.6086 105.826 22.5285 95.7457C12.4485 85.6657 6.89809 72.2666 6.89809 58.0088C6.89809 43.751 12.4485 30.352 22.5285 20.2719C32.6086 10.1919 46.0111 4.6415 60.2654 4.6415ZM60.2654 2.88171C29.8211 2.88171 5.13831 27.5645 5.13831 58.0088C5.13831 88.4532 29.8211 113.136 60.2654 113.136C90.7097 113.136 115.393 88.4532 115.393 58.0088C115.393 27.5645 90.7133 2.88171 60.2654 2.88171Z" fill="white"/>
</g>
<g id="Group_2">
<path id="Vector_5" d="M60.3363 111.739C57.7459 111.739 55.1238 111.549 52.5439 111.172C38.3425 109.11 25.7952 101.638 17.2144 90.1392C8.63372 78.6408 5.04375 64.4851 7.10622 50.2836C8.97512 37.4301 15.423 25.7029 25.2672 17.2559C35.0165 8.88984 47.423 4.28271 60.199 4.28271C62.7894 4.28271 65.4115 4.47277 67.9914 4.84937C82.1928 6.91184 94.7401 14.3839 103.321 25.8824C111.902 37.3808 115.492 51.5365 113.429 65.738C111.56 78.5915 105.112 90.3187 95.2681 98.7657C85.5188 107.132 73.1123 111.739 60.3363 111.739Z" fill="#C0171B"/>
<path id="Vector_6" d="M60.2024 2.87488V5.69054C62.7224 5.69054 65.2741 5.87708 67.7906 6.24311C81.619 8.25279 93.8355 15.5278 102.194 26.7235C110.553 37.9193 114.048 51.7055 112.039 65.5339C110.219 78.0495 103.94 89.4705 94.3528 97.6958C84.857 105.844 72.7779 110.331 60.3362 110.331C57.8161 110.331 55.2609 110.144 52.7444 109.778C38.916 107.769 26.6996 100.494 18.3406 89.2981C9.9851 78.0988 6.48665 64.3161 8.49632 50.4877C10.3159 37.9721 16.5949 26.5511 26.1822 18.3258C35.678 10.178 47.7572 5.69054 60.1989 5.69054V2.87488M60.1989 2.87488C33.2636 2.87488 9.70002 22.6408 5.71234 50.0829C1.33399 80.214 22.2121 108.188 52.3397 112.566C55.0286 112.957 57.6965 113.147 60.3362 113.147C87.2715 113.147 110.835 93.3808 114.823 65.9386C119.201 35.8075 98.3229 7.83396 68.1954 3.45561C65.5064 3.06493 62.8386 2.87488 60.1989 2.87488Z" fill="white"/>
</g>
<path id="Vector_7" d="M61.6912 112.397C90.0611 112.397 113.059 89.3985 113.059 61.0286C113.059 32.6587 90.0611 9.6604 61.6912 9.6604C33.3213 9.6604 10.323 32.6587 10.323 61.0286C10.323 89.3985 33.3213 112.397 61.6912 112.397Z" fill="#C41A24"/>
<path id="Vector_8" d="M53.459 93.9192C77.4942 93.9192 96.9786 74.4349 96.9786 50.3997C96.9786 26.3645 77.4942 6.88013 53.459 6.88013C29.4238 6.88013 9.93945 26.3645 9.93945 50.3997C9.93945 74.4349 29.4238 93.9192 53.459 93.9192Z" fill="#CF2C31"/>
<path id="Vector_9" d="M39.8943 22.2712C39.8943 24.8722 34.0342 31.1054 31.4368 31.1054C28.8393 31.1054 26.7311 28.9971 26.7311 26.3997C26.7311 23.8022 28.8393 21.694 31.4368 21.694C34.0342 21.694 39.8943 19.6738 39.8943 22.2747V22.2712Z" fill="white"/>
<g id="Group_3">
<g id="Group_4">
<path id="Vector_10" d="M44.03 59.8145C43.0339 59.2127 41.9745 58.7692 40.8483 58.4771C39.722 58.1885 38.374 57.9843 36.7973 57.8717C36.667 57.8541 36.5403 57.84 36.4171 57.8295C36.294 57.8189 36.1778 57.8154 36.0652 57.8154C35.671 57.8154 35.4739 57.9738 35.4739 58.2941C35.4739 58.4806 35.583 58.6073 35.7977 58.6742C36.0124 58.7411 36.308 58.7903 36.6846 58.829C37.4167 58.9241 38.184 59.0297 38.9935 59.1528C39.7995 59.276 40.5878 59.459 41.3551 59.7019C42.1224 59.9447 42.8228 60.3037 43.4528 60.7718C44.0828 61.24 44.579 61.8594 44.9451 62.6302C45.3111 63.401 45.4941 64.3653 45.4941 65.5303C45.4941 66.8255 45.195 67.9095 44.5931 68.7824C43.9913 69.6553 43.1818 70.3486 42.1611 70.866C41.1369 71.3834 39.9754 71.7529 38.6697 71.9782C37.3674 72.2034 36.0194 72.3161 34.6327 72.3161C33.0207 72.3337 31.4193 72.2457 29.8355 72.0486C28.2517 71.8515 26.8474 71.6016 25.6296 71.3024L26.418 61.3983C26.8474 61.7186 27.3648 62.06 27.9666 62.426C28.5685 62.7921 29.3815 63.1264 30.4163 63.4256C31.4475 63.7248 32.8096 63.9606 34.4955 64.1295C34.5905 64.1471 34.6785 64.1577 34.7629 64.1577H35.0023C35.2064 64.1577 35.3613 64.1295 35.4669 64.0732C35.5689 64.0169 35.6217 63.8937 35.6217 63.7072C35.6217 63.4995 35.5337 63.3693 35.3542 63.313C35.1747 63.2567 34.9002 63.2004 34.5236 63.144C33.51 63.0314 32.5034 62.873 31.4968 62.6654C30.4902 62.4577 29.5786 62.141 28.7515 61.7081C27.9244 61.2751 27.2662 60.6768 26.77 59.906C26.2737 59.1388 26.0238 58.1322 26.0238 56.8968C26.0238 55.1335 26.4427 53.7327 27.2768 52.6909C28.1109 51.6491 29.2407 50.8994 30.6697 50.4384C32.0951 49.9773 33.6895 49.7485 35.4528 49.7485C36.9345 49.7485 38.4831 49.8858 40.0951 50.1568C41.7071 50.4278 43.3049 50.8009 44.8782 51.269L44.0335 59.8251L44.03 59.8145Z" fill="#7747F2"/>
<path id="Vector_11" d="M55.3138 71.862H46.448V50.192H59.5901C60.7903 50.192 61.8919 50.4208 62.895 50.8819C63.8981 51.3429 64.7005 52.1383 65.2988 53.2752C65.9007 54.412 66.1999 55.9817 66.1999 57.9879C66.1999 59.994 65.8901 61.5215 65.2707 62.6724C64.6512 63.8233 63.8382 64.6504 62.8351 65.1502C61.8321 65.6465 60.748 65.8964 59.5866 65.8964H55.3068V71.862H55.3138ZM57.51 57.3121H54.8105V58.8326H57.5945C57.7423 58.8326 57.9077 58.7868 58.0872 58.6918C58.2667 58.5968 58.3547 58.4032 58.3547 58.1005C58.3547 57.7802 58.2527 57.569 58.045 57.467C57.8373 57.3649 57.6614 57.3121 57.51 57.3121Z" fill="#7747F2"/>
<path id="Vector_12" d="M76.139 71.8867L67.2732 71.8585V50.1885H76.139V71.8867Z" fill="#7747F2"/>
<path id="Vector_13" d="M97.7527 46.8132H89.3937C89.0453 46.8132 88.7039 46.866 88.3801 46.968C88.0563 46.866 87.7184 46.8132 87.3665 46.8132H77.4905C77.2582 46.8132 77.033 46.8378 76.8148 46.88C76.5966 46.8343 76.3713 46.8132 76.139 46.8132H67.2732C66.2349 46.8132 65.3163 47.2918 64.6969 48.0309C64.5631 47.9606 64.4435 47.8726 64.3027 47.8092C62.8597 47.1475 61.2723 46.8132 59.59 46.8132H46.4479C45.6208 46.8132 44.8746 47.1229 44.2904 47.6121C43.0832 47.3024 41.8689 47.0208 40.6511 46.8167C38.8597 46.514 37.1069 46.3627 35.4457 46.3627C33.3375 46.3627 31.3806 46.6513 29.6243 47.2144C27.5653 47.8796 25.8865 49.0059 24.6335 50.5686C23.3102 52.2192 22.6415 54.3451 22.6415 56.8862C22.6415 58.1497 22.835 59.2936 23.2152 60.3072C23.1272 60.5677 23.0708 60.8422 23.0497 61.1238L22.2613 71.0279C22.1311 72.6785 23.2116 74.1779 24.8201 74.5756C26.1575 74.9064 27.7061 75.181 29.4166 75.3921C30.9934 75.5892 32.6089 75.6878 34.2103 75.6878H34.6291C36.2024 75.6878 37.7545 75.554 39.2433 75.2971C40.8729 75.0155 42.3652 74.5369 43.678 73.8717C43.6956 73.8611 43.7096 73.8506 43.7272 73.8435C44.3432 74.6812 45.3251 75.2337 46.4479 75.2337H55.3137C57.1791 75.2337 58.689 73.7203 58.689 71.8585V69.2681H59.59C61.1069 69.2681 62.5499 68.9513 63.8944 68.36V71.8585C63.8944 73.7203 65.4008 75.2302 67.2591 75.2337C67.2591 75.2337 76.132 75.2619 76.1355 75.2619C76.3889 75.2619 76.6353 75.2267 76.8746 75.1739C77.0717 75.2091 77.2758 75.2337 77.4835 75.2337H85.8425C86.3282 75.2337 86.8033 75.1282 87.2362 74.9346C87.6621 75.1282 88.1372 75.2337 88.63 75.2337H97.7492C99.6146 75.2337 101.124 73.7203 101.124 71.8585V50.1884C101.124 48.3231 99.6146 46.8132 97.7492 46.8132H97.7527Z" fill="#7747F2"/>
<path id="Vector_14" d="M85.8497 71.862H77.4907V50.192H87.3667L89.2531 58.0723H89.5066L89.3939 50.192H97.7529V71.862H88.6337L85.9588 61.7327H85.7054L85.8462 71.862H85.8497Z" fill="#7747F2"/>
</g>
<g id="Group_5">
<path id="Vector_15" d="M44.03 59.8145C43.0339 59.2127 41.9745 58.7692 40.8483 58.4771C39.722 58.1885 38.374 57.9843 36.7973 57.8717C36.667 57.8541 36.5403 57.84 36.4171 57.8295C36.294 57.8189 36.1778 57.8154 36.0652 57.8154C35.671 57.8154 35.4739 57.9738 35.4739 58.2941C35.4739 58.4806 35.583 58.6073 35.7977 58.6742C36.0124 58.7411 36.308 58.7903 36.6846 58.829C37.4167 58.9241 38.184 59.0297 38.9935 59.1528C39.7995 59.276 40.5878 59.459 41.3551 59.7019C42.1224 59.9447 42.8228 60.3037 43.4528 60.7718C44.0828 61.24 44.579 61.8594 44.9451 62.6302C45.3111 63.401 45.4941 64.3653 45.4941 65.5303C45.4941 66.8255 45.195 67.9095 44.5931 68.7824C43.9913 69.6553 43.1818 70.3486 42.1611 70.866C41.1369 71.3834 39.9754 71.7529 38.6697 71.9782C37.3674 72.2034 36.0194 72.3161 34.6327 72.3161C33.0207 72.3337 31.4193 72.2457 29.8355 72.0486C28.2517 71.8515 26.8474 71.6016 25.6296 71.3024L26.418 61.3983C26.8474 61.7186 27.3648 62.06 27.9666 62.426C28.5685 62.7921 29.3815 63.1264 30.4163 63.4256C31.4475 63.7248 32.8096 63.9606 34.4955 64.1295C34.5905 64.1471 34.6785 64.1577 34.7629 64.1577H35.0023C35.2064 64.1577 35.3613 64.1295 35.4669 64.0732C35.5689 64.0169 35.6217 63.8937 35.6217 63.7072C35.6217 63.4995 35.5337 63.3693 35.3542 63.313C35.1747 63.2567 34.9002 63.2004 34.5236 63.144C33.51 63.0314 32.5034 62.873 31.4968 62.6654C30.4902 62.4577 29.5786 62.141 28.7515 61.7081C27.9244 61.2751 27.2662 60.6768 26.77 59.906C26.2737 59.1388 26.0238 58.1322 26.0238 56.8968C26.0238 55.1335 26.4427 53.7327 27.2768 52.6909C28.1109 51.6491 29.2407 50.8994 30.6697 50.4384C32.0951 49.9773 33.6895 49.7485 35.4528 49.7485C36.9345 49.7485 38.4831 49.8858 40.0951 50.1568C41.7071 50.4278 43.3049 50.8009 44.8782 51.269L44.0335 59.8251L44.03 59.8145Z" fill="white"/>
<path id="Vector_16" d="M55.3136 71.862H46.4478V50.192H59.5898C60.79 50.192 61.8917 50.4208 62.8947 50.8819C63.8978 51.3429 64.7003 52.1383 65.2986 53.2752C65.9004 54.412 66.1996 55.9817 66.1996 57.9879C66.1996 59.994 65.8899 61.5215 65.2704 62.6724C64.651 63.8233 63.838 64.6504 62.8349 65.1502C61.8318 65.6465 60.7478 65.8964 59.5863 65.8964H55.3065V71.862H55.3136ZM57.5098 57.3121H54.8103V58.8326H57.5943C57.7421 58.8326 57.9075 58.7868 58.087 58.6918C58.2665 58.5968 58.3545 58.4032 58.3545 58.1005C58.3545 57.7802 58.2524 57.569 58.0448 57.467C57.8371 57.3649 57.6611 57.3121 57.5098 57.3121Z" fill="white"/>
<path id="Vector_17" d="M76.139 71.8867L67.2732 71.8585V50.1885H76.139V71.8867Z" fill="white"/>
<path id="Vector_18" d="M85.8497 71.862H77.4907V50.192H87.3667L89.2531 58.0723H89.5066L89.3939 50.192H97.7529V71.862H88.6337L85.9588 61.7327H85.7054L85.8462 71.862H85.8497Z" fill="white"/>
</g>
</g>
</g>
<defs>
<clipPath id="clip0_626_25778">
<rect width="120" height="125.237" fill="white" transform="translate(0 0.914429)"/>
</clipPath>
</defs>
</svg>
