<svg width="394" height="205" viewBox="0 0 394 205" fill="none" xmlns="http://www.w3.org/2000/svg">
<g clip-path="url(#clip0_1114_26935)">
<path d="M242.906 89.8439L300.114 194.007C300.337 194.431 300.458 194.902 300.376 195.372C300.181 196.452 299.557 198.57 297.669 200.627C295.769 202.682 293.813 203.351 292.827 203.564C292.396 203.654 291.963 203.565 291.567 203.371L185.895 151.76L242.919 89.8336L242.906 89.8439Z" fill="url(#paint0_linear_1114_26935)"/>
<path d="M242.906 89.8439L300.114 194.007C300.337 194.431 300.458 194.902 300.376 195.372C300.181 196.452 299.557 198.57 297.669 200.627C295.769 202.682 293.813 203.351 292.827 203.564C292.396 203.654 291.963 203.565 291.567 203.371L185.895 151.76L242.919 89.8336L242.906 89.8439Z" fill="url(#paint1_linear_1114_26935)"/>
<path d="M224.142 129.786C238.783 113.884 246.318 92.993 242.906 89.8439C239.493 86.6947 224.894 89.8328 204.645 111.829C184.397 133.824 182.965 149.079 185.882 151.771C188.811 154.463 209.501 145.688 224.142 129.786Z" fill="url(#paint2_linear_1114_26935)"/>
<path d="M236.672 112.337C235.589 114.29 234.393 116.277 233.076 118.273C230.513 122.19 227.514 126.125 224.142 129.785C223.587 130.388 223.02 130.99 222.433 131.565C220.314 133.737 218.095 135.753 215.822 137.618C202.663 148.46 188.283 153.977 185.882 151.77C183.782 149.841 183.923 141.482 191.597 128.816C192.668 127.054 193.883 125.201 195.275 123.274C197.807 119.713 200.911 115.888 204.645 111.828C210.1 105.895 215.156 101.341 219.674 97.919C221.623 96.4337 223.486 95.1655 225.229 94.0746C234.487 88.351 240.806 87.9139 242.906 89.8435C245.134 91.8972 242.703 101.495 236.672 112.337Z" fill="url(#paint3_linear_1114_26935)"/>
<path d="M235.367 110.77C234.284 112.724 233.073 114.733 231.74 116.763C229.148 120.713 226.106 124.714 222.678 128.439C221.749 129.44 220.81 130.427 219.84 131.374C217.707 133.473 215.505 135.442 213.277 137.241C201.11 147.151 188.56 152.428 186.536 150.568C184.727 148.902 185.202 141.329 192.566 129.513C193.647 127.776 194.882 125.95 196.286 124.024C198.821 120.536 201.896 116.754 205.613 112.729C210.941 106.948 215.852 102.496 220.232 99.1287C222.182 97.6316 224.034 96.3501 225.753 95.2681C234.442 89.7737 240.205 89.1714 241.755 90.6006C243.381 92.0991 240.974 100.728 235.367 110.77Z" fill="url(#paint4_linear_1114_26935)"/>
<path fill-rule="evenodd" clip-rule="evenodd" d="M223.295 63.3523C220.204 72.7599 221.029 81.7433 223.585 89.6461C224.079 91.1717 224.628 92.6441 225.229 94.0752C225.395 94.4798 225.574 94.8741 225.753 95.2684C228.221 100.796 231.337 105.552 234.124 109.188C234.547 109.744 234.961 110.276 235.367 110.771C234.284 112.724 233.073 114.733 231.74 116.763C230.849 115.728 229.869 114.538 228.858 113.212C226.05 109.55 222.866 104.762 220.232 99.1291C220.041 98.7333 219.852 98.3257 219.674 97.9196C218.793 95.9378 217.986 93.8451 217.283 91.6814C214.397 82.7655 213.384 72.3066 217 61.2843C220.606 50.2605 228.739 39.0087 243.529 28.2738L247.422 33.631C233.489 43.7525 226.377 53.9314 223.295 63.3523Z" fill="url(#paint5_linear_1114_26935)"/>
<path fill-rule="evenodd" clip-rule="evenodd" d="M193.461 82.8218C196.176 82.7998 198.499 81.7811 200.399 79.7256C201.897 78.1001 202.511 76.6404 202.673 75.6285C202.838 74.593 202.54 74.1958 202.486 74.1412C202.466 74.1146 202.433 74.0865 202.352 74.0644C202.259 74.0408 202.036 74.001 201.628 74.0943C200.788 74.2896 199.33 75.0082 197.471 77.0208C195.611 79.0453 194.303 80.9706 193.462 82.8099L193.461 82.8218ZM192.233 89.4013C196.972 89.7035 201.584 88.2258 205.277 84.2093C209.453 79.6772 210.932 73.4889 207.345 69.622C205.504 67.6406 202.833 67.0199 200.166 67.6238C197.584 68.2143 195.021 69.9112 192.607 72.5267C190.013 75.3359 188.101 78.254 186.922 81.2634C182.498 79.3083 177.791 75.5659 173.659 70.587C164.165 59.1319 158.963 42.799 165.369 30L159.439 27.0293C151.34 43.2057 158.251 62.3916 168.547 74.8227C173.472 80.7643 179.465 85.543 185.546 87.8844C185.454 91.6053 186.521 95.1823 188.518 98.5152C193.248 106.401 203.269 113.049 216.595 118.213L218.997 112.032C206.095 107.029 197.778 101.061 194.2 95.0947C193.047 93.1749 192.395 91.2816 192.222 89.3998L192.233 89.4013Z" fill="url(#paint6_linear_1114_26935)"/>
<path fill-rule="evenodd" clip-rule="evenodd" d="M164.131 133.317C165.237 132.914 166.557 132.431 167.489 132.271L168.595 138.805C168.595 138.805 168.584 138.803 168.545 138.823C168.508 138.83 168.446 138.846 168.371 138.873C168.222 138.914 168.022 138.974 167.783 139.064C167.383 139.194 166.93 139.365 166.389 139.562C166.252 139.605 166.113 139.66 165.974 139.715C164.567 140.223 162.771 140.864 160.864 141.334C158.981 141.808 156.811 142.174 154.666 142.05C152.499 141.913 150.156 141.261 148.228 139.497C147.01 138.385 146.42 137.051 146.09 135.942C145.836 135.094 145.678 134.151 145.58 133.49C145.561 133.356 145.54 133.233 145.518 133.123C145.393 132.387 145.291 132.05 145.217 131.873C145.134 131.863 144.917 131.872 144.51 131.965C143.904 132.106 143.275 132.339 142.381 132.672C142.206 132.734 142.029 132.808 141.828 132.879C139.791 133.621 136.371 134.876 132.803 133.459C128.585 131.77 127.397 127.818 126.702 125.499C126.685 125.437 126.668 125.387 126.65 125.336C125.795 122.47 125.385 121.519 124.418 121.002C123.763 120.669 122.648 120.374 121.057 120.236C119.525 120.105 117.831 120.122 116.197 120.23C114.575 120.34 113.078 120.514 111.991 120.667C111.453 120.744 111.013 120.809 110.717 120.868C110.57 120.898 110.46 120.908 110.387 120.923C110.351 120.918 110.325 120.939 110.301 120.936L110.289 120.935C110.289 120.935 110.084 119.849 109.675 117.678C109.265 115.507 109.06 114.421 109.06 114.421L109.072 114.423L109.109 114.415C109.133 114.418 109.171 114.399 109.22 114.393C109.317 114.381 109.453 114.35 109.624 114.324C109.967 114.27 110.457 114.187 111.067 114.107C112.265 113.932 113.934 113.732 115.773 113.613C117.6 113.493 119.668 113.462 121.651 113.637C123.574 113.805 125.708 114.202 127.489 115.132C131.14 117.039 132.233 120.787 132.881 123.004C132.922 123.153 132.964 123.303 133.007 123.44C133.811 126.132 134.277 126.922 135.261 127.309C136.187 127.676 137.316 127.481 139.541 126.666C139.68 126.611 139.819 126.556 139.981 126.505C140.862 126.182 141.957 125.767 142.996 125.524C144.257 125.225 145.948 125.04 147.677 125.711C151.2 127.098 151.788 130.471 152.053 132.004C152.096 132.238 152.132 132.434 152.157 132.617C152.261 133.23 152.329 133.647 152.447 134.046C152.583 134.495 152.691 134.592 152.701 134.605C153.186 135.05 153.914 135.368 155.071 135.428C156.262 135.505 157.68 135.297 159.252 134.905C160.802 134.51 162.332 133.981 163.726 133.482C163.865 133.427 164.004 133.373 164.154 133.319L164.131 133.317Z" fill="url(#paint7_linear_1114_26935)"/>
<path fill-rule="evenodd" clip-rule="evenodd" d="M219.84 131.374C217.707 133.473 215.505 135.443 213.277 137.241C206.031 136.063 198.637 133.762 192.566 129.513C192.234 129.292 191.914 129.06 191.597 128.817C191.585 128.815 191.586 128.803 191.575 128.802C187.822 125.982 185.975 121.924 184.597 118.92C184.371 118.424 184.143 117.94 183.933 117.506C183.132 115.846 182.426 114.666 181.562 113.802C180.771 113.02 179.756 112.401 178.121 112.137C178.109 112.136 177.707 112.086 176.566 112.868C175.738 113.449 174.915 114.174 173.917 115.058C173.554 115.373 173.176 115.71 172.758 116.078C171.345 117.306 169.557 118.751 167.526 119.639C165.358 120.569 162.773 120.895 160.068 119.682C158.51 118.996 157.263 117.928 156.47 116.486C155.696 115.093 155.497 113.604 155.517 112.287C155.563 109.892 156.422 107.239 157.102 105.151C157.121 105.094 157.141 105.024 157.162 104.955C157.939 102.568 158.516 100.731 158.594 99.2408C158.63 98.5614 158.536 98.1655 158.444 97.9381C158.369 97.7727 158.25 97.566 157.882 97.3401C157.08 96.8442 155.878 96.6704 154.082 97.1188C152.286 97.5672 150.279 98.5533 148.3 99.795C146.358 101.029 144.591 102.405 143.317 103.483C142.674 104.015 142.16 104.479 141.809 104.795C141.645 104.955 141.511 105.07 141.428 105.156C141.387 105.198 141.347 105.229 141.332 105.252L141.309 105.249L141.306 105.272C141.306 105.272 141.307 105.26 138.997 102.897L136.676 100.531L136.69 100.509L136.73 100.478C136.73 100.478 136.812 100.404 136.866 100.351C136.975 100.245 137.138 100.097 137.342 99.9063C137.748 99.5368 138.328 99.0211 139.04 98.4137C140.473 97.2121 142.483 95.6263 144.773 94.1954C147.027 92.7719 149.72 91.3793 152.47 90.6897C155.232 90.0016 158.471 89.913 161.369 91.7019C162.851 92.6186 163.909 93.8544 164.539 95.3489C165.153 96.7815 165.282 98.2496 165.211 99.585C165.088 102.018 164.233 104.647 163.553 106.735C163.541 106.829 163.495 106.908 163.472 107.001C162.691 109.412 162.166 111.123 162.149 112.416C162.138 112.991 162.229 113.218 162.269 113.283C162.29 113.31 162.357 113.45 162.766 113.633C163.425 113.931 164.038 113.924 164.9 113.551C165.915 113.113 167.028 112.268 168.415 111.061C168.695 110.832 168.98 110.567 169.29 110.294C170.368 109.348 171.608 108.254 172.792 107.418C174.328 106.361 176.564 105.175 179.188 105.598C182.186 106.091 184.466 107.347 186.239 109.104C187.925 110.79 189.028 112.824 189.896 114.624C190.214 115.252 190.486 115.862 190.763 116.436C192.108 119.316 193.159 121.571 195.275 123.274C195.361 123.357 195.46 123.429 195.559 123.502C195.8 123.688 196.042 123.862 196.286 124.024C202.705 128.568 211.363 130.642 219.84 131.374Z" fill="url(#paint8_linear_1114_26935)"/>
<path d="M18.0435 51.0386C18.811 49.7901 20.4431 49.4053 21.6916 50.1729L28.4689 54.3411C29.7174 55.1087 30.1022 56.7407 29.3347 57.9892L25.1679 64.7547C24.4003 66.0032 22.7683 66.388 21.5198 65.6205L14.7543 61.4537C13.5058 60.6861 13.121 59.0541 13.8885 57.8056L18.0568 51.0283L18.0435 51.0386Z" fill="url(#paint9_linear_1114_26935)"/>
<path d="M80.1166 36.6399C81.5389 36.301 82.9662 37.1748 83.3036 38.6089L85.1358 46.3496C85.4747 47.7719 84.5891 49.1977 83.1668 49.5366L75.4261 51.3687C74.0038 51.7076 72.578 50.822 72.2391 49.3997L70.407 41.6591C70.0681 40.2368 70.9419 38.8095 72.376 38.4721L80.1166 36.6399Z" fill="url(#paint10_linear_1114_26935)"/>
<path d="M93.8578 111.124C94.811 112.239 94.6744 113.914 93.5596 114.867L90.0293 117.872C88.9145 118.825 87.2394 118.688 86.2876 117.562L78.9927 108.973C78.0395 107.858 78.1761 106.183 79.2894 105.241L82.8198 102.237C83.9346 101.283 85.6097 101.42 86.5511 102.533L93.846 111.122L93.8578 111.124Z" fill="url(#paint11_linear_1114_26935)"/>
<path d="M103.34 75.7506C102.209 74.7098 102.634 72.8425 104.094 72.3884L113.959 69.3086C115.419 68.8545 116.83 70.1463 116.488 71.6398L114.224 81.7265C113.894 83.2214 112.06 83.7851 110.939 82.7575L103.338 75.7624L103.34 75.7506Z" fill="url(#paint12_linear_1114_26935)"/>
</g>
<defs>
<linearGradient id="paint0_linear_1114_26935" x1="276.649" y1="106.635" x2="226.551" y2="207.287" gradientUnits="userSpaceOnUse">
<stop stop-color="#F9C846"/>
<stop offset="1" stop-color="#F96E46"/>
</linearGradient>
<linearGradient id="paint1_linear_1114_26935" x1="276.649" y1="106.635" x2="226.551" y2="207.287" gradientUnits="userSpaceOnUse">
<stop stop-color="#F9C846"/>
<stop offset="1" stop-color="#F96E46" stop-opacity="0"/>
</linearGradient>
<linearGradient id="paint2_linear_1114_26935" x1="222.042" y1="70.7204" x2="208.653" y2="155.195" gradientUnits="userSpaceOnUse">
<stop stop-color="#FFEECA"/>
<stop offset="1" stop-color="#FF8576"/>
</linearGradient>
<linearGradient id="paint3_linear_1114_26935" x1="193.919" y1="168.66" x2="234.569" y2="71.4042" gradientUnits="userSpaceOnUse">
<stop stop-color="#F9C846"/>
<stop offset="1" stop-color="#F96E46"/>
</linearGradient>
<linearGradient id="paint4_linear_1114_26935" x1="179.931" y1="138.56" x2="316.777" y2="64.4456" gradientUnits="userSpaceOnUse">
<stop stop-color="#F96E46"/>
<stop offset="1" stop-color="#9B0019"/>
</linearGradient>
<linearGradient id="paint5_linear_1114_26935" x1="254.101" y1="103.923" x2="221.569" y2="43.876" gradientUnits="userSpaceOnUse">
<stop stop-color="#7FC764"/>
<stop offset="1" stop-color="#00B76B"/>
</linearGradient>
<linearGradient id="paint6_linear_1114_26935" x1="216.207" y1="42.0198" x2="169.065" y2="93.2124" gradientUnits="userSpaceOnUse">
<stop stop-color="#00B2FF"/>
<stop offset="1" stop-color="#00A5FF"/>
</linearGradient>
<linearGradient id="paint7_linear_1114_26935" x1="141.443" y1="121.61" x2="136.217" y2="131.58" gradientUnits="userSpaceOnUse">
<stop stop-color="#FF5D51"/>
<stop offset="1" stop-color="#F54772"/>
</linearGradient>
<linearGradient id="paint8_linear_1114_26935" x1="138.33" y1="112.69" x2="215.506" y2="114.429" gradientUnits="userSpaceOnUse">
<stop stop-color="#AE74FF"/>
<stop offset="0.56" stop-color="#804BD1"/>
<stop offset="1" stop-color="#005BD4"/>
</linearGradient>
<linearGradient id="paint9_linear_1114_26935" x1="25.0691" y1="52.2496" x2="18.1186" y2="63.5408" gradientUnits="userSpaceOnUse">
<stop stop-color="#7FC764"/>
<stop offset="1" stop-color="#00B76B"/>
</linearGradient>
<linearGradient id="paint10_linear_1114_26935" x1="84.2271" y1="42.4682" x2="71.3289" y2="45.5301" gradientUnits="userSpaceOnUse">
<stop stop-color="#FF9677"/>
<stop offset="1" stop-color="#FF8650"/>
</linearGradient>
<linearGradient id="paint11_linear_1114_26935" x1="100.781" y1="126.939" x2="77.1656" y2="99.1684" gradientUnits="userSpaceOnUse">
<stop stop-color="#00B2FF"/>
<stop offset="1" stop-color="#00A5FF"/>
</linearGradient>
<linearGradient id="paint12_linear_1114_26935" x1="100.81" y1="73.4194" x2="120.213" y2="77.7681" gradientUnits="userSpaceOnUse">
<stop stop-color="#FF6978"/>
<stop offset="1" stop-color="#FB2FE5"/>
</linearGradient>
<clipPath id="clip0_1114_26935">
<rect width="301.554" height="167.961" fill="white" transform="translate(20.7577 0.529297) rotate(7.0991)"/>
</clipPath>
</defs>
</svg>
