<svg width="15" height="21" viewBox="0 0 15 21" fill="none" xmlns="http://www.w3.org/2000/svg">
<path d="M0.278328 10.668C0.278328 7.45733 0.800995 4.956 1.84633 3.164C2.89166 1.35333 4.72099 0.447999 7.33433 0.447999C9.92899 0.447999 11.749 1.35333 12.7943 3.164C13.8397 4.956 14.3623 7.45733 14.3623 10.668C14.3623 13.9347 13.8397 16.4733 12.7943 18.284C11.749 20.0947 9.92899 21 7.33433 21C4.72099 21 2.89166 20.0947 1.84633 18.284C0.800995 16.4733 0.278328 13.9347 0.278328 10.668ZM11.8423 10.668C11.8423 9.044 11.7303 7.672 11.5063 6.552C11.301 5.41333 10.8623 4.49867 10.1903 3.808C9.53699 3.11733 8.58499 2.772 7.33433 2.772C6.06499 2.772 5.09433 3.11733 4.42233 3.808C3.76899 4.49867 3.33033 5.41333 3.10633 6.552C2.90099 7.672 2.79833 9.044 2.79833 10.668C2.79833 12.348 2.90099 13.7573 3.10633 14.896C3.33033 16.0347 3.76899 16.9493 4.42233 17.64C5.09433 18.3307 6.06499 18.676 7.33433 18.676C8.58499 18.676 9.53699 18.3307 10.1903 17.64C10.8623 16.9493 11.301 16.0347 11.5063 14.896C11.7303 13.7573 11.8423 12.348 11.8423 10.668Z" fill="black"/>
</svg>
