<svg width="15" height="21" viewBox="0 0 15 21" fill="none" xmlns="http://www.w3.org/2000/svg">
<path d="M0.278481 10.668C0.278481 7.45733 0.801147 4.956 1.84648 3.164C2.89181 1.35333 4.72115 0.447999 7.33448 0.447999C9.92915 0.447999 11.7491 1.35333 12.7945 3.164C13.8398 4.956 14.3625 7.45733 14.3625 10.668C14.3625 13.9347 13.8398 16.4733 12.7945 18.284C11.7491 20.0947 9.92915 21 7.33448 21C4.72115 21 2.89181 20.0947 1.84648 18.284C0.801147 16.4733 0.278481 13.9347 0.278481 10.668ZM11.8425 10.668C11.8425 9.044 11.7305 7.672 11.5065 6.552C11.3011 5.41333 10.8625 4.49867 10.1905 3.808C9.53715 3.11733 8.58515 2.772 7.33448 2.772C6.06515 2.772 5.09448 3.11733 4.42248 3.808C3.76915 4.49867 3.33048 5.41333 3.10648 6.552C2.90115 7.672 2.79848 9.044 2.79848 10.668C2.79848 12.348 2.90115 13.7573 3.10648 14.896C3.33048 16.0347 3.76915 16.9493 4.42248 17.64C5.09448 18.3307 6.06515 18.676 7.33448 18.676C8.58515 18.676 9.53715 18.3307 10.1905 17.64C10.8625 16.9493 11.3011 16.0347 11.5065 14.896C11.7305 13.7573 11.8425 12.348 11.8425 10.668Z" fill="white"/>
</svg>
