<svg width="25" height="25" viewBox="0 0 25 25" fill="none" xmlns="http://www.w3.org/2000/svg">
<path d="M11.232 1.29539C11.9331 0.597092 13.0669 0.597093 13.768 1.29539V1.29539C14.2811 1.80639 15.0507 1.95948 15.7203 1.68373V1.68373C16.6353 1.30689 17.6827 1.74076 18.0633 2.65422V2.65422C18.3417 3.32266 18.9942 3.75863 19.7183 3.7601V3.7601C20.7079 3.7621 21.5096 4.56379 21.5116 5.55333V5.55333C21.513 6.27745 21.949 6.92994 22.6174 7.2084V7.2084C23.5309 7.58893 23.9648 8.63639 23.5879 9.55137V9.55137C23.3122 10.2209 23.4653 10.9906 23.9763 11.5037V11.5037C24.6746 12.2048 24.6746 13.3385 23.9763 14.0397V14.0397C23.4653 14.5527 23.3122 15.3224 23.5879 15.992V15.992C23.9648 16.9069 23.5309 17.9544 22.6174 18.3349V18.3349C21.949 18.6134 21.513 19.2659 21.5116 19.99V19.99C21.5096 20.9795 20.7079 21.7812 19.7183 21.7832V21.7832C18.9942 21.7847 18.3417 22.2207 18.0633 22.8891V22.8891C17.6827 23.8026 16.6353 24.2364 15.7203 23.8596V23.8596C15.0507 23.5839 14.2811 23.7369 13.768 24.2479V24.2479C13.0669 24.9462 11.9331 24.9462 11.232 24.2479V24.2479C10.7189 23.7369 9.94927 23.5839 9.27971 23.8596V23.8596C8.36472 24.2364 7.31726 23.8026 6.93673 22.8891V22.8891C6.65827 22.2207 6.00579 21.7847 5.28167 21.7832V21.7832C4.29212 21.7812 3.49043 20.9795 3.48843 19.99V19.99C3.48697 19.2659 3.05099 18.6134 2.38255 18.3349V18.3349C1.46909 17.9544 1.03522 16.9069 1.41206 15.992V15.992C1.68781 15.3224 1.53472 14.5527 1.02373 14.0397V14.0397C0.325425 13.3385 0.325425 12.2048 1.02373 11.5037V11.5037C1.53472 10.9906 1.68781 10.2209 1.41206 9.55137V9.55137C1.03522 8.63639 1.46909 7.58893 2.38255 7.2084V7.2084C3.05099 6.92994 3.48697 6.27745 3.48843 5.55333V5.55333C3.49043 4.56379 4.29212 3.7621 5.28167 3.7601V3.7601C6.00579 3.75863 6.65827 3.32266 6.93673 2.65422V2.65422C7.31726 1.74076 8.36472 1.30689 9.27971 1.68373V1.68373C9.94927 1.95948 10.7189 1.80639 11.232 1.29539V1.29539Z" fill="#EE4900"/>
</svg>
