<svg width="25" height="24" viewBox="0 0 25 24" fill="none" xmlns="http://www.w3.org/2000/svg">
<g clip-path="url(#clip0_584_24523)">
<path d="M19.4435 20.276C18.0555 19.808 16.5675 20.644 16.2435 22.072C15.7275 24.34 12.6515 24.708 11.6155 22.624C10.9635 21.312 9.31951 20.848 8.07951 21.632C6.11151 22.872 3.67551 20.956 4.41551 18.752C4.88351 17.364 4.04751 15.876 2.61951 15.552C0.351512 15.036 -0.0164882 11.96 2.06751 10.924C3.37951 10.272 3.84351 8.62798 3.05951 7.38798C1.81951 5.41998 3.73551 2.98398 5.93951 3.72398C7.32751 4.19198 8.81551 3.35598 9.13951 1.92798C9.65551 -0.340017 12.7315 -0.708017 13.7675 1.37598C14.4195 2.68798 16.0635 3.15198 17.3035 2.36798C19.2715 1.12798 21.7075 3.04398 20.9675 5.24798C20.4995 6.63598 21.3355 8.12398 22.7635 8.44798C25.0315 8.96398 25.3995 12.04 23.3155 13.076C22.0035 13.728 21.5395 15.372 22.3235 16.612C23.5635 18.58 21.6475 21.016 19.4435 20.276Z" fill="#FFC61E"/>
<path d="M20.5517 13.08C20.0117 14.632 18.5397 15.604 17.0277 16.18C16.8357 16.252 16.6397 16.32 16.4397 16.384C13.9157 17.184 11.0077 17.116 8.54766 16.184C7.03566 15.608 5.54366 14.64 5.00366 13.088L5.47966 11.468L6.60766 11.192C6.60766 11.192 6.27966 13.328 9.41566 14.588C11.5077 15.428 14.0637 15.428 16.1517 14.588C16.6877 14.372 17.1237 14.132 17.4757 13.88C19.1837 12.66 18.9557 11.192 18.9557 11.192L20.0837 11.468L20.5437 13.088L20.5517 13.08Z" fill="#F0BA07"/>
<path d="M20.5516 13.08C20.0116 14.632 18.5396 15.604 17.0276 16.18C16.8356 16.252 16.6396 16.32 16.4396 16.384C16.8036 15.876 17.3476 14.96 17.4796 13.872C19.1876 12.652 18.9596 11.184 18.9596 11.184L20.0876 11.46L20.5476 13.08H20.5516Z" fill="#D99A00"/>
<path d="M20.5516 13.08C20.5516 13.08 19.2516 11.816 16.4156 11.076C15.4116 10.816 14.2116 10.62 12.8116 10.568C11.3036 10.512 10.0436 10.668 9.00761 10.928C6.35161 11.584 5.14761 12.9 5.01161 13.088C5.01161 13.088 4.04361 11.476 5.71961 9.99198C6.46761 9.32798 7.48761 8.88398 8.59961 8.59198C9.97561 8.22798 11.4956 8.09198 12.8156 8.05598C13.7356 8.03198 15.2476 8.20798 16.7036 8.65198C19.0236 9.35998 21.1916 10.748 20.5556 13.088L20.5516 13.08Z" fill="#FFE675"/>
<path d="M12.2116 15.592C11.4716 15.452 10.7356 15.332 10.0076 15.132C9.30762 14.94 9.00762 16.032 9.70762 16.22C10.4756 16.424 11.2876 16.568 12.0876 16.52C12.5876 16.492 12.7636 15.7 12.2116 15.592Z" fill="#FFC82E"/>
<path d="M8.6636 14.6801C8.6076 14.6521 8.5516 14.6241 8.4996 14.5921C8.4716 14.5761 8.4476 14.5601 8.4196 14.5401C8.4756 14.5841 8.4836 14.5921 8.4516 14.5641C8.3636 14.4881 8.2716 14.4161 8.1836 14.3361C7.8956 14.0721 7.4556 14.0841 7.2116 14.4041C7.0996 14.5481 7.0596 14.7041 7.0836 14.8841C7.1116 15.1001 7.2236 15.2321 7.3956 15.3601C7.6356 15.5441 7.9316 15.6521 8.2276 15.7241C8.5076 15.7921 8.7876 15.6601 8.8996 15.3921C9.0036 15.1481 8.9196 14.8041 8.6676 14.6801H8.6636Z" fill="#FFC82E"/>
<path d="M5.29558 11.752C5.55558 11.636 5.78358 11.452 6.03558 11.32C6.29558 11.18 6.55958 11.1 6.84758 11.028C7.56758 10.848 7.16758 9.72801 6.43558 10.056C5.83958 10.324 5.13558 10.928 5.06758 11.62C5.05558 11.748 5.20358 11.796 5.29958 11.752H5.29558Z" fill="#FFF3A8"/>
<path d="M8.03964 10.648C8.12764 10.648 8.21164 10.632 8.28764 10.592C8.36764 10.568 8.43564 10.52 8.49564 10.46C8.55964 10.4 8.60364 10.332 8.62764 10.252C8.66764 10.176 8.68764 10.092 8.68364 10.004C8.67564 9.94799 8.66764 9.88799 8.65964 9.83199C8.62764 9.72399 8.57564 9.62799 8.49564 9.54799C8.45164 9.51599 8.40764 9.47999 8.36364 9.44799C8.26364 9.38799 8.15564 9.35999 8.03964 9.35999C7.95164 9.35999 7.86764 9.37599 7.79164 9.41599C7.71164 9.43999 7.64364 9.48799 7.58364 9.54799C7.51964 9.60799 7.47564 9.67599 7.45164 9.75599C7.41164 9.83199 7.39164 9.91599 7.39564 10.004C7.40364 10.06 7.41164 10.12 7.41964 10.176C7.45164 10.284 7.50364 10.38 7.58364 10.46C7.62764 10.492 7.67164 10.528 7.71564 10.56C7.81564 10.62 7.92364 10.648 8.03964 10.648Z" fill="#FFF3A8"/>
<path d="M12.8877 13.784C14.7853 13.784 16.3237 11.8642 16.3237 9.49601C16.3237 7.12781 14.7853 5.20801 12.8877 5.20801C10.99 5.20801 9.45166 7.12781 9.45166 9.49601C9.45166 11.8642 10.99 13.784 12.8877 13.784Z" fill="#F0BA07"/>
<path d="M13.0516 5.21606C14.7596 5.46406 16.0876 7.28006 16.0876 9.47206C16.0876 11.8361 14.5476 13.7601 12.6516 13.7601C12.5956 13.7601 12.5396 13.7601 12.4836 13.7561C12.6156 13.7761 12.7516 13.7841 12.8876 13.7841C14.7836 13.7841 16.3236 11.8601 16.3236 9.49606C16.3236 7.13206 14.8716 5.32406 13.0516 5.21606Z" fill="#D89F00"/>
<path d="M15.6957 9.68395C15.6957 7.70395 14.4197 6.09195 12.8517 6.09595C11.2837 6.09995 10.0077 7.70795 10.0077 9.68795C10.0077 11.668 11.2837 13.28 12.8517 13.276C14.4197 13.272 15.6957 11.664 15.6957 9.68395Z" fill="#D89F00"/>
<path d="M12.8236 12.864C14.3943 12.864 15.6676 11.2809 15.6676 9.32799C15.6676 7.37511 14.3943 5.79199 12.8236 5.79199C11.2529 5.79199 9.97961 7.37511 9.97961 9.32799C9.97961 11.2809 11.2529 12.864 12.8236 12.864Z" fill="#FFE675"/>
<path d="M15.5517 9.57596C15.5517 7.67596 14.3277 6.13196 12.8237 6.13196C11.3197 6.13196 10.0957 7.67996 10.0957 9.57996C10.0957 11.48 11.3197 13.024 12.8237 13.024C14.3277 13.024 15.5517 11.476 15.5517 9.57996V9.57596Z" fill="#265E00"/>
<path d="M15.3237 9.57599C15.3237 11.352 14.2037 12.796 12.8237 12.796C12.0077 12.796 11.2877 12.296 10.8277 11.52C10.6637 11.244 10.5357 10.932 10.4477 10.6C10.3677 10.292 10.3237 9.96398 10.3197 9.62399C10.3197 9.60799 10.3197 9.59199 10.3197 9.57999C10.3197 7.80399 11.4397 6.35999 12.8197 6.35999C13.5277 6.35999 14.1637 6.73599 14.6197 7.34399C14.7837 7.55999 14.9197 7.80799 15.0317 8.07599C15.1997 8.48799 15.3037 8.95199 15.3197 9.44799C15.3197 9.49199 15.3197 9.53599 15.3197 9.57999L15.3237 9.57599Z" fill="#49A805"/>
<path d="M15.0436 8.09998C15.0436 9.09598 14.1076 11.556 12.8236 11.82C11.8756 12.012 10.8476 11.56 10.4316 10.528C10.7476 11.84 11.6996 12.796 12.8236 12.796C14.2036 12.796 15.3236 11.356 15.3236 9.57598C15.3236 9.04398 15.2236 8.53998 15.0436 8.09998Z" fill="#398504"/>
<path d="M10.5797 10.108C10.5797 10.108 10.4357 6.94004 12.5597 6.67604C14.1917 6.47204 14.7277 8.25604 14.7277 8.25604C14.7277 8.25604 13.6677 6.66004 12.2117 7.34004C11.1957 7.81604 10.5437 9.12004 10.5757 10.108H10.5797Z" fill="#7AC728"/>
<path d="M15.0997 9.47205C14.9597 10.012 14.7557 10.536 14.4597 11.012C14.3157 11.248 14.1437 11.468 13.9637 11.676C13.7757 11.888 13.5597 12.004 13.3237 12.148C13.2397 12.2 13.2837 12.308 13.3677 12.316C13.9237 12.384 14.3837 11.644 14.6117 11.236C14.9157 10.692 15.0917 10.096 15.1037 9.47605C15.1037 9.47605 15.1037 9.47605 15.0997 9.47605V9.47205Z" fill="#49A805"/>
<path d="M12.9676 12.3321C12.9396 12.2881 12.8916 12.2721 12.8396 12.2801C12.5676 12.3321 12.3076 12.3561 12.0276 12.3281C12.0156 12.3281 12.0156 12.3441 12.0236 12.3481C12.2716 12.5361 12.6036 12.5961 12.8996 12.4961C12.9476 12.4801 12.9836 12.4401 12.9836 12.3881C12.9836 12.3641 12.9836 12.3521 12.9676 12.3321Z" fill="#49A805"/>
<path d="M12.0677 6.89601C11.8837 6.86001 11.6757 7.01601 11.5477 7.14401C11.4077 7.28001 11.3397 7.46401 11.2797 7.64801C11.2797 7.65601 11.2877 7.66001 11.2917 7.65601C11.4077 7.52801 11.5597 7.44401 11.7037 7.35201C11.7677 7.31201 11.8317 7.27201 11.8997 7.23601C11.9757 7.19601 12.0637 7.17601 12.1197 7.10401C12.1717 7.04001 12.1677 6.92001 12.0637 6.90001L12.0677 6.89601Z" fill="#CEFC9D"/>
<path d="M12.7917 6.74396C12.7277 6.68396 12.6277 6.69196 12.5477 6.71596C12.4637 6.74396 12.4037 6.77596 12.3477 6.84796C12.3117 6.89196 12.3277 6.94796 12.3797 6.96796C12.4637 6.99996 12.5317 6.99996 12.6237 6.98396C12.7037 6.96796 12.7957 6.92396 12.8197 6.83996C12.8277 6.80796 12.8197 6.76796 12.7957 6.74396H12.7917Z" fill="#CEFC9D"/>
<path d="M13.3157 11.372C13.0997 11.416 12.9037 11.52 12.6877 11.572C12.4557 11.624 12.1997 11.628 11.9637 11.576C11.5317 11.484 11.1957 11.216 10.8757 10.928C10.9997 11.408 11.4597 11.748 11.9197 11.872C12.3917 12 13.1197 11.94 13.4117 11.488C13.4517 11.424 13.3877 11.356 13.3197 11.372H13.3157Z" fill="#7AC728"/>
<path d="M14.2077 9.46001C14.1637 9.36401 14.0277 9.31601 13.9317 9.34801C13.6037 9.44801 13.2437 10.104 13.6917 10.284C14.1437 10.464 14.3557 9.77601 14.2117 9.46001H14.2077Z" fill="#398504"/>
<path d="M13.7877 10.52C13.7597 10.504 13.7277 10.5 13.6957 10.508C13.6637 10.52 13.6437 10.536 13.6237 10.56C13.5957 10.596 13.5677 10.632 13.5597 10.676C13.5517 10.72 13.5597 10.764 13.5997 10.792C13.6317 10.82 13.6837 10.824 13.7237 10.8C13.7717 10.768 13.7997 10.724 13.8277 10.68C13.8597 10.628 13.8397 10.548 13.7837 10.52H13.7877Z" fill="#398504"/>
<path d="M14.5636 9.01207C14.5396 9.00007 14.5156 8.99207 14.4876 8.99207C14.4596 8.99207 14.4356 9.00007 14.4116 9.01207C14.4076 9.01607 14.3996 9.02007 14.3956 9.02407C14.3876 9.02807 14.3796 9.03607 14.3716 9.04007C14.3596 9.04807 14.3476 9.05607 14.3436 9.06807C14.3276 9.08407 14.3196 9.10407 14.3156 9.12407C14.3156 9.14007 14.3116 9.15607 14.3076 9.17207C14.3076 9.20007 14.3156 9.23207 14.3316 9.25607C14.3316 9.26007 14.3356 9.26407 14.3396 9.26807C14.3476 9.27607 14.3556 9.28807 14.3596 9.29607C14.3716 9.30807 14.3876 9.32007 14.4036 9.32407C14.4156 9.33207 14.4276 9.33207 14.4396 9.33207C14.4596 9.33607 14.4756 9.33207 14.4956 9.33207H14.5156C14.5156 9.33207 14.5396 9.32007 14.5556 9.31207C14.5756 9.30007 14.5916 9.28407 14.6036 9.26807C14.6156 9.25607 14.6196 9.24407 14.6236 9.23207C14.6316 9.22007 14.6356 9.20407 14.6356 9.19207C14.6356 9.18007 14.6356 9.17207 14.6356 9.16007V9.14007C14.6356 9.08807 14.6076 9.03607 14.5636 9.01207Z" fill="#398504"/>
<path opacity="0.13" d="M14.6236 7.33996C14.1676 6.73196 13.5316 6.35596 12.8236 6.35596C11.4436 6.35596 10.3236 7.79596 10.3236 9.57596C10.3236 9.59196 10.3236 9.60796 10.3236 9.61996C10.3236 9.95996 10.3716 10.288 10.4516 10.596C10.4956 10.6 10.5436 10.608 10.5876 10.624C10.8596 10.708 11.1436 10.832 11.4036 10.644C11.5796 10.516 11.6356 10.296 11.6716 10.092C11.7116 9.87996 11.7356 9.55596 12.0276 9.59596C12.2796 9.63196 12.4956 9.80796 12.7476 9.84796C12.9796 9.88796 13.2076 9.80796 13.3516 9.62396C13.4996 9.43596 13.5436 9.18796 13.6036 8.96396C13.6836 8.66396 13.8036 8.43996 14.0916 8.29596C14.3116 8.18396 14.6796 8.08396 15.0316 8.07596C14.9196 7.80796 14.7836 7.55996 14.6196 7.34396L14.6236 7.33996Z" fill="#B6FF82"/>
<path d="M10.2277 7.07605C9.87971 7.67205 9.64771 8.34405 9.64771 9.04005C9.64771 9.07205 9.69171 9.06805 9.69571 9.04005C9.77971 8.36005 9.93171 7.70005 10.2317 7.08005L10.2277 7.07605Z" fill="#FFF3A8"/>
<path d="M10.6837 12.324C10.5637 12.088 10.4077 11.88 10.2797 11.648C10.1517 11.412 10.0397 11.168 9.95571 10.916C9.87171 10.676 9.81571 10.428 9.75971 10.18C9.69971 9.92403 9.71971 9.65603 9.64771 9.40803C9.64771 9.40403 9.63971 9.40403 9.63971 9.40803C9.56771 9.65603 9.61971 9.94803 9.63971 10.196C9.66771 10.464 9.73571 10.728 9.82371 10.984C9.98771 11.472 10.2277 12.036 10.6277 12.372C10.6597 12.4 10.7037 12.364 10.6837 12.328V12.324Z" fill="#FFF3A8"/>
<path d="M12.1757 5.45599C11.8917 5.43999 11.5397 5.67199 11.3197 5.82799C11.0677 5.99999 10.8077 6.21599 10.6757 6.49999C10.6677 6.51599 10.6877 6.52799 10.6997 6.51599C10.9437 6.32399 11.1477 6.09199 11.4117 5.92399C11.5317 5.84799 11.6557 5.77599 11.7877 5.71599C11.9237 5.65599 12.0837 5.61999 12.2037 5.53599C12.2357 5.51199 12.2277 5.45999 12.1837 5.45599H12.1757Z" fill="#FFF3A8"/>
<path d="M12.6597 5.39598C12.5757 5.35198 12.4517 5.40398 12.3677 5.42398C12.3237 5.43598 12.3357 5.49598 12.3797 5.49998C12.4277 5.50398 12.4797 5.50798 12.5277 5.50798C12.5717 5.50798 12.6277 5.50798 12.6637 5.48398C12.6917 5.46398 12.6997 5.41598 12.6637 5.39598H12.6597Z" fill="#FFF3A8"/>
<path d="M11.4276 13.1241C11.3436 13.0041 11.1956 12.9161 11.0876 12.8121C10.9796 12.7081 10.8956 12.5681 10.7716 12.4841C10.7516 12.4681 10.7276 12.4921 10.7316 12.5161C10.7636 12.6641 10.8956 12.7961 10.9956 12.9041C11.0916 13.0081 11.2356 13.1561 11.3756 13.1921C11.4116 13.2001 11.4516 13.1601 11.4276 13.1241Z" fill="#FFF3A8"/>
</g>
<defs>
<clipPath id="clip0_584_24523">
<rect width="24" height="24" fill="white" transform="translate(0.695557)"/>
</clipPath>
</defs>
</svg>
