<svg width="24" height="25" viewBox="0 0 24 25" fill="none" xmlns="http://www.w3.org/2000/svg">
<g id="tab bar">
<path id="Icon" d="M6 6.5L8 4.5M8 4.5L6 2.5M8 4.5H6C3.79086 4.5 2 6.29086 2 8.5M18 18.5L16 20.5M16 20.5L18 22.5M16 20.5H18C20.2091 20.5 22 18.7091 22 16.5M13.4172 13.9172C14.1994 14.2908 15.0753 14.5 16 14.5C19.3137 14.5 22 11.8137 22 8.5C22 5.18629 19.3137 2.5 16 2.5C12.6863 2.5 10 5.18629 10 8.5C10 9.42472 10.2092 10.3006 10.5828 11.0828M14 16.5C14 19.8137 11.3137 22.5 8 22.5C4.68629 22.5 2 19.8137 2 16.5C2 13.1863 4.68629 10.5 8 10.5C11.3137 10.5 14 13.1863 14 16.5Z" stroke="#7747F2" stroke-width="2" stroke-linecap="round" stroke-linejoin="round"/>
</g>
</svg>
