<svg width="15" height="22" viewBox="0 0 15 22" fill="none" xmlns="http://www.w3.org/2000/svg">
<path d="M3.93331 10.472C2.88798 10.0613 2.08531 9.464 1.52531 8.68C0.965312 7.896 0.685312 6.944 0.685312 5.824C0.685312 4.816 0.937312 3.91067 1.44131 3.108C1.94531 2.28667 2.69198 1.64267 3.68131 1.176C4.68931 0.690666 5.90265 0.447999 7.32131 0.447999C8.73998 0.447999 9.94398 0.690666 10.9333 1.176C11.9413 1.64267 12.6973 2.28667 13.2013 3.108C13.724 3.91067 13.9853 4.816 13.9853 5.824C13.9853 6.90667 13.696 7.85867 13.1173 8.68C12.5386 9.48267 11.7453 10.08 10.7373 10.472C11.8946 10.8267 12.8093 11.452 13.4813 12.348C14.172 13.2253 14.5173 14.2893 14.5173 15.54C14.5173 16.7533 14.2186 17.8173 13.6213 18.732C13.024 19.628 12.1746 20.328 11.0733 20.832C9.99065 21.3173 8.73998 21.56 7.32131 21.56C5.90265 21.56 4.65198 21.3173 3.56931 20.832C2.50531 20.328 1.67465 19.628 1.07731 18.732C0.479979 17.8173 0.181312 16.7533 0.181312 15.54C0.181312 14.2893 0.517312 13.216 1.18931 12.32C1.86131 11.424 2.77598 10.808 3.93331 10.472ZM11.5213 6.132C11.5213 4.99333 11.148 4.116 10.4013 3.5C9.65465 2.884 8.62798 2.576 7.32131 2.576C6.03331 2.576 5.01598 2.884 4.26931 3.5C3.52265 4.116 3.14931 5.00267 3.14931 6.16C3.14931 7.20533 3.53198 8.04533 4.29731 8.68C5.08131 9.31467 6.08931 9.632 7.32131 9.632C8.57198 9.632 9.57998 9.31467 10.3453 8.68C11.1293 8.02667 11.5213 7.17733 11.5213 6.132ZM7.32131 11.592C5.93998 11.592 4.81065 11.9187 3.93331 12.572C3.05598 13.2067 2.61731 14.168 2.61731 15.456C2.61731 16.6507 3.03731 17.612 3.87731 18.34C4.73598 19.068 5.88398 19.432 7.32131 19.432C8.75865 19.432 9.89731 19.068 10.7373 18.34C11.5773 17.612 11.9973 16.6507 11.9973 15.456C11.9973 14.2053 11.568 13.2533 10.7093 12.6C9.85065 11.928 8.72131 11.592 7.32131 11.592Z" fill="black"/>
</svg>
