<svg width="18" height="19" viewBox="0 0 18 19" fill="none" xmlns="http://www.w3.org/2000/svg">
<path d="M9.20438 4.36C8.64971 4.36 8.18038 4.168 7.79638 3.784C7.41238 3.4 7.22038 2.93067 7.22038 2.376C7.22038 1.82133 7.41238 1.352 7.79638 0.967999C8.18038 0.583998 8.64971 0.391998 9.20438 0.391998C9.73771 0.391998 10.1857 0.583998 10.5484 0.967999C10.9324 1.352 11.1244 1.82133 11.1244 2.376C11.1244 2.93067 10.9324 3.4 10.5484 3.784C10.1857 4.168 9.73771 4.36 9.20438 4.36ZM17.3004 8.04V10.504H0.980375V8.04H17.3004ZM9.20438 18.088C8.64971 18.088 8.18038 17.896 7.79638 17.512C7.41238 17.128 7.22038 16.6587 7.22038 16.104C7.22038 15.5493 7.41238 15.08 7.79638 14.696C8.18038 14.312 8.64971 14.12 9.20438 14.12C9.73771 14.12 10.1857 14.312 10.5484 14.696C10.9324 15.08 11.1244 15.5493 11.1244 16.104C11.1244 16.6587 10.9324 17.128 10.5484 17.512C10.1857 17.896 9.73771 18.088 9.20438 18.088Z" fill="#B6CEFE"/>
</svg>
