<svg width="24" height="25" viewBox="0 0 24 25" fill="none" xmlns="http://www.w3.org/2000/svg">
<g id="tab bar">
<path id="Icon" d="M6.00001 11.5H10M8.00001 9.5V13.5M15 12.5H15.01M18 10.5H18.01M10.449 5.5H13.5511C16.1759 5.5 17.4884 5.5 18.5186 5.99743C19.4256 6.4354 20.1792 7.13709 20.6806 8.01059C21.2502 9.0027 21.3437 10.3118 21.5307 12.93L21.7768 16.3745C21.8974 18.0634 20.5598 19.5 18.8666 19.5C18.0007 19.5 17.1795 19.1154 16.6252 18.4502L16.25 18C15.9069 17.5882 15.7353 17.3823 15.5399 17.2159C15.1303 16.8672 14.6345 16.6349 14.1044 16.5436C13.8515 16.5 13.5835 16.5 13.0475 16.5H10.9526C10.4165 16.5 10.1485 16.5 9.89565 16.5436C9.36551 16.6349 8.86969 16.8672 8.46012 17.2159C8.26475 17.3823 8.09317 17.5882 7.75001 18L7.37485 18.4502C6.82052 19.1154 5.99936 19.5 5.13347 19.5C3.44025 19.5 2.10263 18.0634 2.22326 16.3745L2.4693 12.93C2.65631 10.3118 2.74982 9.0027 3.31938 8.01059C3.82086 7.13709 4.57446 6.4354 5.48147 5.99743C6.51164 5.5 7.82408 5.5 10.449 5.5Z" stroke="#A1A1AA" stroke-width="2" stroke-linecap="round" stroke-linejoin="round"/>
</g>
</svg>
