<svg width="25" height="24" viewBox="0 0 25 24" fill="none" xmlns="http://www.w3.org/2000/svg">
<g clip-path="url(#clip0_584_24530)">
<path d="M19.4435 20.276C18.0555 19.808 16.5675 20.644 16.2435 22.072C15.7275 24.34 12.6515 24.708 11.6155 22.624C10.9635 21.312 9.31951 20.848 8.07951 21.632C6.11151 22.872 3.67551 20.956 4.41551 18.752C4.88351 17.364 4.04751 15.876 2.61951 15.552C0.351512 15.036 -0.0164882 11.96 2.06751 10.924C3.37951 10.272 3.84351 8.62798 3.05951 7.38798C1.81951 5.41998 3.73551 2.98398 5.93951 3.72398C7.32751 4.19198 8.81551 3.35598 9.13951 1.92798C9.65551 -0.340017 12.7315 -0.708017 13.7675 1.37598C14.4195 2.68798 16.0635 3.15198 17.3035 2.36798C19.2715 1.12798 21.7075 3.04398 20.9675 5.24798C20.4995 6.63598 21.3355 8.12398 22.7635 8.44798C25.0315 8.96398 25.3995 12.04 23.3155 13.076C22.0035 13.728 21.5395 15.372 22.3235 16.612C23.5635 18.58 21.6475 21.016 19.4435 20.276Z" fill="#FFC61E"/>
<path d="M17.5355 5.61602C17.3315 5.26002 16.8915 5.04802 16.4915 5.19602C16.2875 5.27202 16.1435 5.43602 16.0795 5.64002C16.0035 5.87602 16.0355 6.12802 16.0795 6.36402C16.1315 6.66402 16.2075 6.98402 16.0875 7.28002C15.9875 7.52402 15.7875 7.70002 15.5515 7.80802C15.5195 7.82402 15.5435 7.87202 15.5755 7.86402C16.0075 7.75602 16.2715 7.30802 16.2635 6.88402C16.2555 6.61202 16.1755 6.35202 16.1555 6.08402C16.1395 5.86002 16.1675 5.61202 16.3275 5.44402C16.6195 5.14002 17.1315 5.27202 17.3635 5.57602C17.6635 5.96802 17.6075 6.49602 17.4595 6.93602C17.2675 7.50402 16.9035 8.02402 16.8515 8.63602C16.8435 8.71602 16.9675 8.71202 16.9755 8.63602C17.0475 8.06802 17.3515 7.57602 17.5475 7.04802C17.7115 6.59202 17.7875 6.06402 17.5355 5.62402V5.61602Z" fill="#F0BA07"/>
<path d="M17.2995 8.88407C17.2995 9.19607 17.1515 9.44807 16.9675 9.44807C16.7835 9.44807 16.6355 9.19607 16.6355 8.88407C16.6355 8.57207 16.7835 8.32007 16.9675 8.32007C17.1515 8.32007 17.2995 8.57207 17.2995 8.88407Z" fill="#F0BA07"/>
<path d="M17.0155 8.3241C17.1155 8.4201 17.1835 8.6041 17.1835 8.8161C17.1835 9.1281 17.0355 9.3801 16.8515 9.3801C16.8355 9.3801 16.8195 9.3801 16.8035 9.3761C16.8515 9.4201 16.9075 9.4481 16.9635 9.4481C17.1475 9.4481 17.2955 9.1961 17.2955 8.8841C17.2955 8.6001 17.1715 8.3641 17.0115 8.3241H17.0155Z" fill="#DDA100"/>
<path d="M16.9075 8.51607C16.9075 8.48807 16.8755 8.48007 16.8595 8.49607C16.7875 8.55207 16.7635 8.66007 16.7515 8.74807C16.7435 8.80407 16.7195 8.97607 16.8075 8.99207C16.8875 9.00407 16.8635 8.86807 16.8635 8.82407C16.8635 8.71607 16.9035 8.62007 16.9115 8.51607H16.9075Z" fill="#FFE675"/>
<path d="M16.8675 9.13207C16.8675 9.13207 16.8555 9.10007 16.8555 9.08407C16.8555 9.05607 16.8155 9.04807 16.8035 9.07207C16.7875 9.10407 16.7875 9.13607 16.8075 9.16407C16.8195 9.18007 16.8355 9.18407 16.8515 9.17607C16.8675 9.16807 16.8715 9.14807 16.8635 9.13207H16.8675Z" fill="#FFE6BA"/>
<path d="M16.9916 13.04C16.7676 14.728 16.2636 15.456 15.8076 16.164C15.3996 16.74 15.3236 17.26 15.4156 17.748C15.5716 18.324 15.9076 18.568 16.2676 18.756C16.6876 18.932 17.1436 18.9 17.7036 18.272C18.0676 17.812 18.3436 17.164 18.3596 16.232C18.3676 15.656 18.1836 15.164 17.9716 14.704C17.7916 14.252 17.4036 13.652 16.9956 13.04H16.9916Z" fill="#FFE675" stroke="#F0BA07" stroke-width="0.108" stroke-linecap="round" stroke-linejoin="round"/>
<path d="M15.7675 18.396C15.4675 17.996 15.3515 17.568 15.4035 17.072C15.2635 17.528 15.4075 18.08 15.7395 18.42C15.7515 18.432 15.7795 18.416 15.7675 18.4V18.396Z" fill="#FFE675"/>
<path d="M17.0315 12.9641C15.9435 13.7321 15.0955 13.9041 14.4475 14.0201C13.8995 14.0921 13.5635 14.3241 13.3315 14.6361C13.0835 15.0321 13.1235 15.3521 13.2075 15.6601C13.3315 15.9921 13.5915 16.2401 14.2475 16.2241C14.7035 16.1881 15.2235 16.0041 15.7635 15.5161C16.0995 15.2161 16.2795 14.8481 16.4315 14.4801C16.5955 14.1361 16.8955 13.5201 17.0315 12.9601V12.9641Z" fill="#FFE675" stroke="#F0BA07" stroke-width="0.108" stroke-linecap="round" stroke-linejoin="round"/>
<path d="M17.0315 12.9641C18.2355 13.5281 18.9275 13.5041 19.5875 13.5041C20.1395 13.4801 20.5115 13.6481 20.7955 13.9161C21.1075 14.2641 21.1275 14.5841 21.0995 14.9041C21.0355 15.2561 20.8235 15.5441 20.1755 15.6441C19.7195 15.6881 19.1755 15.6001 18.5595 15.2161C18.1795 14.9801 17.9315 14.6481 17.7195 14.3161C17.4995 14.0041 17.2675 13.5001 17.0355 12.9681L17.0315 12.9641Z" fill="#FFE675" stroke="#F0BA07" stroke-width="0.108" stroke-linecap="round" stroke-linejoin="round"/>
<path d="M17.1715 13.8601C16.9115 15.1961 16.5075 15.7521 16.1395 16.2921C15.8115 16.7281 15.7115 17.1401 15.7635 17.5361C15.8275 18.0081 16.0635 18.2321 16.3235 18.3921C16.6115 18.5681 16.9515 18.5601 17.3915 18.0881C17.6795 17.7401 17.9195 17.2401 17.9835 16.4961C18.0235 16.0361 17.9075 15.6361 17.7875 15.2521C17.6675 14.8681 17.4355 14.3801 17.1755 13.8641L17.1715 13.8601Z" fill="#E848B9" stroke="#C42994" stroke-width="0.108" stroke-linecap="round" stroke-linejoin="round"/>
<path d="M17.1591 18.1367C17.2289 18.066 17.2396 17.9633 17.183 17.9075C17.1264 17.8516 17.0239 17.8637 16.954 17.9345C16.8842 18.0053 16.8735 18.1079 16.9302 18.1638C16.9868 18.2196 17.0893 18.2075 17.1591 18.1367Z" fill="#C42994"/>
<path d="M17.3743 17.8361C17.4246 17.829 17.4582 17.7718 17.4492 17.7084C17.4403 17.6449 17.3923 17.5992 17.342 17.6063C17.2916 17.6134 17.2581 17.6706 17.267 17.734C17.2759 17.7974 17.324 17.8431 17.3743 17.8361Z" fill="#C42994"/>
<path d="M17.2515 14.6681C17.1435 15.3681 16.1555 16.3761 15.9475 17.1041C15.8475 17.4521 15.9955 18.2121 16.6595 18.2641C16.6595 18.2641 16.0915 17.8041 16.1835 17.2281C16.2875 16.5521 16.7795 15.9441 16.9075 15.7041C17.1955 15.1681 17.2475 14.6721 17.2475 14.6721L17.2515 14.6681Z" fill="#FF8CEA"/>
<path d="M17.7515 16.5882C17.7115 16.2882 17.6915 15.9922 17.6355 15.6962C17.5795 15.4042 17.5075 15.1122 17.4235 14.8242C17.4235 14.8242 17.4275 14.8202 17.4315 14.8242C17.6955 15.3562 17.8635 15.9922 17.8315 16.5882C17.8315 16.6322 17.7595 16.6362 17.7555 16.5882H17.7515Z" fill="#FF8CEA"/>
<path d="M16.1315 17.9722C15.9835 17.8722 15.9635 17.6442 15.9595 17.4802C15.9515 17.2762 16.0195 17.1242 16.1195 16.9522C16.1235 16.9442 16.1355 16.9522 16.1355 16.9602C16.1075 17.1162 16.1235 17.3002 16.1395 17.4602C16.1555 17.6122 16.2515 17.7682 16.2355 17.9162C16.2315 17.9602 16.1795 18.0082 16.1355 17.9762L16.1315 17.9722Z" fill="#FFE7FB"/>
<path d="M16.5315 13.5841C15.6595 14.1361 15.1475 14.2001 14.6555 14.2761C14.2435 14.3241 13.9675 14.4801 13.7755 14.7161C13.5475 14.9961 13.5475 15.2441 13.5955 15.4681C13.6475 15.7161 13.8275 15.9001 14.3155 15.8961C14.6555 15.8761 15.0555 15.7441 15.4995 15.3961C15.7715 15.1801 15.9315 14.9081 16.0835 14.6441C16.2355 14.3801 16.3795 13.9961 16.5275 13.5881L16.5315 13.5841Z" fill="#E848B9" stroke="#C42994" stroke-width="0.108" stroke-linecap="round" stroke-linejoin="round"/>
<path d="M14.3068 15.6877C14.3082 15.6281 14.2484 15.5784 14.1733 15.5767C14.0982 15.575 14.0362 15.6219 14.0349 15.6816C14.0336 15.7412 14.0933 15.7909 14.1684 15.7926C14.2435 15.7943 14.3055 15.7473 14.3068 15.6877Z" fill="#C42994"/>
<path d="M14.5559 15.7348C14.5863 15.6968 14.5872 15.647 14.5578 15.6236C14.5285 15.6001 14.4801 15.6119 14.4498 15.6498C14.4194 15.6877 14.4185 15.7375 14.4479 15.761C14.4772 15.7845 14.5256 15.7727 14.5559 15.7348Z" fill="#C42994"/>
<path d="M16.1275 14.0481C15.6835 14.3521 14.6195 14.3321 14.1115 14.5921C13.8675 14.7161 13.5275 15.1921 13.8435 15.5881C13.8435 15.5881 13.8035 15.0401 14.1675 14.7881C14.5955 14.4961 15.1835 14.4481 15.3835 14.3961C15.8275 14.2761 16.1275 14.0481 16.1275 14.0481Z" fill="#FF8CEA"/>
<path d="M15.3315 15.3161C15.4755 15.1401 15.6275 14.9721 15.7595 14.7881C15.8915 14.6041 16.0155 14.4121 16.1315 14.2201H16.1355C15.9795 14.6401 15.7195 15.0641 15.3715 15.3521C15.3475 15.3721 15.3075 15.3361 15.3315 15.3121V15.3161Z" fill="#FF8CEA"/>
<path d="M13.7275 15.1441C13.7075 15.0121 13.8195 14.8841 13.9075 14.7921C14.0155 14.6801 14.1355 14.6401 14.2795 14.6041C14.2875 14.6041 14.2915 14.6121 14.2835 14.6161C14.1835 14.6801 14.0915 14.7881 14.0115 14.8761C13.9355 14.9601 13.8995 15.0961 13.8115 15.1641C13.7835 15.1841 13.7315 15.1841 13.7235 15.1401L13.7275 15.1441Z" fill="#FFE7FB"/>
<path d="M17.4835 13.3561C18.4355 13.7881 18.9635 13.7761 19.4675 13.7881C19.8875 13.7761 20.1875 13.896 20.4115 14.104C20.6795 14.352 20.7115 14.6001 20.6995 14.8321C20.6835 15.0921 20.5275 15.3001 20.0355 15.3641C19.6915 15.3921 19.2675 15.3161 18.7755 15.0281C18.4715 14.8481 18.2715 14.6001 18.0835 14.3521C17.8955 14.1041 17.6915 13.7441 17.4875 13.3521L17.4835 13.3561Z" fill="#E848B9" stroke="#C42994" stroke-width="0.108" stroke-linecap="round" stroke-linejoin="round"/>
<path d="M20.1727 15.2391C20.2468 15.227 20.2991 15.1694 20.2894 15.1105C20.2798 15.0517 20.2119 15.0138 20.1377 15.026C20.0636 15.0381 20.0114 15.0957 20.021 15.1546C20.0307 15.2134 20.0986 15.2513 20.1727 15.2391Z" fill="#C42994"/>
<path d="M19.8846 15.2466C19.9119 15.2177 19.9053 15.1672 19.87 15.1339C19.8346 15.1006 19.7838 15.097 19.7565 15.1259C19.7293 15.1549 19.7358 15.2054 19.7712 15.2387C19.8066 15.272 19.8573 15.2756 19.8846 15.2466Z" fill="#C42994"/>
<path d="M17.9556 13.764C18.4436 14.008 19.5116 13.836 20.0596 14.028C20.3236 14.12 20.7316 14.548 20.4716 14.988C20.4716 14.988 20.4356 14.428 20.0356 14.228C19.5676 13.996 18.9676 14.032 18.7596 14.004C18.2956 13.948 17.9596 13.76 17.9596 13.76L17.9556 13.764Z" fill="#FF8CEA"/>
<path d="M18.9356 14.9281C18.7676 14.7721 18.5876 14.6241 18.4276 14.4601C18.2676 14.2961 18.1196 14.1201 17.9756 13.9401H17.9716C18.1876 14.3401 18.5116 14.7281 18.8996 14.9721C18.9276 14.9881 18.9596 14.9481 18.9356 14.9281Z" fill="#FF8CEA"/>
<path d="M20.5235 14.5281C20.5235 14.3921 20.3915 14.2801 20.2915 14.2001C20.1675 14.1041 20.0435 14.0801 19.8915 14.0641C19.8835 14.0641 19.8835 14.0721 19.8915 14.0761C20.0035 14.1281 20.1115 14.2201 20.2035 14.3001C20.2915 14.3761 20.3475 14.5041 20.4475 14.5601C20.4795 14.5761 20.5315 14.5681 20.5315 14.5241L20.5235 14.5281Z" fill="#FFE7FB"/>
<path d="M16.9875 13.2161C16.9875 13.2161 16.9555 13.1841 16.9395 13.2041C16.8795 13.2801 16.8755 13.3761 16.8595 13.4681C16.8435 13.5721 16.8395 13.6721 16.8475 13.7801C16.8475 13.7801 16.8475 13.7841 16.8515 13.7801C16.8955 13.6841 16.9315 13.5961 16.9555 13.4921C16.9755 13.4001 17.0155 13.3081 16.9835 13.2161H16.9875Z" fill="#FFE675"/>
<path d="M17.4355 13.7801C17.4355 13.7801 17.4675 13.7521 17.4675 13.7361C17.4675 13.6561 17.4235 13.6321 17.3915 13.5961C17.3515 13.5561 17.3075 13.5321 17.2595 13.5121C17.2595 13.5121 17.2595 13.5121 17.2595 13.5161C17.2795 13.5801 17.2995 13.6401 17.3355 13.6841C17.3635 13.7281 17.3875 13.7841 17.4435 13.7761L17.4355 13.7801Z" fill="#FFE675"/>
<path d="M17.8716 11.44C17.7236 11.9 17.2316 12.156 16.7716 12.008C16.3116 11.86 16.0596 11.368 16.2036 10.908C16.3476 10.448 16.8436 10.196 17.3036 10.34C17.7636 10.484 18.0196 10.98 17.8716 11.44Z" fill="#F0BA07"/>
<path d="M17.1916 10.46C17.1356 10.376 17.0556 10.244 16.9876 10.088L16.9756 10.06C16.8676 9.78802 16.8516 9.54402 16.9196 9.32802C16.9556 9.21202 17.0036 9.10402 17.0596 9.00802L17.0756 8.98402C17.1796 8.80802 17.3156 8.68402 17.4636 8.62002L17.4876 8.60802C17.6156 8.56002 17.7476 8.55202 17.8676 8.59202C17.9876 8.63202 18.0916 8.71202 18.1676 8.82402L18.1836 8.84802C18.2676 8.98802 18.3036 9.16802 18.2876 9.37202V9.40002C18.2756 9.51202 18.2516 9.62402 18.2116 9.74002C18.1436 9.95602 17.9836 10.148 17.7396 10.304L17.7156 10.32C17.5716 10.408 17.4276 10.472 17.3316 10.504L17.2436 10.536L17.1916 10.46Z" fill="#F0BA07"/>
<path d="M17.8356 8.69203C18.1076 8.78003 18.2996 9.12803 18.1116 9.70803C17.9876 10.096 17.5636 10.312 17.2836 10.412C17.1156 10.168 16.8956 9.74403 17.0196 9.35603C17.2076 8.77203 17.5636 8.60003 17.8356 8.68803V8.69203Z" fill="url(#paint0_radial_584_24530)"/>
<path d="M17.6996 10.24C17.8876 10.12 18.0636 9.94804 18.1396 9.71604C18.1756 9.60004 18.1996 9.49204 18.2076 9.39204V9.36404C18.2236 9.16404 18.1876 9.00404 18.1196 8.88804L18.1036 8.86404C18.0356 8.76404 17.9476 8.69604 17.8436 8.66404C17.7396 8.63204 17.6276 8.63204 17.5156 8.67604L17.4916 8.68404C17.3636 8.74004 17.2436 8.84804 17.1396 9.02004L17.1276 9.04404C17.0796 9.13204 17.0316 9.23204 16.9956 9.34804C16.9196 9.58004 16.9676 9.82004 17.0476 10.032L17.0596 10.06C17.1196 10.204 17.1916 10.328 17.2556 10.42L17.2676 10.44L17.2756 10.452H17.2876L17.3116 10.44C17.4156 10.4 17.5476 10.344 17.6796 10.26L17.7036 10.244L17.6996 10.24ZM17.3276 10.364L17.4076 10.112L17.3556 10.096L17.2756 10.348C17.2236 10.264 17.1636 10.16 17.1116 10.044L17.2916 9.85604L17.2516 9.81604L17.0916 9.98404C17.0436 9.86004 17.0116 9.72404 17.0156 9.58804L17.2436 9.57204V9.51604L17.0196 9.53204C17.0236 9.47604 17.0356 9.42004 17.0516 9.36804C17.0876 9.26404 17.1236 9.17204 17.1676 9.09204L17.3156 9.26404L17.3596 9.22804L17.1996 9.04004C17.2916 8.89604 17.3956 8.80004 17.4996 8.74804L17.5156 8.98404H17.5716L17.5556 8.72804C17.6516 8.69604 17.7476 8.69204 17.8316 8.72004C17.9156 8.74804 17.9956 8.80404 18.0516 8.88804L17.8916 9.08404L17.9356 9.12004L18.0836 8.94004C18.1396 9.04404 18.1716 9.18404 18.1596 9.35204L17.9196 9.40804L17.9316 9.46404L18.1556 9.41204C18.1436 9.50004 18.1236 9.60004 18.0916 9.70404C18.0756 9.76004 18.0516 9.80804 18.0196 9.85604L17.8476 9.71204L17.8116 9.75604L17.9876 9.90404C17.9076 10.016 17.8036 10.108 17.6956 10.184L17.6636 9.95204L17.6076 9.96004L17.6436 10.216C17.5356 10.284 17.4276 10.332 17.3356 10.368L17.3276 10.364Z" fill="#00A022"/>
<path d="M17.7676 8.90398C17.9276 8.95598 18.0356 9.20798 17.8996 9.63998C17.8236 9.87598 17.5796 10.036 17.3756 10.132C17.2636 9.93198 17.1596 9.65998 17.2356 9.42398C17.3756 8.99198 17.6116 8.85198 17.7716 8.89998L17.7676 8.90398Z" fill="#00AA21"/>
<path d="M17.6515 10.7761C17.6715 10.6761 17.7075 10.5241 17.7715 10.3681L17.7835 10.3401C17.8995 10.0721 18.0595 9.88405 18.2635 9.78005C18.3715 9.72405 18.4835 9.68005 18.5875 9.65205L18.6155 9.64405C18.8115 9.59605 18.9955 9.60005 19.1475 9.66005L19.1715 9.67205C19.2955 9.72805 19.3915 9.81605 19.4515 9.93205C19.5115 10.0441 19.5275 10.1761 19.4995 10.3081L19.4915 10.3361C19.4515 10.4921 19.3475 10.6481 19.1955 10.7801L19.1755 10.8001C19.0915 10.8721 18.9915 10.9321 18.8835 10.9881C18.6795 11.0921 18.4355 11.1161 18.1515 11.0561L18.1235 11.0481C17.9595 11.0121 17.8155 10.9521 17.7235 10.9081L17.6395 10.8681L17.6555 10.7761H17.6515Z" fill="#F0BA07"/>
<path d="M19.3596 9.98007C19.4916 10.2321 19.3796 10.6161 18.8356 10.8961C18.4716 11.0841 18.0196 10.9361 17.7516 10.8081C17.8076 10.5161 17.9476 10.0601 18.3116 9.87607C18.8556 9.59607 19.2316 9.72807 19.3596 9.98007Z" fill="url(#paint1_radial_584_24530)"/>
<path d="M18.1636 10.9801C18.3836 11.0281 18.6276 11.0321 18.8436 10.9201C18.9516 10.8641 19.0436 10.8041 19.1236 10.7401L19.1436 10.7201C19.2956 10.5921 19.3836 10.4521 19.4156 10.3161V10.2921C19.4476 10.1721 19.4276 10.0601 19.3796 9.96411C19.3316 9.86811 19.2476 9.78811 19.1396 9.74011L19.1156 9.73211C18.9876 9.68011 18.8236 9.67211 18.6276 9.72011L18.6036 9.72811C18.5076 9.75211 18.4036 9.79211 18.2956 9.84811C18.0796 9.96011 17.9396 10.1641 17.8516 10.3681L17.8396 10.3961C17.7796 10.5401 17.7436 10.6801 17.7236 10.7881V10.8121L17.7156 10.8241H17.7276L17.7476 10.8401C17.8476 10.8881 17.9836 10.9401 18.1356 10.9721L18.1636 10.9801ZM17.8116 10.8081L18.0476 10.6881L18.0236 10.6361L17.7876 10.7561C17.8076 10.6601 17.8396 10.5441 17.8876 10.4241L18.1476 10.4161V10.3601L17.9116 10.3681C17.9676 10.2481 18.0396 10.1281 18.1396 10.0321L18.3116 10.1801L18.3476 10.1361L18.1796 9.99211C18.2236 9.95611 18.2676 9.92411 18.3196 9.89611C18.4196 9.84411 18.5116 9.80811 18.5996 9.78411L18.5836 10.0121H18.6396L18.6556 9.76811C18.8236 9.72811 18.9636 9.73611 19.0756 9.77611L18.9196 9.95211L18.9596 9.98811L19.1276 9.79611C19.2196 9.84011 19.2876 9.90811 19.3276 9.98811C19.3676 10.0681 19.3836 10.1641 19.3676 10.2641L19.1156 10.2921V10.3481L19.3556 10.3241C19.3236 10.4361 19.2436 10.5561 19.1156 10.6681L18.9036 10.5401L18.8756 10.5881L19.0716 10.7081C18.9996 10.7641 18.9156 10.8201 18.8196 10.8681C18.7676 10.8961 18.7156 10.9121 18.6596 10.9281L18.6396 10.7081H18.5836L18.6036 10.9401C18.4676 10.9641 18.3276 10.9561 18.1996 10.9281L18.3396 10.7401L18.2956 10.7081L18.1396 10.9161C18.0156 10.8881 17.9036 10.8441 17.8116 10.8041V10.8081Z" fill="#00A022"/>
<path d="M19.1596 10.0841C19.2356 10.2321 19.1356 10.4881 18.7316 10.6961C18.5116 10.8081 18.2276 10.7521 18.0116 10.6761C18.0756 10.4561 18.1916 10.1921 18.4116 10.0761C18.8156 9.86806 19.0836 9.93606 19.1596 10.0841Z" fill="#00AA21"/>
<path d="M17.7515 11.324C17.8355 11.268 17.9675 11.188 18.1235 11.12L18.1515 11.108C18.4235 11 18.6675 10.984 18.8835 11.052C18.9995 11.088 19.1075 11.136 19.2035 11.192L19.2275 11.208C19.4035 11.312 19.5275 11.448 19.5915 11.596L19.6035 11.62C19.6515 11.748 19.6595 11.88 19.6195 12C19.5795 12.12 19.4995 12.224 19.3875 12.3L19.3635 12.316C19.2235 12.4 19.0435 12.436 18.8395 12.42H18.8115C18.6995 12.408 18.5875 12.384 18.4715 12.344C18.2555 12.276 18.0635 12.116 17.9075 11.872L17.8915 11.848C17.8035 11.704 17.7395 11.56 17.7075 11.464L17.6755 11.376L17.7555 11.324H17.7515Z" fill="#F0BA07"/>
<path d="M19.5236 11.9721C19.4356 12.2441 19.0876 12.4361 18.5036 12.2481C18.1156 12.1241 17.8996 11.7001 17.7996 11.4201C18.0436 11.2521 18.4676 11.0321 18.8556 11.1561C19.4356 11.3441 19.6116 11.7001 19.5236 11.9721Z" fill="url(#paint2_radial_584_24530)"/>
<path d="M17.9715 11.832C18.0915 12.02 18.2635 12.196 18.4955 12.272C18.6115 12.308 18.7195 12.332 18.8195 12.34H18.8475C19.0475 12.356 19.2075 12.32 19.3235 12.252L19.3475 12.236C19.4475 12.168 19.5155 12.08 19.5475 11.976C19.5795 11.872 19.5795 11.76 19.5355 11.648L19.5275 11.624C19.4715 11.496 19.3635 11.376 19.1915 11.272L19.1675 11.26C19.0795 11.212 18.9795 11.164 18.8635 11.128C18.6315 11.052 18.3915 11.1 18.1795 11.18L18.1515 11.192C18.0075 11.252 17.8835 11.324 17.7915 11.388L17.7715 11.4L17.7595 11.408V11.42L17.7715 11.444C17.8115 11.548 17.8675 11.68 17.9515 11.812L17.9675 11.836L17.9715 11.832ZM17.8475 11.46L18.0995 11.54L18.1155 11.488L17.8635 11.408C17.9475 11.356 18.0515 11.296 18.1675 11.244L18.3555 11.424L18.3955 11.384L18.2275 11.224C18.3515 11.176 18.4875 11.144 18.6235 11.148L18.6395 11.376H18.6955L18.6795 11.152C18.7355 11.156 18.7915 11.164 18.8435 11.184C18.9475 11.22 19.0395 11.256 19.1195 11.3L18.9475 11.448L18.9835 11.492L19.1715 11.332C19.3155 11.424 19.4115 11.528 19.4635 11.632L19.2275 11.648V11.704L19.4835 11.688C19.5155 11.784 19.5195 11.88 19.4915 11.964C19.4635 12.052 19.4075 12.128 19.3235 12.184L19.1275 12.024L19.0915 12.068L19.2715 12.216C19.1675 12.272 19.0275 12.304 18.8595 12.292L18.8035 12.052L18.7475 12.064L18.7995 12.288C18.7115 12.276 18.6115 12.256 18.5075 12.224C18.4515 12.208 18.4035 12.184 18.3555 12.152L18.4995 11.98L18.4555 11.944L18.3075 12.12C18.1955 12.04 18.1035 11.936 18.0275 11.824L18.2595 11.792L18.2515 11.736L17.9955 11.772C17.9275 11.664 17.8795 11.556 17.8435 11.464L17.8475 11.46Z" fill="#00A022"/>
<path d="M19.3075 11.9C19.2555 12.06 19.0035 12.168 18.5715 12.032C18.3355 11.956 18.1755 11.712 18.0795 11.508C18.2795 11.396 18.5515 11.292 18.7875 11.368C19.2195 11.508 19.3595 11.744 19.3115 11.904L19.3075 11.9Z" fill="#00AA21"/>
<path d="M17.4355 11.784C17.5355 11.804 17.6875 11.84 17.8435 11.904L17.8715 11.916C18.1395 12.032 18.3275 12.192 18.4315 12.396C18.4875 12.504 18.5315 12.616 18.5595 12.72L18.5675 12.748C18.6155 12.944 18.6115 13.128 18.5515 13.28L18.5395 13.304C18.4835 13.428 18.3955 13.524 18.2835 13.584C18.1715 13.644 18.0395 13.66 17.9075 13.632L17.8795 13.624C17.7235 13.584 17.5675 13.48 17.4355 13.328L17.4155 13.308C17.3435 13.224 17.2835 13.124 17.2275 13.016C17.1235 12.812 17.0995 12.568 17.1595 12.284L17.1675 12.256C17.2035 12.092 17.2635 11.948 17.3075 11.856L17.3475 11.772L17.4395 11.788L17.4355 11.784Z" fill="#F0BA07"/>
<path d="M18.2314 13.4919C17.9794 13.6239 17.5954 13.5119 17.3154 12.9679C17.1274 12.6039 17.2754 12.1519 17.4034 11.8839C17.6954 11.9399 18.1514 12.0799 18.3354 12.4439C18.6154 12.9879 18.4834 13.3639 18.2314 13.4919Z" fill="url(#paint3_radial_584_24530)"/>
<path d="M17.2315 12.2999C17.1835 12.5199 17.1795 12.7639 17.2915 12.9799C17.3475 13.0879 17.4075 13.1799 17.4715 13.2599L17.4915 13.2799C17.6235 13.4319 17.7595 13.5199 17.8955 13.5519H17.9195C18.0395 13.5839 18.1515 13.5639 18.2475 13.5159C18.3435 13.4679 18.4235 13.3839 18.4715 13.2759L18.4795 13.2519C18.5315 13.1239 18.5395 12.9599 18.4915 12.7639L18.4835 12.7399C18.4555 12.6439 18.4195 12.5399 18.3595 12.4319C18.2475 12.2159 18.0435 12.0759 17.8395 11.9879L17.8115 11.9759C17.6675 11.9159 17.5275 11.8799 17.4195 11.8599H17.3955L17.3835 11.8519V11.8639L17.3675 11.8839C17.3195 11.9839 17.2675 12.1199 17.2355 12.2719L17.2275 12.2999H17.2315ZM17.4035 11.9479L17.5235 12.1839L17.5715 12.1599L17.4515 11.9239C17.5475 11.9439 17.6635 11.9759 17.7835 12.0239L17.7915 12.2839H17.8475L17.8395 12.0479C17.9595 12.1039 18.0795 12.1759 18.1755 12.2759L18.0275 12.4479L18.0715 12.4839L18.2155 12.3159C18.2515 12.3599 18.2835 12.4039 18.3115 12.4559C18.3635 12.5559 18.3995 12.6479 18.4235 12.7359L18.1955 12.7199V12.7759L18.4395 12.7919C18.4795 12.9599 18.4715 13.0999 18.4315 13.2119L18.2555 13.0559L18.2195 13.0959L18.4115 13.2639C18.3675 13.3559 18.2995 13.4239 18.2195 13.4639C18.1395 13.5039 18.0435 13.5199 17.9435 13.5039L17.9155 13.2519H17.8595L17.8835 13.4919C17.7715 13.4599 17.6515 13.3799 17.5395 13.2519L17.6675 13.0399L17.6195 13.0119L17.4995 13.2079C17.4435 13.1359 17.3875 13.0519 17.3395 12.9559C17.3115 12.9039 17.2955 12.8519 17.2795 12.7959L17.4995 12.7759V12.7199L17.2675 12.7399C17.2435 12.6039 17.2515 12.4639 17.2795 12.3359L17.4675 12.4759L17.4995 12.4319L17.2915 12.2759C17.3195 12.1519 17.3635 12.0399 17.4035 11.9479Z" fill="#00A022"/>
<path d="M18.1275 13.2919C17.9795 13.3679 17.7235 13.2679 17.5155 12.8639C17.4035 12.6439 17.4595 12.3599 17.5355 12.1439C17.7555 12.2079 18.0195 12.3239 18.1355 12.5439C18.3435 12.9479 18.2755 13.2159 18.1275 13.2919Z" fill="#00AA21"/>
<path d="M16.8875 11.888C16.9435 11.972 17.0235 12.104 17.0915 12.26L17.1035 12.288C17.2115 12.56 17.2275 12.804 17.1595 13.02C17.1235 13.136 17.0755 13.244 17.0195 13.34L17.0035 13.364C16.8995 13.54 16.7635 13.664 16.6155 13.728L16.5915 13.74C16.4635 13.788 16.3315 13.796 16.2115 13.756C16.0915 13.716 15.9875 13.636 15.9115 13.524L15.8955 13.5C15.8115 13.36 15.7755 13.18 15.7915 12.976V12.948C15.8035 12.836 15.8275 12.724 15.8675 12.608C15.9355 12.392 16.0955 12.2 16.3395 12.044L16.3635 12.028C16.5075 11.94 16.6515 11.876 16.7475 11.844L16.8355 11.812L16.8875 11.892V11.888Z" fill="#F0BA07"/>
<path d="M16.2436 13.656C15.9716 13.568 15.7796 13.22 15.9676 12.636C16.0916 12.248 16.5156 12.032 16.7956 11.932C16.9636 12.176 17.1836 12.6 17.0596 12.988C16.8716 13.568 16.5156 13.744 16.2436 13.656Z" fill="url(#paint4_radial_584_24530)"/>
<path d="M16.3796 12.104C16.1916 12.224 16.0156 12.396 15.9396 12.628C15.9036 12.744 15.8796 12.852 15.8716 12.952V12.98C15.8556 13.18 15.8916 13.34 15.9596 13.456L15.9756 13.48C16.0436 13.58 16.1316 13.648 16.2356 13.68C16.3396 13.712 16.4516 13.712 16.5636 13.668L16.5876 13.66C16.7156 13.604 16.8356 13.496 16.9396 13.324L16.9516 13.3C16.9996 13.212 17.0476 13.112 17.0836 12.996C17.1596 12.764 17.1116 12.524 17.0316 12.312L17.0196 12.284C16.9596 12.14 16.8876 12.016 16.8236 11.924L16.8116 11.904L16.8036 11.892H16.7916L16.7676 11.904C16.6636 11.944 16.5316 12 16.3996 12.084L16.3756 12.1L16.3796 12.104ZM16.7516 11.98L16.6716 12.232L16.7236 12.248L16.8036 11.996C16.8556 12.08 16.9156 12.184 16.9676 12.3L16.7876 12.488L16.8276 12.528L16.9876 12.36C17.0356 12.484 17.0676 12.62 17.0636 12.756L16.8356 12.772V12.828L17.0596 12.812C17.0556 12.868 17.0476 12.924 17.0276 12.976C16.9916 13.08 16.9556 13.172 16.9116 13.252L16.7636 13.08L16.7196 13.116L16.8796 13.304C16.7876 13.448 16.6836 13.544 16.5796 13.596L16.5636 13.36H16.5076L16.5236 13.616C16.4276 13.648 16.3316 13.652 16.2476 13.624C16.1596 13.596 16.0836 13.54 16.0276 13.456L16.1876 13.26L16.1436 13.224L15.9956 13.404C15.9396 13.3 15.9076 13.16 15.9196 12.992L16.1596 12.936L16.1476 12.88L15.9236 12.932C15.9356 12.844 15.9556 12.744 15.9876 12.64C16.0036 12.584 16.0316 12.536 16.0596 12.488L16.2316 12.632L16.2676 12.588L16.0916 12.44C16.1716 12.328 16.2756 12.236 16.3876 12.16L16.4196 12.392L16.4756 12.384L16.4396 12.128C16.5476 12.06 16.6556 12.012 16.7476 11.976L16.7516 11.98Z" fill="#00A022"/>
<path d="M16.3116 13.4439C16.1516 13.3919 16.0436 13.1399 16.1796 12.7079C16.2556 12.4719 16.4996 12.3119 16.7036 12.2159C16.8156 12.4159 16.9196 12.6879 16.8436 12.9239C16.7036 13.3559 16.4676 13.4959 16.3076 13.4479L16.3116 13.4439Z" fill="#00AA21"/>
<path d="M16.4275 11.572C16.4075 11.672 16.3715 11.824 16.3075 11.98L16.2955 12.008C16.1795 12.276 16.0195 12.464 15.8155 12.568C15.7075 12.624 15.5955 12.668 15.4915 12.696L15.4635 12.704C15.2675 12.752 15.0835 12.748 14.9315 12.688L14.9075 12.676C14.7835 12.62 14.6875 12.532 14.6275 12.42C14.5675 12.308 14.5515 12.176 14.5795 12.044L14.5875 12.016C14.6275 11.86 14.7315 11.704 14.8835 11.572L14.9035 11.552C14.9875 11.48 15.0875 11.42 15.1955 11.364C15.3995 11.26 15.6435 11.236 15.9275 11.296L15.9555 11.304C16.1195 11.34 16.2635 11.4 16.3555 11.444L16.4395 11.484L16.4235 11.576L16.4275 11.572Z" fill="#F0BA07"/>
<path d="M14.7195 12.364C14.5875 12.112 14.6995 11.728 15.2435 11.448C15.6075 11.26 16.0595 11.408 16.3275 11.536C16.2715 11.828 16.1315 12.284 15.7675 12.468C15.2235 12.748 14.8475 12.616 14.7195 12.364Z" fill="url(#paint5_radial_584_24530)"/>
<path d="M15.9155 11.3679C15.6955 11.3199 15.4515 11.3159 15.2355 11.4279C15.1275 11.4839 15.0355 11.5439 14.9555 11.6079L14.9355 11.6279C14.7835 11.7559 14.6955 11.8959 14.6635 12.0319V12.0559C14.6315 12.1759 14.6515 12.2879 14.6995 12.3839C14.7475 12.4799 14.8315 12.5599 14.9435 12.6079L14.9675 12.6159C15.0955 12.6679 15.2595 12.6759 15.4555 12.6279L15.4795 12.6199C15.5755 12.5919 15.6795 12.5559 15.7875 12.4959C16.0035 12.3839 16.1435 12.1799 16.2315 11.9759L16.2435 11.9479C16.3035 11.8039 16.3395 11.6639 16.3595 11.5559V11.5319L16.3675 11.5199H16.3555L16.3355 11.5039C16.2355 11.4559 16.0995 11.4039 15.9475 11.3719L15.9195 11.3639L15.9155 11.3679ZM16.2675 11.5399L16.0315 11.6599L16.0555 11.7079L16.2915 11.5879C16.2715 11.6839 16.2395 11.7999 16.1915 11.9199L15.9315 11.9279V11.9839L16.1675 11.9759C16.1115 12.0959 16.0395 12.2159 15.9395 12.3119L15.7675 12.1639L15.7315 12.2079L15.8995 12.3519C15.8555 12.3879 15.8115 12.4199 15.7595 12.4479C15.6595 12.4999 15.5675 12.5359 15.4795 12.5599L15.4955 12.3319H15.4395L15.4235 12.5759C15.2555 12.6159 15.1155 12.6079 15.0035 12.5679L15.1595 12.3919L15.1195 12.3559L14.9515 12.5479C14.8595 12.5039 14.7915 12.4359 14.7515 12.3559C14.7115 12.2759 14.6955 12.1799 14.7115 12.0799L14.9635 12.0559V11.9999L14.7235 12.0239C14.7555 11.9119 14.8355 11.7919 14.9635 11.6799L15.1755 11.8079L15.2035 11.7599L15.0075 11.6399C15.0795 11.5839 15.1635 11.5279 15.2595 11.4799C15.3115 11.4519 15.3635 11.4359 15.4195 11.4199L15.4395 11.6399H15.4955L15.4755 11.4079C15.6115 11.3839 15.7515 11.3919 15.8795 11.4199L15.7395 11.6079L15.7835 11.6399L15.9395 11.4319C16.0635 11.4599 16.1755 11.5039 16.2675 11.5439V11.5399Z" fill="#00A022"/>
<path d="M14.9195 12.264C14.8435 12.116 14.9435 11.86 15.3475 11.652C15.5675 11.54 15.8515 11.596 16.0675 11.672C16.0075 11.892 15.8875 12.156 15.6675 12.272C15.2635 12.48 14.9955 12.412 14.9195 12.264Z" fill="#00AA21"/>
<path d="M16.3235 11.02C16.2395 11.076 16.1075 11.156 15.9515 11.224L15.9235 11.236C15.6515 11.344 15.4075 11.36 15.1915 11.292C15.0755 11.256 14.9675 11.208 14.8715 11.152L14.8475 11.136C14.6715 11.032 14.5475 10.896 14.4835 10.748L14.4715 10.724C14.4235 10.596 14.4155 10.464 14.4555 10.344C14.4955 10.224 14.5755 10.12 14.6875 10.044L14.7115 10.028C14.8515 9.944 15.0315 9.908 15.2355 9.924H15.2635C15.3755 9.936 15.4875 9.96 15.6035 10C15.8195 10.068 16.0115 10.228 16.1675 10.472L16.1835 10.496C16.2715 10.64 16.3355 10.784 16.3675 10.88L16.3995 10.968L16.3195 11.02H16.3235Z" fill="#F0BA07"/>
<path d="M14.5556 10.376C14.6436 10.104 14.9916 9.91204 15.5756 10.1C15.9636 10.224 16.1796 10.648 16.2796 10.928C16.0356 11.096 15.6116 11.316 15.2236 11.192C14.6396 11.004 14.4676 10.648 14.5556 10.376Z" fill="url(#paint6_radial_584_24530)"/>
<path d="M16.1076 10.516C15.9876 10.328 15.8156 10.152 15.5836 10.076C15.4676 10.04 15.3596 10.016 15.2596 10.008H15.2316C15.0316 9.99204 14.8716 10.028 14.7556 10.096L14.7316 10.112C14.6316 10.18 14.5636 10.268 14.5316 10.372C14.4996 10.476 14.4996 10.588 14.5436 10.7L14.5516 10.724C14.6076 10.852 14.7156 10.972 14.8876 11.076L14.9116 11.088C14.9996 11.136 15.0996 11.184 15.2156 11.22C15.4476 11.296 15.6876 11.248 15.8996 11.168L15.9276 11.156C16.0716 11.096 16.1956 11.024 16.2876 10.96L16.3076 10.948L16.3156 10.94V10.928L16.3036 10.904C16.2636 10.8 16.2076 10.668 16.1236 10.536L16.1076 10.512V10.516ZM16.2316 10.888L15.9796 10.808L15.9636 10.86L16.2156 10.94C16.1316 10.992 16.0276 11.052 15.9116 11.104L15.7236 10.924L15.6836 10.964L15.8516 11.124C15.7276 11.172 15.5916 11.204 15.4556 11.2L15.4396 10.972H15.3836L15.3996 11.196C15.3436 11.192 15.2876 11.184 15.2356 11.164C15.1316 11.128 15.0396 11.092 14.9596 11.048L15.1316 10.9L15.0956 10.856L14.9076 11.016C14.7636 10.924 14.6676 10.82 14.6156 10.716L14.8516 10.7V10.644L14.5956 10.66C14.5636 10.564 14.5596 10.468 14.5876 10.384C14.6156 10.296 14.6716 10.22 14.7556 10.164L14.9516 10.324L14.9876 10.28L14.8076 10.132C14.9116 10.076 15.0516 10.044 15.2196 10.056L15.2756 10.296L15.3316 10.284L15.2796 10.06C15.3676 10.072 15.4676 10.092 15.5716 10.124C15.6276 10.14 15.6756 10.168 15.7236 10.196L15.5796 10.368L15.6236 10.404L15.7716 10.228C15.8836 10.308 15.9756 10.412 16.0516 10.524L15.8196 10.556L15.8276 10.612L16.0836 10.576C16.1516 10.684 16.1996 10.792 16.2356 10.884L16.2316 10.888Z" fill="#00A022"/>
<path d="M14.7715 10.444C14.8235 10.284 15.0755 10.176 15.5075 10.312C15.7435 10.388 15.9035 10.632 15.9995 10.836C15.7995 10.948 15.5275 11.052 15.2915 10.976C14.8595 10.836 14.7195 10.6 14.7675 10.44L14.7715 10.444Z" fill="#00AA21"/>
<path d="M16.6396 10.56C16.5396 10.54 16.3876 10.504 16.2316 10.44L16.2036 10.428C15.9356 10.312 15.7476 10.152 15.6436 9.94797C15.5876 9.83997 15.5436 9.72797 15.5156 9.62397L15.5076 9.59597C15.4596 9.39997 15.4636 9.21597 15.5236 9.06397L15.5356 9.03997C15.5916 8.91597 15.6796 8.81997 15.7956 8.75997C15.9076 8.69997 16.0396 8.68397 16.1716 8.71197L16.1996 8.71997C16.3556 8.75997 16.5116 8.86397 16.6436 9.01597L16.6636 9.03597C16.7356 9.11997 16.7956 9.21997 16.8516 9.32797C16.9556 9.53197 16.9796 9.77597 16.9196 10.06L16.9116 10.088C16.8756 10.252 16.8156 10.396 16.7716 10.488L16.7316 10.572L16.6396 10.556V10.56Z" fill="#F0BA07"/>
<path d="M15.8475 8.85598C16.0995 8.72398 16.4835 8.83598 16.7635 9.37998C16.9515 9.74398 16.8035 10.196 16.6755 10.464C16.3835 10.408 15.9275 10.268 15.7435 9.90398C15.4635 9.35998 15.5955 8.98398 15.8475 8.85598Z" fill="url(#paint7_radial_584_24530)"/>
<path d="M16.8475 10.048C16.8955 9.82795 16.8995 9.58395 16.7875 9.36795C16.7315 9.25995 16.6715 9.16795 16.6075 9.08795L16.5875 9.06795C16.4595 8.91595 16.3195 8.82795 16.1835 8.79595H16.1595C16.0395 8.76395 15.9275 8.78395 15.8315 8.83195C15.7355 8.87995 15.6555 8.96395 15.6075 9.07595L15.5995 9.09995C15.5475 9.22795 15.5395 9.39195 15.5875 9.58795L15.5955 9.61195C15.6235 9.70795 15.6595 9.81195 15.7195 9.91995C15.8315 10.136 16.0355 10.276 16.2395 10.364L16.2675 10.376C16.4115 10.436 16.5515 10.472 16.6595 10.492H16.6835L16.6955 10.5V10.488L16.7115 10.468C16.7595 10.368 16.8115 10.232 16.8435 10.08L16.8515 10.052L16.8475 10.048ZM16.6755 10.4L16.5555 10.164L16.5075 10.188L16.6275 10.424C16.5315 10.404 16.4155 10.372 16.2955 10.324L16.2875 10.064H16.2315L16.2395 10.3C16.1195 10.244 15.9995 10.172 15.9035 10.072L16.0515 9.89995L16.0075 9.86395L15.8635 10.032C15.8275 9.98795 15.7955 9.94395 15.7675 9.89195C15.7155 9.79195 15.6795 9.69995 15.6555 9.61195L15.8835 9.62795V9.57195L15.6395 9.55595C15.5995 9.38795 15.6075 9.24795 15.6475 9.13595L15.8235 9.29195L15.8595 9.25195L15.6675 9.08395C15.7115 8.99195 15.7795 8.92395 15.8595 8.88395C15.9395 8.84395 16.0355 8.82795 16.1355 8.84395L16.1595 9.09595H16.2155L16.1915 8.85595C16.3035 8.88795 16.4235 8.96795 16.5355 9.09595L16.4075 9.30795L16.4555 9.33595L16.5755 9.13995C16.6315 9.21195 16.6875 9.29595 16.7355 9.39195C16.7635 9.44395 16.7795 9.49595 16.7955 9.55195L16.5755 9.57195V9.62795L16.8075 9.60795C16.8315 9.74395 16.8235 9.88395 16.7955 10.012L16.6075 9.87195L16.5755 9.91595L16.7835 10.072C16.7555 10.196 16.7115 10.308 16.6715 10.4H16.6755Z" fill="#00A022"/>
<path d="M15.9476 9.0519C16.0956 8.9759 16.3516 9.0759 16.5596 9.4799C16.6716 9.6999 16.6156 9.9839 16.5396 10.1999C16.3196 10.1399 16.0556 10.0199 15.9396 9.7999C15.7316 9.3959 15.7996 9.1279 15.9476 9.0519Z" fill="#00AA21"/>
<path d="M17.7276 11.3961C17.6036 11.7761 17.1996 11.9841 16.8196 11.8641C16.4396 11.7441 16.2316 11.3361 16.3516 10.9561C16.4716 10.5761 16.8796 10.3681 17.2596 10.4881C17.6396 10.6081 17.8476 11.0161 17.7276 11.3961Z" fill="#B40012"/>
<path d="M17.2228 10.4771L16.7814 11.8519L16.8537 11.8752L17.2952 10.5003L17.2228 10.4771Z" fill="#C80014"/>
<path d="M16.3625 10.9192L16.3392 10.9916L17.7141 11.433L17.7373 11.3606L16.3625 10.9192Z" fill="#C80014"/>
<path d="M16.7418 10.5129L16.6742 10.5476L17.3361 11.8355L17.4037 11.8007L16.7418 10.5129Z" fill="#C80014"/>
<path d="M17.6663 10.8068L16.3784 11.4686L16.4132 11.5362L17.701 10.8743L17.6663 10.8068Z" fill="#C80014"/>
<path d="M17.3355 11.2681C17.2835 11.4321 17.1075 11.5241 16.9435 11.4681C16.7795 11.4121 16.6875 11.2401 16.7435 11.0761C16.7995 10.9121 16.9715 10.8201 17.1355 10.8761C17.2995 10.9321 17.3915 11.1041 17.3355 11.2681Z" fill="#D20015"/>
<path d="M16.8075 11.8961C16.4075 11.7681 16.1875 11.3401 16.3155 10.9401C16.4435 10.5401 16.8715 10.3201 17.2715 10.4481C17.6715 10.5761 17.8915 11.0041 17.7635 11.4041C17.6355 11.8041 17.2075 12.0241 16.8075 11.8961ZM17.2475 10.5201C16.8875 10.4041 16.4995 10.6041 16.3835 10.9641C16.2675 11.3241 16.4675 11.7121 16.8275 11.8281C17.1875 11.9441 17.5755 11.7441 17.6915 11.3841C17.8075 11.0241 17.6075 10.6361 17.2475 10.5201Z" fill="#C80014"/>
<path d="M16.9595 10.6801L16.9275 10.8721L17.1035 10.9601L16.9115 10.9321L16.8195 11.1081L16.8515 10.9121L16.6755 10.8241L16.8675 10.8521L16.9595 10.6801Z" fill="white"/>
<path d="M16.0196 8.82397L15.9956 8.98397L16.1396 9.05997L15.9796 9.03597L15.9036 9.17998L15.9276 9.01997L15.7836 8.94398L15.9436 8.96797L16.0196 8.82397Z" fill="white"/>
<path d="M18.7996 11.2161L18.7796 11.3441L18.8956 11.4041L18.7676 11.3841L18.7076 11.5001L18.7276 11.3721L18.6116 11.3121L18.7396 11.3321L18.7996 11.2161Z" fill="white"/>
<path d="M16.7516 12.072L16.7316 12.2L16.8476 12.26L16.7196 12.24L16.6596 12.356L16.6796 12.228L16.5636 12.168L16.6916 12.188L16.7516 12.072Z" fill="white"/>
<path d="M8.6755 5.62005C8.4715 5.26405 8.0315 5.05205 7.6315 5.20005C7.4275 5.27605 7.2835 5.44005 7.2195 5.64405C7.1435 5.88005 7.1755 6.13205 7.2195 6.36805C7.2715 6.66805 7.3475 6.98805 7.2275 7.28405C7.1275 7.52805 6.9275 7.70405 6.6915 7.81205C6.6595 7.82805 6.6835 7.87605 6.7155 7.86805C7.1475 7.76005 7.4115 7.31205 7.4035 6.88805C7.3955 6.61605 7.3155 6.35605 7.2955 6.08805C7.2795 5.86405 7.3075 5.61605 7.4675 5.44805C7.7595 5.14405 8.2715 5.27605 8.5035 5.58005C8.8035 5.97205 8.7475 6.50005 8.5995 6.94005C8.4075 7.50805 8.0435 8.02805 7.9915 8.64005C7.9835 8.72005 8.1075 8.71605 8.1155 8.64005C8.1875 8.07205 8.4915 7.58005 8.6875 7.05205C8.8515 6.59605 8.9275 6.06805 8.6755 5.62805V5.62005Z" fill="#F0BA07"/>
<path d="M8.43951 8.88407C8.43951 9.19607 8.29151 9.44807 8.10751 9.44807C7.92351 9.44807 7.77551 9.19607 7.77551 8.88407C7.77551 8.57207 7.92351 8.32007 8.10751 8.32007C8.29151 8.32007 8.43951 8.57207 8.43951 8.88407Z" fill="#F0BA07"/>
<path d="M8.15548 8.32812C8.25548 8.42413 8.32348 8.60812 8.32348 8.82012C8.32348 9.13212 8.17548 9.38412 7.99148 9.38412C7.97548 9.38412 7.95948 9.38413 7.94348 9.38013C7.99148 9.42413 8.04748 9.45212 8.10348 9.45212C8.28748 9.45212 8.43548 9.20012 8.43548 8.88812C8.43548 8.60412 8.31148 8.36813 8.15148 8.32812H8.15548Z" fill="#DDA100"/>
<path d="M8.04754 8.51607C8.04754 8.48807 8.01554 8.48007 7.99954 8.49607C7.92754 8.55207 7.90354 8.66007 7.89154 8.74807C7.88354 8.80407 7.85954 8.97607 7.94754 8.99207C8.02754 9.00407 8.00354 8.86807 8.00354 8.82407C8.00354 8.71607 8.04354 8.62007 8.05154 8.51607H8.04754Z" fill="#FFE675"/>
<path d="M8.00755 9.13207C8.00755 9.13207 7.99555 9.10007 7.99555 9.08407C7.99555 9.05607 7.95555 9.04807 7.94355 9.07207C7.92755 9.10407 7.92755 9.13607 7.94755 9.16407C7.95955 9.18007 7.97555 9.18407 7.99155 9.17607C8.00755 9.16807 8.01155 9.14807 8.00355 9.13207H8.00755Z" fill="#FFE6BA"/>
<path d="M8.13159 13.0441C7.90759 14.7321 7.40359 15.4601 6.94759 16.1681C6.53959 16.7441 6.46359 17.2641 6.55559 17.7521C6.71159 18.3281 7.04759 18.5721 7.40759 18.7601C7.82759 18.9361 8.28359 18.9041 8.84359 18.2761C9.20759 17.8161 9.48359 17.1681 9.49959 16.2361C9.50759 15.6601 9.32359 15.1681 9.11159 14.7081C8.93159 14.2561 8.54359 13.6561 8.13559 13.0441H8.13159Z" fill="#FFE675" stroke="#F0BA07" stroke-width="0.108" stroke-linecap="round" stroke-linejoin="round"/>
<path d="M6.90753 18.4001C6.60753 18.0001 6.49153 17.572 6.54353 17.076C6.40353 17.532 6.54753 18.0841 6.87953 18.4241C6.89153 18.4361 6.91953 18.42 6.90753 18.404V18.4001Z" fill="#FFE675"/>
<path d="M8.17152 12.9681C7.08352 13.7361 6.23552 13.9081 5.58752 14.0241C5.03952 14.0961 4.70352 14.3281 4.47152 14.6401C4.22352 15.0361 4.26352 15.3561 4.34752 15.6641C4.47152 15.9961 4.73152 16.2441 5.38752 16.2281C5.84352 16.1921 6.36352 16.0081 6.90352 15.5201C7.23952 15.2201 7.41952 14.8521 7.57152 14.4841C7.73552 14.1401 8.03552 13.5241 8.17152 12.9641V12.9681Z" fill="#FFE675" stroke="#F0BA07" stroke-width="0.108" stroke-linecap="round" stroke-linejoin="round"/>
<path d="M8.17151 12.9681C9.37551 13.5321 10.0675 13.5081 10.7275 13.5081C11.2795 13.4841 11.6515 13.6521 11.9355 13.9201C12.2475 14.2681 12.2675 14.5881 12.2395 14.9081C12.1755 15.2601 11.9635 15.5481 11.3155 15.6481C10.8595 15.6921 10.3155 15.6041 9.69951 15.2201C9.31951 14.9841 9.07151 14.6521 8.85951 14.3201C8.63951 14.0081 8.40751 13.5041 8.17551 12.9721L8.17151 12.9681Z" fill="#FFE675" stroke="#F0BA07" stroke-width="0.108" stroke-linecap="round" stroke-linejoin="round"/>
<path d="M8.31149 13.8641C8.05149 15.2001 7.64749 15.7561 7.27949 16.2961C6.95149 16.7321 6.85149 17.1441 6.90349 17.5401C6.96749 18.0121 7.20349 18.2361 7.46349 18.3961C7.75149 18.5721 8.09149 18.5641 8.53149 18.0921C8.81949 17.7441 9.05949 17.2441 9.12349 16.5001C9.16349 16.0401 9.04749 15.6401 8.92749 15.2561C8.81149 14.8881 8.57549 14.3841 8.31549 13.8681L8.31149 13.8641Z" fill="#E848B9" stroke="#C42994" stroke-width="0.108" stroke-linecap="round" stroke-linejoin="round"/>
<path d="M8.29701 18.1419C8.36683 18.0711 8.37753 17.9684 8.32091 17.9126C8.26429 17.8567 8.1618 17.8688 8.09199 17.9396C8.02217 18.0104 8.01147 18.113 8.06809 18.1689C8.12471 18.2247 8.2272 18.2126 8.29701 18.1419Z" fill="#C42994"/>
<path d="M8.51723 17.8386C8.56754 17.8315 8.60109 17.7744 8.59217 17.7109C8.58324 17.6475 8.53522 17.6018 8.4849 17.6089C8.43459 17.616 8.40104 17.6731 8.40996 17.7366C8.41889 17.8 8.46691 17.8457 8.51723 17.8386Z" fill="#C42994"/>
<path d="M8.39155 14.6681C8.28355 15.3681 7.29555 16.3761 7.08755 17.1041C6.98755 17.4521 7.13555 18.2121 7.79955 18.2641C7.79955 18.2641 7.23155 17.8041 7.32355 17.2281C7.42755 16.5521 7.91955 15.9441 8.04755 15.7041C8.33555 15.1681 8.38755 14.6721 8.38755 14.6721L8.39155 14.6681Z" fill="#FF8CEA"/>
<path d="M8.89148 16.5882C8.85148 16.2882 8.83148 15.9922 8.77548 15.6962C8.71948 15.4042 8.64748 15.1122 8.56348 14.8242C8.56348 14.8242 8.56748 14.8202 8.57148 14.8242C8.83548 15.3562 9.00348 15.9922 8.97148 16.5882C8.97148 16.6322 8.89948 16.6362 8.89548 16.5882H8.89148Z" fill="#FF8CEA"/>
<path d="M7.27152 17.9722C7.12352 17.8722 7.10352 17.6442 7.09952 17.4802C7.09152 17.2762 7.15951 17.1242 7.25951 16.9522C7.26351 16.9442 7.27552 16.9522 7.27552 16.9602C7.24752 17.1162 7.26351 17.3002 7.27951 17.4602C7.29551 17.6122 7.39152 17.7682 7.37552 17.9162C7.37152 17.9602 7.31952 18.0082 7.27552 17.9762L7.27152 17.9722Z" fill="#FFE7FB"/>
<path d="M7.6675 13.5881C6.7955 14.1401 6.2835 14.2041 5.7915 14.2801C5.3795 14.3281 5.1035 14.4841 4.9115 14.7201C4.6835 15.0001 4.6835 15.2481 4.7315 15.4721C4.7835 15.7201 4.9635 15.9041 5.4515 15.9001C5.7915 15.8801 6.1915 15.7481 6.6355 15.4001C6.9075 15.1841 7.0675 14.9121 7.2195 14.6481C7.3715 14.3841 7.5155 14.0001 7.6635 13.5921L7.6675 13.5881Z" fill="#E848B9" stroke="#C42994" stroke-width="0.108" stroke-linecap="round" stroke-linejoin="round"/>
<path d="M5.44746 15.6895C5.4488 15.6299 5.38902 15.5802 5.31392 15.5785C5.23883 15.5768 5.17687 15.6238 5.17553 15.6834C5.17418 15.743 5.23397 15.7928 5.30906 15.7944C5.38415 15.7961 5.44612 15.7492 5.44746 15.6895Z" fill="#C42994"/>
<path d="M5.69596 15.7323C5.72633 15.6944 5.72717 15.6446 5.69785 15.6211C5.66853 15.5977 5.62014 15.6094 5.58978 15.6474C5.55941 15.6853 5.55856 15.7351 5.58788 15.7586C5.6172 15.782 5.66559 15.7703 5.69596 15.7323Z" fill="#C42994"/>
<path d="M7.26356 14.0481C6.81956 14.3521 5.75556 14.3321 5.24756 14.5921C5.00356 14.7161 4.66356 15.1921 4.97956 15.5881C4.97956 15.5881 4.93956 15.0401 5.30356 14.7881C5.73156 14.4961 6.31956 14.4481 6.51956 14.3961C6.96356 14.2761 7.26356 14.0481 7.26356 14.0481Z" fill="#FF8CEA"/>
<path d="M6.47151 15.3201C6.61551 15.1441 6.76751 14.9761 6.89951 14.7921C7.03151 14.6081 7.15551 14.4161 7.27151 14.2241H7.27551C7.11951 14.6441 6.85951 15.0681 6.51151 15.3561C6.48751 15.3761 6.44751 15.3401 6.47151 15.3161V15.3201Z" fill="#FF8CEA"/>
<path d="M4.86753 15.1441C4.84753 15.0121 4.95953 14.8841 5.04753 14.7921C5.15553 14.6801 5.27553 14.6401 5.41953 14.6041C5.42753 14.6041 5.43153 14.6121 5.42353 14.6161C5.32353 14.6801 5.23153 14.7881 5.15153 14.8761C5.07553 14.9601 5.03953 15.0961 4.95153 15.1641C4.92353 15.1841 4.87153 15.1841 4.86353 15.1401L4.86753 15.1441Z" fill="#FFE7FB"/>
<path d="M8.62354 13.3601C9.57554 13.7921 10.1035 13.7801 10.6075 13.7921C11.0275 13.7801 11.3275 13.9001 11.5515 14.1081C11.8195 14.3561 11.8515 14.6041 11.8395 14.8361C11.8235 15.0961 11.6675 15.3041 11.1755 15.3681C10.8315 15.3961 10.4075 15.3201 9.91553 15.0321C9.61154 14.8521 9.41154 14.6041 9.22354 14.3561C9.03554 14.1081 8.83154 13.7481 8.62754 13.3561L8.62354 13.3601Z" fill="#E848B9" stroke="#C42994" stroke-width="0.108" stroke-linecap="round" stroke-linejoin="round"/>
<path d="M11.3061 15.2451C11.3802 15.233 11.4325 15.1754 11.4229 15.1165C11.4132 15.0577 11.3453 15.0198 11.2712 15.032C11.1971 15.0441 11.1448 15.1017 11.1544 15.1605C11.1641 15.2194 11.232 15.2573 11.3061 15.2451Z" fill="#C42994"/>
<path d="M11.0243 15.2468C11.0515 15.2178 11.045 15.1674 11.0096 15.134C10.9742 15.1007 10.9235 15.0971 10.8962 15.1261C10.8689 15.155 10.8755 15.2055 10.9108 15.2388C10.9462 15.2722 10.997 15.2757 11.0243 15.2468Z" fill="#C42994"/>
<path d="M9.09558 13.7641C9.58358 14.0081 10.6516 13.8361 11.1996 14.0281C11.4636 14.1201 11.8716 14.5481 11.6116 14.9881C11.6116 14.9881 11.5756 14.4281 11.1756 14.2281C10.7076 13.9961 10.1076 14.0321 9.89958 14.0041C9.43558 13.9481 9.09958 13.7601 9.09958 13.7601L9.09558 13.7641Z" fill="#FF8CEA"/>
<path d="M10.0756 14.9321C9.90757 14.7761 9.72757 14.6281 9.56757 14.4641C9.40757 14.3001 9.25957 14.1241 9.11557 13.9441H9.11157C9.32757 14.3441 9.65157 14.7321 10.0396 14.9761C10.0676 14.9921 10.0996 14.9521 10.0756 14.9321Z" fill="#FF8CEA"/>
<path d="M11.6595 14.5281C11.6595 14.3921 11.5275 14.2801 11.4275 14.2001C11.3035 14.1041 11.1795 14.0801 11.0275 14.0641C11.0195 14.0641 11.0195 14.0721 11.0275 14.0761C11.1395 14.1281 11.2475 14.2201 11.3395 14.3001C11.4275 14.3761 11.4835 14.5041 11.5835 14.5601C11.6155 14.5761 11.6675 14.5681 11.6675 14.5241L11.6595 14.5281Z" fill="#FFE7FB"/>
<path d="M8.12752 13.2201C8.12752 13.2201 8.09552 13.1881 8.07952 13.2081C8.01952 13.2841 8.01552 13.3801 7.99952 13.4721C7.98352 13.5761 7.97952 13.6761 7.98752 13.7841C7.98752 13.7841 7.98752 13.7881 7.99152 13.7841C8.03552 13.6881 8.07152 13.6001 8.09552 13.4961C8.11552 13.4041 8.15552 13.3121 8.12352 13.2201H8.12752Z" fill="#FFE675"/>
<path d="M8.57554 13.7841C8.57554 13.7841 8.60754 13.7561 8.60754 13.7401C8.60754 13.6601 8.56354 13.6361 8.53154 13.6001C8.49154 13.5601 8.44754 13.5361 8.39954 13.5161C8.39954 13.5161 8.39954 13.5161 8.39954 13.5201C8.41954 13.5841 8.43954 13.6441 8.47554 13.6881C8.50354 13.7321 8.52754 13.7881 8.58354 13.7801L8.57554 13.7841Z" fill="#FFE675"/>
<path d="M9.01158 11.4441C8.86358 11.9041 8.37158 12.1601 7.91158 12.0121C7.45158 11.8641 7.19958 11.3721 7.34358 10.9121C7.48758 10.4521 7.98358 10.2001 8.44358 10.3441C8.90358 10.4881 9.15958 10.9841 9.01158 11.4441Z" fill="#F0BA07"/>
<path d="M8.33157 10.464C8.27557 10.38 8.19557 10.248 8.12757 10.092L8.11557 10.064C8.00757 9.79205 7.99157 9.54805 8.05957 9.33205C8.09557 9.21605 8.14357 9.10805 8.19957 9.01205L8.21557 8.98805C8.31957 8.81205 8.45557 8.68805 8.60357 8.62405L8.62757 8.61205C8.75557 8.56405 8.88757 8.55605 9.00757 8.59605C9.12757 8.63605 9.23157 8.71605 9.30757 8.82805L9.32357 8.85205C9.40757 8.99205 9.44357 9.17205 9.42757 9.37605V9.40405C9.41557 9.51605 9.39157 9.62805 9.35157 9.74405C9.28357 9.96005 9.12357 10.152 8.87957 10.308L8.85557 10.324C8.71157 10.412 8.56757 10.476 8.47157 10.508L8.38357 10.54L8.33157 10.464Z" fill="#F0BA07"/>
<path d="M8.97559 8.69203C9.24759 8.78003 9.43959 9.12803 9.25159 9.70803C9.12759 10.096 8.70359 10.312 8.42359 10.412C8.25559 10.168 8.03559 9.74403 8.15959 9.35603C8.34759 8.77203 8.70359 8.60003 8.97559 8.68803V8.69203Z" fill="url(#paint8_radial_584_24530)"/>
<path d="M8.83556 10.2441C9.02356 10.1241 9.19956 9.95206 9.27556 9.72006C9.31156 9.60406 9.33556 9.49606 9.34356 9.39606V9.36806C9.35956 9.16806 9.32356 9.00806 9.25556 8.89206L9.23956 8.86806C9.17156 8.76806 9.08356 8.70006 8.97956 8.66806C8.87556 8.63606 8.76356 8.63606 8.65156 8.68006L8.62756 8.68806C8.49956 8.74406 8.37956 8.85206 8.27556 9.02406L8.26356 9.04806C8.21556 9.13606 8.16756 9.23606 8.13156 9.35206C8.05556 9.58406 8.10356 9.82406 8.18356 10.0361L8.19556 10.0641C8.25556 10.2081 8.32756 10.3321 8.39156 10.4241L8.40356 10.4441L8.41156 10.4561H8.42356L8.44756 10.4441C8.55156 10.4041 8.68356 10.3481 8.81556 10.2641L8.83956 10.2481L8.83556 10.2441ZM8.46356 10.3681L8.54356 10.1161L8.49156 10.1001L8.41156 10.3521C8.35956 10.2681 8.29956 10.1641 8.24756 10.0481L8.42756 9.86006L8.38756 9.82006L8.22756 9.98806C8.17956 9.86406 8.14756 9.72806 8.15156 9.59206L8.37956 9.57606V9.52006L8.15556 9.53606C8.15956 9.48006 8.17156 9.42406 8.18756 9.37206C8.22356 9.26806 8.25956 9.17606 8.30356 9.09606L8.45156 9.26806L8.49556 9.23206L8.33556 9.04406C8.42756 8.90006 8.53156 8.80406 8.63556 8.75206L8.65156 8.98806H8.70756L8.69156 8.73206C8.78756 8.70006 8.88356 8.69606 8.96756 8.72406C9.05156 8.75206 9.13156 8.80806 9.18756 8.89206L9.02756 9.08806L9.07156 9.12406L9.21956 8.94406C9.27556 9.04806 9.30756 9.18806 9.29556 9.35606L9.05556 9.41206L9.06756 9.46806L9.29156 9.41606C9.27956 9.50406 9.25956 9.60406 9.22756 9.70806C9.21156 9.76406 9.18756 9.81206 9.15556 9.86006L8.98356 9.71606L8.94756 9.76006L9.12356 9.90806C9.04356 10.0201 8.93956 10.1121 8.83156 10.1881L8.79956 9.95606L8.74356 9.96406L8.77956 10.2201C8.67156 10.2881 8.56356 10.3361 8.47156 10.3721L8.46356 10.3681Z" fill="#00A022"/>
<path d="M8.9076 8.90801C9.0676 8.96001 9.1756 9.21201 9.0396 9.64401C8.9636 9.88001 8.7196 10.04 8.5156 10.136C8.4036 9.93601 8.2996 9.66401 8.3756 9.42801C8.5156 8.99601 8.7516 8.85601 8.9116 8.90401L8.9076 8.90801Z" fill="#00AA21"/>
<path d="M8.79154 10.7801C8.81154 10.6801 8.84754 10.5281 8.91154 10.3721L8.92354 10.3441C9.03954 10.0761 9.19954 9.88808 9.40354 9.78408C9.51154 9.72808 9.62354 9.68408 9.72754 9.65608L9.75554 9.64808C9.95154 9.60008 10.1355 9.60408 10.2875 9.66408L10.3115 9.67608C10.4355 9.73208 10.5315 9.82008 10.5915 9.93608C10.6515 10.0481 10.6675 10.1801 10.6395 10.3121L10.6315 10.3401C10.5915 10.4961 10.4875 10.6521 10.3355 10.7841L10.3155 10.8041C10.2315 10.8761 10.1315 10.9361 10.0235 10.9921C9.81954 11.0961 9.57554 11.1201 9.29154 11.0601L9.26354 11.0521C9.09954 11.0161 8.95554 10.9561 8.86354 10.9121L8.77954 10.8721L8.79554 10.7801H8.79154Z" fill="#F0BA07"/>
<path d="M10.4956 9.98409C10.6276 10.2361 10.5156 10.6201 9.97157 10.9001C9.60757 11.0881 9.15557 10.9401 8.88757 10.8121C8.94357 10.5201 9.08357 10.0641 9.44757 9.88009C9.99157 9.60009 10.3676 9.73209 10.4956 9.98409Z" fill="url(#paint9_radial_584_24530)"/>
<path d="M9.30359 10.9841C9.52359 11.0321 9.76759 11.0361 9.98359 10.9241C10.0916 10.8681 10.1836 10.8081 10.2636 10.7441L10.2836 10.7241C10.4356 10.5961 10.5236 10.4561 10.5556 10.3201V10.2961C10.5876 10.1761 10.5676 10.0641 10.5196 9.96813C10.4716 9.87213 10.3876 9.79213 10.2796 9.74413L10.2556 9.73613C10.1276 9.68413 9.96359 9.67613 9.76759 9.72413L9.74359 9.73213C9.64759 9.75613 9.54359 9.79613 9.43559 9.85213C9.21959 9.96413 9.07959 10.1681 8.99159 10.3721L8.97959 10.4001C8.91959 10.5441 8.88359 10.6841 8.86359 10.7921V10.8161L8.85559 10.8281H8.86759L8.88759 10.8441C8.98759 10.8921 9.12359 10.9441 9.27559 10.9761L9.30359 10.9841ZM8.95159 10.8121L9.18759 10.6921L9.16359 10.6401L8.92759 10.7601C8.94759 10.6641 8.97959 10.5481 9.02759 10.4281L9.28759 10.4201V10.3641L9.05159 10.3721C9.10759 10.2521 9.17959 10.1321 9.27959 10.0361L9.45159 10.1841L9.48759 10.1401L9.31959 9.99613C9.36359 9.96013 9.40759 9.92813 9.45959 9.90013C9.55959 9.84813 9.65159 9.81213 9.73959 9.78813L9.72359 10.0161H9.77959L9.79559 9.77213C9.96359 9.73213 10.1036 9.74013 10.2156 9.78013L10.0596 9.95613L10.0996 9.99213L10.2676 9.80013C10.3596 9.84413 10.4276 9.91213 10.4676 9.99213C10.5076 10.0721 10.5236 10.1681 10.5076 10.2681L10.2556 10.2961V10.3521L10.4956 10.3281C10.4636 10.4401 10.3836 10.5601 10.2556 10.6721L10.0436 10.5441L10.0156 10.5921L10.2116 10.7121C10.1396 10.7681 10.0556 10.8241 9.95959 10.8721C9.90759 10.9001 9.85559 10.9161 9.79959 10.9321L9.77959 10.7121H9.72359L9.74359 10.9441C9.60759 10.9681 9.46759 10.9601 9.33959 10.9321L9.47959 10.7441L9.43559 10.7121L9.27959 10.9201C9.15559 10.8921 9.04359 10.8481 8.95159 10.8081V10.8121Z" fill="#00A022"/>
<path d="M10.2996 10.0881C10.3756 10.2361 10.2756 10.4921 9.87161 10.7001C9.65161 10.8121 9.36761 10.7561 9.15161 10.6801C9.21561 10.4601 9.33161 10.1961 9.55161 10.0801C9.95561 9.87209 10.2236 9.94009 10.2996 10.0881Z" fill="#00AA21"/>
<path d="M8.89155 11.328C8.97555 11.272 9.10755 11.192 9.26355 11.124L9.29155 11.112C9.56355 11.004 9.80755 10.988 10.0236 11.056C10.1396 11.092 10.2476 11.14 10.3436 11.196L10.3676 11.212C10.5436 11.316 10.6676 11.452 10.7316 11.6L10.7436 11.624C10.7916 11.752 10.7996 11.884 10.7596 12.004C10.7196 12.124 10.6396 12.228 10.5276 12.304L10.5036 12.32C10.3636 12.404 10.1836 12.44 9.97955 12.424H9.95155C9.83955 12.412 9.72755 12.388 9.61155 12.348C9.39555 12.28 9.20355 12.12 9.04755 11.876L9.03155 11.852C8.94355 11.708 8.87955 11.564 8.84755 11.468L8.81555 11.38L8.89555 11.328H8.89155Z" fill="#F0BA07"/>
<path d="M10.6595 11.9721C10.5715 12.2441 10.2235 12.4361 9.63955 12.2481C9.25155 12.1241 9.03555 11.7001 8.93555 11.4201C9.17955 11.2521 9.60355 11.0321 9.99155 11.1561C10.5715 11.3441 10.7475 11.7001 10.6595 11.9721Z" fill="url(#paint10_radial_584_24530)"/>
<path d="M9.11154 11.836C9.23154 12.024 9.40354 12.2 9.63554 12.276C9.75154 12.312 9.85954 12.336 9.95954 12.344H9.98754C10.1875 12.36 10.3475 12.324 10.4635 12.256L10.4875 12.24C10.5875 12.172 10.6555 12.084 10.6875 11.98C10.7195 11.876 10.7195 11.764 10.6755 11.652L10.6675 11.628C10.6115 11.5 10.5035 11.38 10.3315 11.276L10.3075 11.264C10.2195 11.216 10.1195 11.168 10.0035 11.132C9.77154 11.056 9.53154 11.104 9.31954 11.184L9.29154 11.196C9.14754 11.256 9.02354 11.328 8.93154 11.392L8.91154 11.404L8.89954 11.412V11.424L8.91154 11.448C8.95154 11.552 9.00754 11.684 9.09154 11.816L9.10754 11.84L9.11154 11.836ZM8.98754 11.464L9.23954 11.544L9.25554 11.492L9.00354 11.412C9.08754 11.36 9.19154 11.3 9.30754 11.248L9.49554 11.428L9.53554 11.388L9.36754 11.228C9.49154 11.18 9.62754 11.148 9.76354 11.152L9.77954 11.38H9.83554L9.81954 11.156C9.87554 11.16 9.93154 11.168 9.98354 11.188C10.0875 11.224 10.1795 11.26 10.2595 11.304L10.0875 11.452L10.1235 11.496L10.3115 11.336C10.4555 11.428 10.5515 11.532 10.6035 11.636L10.3675 11.652V11.708L10.6235 11.692C10.6555 11.788 10.6595 11.884 10.6315 11.968C10.6035 12.056 10.5475 12.132 10.4635 12.188L10.2675 12.028L10.2315 12.072L10.4115 12.22C10.3075 12.276 10.1675 12.308 9.99954 12.296L9.94354 12.056L9.88754 12.068L9.93954 12.292C9.85154 12.28 9.75154 12.26 9.64754 12.228C9.59154 12.212 9.54354 12.188 9.49554 12.156L9.63954 11.984L9.59554 11.948L9.44754 12.124C9.33554 12.044 9.24354 11.94 9.16754 11.828L9.39954 11.796L9.39154 11.74L9.13554 11.776C9.06754 11.668 9.01954 11.56 8.98354 11.468L8.98754 11.464Z" fill="#00A022"/>
<path d="M10.4475 11.9041C10.3955 12.0641 10.1435 12.1721 9.71148 12.0361C9.47548 11.9601 9.31548 11.7161 9.21948 11.5121C9.41948 11.4001 9.69148 11.2961 9.92748 11.3721C10.3595 11.5121 10.4995 11.7481 10.4515 11.9081L10.4475 11.9041Z" fill="#00AA21"/>
<path d="M8.57554 11.788C8.67554 11.808 8.82754 11.844 8.98354 11.908L9.01154 11.92C9.27954 12.036 9.46754 12.196 9.57154 12.4C9.62754 12.508 9.67154 12.62 9.69954 12.724L9.70754 12.752C9.75554 12.948 9.75154 13.132 9.69154 13.284L9.67954 13.308C9.62354 13.432 9.53554 13.528 9.42354 13.588C9.31154 13.648 9.17954 13.664 9.04754 13.636L9.01954 13.628C8.86354 13.588 8.70754 13.484 8.57554 13.332L8.55554 13.312C8.48354 13.228 8.42354 13.128 8.36754 13.02C8.26354 12.816 8.23954 12.572 8.29954 12.288L8.30754 12.26C8.34354 12.096 8.40354 11.952 8.44754 11.86L8.48754 11.776L8.57954 11.792L8.57554 11.788Z" fill="#F0BA07"/>
<path d="M9.37144 13.4961C9.11944 13.6281 8.73544 13.5161 8.45544 12.9721C8.26744 12.6081 8.41544 12.1561 8.54344 11.8881C8.83544 11.9441 9.29144 12.0841 9.47544 12.4481C9.75544 12.9921 9.62344 13.3681 9.37144 13.4961Z" fill="url(#paint11_radial_584_24530)"/>
<path d="M8.37149 12.3001C8.32349 12.5201 8.31949 12.7641 8.43149 12.9801C8.48749 13.0881 8.54749 13.1801 8.61149 13.2601L8.63149 13.2801C8.76349 13.4321 8.89949 13.5201 9.03549 13.5521H9.05949C9.17949 13.5841 9.29149 13.5641 9.38749 13.5161C9.48349 13.4681 9.56349 13.3841 9.61149 13.2761L9.61949 13.2521C9.67149 13.1241 9.67949 12.9601 9.63149 12.7641L9.62349 12.7401C9.59549 12.6441 9.55949 12.5401 9.49949 12.4321C9.38749 12.2161 9.18349 12.0761 8.97949 11.9881L8.95149 11.9761C8.80749 11.9161 8.66749 11.8801 8.55949 11.8601H8.53549L8.52349 11.8521V11.8641L8.50749 11.8841C8.45949 11.9841 8.40749 12.1201 8.37549 12.2721L8.36749 12.3001H8.37149ZM8.54349 11.9481L8.66349 12.1841L8.71149 12.1601L8.59149 11.9241C8.68749 11.9441 8.80349 11.9761 8.92349 12.0241L8.93149 12.2841H8.98749L8.97949 12.0481C9.09949 12.1041 9.21949 12.1761 9.31549 12.2761L9.16749 12.4481L9.21149 12.4841L9.35549 12.3161C9.39149 12.3601 9.42349 12.4041 9.45149 12.4561C9.50349 12.5561 9.53949 12.6481 9.56349 12.7361L9.33549 12.7201V12.7761L9.57949 12.7921C9.61949 12.9601 9.61149 13.1001 9.57149 13.2121L9.39549 13.0561L9.35949 13.0961L9.55149 13.2641C9.50749 13.3561 9.43949 13.4241 9.35949 13.4641C9.27949 13.5041 9.18349 13.5201 9.08349 13.5041L9.05549 13.2521H8.99949L9.02349 13.4921C8.91149 13.4601 8.79149 13.3801 8.67949 13.2521L8.80749 13.0401L8.75949 13.0121L8.63949 13.2081C8.58349 13.1361 8.52749 13.0521 8.47949 12.9561C8.45149 12.9041 8.43549 12.8521 8.41949 12.7961L8.63949 12.7761V12.7201L8.40749 12.7401C8.38349 12.6041 8.39149 12.4641 8.41949 12.3361L8.60749 12.4761L8.63949 12.4321L8.43149 12.2761C8.45949 12.1521 8.50349 12.0401 8.54349 11.9481Z" fill="#00A022"/>
<path d="M9.26753 13.2961C9.11953 13.3721 8.86353 13.2721 8.65553 12.8681C8.54353 12.6481 8.59953 12.3641 8.67553 12.1481C8.89553 12.2121 9.15953 12.3281 9.27553 12.5481C9.48353 12.9521 9.41553 13.2201 9.26753 13.2961Z" fill="#00AA21"/>
<path d="M8.02756 11.888C8.08356 11.972 8.16356 12.104 8.23156 12.26L8.24356 12.288C8.35156 12.56 8.36756 12.804 8.29956 13.02C8.26356 13.136 8.21556 13.244 8.15956 13.34L8.14356 13.364C8.03956 13.54 7.90356 13.664 7.75556 13.728L7.73156 13.74C7.60356 13.788 7.47156 13.796 7.35156 13.756C7.23156 13.716 7.12756 13.636 7.05156 13.524L7.03556 13.5C6.95156 13.36 6.91556 13.18 6.93156 12.976V12.948C6.94356 12.836 6.96756 12.724 7.00756 12.608C7.07556 12.392 7.23556 12.2 7.47956 12.044L7.50356 12.028C7.64756 11.94 7.79156 11.876 7.88756 11.844L7.97556 11.812L8.02756 11.892V11.888Z" fill="#F0BA07"/>
<path d="M7.37958 13.66C7.10758 13.572 6.91558 13.224 7.10358 12.64C7.22758 12.252 7.65158 12.036 7.93158 11.936C8.09958 12.18 8.31958 12.604 8.19558 12.992C8.00758 13.572 7.65158 13.748 7.37958 13.66Z" fill="url(#paint12_radial_584_24530)"/>
<path d="M7.51958 12.108C7.33158 12.228 7.15558 12.4 7.07958 12.632C7.04358 12.748 7.01958 12.856 7.01158 12.956V12.984C6.99558 13.184 7.03158 13.344 7.09958 13.46L7.11558 13.484C7.18358 13.584 7.27158 13.652 7.37558 13.684C7.47958 13.716 7.59158 13.716 7.70358 13.672L7.72758 13.664C7.85558 13.608 7.97558 13.5 8.07958 13.328L8.09158 13.304C8.13958 13.216 8.18758 13.116 8.22358 13C8.29958 12.768 8.25158 12.528 8.17158 12.316L8.15958 12.288C8.09958 12.144 8.02758 12.02 7.96358 11.928L7.95158 11.908L7.94358 11.896H7.93158L7.90758 11.908C7.80358 11.948 7.67158 12.004 7.53958 12.088L7.51558 12.104L7.51958 12.108ZM7.89158 11.984L7.81158 12.236L7.86358 12.252L7.94358 12C7.99558 12.084 8.05558 12.188 8.10758 12.304L7.92758 12.492L7.96758 12.532L8.12758 12.364C8.17558 12.488 8.20758 12.624 8.20358 12.76L7.97558 12.776V12.832L8.19958 12.816C8.19558 12.872 8.18758 12.928 8.16758 12.98C8.13158 13.084 8.09558 13.176 8.05158 13.256L7.90358 13.084L7.85958 13.12L8.01958 13.308C7.92758 13.452 7.82358 13.548 7.71958 13.6L7.70358 13.364H7.64758L7.66358 13.62C7.56758 13.652 7.47158 13.656 7.38758 13.628C7.29958 13.6 7.22358 13.544 7.16758 13.46L7.32758 13.264L7.28358 13.228L7.13558 13.408C7.07958 13.304 7.04758 13.164 7.05958 12.996L7.29958 12.94L7.28758 12.884L7.06358 12.936C7.07558 12.848 7.09558 12.748 7.12758 12.644C7.14358 12.588 7.17158 12.54 7.19958 12.492L7.37158 12.636L7.40758 12.592L7.23158 12.444C7.31158 12.332 7.41558 12.24 7.52758 12.164L7.55958 12.396L7.61558 12.388L7.57958 12.132C7.68758 12.064 7.79558 12.016 7.88758 11.98L7.89158 11.984Z" fill="#00A022"/>
<path d="M7.45159 13.4439C7.29159 13.3919 7.18359 13.1399 7.31959 12.7079C7.39559 12.4719 7.63959 12.3119 7.84359 12.2159C7.95559 12.4159 8.05959 12.6879 7.98359 12.9239C7.84359 13.3559 7.60759 13.4959 7.44759 13.4479L7.45159 13.4439Z" fill="#00AA21"/>
<path d="M7.56754 11.572C7.54754 11.672 7.51154 11.824 7.44754 11.98L7.43554 12.008C7.31954 12.276 7.15954 12.464 6.95554 12.568C6.84754 12.624 6.73554 12.668 6.63154 12.696L6.60354 12.704C6.40754 12.752 6.22354 12.748 6.07154 12.688L6.04754 12.676C5.92354 12.62 5.82754 12.532 5.76754 12.42C5.70754 12.308 5.69154 12.176 5.71954 12.044L5.72754 12.016C5.76754 11.86 5.87154 11.704 6.02354 11.572L6.04354 11.552C6.12754 11.48 6.22754 11.42 6.33554 11.364C6.53954 11.26 6.78354 11.236 7.06754 11.296L7.09554 11.304C7.25954 11.34 7.40354 11.4 7.49554 11.444L7.57954 11.484L7.56354 11.576L7.56754 11.572Z" fill="#F0BA07"/>
<path d="M5.85952 12.3679C5.72752 12.1159 5.83952 11.7319 6.38352 11.4519C6.74752 11.2639 7.19952 11.4119 7.46752 11.5399C7.41152 11.8319 7.27152 12.2879 6.90752 12.4719C6.36352 12.7519 5.98752 12.6199 5.85952 12.3679Z" fill="url(#paint13_radial_584_24530)"/>
<path d="M7.05149 11.3679C6.83149 11.3199 6.58749 11.3159 6.37149 11.4279C6.26349 11.4839 6.17149 11.5439 6.09149 11.6079L6.07149 11.6279C5.91949 11.7559 5.83149 11.8959 5.79949 12.0319V12.0559C5.76749 12.1759 5.78749 12.2879 5.83549 12.3839C5.88349 12.4799 5.96749 12.5599 6.07949 12.6079L6.10349 12.6159C6.23149 12.6679 6.39549 12.6759 6.59149 12.6279L6.61549 12.6199C6.71149 12.5919 6.81549 12.5559 6.92349 12.4959C7.13949 12.3839 7.27949 12.1799 7.36749 11.9759L7.37949 11.9479C7.43949 11.8039 7.47549 11.6639 7.49549 11.5559V11.5319L7.50349 11.5199H7.49149L7.47149 11.5039C7.37149 11.4559 7.23549 11.4039 7.08349 11.3719L7.05549 11.3639L7.05149 11.3679ZM7.40349 11.5399L7.16749 11.6599L7.19149 11.7079L7.42749 11.5879C7.40749 11.6839 7.37549 11.7999 7.32749 11.9199L7.06749 11.9279V11.9839L7.30349 11.9759C7.24749 12.0959 7.17549 12.2159 7.07549 12.3119L6.90349 12.1639L6.86749 12.2079L7.03549 12.3519C6.99149 12.3879 6.94749 12.4199 6.89549 12.4479C6.79549 12.4999 6.70349 12.5359 6.61549 12.5599L6.63149 12.3319H6.57549L6.55949 12.5759C6.39149 12.6159 6.25149 12.6079 6.13949 12.5679L6.29549 12.3919L6.25549 12.3559L6.08749 12.5479C5.99549 12.5039 5.92749 12.4359 5.88749 12.3559C5.84749 12.2759 5.83149 12.1799 5.84749 12.0799L6.09949 12.0559V11.9999L5.85949 12.0239C5.89149 11.9119 5.97149 11.7919 6.09949 11.6799L6.31149 11.8079L6.33949 11.7599L6.14349 11.6399C6.21549 11.5839 6.29949 11.5279 6.39549 11.4799C6.44749 11.4519 6.49949 11.4359 6.55549 11.4199L6.57549 11.6399H6.63149L6.61149 11.4079C6.74749 11.3839 6.88749 11.3919 7.01549 11.4199L6.87549 11.6079L6.91949 11.6399L7.07549 11.4319C7.19949 11.4599 7.31149 11.5039 7.40349 11.5439V11.5399Z" fill="#00A022"/>
<path d="M6.05947 12.264C5.98347 12.116 6.08347 11.86 6.48747 11.652C6.70747 11.54 6.99147 11.596 7.20747 11.672C7.14747 11.892 7.02747 12.156 6.80747 12.272C6.40347 12.48 6.13547 12.412 6.05947 12.264Z" fill="#00AA21"/>
<path d="M7.46356 11.024C7.37956 11.08 7.24756 11.16 7.09156 11.228L7.06356 11.24C6.79156 11.348 6.54756 11.364 6.33156 11.296C6.21556 11.26 6.10756 11.212 6.01156 11.156L5.98756 11.14C5.81156 11.036 5.68756 10.9 5.62356 10.752L5.61156 10.728C5.56356 10.6 5.55556 10.468 5.59556 10.348C5.63556 10.228 5.71556 10.124 5.82756 10.048L5.85156 10.032C5.99156 9.94802 6.17156 9.91202 6.37556 9.92802H6.40356C6.51556 9.94002 6.62756 9.96402 6.74356 10.004C6.95956 10.072 7.15156 10.232 7.30756 10.476L7.32356 10.5C7.41156 10.644 7.47556 10.788 7.50756 10.884L7.53956 10.972L7.45956 11.024H7.46356Z" fill="#F0BA07"/>
<path d="M5.6956 10.3801C5.7836 10.1081 6.1316 9.91606 6.7156 10.1041C7.1036 10.2281 7.3196 10.6521 7.4196 10.9321C7.1756 11.1001 6.7516 11.3201 6.3636 11.1961C5.7796 11.0081 5.6076 10.6521 5.6956 10.3801Z" fill="url(#paint14_radial_584_24530)"/>
<path d="M7.2476 10.516C7.1276 10.328 6.9556 10.152 6.7236 10.076C6.6076 10.04 6.4996 10.016 6.3996 10.008H6.3716C6.1716 9.99204 6.0116 10.028 5.8956 10.096L5.8716 10.112C5.7716 10.18 5.7036 10.268 5.6716 10.372C5.6396 10.476 5.6396 10.588 5.6836 10.7L5.6916 10.724C5.7476 10.852 5.8556 10.972 6.0276 11.076L6.0516 11.088C6.1396 11.136 6.2396 11.184 6.3556 11.22C6.5876 11.296 6.8276 11.248 7.0396 11.168L7.0676 11.156C7.2116 11.096 7.3356 11.024 7.4276 10.96L7.4476 10.948L7.4556 10.94V10.928L7.4436 10.904C7.4036 10.8 7.3476 10.668 7.2636 10.536L7.2476 10.512V10.516ZM7.3716 10.888L7.1196 10.808L7.1036 10.86L7.3556 10.94C7.2716 10.992 7.1676 11.052 7.0516 11.104L6.8636 10.924L6.8236 10.964L6.9916 11.124C6.8676 11.172 6.7316 11.204 6.5956 11.2L6.5796 10.972H6.5236L6.5396 11.196C6.4836 11.192 6.4276 11.184 6.3756 11.164C6.2716 11.128 6.1796 11.092 6.0996 11.048L6.2716 10.9L6.2356 10.856L6.0476 11.016C5.9036 10.924 5.8076 10.82 5.7556 10.716L5.9916 10.7V10.644L5.7356 10.66C5.7036 10.564 5.6996 10.468 5.7276 10.384C5.7556 10.296 5.8116 10.22 5.8956 10.164L6.0916 10.324L6.1276 10.28L5.9476 10.132C6.0516 10.076 6.1916 10.044 6.3596 10.056L6.4156 10.296L6.4716 10.284L6.4196 10.06C6.5076 10.072 6.6076 10.092 6.7116 10.124C6.7676 10.14 6.8156 10.168 6.8636 10.196L6.7196 10.368L6.7636 10.404L6.9116 10.228C7.0236 10.308 7.1156 10.412 7.1916 10.524L6.9596 10.556L6.9676 10.612L7.2236 10.576C7.2916 10.684 7.3396 10.792 7.3756 10.884L7.3716 10.888Z" fill="#00A022"/>
<path d="M5.90764 10.448C5.95964 10.288 6.21164 10.18 6.64364 10.316C6.87964 10.392 7.03964 10.636 7.13564 10.84C6.93564 10.952 6.66364 11.056 6.42764 10.98C5.99564 10.84 5.85564 10.604 5.90364 10.444L5.90764 10.448Z" fill="#00AA21"/>
<path d="M7.77959 10.564C7.67959 10.544 7.52759 10.508 7.37159 10.444L7.34359 10.432C7.07559 10.316 6.88759 10.156 6.78359 9.952C6.72759 9.844 6.68359 9.732 6.65559 9.628L6.64759 9.6C6.59959 9.404 6.60359 9.22 6.66359 9.068L6.67559 9.044C6.73159 8.92 6.81959 8.824 6.93559 8.764C7.04759 8.704 7.17959 8.688 7.31159 8.716L7.33959 8.724C7.49559 8.764 7.65159 8.868 7.78359 9.02L7.80359 9.04C7.87559 9.124 7.93559 9.224 7.99159 9.332C8.09559 9.536 8.11959 9.78 8.05959 10.064L8.05159 10.092C8.01559 10.256 7.95559 10.4 7.91159 10.492L7.87159 10.576L7.77959 10.56V10.564Z" fill="#F0BA07"/>
<path d="M6.98763 8.85598C7.23963 8.72398 7.62363 8.83598 7.90363 9.37998C8.09163 9.74398 7.94363 10.196 7.81563 10.464C7.52363 10.408 7.06763 10.268 6.88363 9.90398C6.60363 9.35998 6.73563 8.98398 6.98763 8.85598Z" fill="url(#paint15_radial_584_24530)"/>
<path d="M7.98365 10.052C8.03165 9.83198 8.03565 9.58798 7.92365 9.37198C7.86765 9.26398 7.80765 9.17198 7.74365 9.09198L7.72365 9.07198C7.59565 8.91998 7.45565 8.83198 7.31965 8.79998H7.29565C7.17565 8.76798 7.06365 8.78798 6.96765 8.83598C6.87165 8.88398 6.79165 8.96798 6.74365 9.07998L6.73565 9.10398C6.68365 9.23198 6.67565 9.39598 6.72365 9.59198L6.73165 9.61598C6.75965 9.71198 6.79565 9.81598 6.85565 9.92398C6.96765 10.14 7.17165 10.28 7.37565 10.368L7.40365 10.38C7.54765 10.44 7.68765 10.476 7.79565 10.496H7.81965L7.83165 10.504V10.492L7.84765 10.472C7.89565 10.372 7.94765 10.236 7.97965 10.084L7.98765 10.056L7.98365 10.052ZM7.81165 10.404L7.69165 10.168L7.64365 10.192L7.76365 10.428C7.66765 10.408 7.55165 10.376 7.43165 10.328L7.42365 10.068H7.36765L7.37565 10.304C7.25565 10.248 7.13565 10.176 7.03965 10.076L7.18765 9.90398L7.14365 9.86798L6.99965 10.036C6.96365 9.99198 6.93165 9.94798 6.90365 9.89598C6.85165 9.79598 6.81565 9.70398 6.79165 9.61598L7.01965 9.63198V9.57598L6.77565 9.55998C6.73565 9.39198 6.74365 9.25198 6.78365 9.13998L6.95965 9.29598L6.99565 9.25598L6.80365 9.08798C6.84765 8.99598 6.91565 8.92798 6.99565 8.88798C7.07565 8.84798 7.17165 8.83198 7.27165 8.84798L7.29565 9.09998H7.35165L7.32765 8.85998C7.43965 8.89198 7.55965 8.97198 7.67165 9.09998L7.54365 9.31198L7.59165 9.33998L7.71165 9.14398C7.76765 9.21598 7.82365 9.29998 7.87165 9.39598C7.89965 9.44798 7.91565 9.49998 7.93165 9.55598L7.71165 9.57598V9.63198L7.94365 9.61198C7.96765 9.74798 7.95965 9.88798 7.93165 10.016L7.74365 9.87598L7.71165 9.91998L7.91965 10.076C7.89165 10.2 7.84765 10.312 7.80765 10.404H7.81165Z" fill="#00A022"/>
<path d="M7.0876 9.05593C7.2356 8.97993 7.4916 9.07993 7.6996 9.48393C7.8116 9.70393 7.7556 9.98793 7.6796 10.2039C7.4596 10.1439 7.1956 10.0239 7.0796 9.80393C6.8716 9.39993 6.9396 9.13193 7.0876 9.05593Z" fill="#00AA21"/>
<path d="M8.86759 11.3961C8.74359 11.7761 8.33959 11.9841 7.95959 11.8641C7.57959 11.7441 7.37159 11.3361 7.49159 10.9561C7.61159 10.5761 8.01959 10.3681 8.39959 10.4881C8.77959 10.6081 8.98759 11.0161 8.86759 11.3961Z" fill="#B40012"/>
<path d="M8.36611 10.4783L7.92468 11.8531L7.99704 11.8764L8.43847 10.5015L8.36611 10.4783Z" fill="#C80014"/>
<path d="M7.50199 10.9192L7.47876 10.9916L8.85363 11.433L8.87687 11.3606L7.50199 10.9192Z" fill="#C80014"/>
<path d="M7.88156 10.5149L7.81396 10.5497L8.47584 11.8376L8.54344 11.8028L7.88156 10.5149Z" fill="#C80014"/>
<path d="M8.80789 10.8124L7.52002 11.4742L7.55476 11.5418L8.84263 10.88L8.80789 10.8124Z" fill="#C80014"/>
<path d="M8.47551 11.2721C8.42351 11.4361 8.24751 11.5281 8.08351 11.4721C7.91951 11.4161 7.82751 11.2441 7.88351 11.0801C7.93951 10.9161 8.11151 10.8241 8.27551 10.8801C8.43951 10.9361 8.53151 11.1081 8.47551 11.2721Z" fill="#D20015"/>
<path d="M7.9475 11.9001C7.5475 11.7721 7.3275 11.3441 7.4555 10.9441C7.5835 10.5441 8.0115 10.3241 8.4115 10.4521C8.8115 10.5801 9.0315 11.0081 8.9035 11.4081C8.7755 11.8081 8.3475 12.0281 7.9475 11.9001ZM8.3875 10.5241C8.0275 10.4081 7.6395 10.6081 7.5235 10.9681C7.4075 11.3281 7.6075 11.7161 7.9675 11.8321C8.3275 11.9481 8.7155 11.7481 8.8315 11.3881C8.9475 11.0281 8.7475 10.6401 8.3875 10.5241Z" fill="#C80014"/>
<path d="M8.09955 10.6801L8.06755 10.8761L8.24355 10.9641L8.04755 10.9361L7.95955 11.1081L7.98755 10.9161L7.81555 10.8281L8.00755 10.8561L8.09955 10.6801Z" fill="white"/>
<path d="M7.15958 8.828L7.13558 8.988L7.27958 9.064L7.11958 9.04L7.04358 9.184L7.06758 9.024L6.92358 8.948L7.08358 8.972L7.15958 8.828Z" fill="white"/>
<path d="M9.93959 11.2161L9.91959 11.3441L10.0356 11.4041L9.90759 11.3881L9.84759 11.5041L9.86759 11.3721L9.75159 11.3121L9.87959 11.3321L9.93959 11.2161Z" fill="white"/>
<path d="M7.89161 12.076L7.87161 12.204L7.98761 12.264L7.85961 12.244L7.79961 12.36L7.81961 12.232L7.70361 12.172L7.83161 12.192L7.89161 12.076Z" fill="white"/>
</g>
<defs>
<radialGradient id="paint0_radial_584_24530" cx="0" cy="0" r="1" gradientUnits="userSpaceOnUse" gradientTransform="translate(14.3323 5.11654) rotate(17.8) scale(0.76288)">
<stop stop-color="#009623"/>
<stop offset="0.57" stop-color="#00861F"/>
<stop offset="1" stop-color="#00781C"/>
</radialGradient>
<radialGradient id="paint1_radial_584_24530" cx="0" cy="0" r="1" gradientUnits="userSpaceOnUse" gradientTransform="translate(18.4931 18.0506) rotate(62.8) scale(0.75692)">
<stop stop-color="#009623"/>
<stop offset="0.57" stop-color="#00861F"/>
<stop offset="1" stop-color="#00781C"/>
</radialGradient>
<radialGradient id="paint2_radial_584_24530" cx="0" cy="0" r="1" gradientUnits="userSpaceOnUse" gradientTransform="translate(23.6758 4.23279) rotate(107.8) scale(0.76288)">
<stop stop-color="#009623"/>
<stop offset="0.57" stop-color="#00861F"/>
<stop offset="1" stop-color="#00781C"/>
</radialGradient>
<radialGradient id="paint3_radial_584_24530" cx="0" cy="0" r="1" gradientUnits="userSpaceOnUse" gradientTransform="translate(9.70334 16.8707) rotate(152.8) scale(0.75692)">
<stop stop-color="#009623"/>
<stop offset="0.57" stop-color="#00861F"/>
<stop offset="1" stop-color="#00781C"/>
</radialGradient>
<radialGradient id="paint4_radial_584_24530" cx="0" cy="0" r="1" gradientUnits="userSpaceOnUse" gradientTransform="translate(24.5531 13.5795) rotate(-162.2) scale(0.76288)">
<stop stop-color="#009623"/>
<stop offset="0.57" stop-color="#00861F"/>
<stop offset="1" stop-color="#00781C"/>
</radialGradient>
<radialGradient id="paint5_radial_584_24530" cx="0" cy="0" r="1" gradientUnits="userSpaceOnUse" gradientTransform="translate(10.8826 8.07959) rotate(-117.2) scale(0.75692)">
<stop stop-color="#009623"/>
<stop offset="0.57" stop-color="#00861F"/>
<stop offset="1" stop-color="#00781C"/>
</radialGradient>
<radialGradient id="paint6_radial_584_24530" cx="0" cy="0" r="1" gradientUnits="userSpaceOnUse" gradientTransform="translate(15.2112 14.4584) rotate(-72.2) scale(0.76288)">
<stop stop-color="#009623"/>
<stop offset="0.57" stop-color="#00861F"/>
<stop offset="1" stop-color="#00781C"/>
</radialGradient>
<radialGradient id="paint7_radial_584_24530" cx="0" cy="0" r="1" gradientUnits="userSpaceOnUse" gradientTransform="translate(19.6743 9.2564) rotate(-27.2) scale(0.75692)">
<stop stop-color="#009623"/>
<stop offset="0.57" stop-color="#00861F"/>
<stop offset="1" stop-color="#00781C"/>
</radialGradient>
<radialGradient id="paint8_radial_584_24530" cx="0" cy="0" r="1" gradientUnits="userSpaceOnUse" gradientTransform="translate(5.43814 5.11634) rotate(17.8) scale(0.76288)">
<stop stop-color="#009623"/>
<stop offset="0.57" stop-color="#00861F"/>
<stop offset="1" stop-color="#00781C"/>
</radialGradient>
<radialGradient id="paint9_radial_584_24530" cx="0" cy="0" r="1" gradientUnits="userSpaceOnUse" gradientTransform="translate(9.66867 18.0507) rotate(62.8) scale(0.75692)">
<stop stop-color="#009623"/>
<stop offset="0.57" stop-color="#00861F"/>
<stop offset="1" stop-color="#00781C"/>
</radialGradient>
<radialGradient id="paint10_radial_584_24530" cx="0" cy="0" r="1" gradientUnits="userSpaceOnUse" gradientTransform="translate(14.78 4.23747) rotate(107.8) scale(0.76288)">
<stop stop-color="#009623"/>
<stop offset="0.57" stop-color="#00861F"/>
<stop offset="1" stop-color="#00781C"/>
</radialGradient>
<radialGradient id="paint11_radial_584_24530" cx="0" cy="0" r="1" gradientUnits="userSpaceOnUse" gradientTransform="translate(0.874446 16.8733) rotate(152.8) scale(0.75692)">
<stop stop-color="#009623"/>
<stop offset="0.57" stop-color="#00861F"/>
<stop offset="1" stop-color="#00781C"/>
</radialGradient>
<radialGradient id="paint12_radial_584_24530" cx="0" cy="0" r="1" gradientUnits="userSpaceOnUse" gradientTransform="translate(15.6589 13.5793) rotate(-162.2) scale(0.76288)">
<stop stop-color="#009623"/>
<stop offset="0.57" stop-color="#00861F"/>
<stop offset="1" stop-color="#00781C"/>
</radialGradient>
<radialGradient id="paint13_radial_584_24530" cx="0" cy="0" r="1" gradientUnits="userSpaceOnUse" gradientTransform="translate(2.05819 8.07959) rotate(-117.2) scale(0.75692)">
<stop stop-color="#009623"/>
<stop offset="0.57" stop-color="#00861F"/>
<stop offset="1" stop-color="#00781C"/>
</radialGradient>
<radialGradient id="paint14_radial_584_24530" cx="0" cy="0" r="1" gradientUnits="userSpaceOnUse" gradientTransform="translate(6.31548 14.4631) rotate(-72.2) scale(0.76288)">
<stop stop-color="#009623"/>
<stop offset="0.57" stop-color="#00861F"/>
<stop offset="1" stop-color="#00781C"/>
</radialGradient>
<radialGradient id="paint15_radial_584_24530" cx="0" cy="0" r="1" gradientUnits="userSpaceOnUse" gradientTransform="translate(10.8455 9.25882) rotate(-27.2) scale(0.75692)">
<stop stop-color="#009623"/>
<stop offset="0.57" stop-color="#00861F"/>
<stop offset="1" stop-color="#00781C"/>
</radialGradient>
<clipPath id="clip0_584_24530">
<rect width="24" height="24" fill="white" transform="translate(0.695557)"/>
</clipPath>
</defs>
</svg>
