<svg width="15" height="22" viewBox="0 0 15 22" fill="none" xmlns="http://www.w3.org/2000/svg">
<path d="M3.93347 10.472C2.88813 10.0613 2.08547 9.464 1.52546 8.68C0.965465 7.896 0.685465 6.944 0.685465 5.824C0.685465 4.816 0.937465 3.91067 1.44146 3.108C1.94546 2.28667 2.69213 1.64267 3.68146 1.176C4.68947 0.690666 5.9028 0.447999 7.32147 0.447999C8.74013 0.447999 9.94413 0.690666 10.9335 1.176C11.9415 1.64267 12.6975 2.28667 13.2015 3.108C13.7241 3.91067 13.9855 4.816 13.9855 5.824C13.9855 6.90667 13.6961 7.85867 13.1175 8.68C12.5388 9.48267 11.7455 10.08 10.7375 10.472C11.8948 10.8267 12.8095 11.452 13.4815 12.348C14.1721 13.2253 14.5175 14.2893 14.5175 15.54C14.5175 16.7533 14.2188 17.8173 13.6215 18.732C13.0241 19.628 12.1748 20.328 11.0735 20.832C9.9908 21.3173 8.74013 21.56 7.32147 21.56C5.9028 21.56 4.65213 21.3173 3.56947 20.832C2.50547 20.328 1.6748 19.628 1.07747 18.732C0.480132 17.8173 0.181465 16.7533 0.181465 15.54C0.181465 14.2893 0.517465 13.216 1.18946 12.32C1.86146 11.424 2.77613 10.808 3.93347 10.472ZM11.5215 6.132C11.5215 4.99333 11.1481 4.116 10.4015 3.5C9.6548 2.884 8.62813 2.576 7.32147 2.576C6.03347 2.576 5.01613 2.884 4.26947 3.5C3.5228 4.116 3.14947 5.00267 3.14947 6.16C3.14947 7.20533 3.53213 8.04533 4.29747 8.68C5.08147 9.31467 6.08947 9.632 7.32147 9.632C8.57213 9.632 9.58013 9.31467 10.3455 8.68C11.1295 8.02667 11.5215 7.17733 11.5215 6.132ZM7.32147 11.592C5.94013 11.592 4.8108 11.9187 3.93347 12.572C3.05613 13.2067 2.61746 14.168 2.61746 15.456C2.61746 16.6507 3.03746 17.612 3.87746 18.34C4.73613 19.068 5.88413 19.432 7.32147 19.432C8.7588 19.432 9.89747 19.068 10.7375 18.34C11.5775 17.612 11.9975 16.6507 11.9975 15.456C11.9975 14.2053 11.5681 13.2533 10.7095 12.6C9.8508 11.928 8.72147 11.592 7.32147 11.592Z" fill="white"/>
</svg>
