<svg width="15" height="22" viewBox="0 0 15 22" fill="none" xmlns="http://www.w3.org/2000/svg">
<path d="M3.86033 15.568C4.04699 16.632 4.47633 17.4533 5.14833 18.032C5.83899 18.6107 6.76299 18.9 7.92033 18.9C9.46966 18.9 10.6083 18.2933 11.3363 17.08C12.083 15.8667 12.4377 13.8227 12.4003 10.948C12.0083 11.788 11.355 12.4507 10.4403 12.936C9.52566 13.4027 8.50833 13.636 7.38833 13.636C6.13766 13.636 5.01766 13.384 4.02833 12.88C3.05766 12.3573 2.29233 11.6013 1.73233 10.612C1.17233 9.62267 0.892328 8.428 0.892328 7.028C0.892328 5.03067 1.47099 3.42533 2.62833 2.212C3.78566 0.979999 5.42833 0.363999 7.55633 0.363999C10.1697 0.363999 11.999 1.21333 13.0443 2.912C14.1083 4.61067 14.6403 7.14 14.6403 10.5C14.6403 12.852 14.4257 14.7933 13.9963 16.324C13.5857 17.8547 12.8763 19.0213 11.8683 19.824C10.879 20.6267 9.51633 21.028 7.78033 21.028C5.87633 21.028 4.39233 20.5147 3.32833 19.488C2.26433 18.4613 1.65766 17.1547 1.50833 15.568H3.86033ZM7.80833 11.48C9.05899 11.48 10.0857 11.0973 10.8883 10.332C11.691 9.548 12.0923 8.49333 12.0923 7.168C12.0923 5.768 11.7003 4.63867 10.9163 3.78C10.1323 2.92133 9.031 2.492 7.61233 2.492C6.30566 2.492 5.26033 2.90267 4.47633 3.724C3.71099 4.54533 3.32833 5.628 3.32833 6.972C3.32833 8.33467 3.71099 9.42667 4.47633 10.248C5.24166 11.0693 6.35233 11.48 7.80833 11.48Z" fill="black"/>
</svg>
