<svg width="15" height="21" viewBox="0 0 15 21" fill="none" xmlns="http://www.w3.org/2000/svg">
<path d="M0.708609 18.956C3.07928 17.052 4.93661 15.4933 6.28061 14.28C7.62461 13.048 8.75394 11.7693 9.66861 10.444C10.6019 9.1 11.0686 7.784 11.0686 6.496C11.0686 5.28267 10.7699 4.33067 10.1726 3.64C9.59394 2.93067 8.65128 2.576 7.34461 2.576C6.07528 2.576 5.08594 2.97733 4.37661 3.78C3.68594 4.564 3.31261 5.61867 3.25661 6.944H0.792609C0.867276 4.85333 1.50194 3.23867 2.69661 2.1C3.89128 0.961332 5.43128 0.391998 7.31661 0.391998C9.23928 0.391998 10.7606 0.923999 11.8806 1.988C13.0193 3.052 13.5886 4.51733 13.5886 6.384C13.5886 7.93333 13.1219 9.44533 12.1886 10.92C11.2739 12.376 10.2286 13.664 9.05261 14.784C7.87661 15.8853 6.37394 17.1733 4.54461 18.648H14.1766V20.776H0.708609V18.956Z" fill="black"/>
</svg>
