<svg width="15" height="21" viewBox="0 0 15 21" fill="none" xmlns="http://www.w3.org/2000/svg">
<path d="M0.708762 18.956C3.07943 17.052 4.93676 15.4933 6.28076 14.28C7.62476 13.048 8.7541 11.7693 9.66876 10.444C10.6021 9.1 11.0688 7.784 11.0688 6.496C11.0688 5.28267 10.7701 4.33067 10.1728 3.64C9.5941 2.93067 8.65143 2.576 7.34476 2.576C6.07543 2.576 5.0861 2.97733 4.37676 3.78C3.6861 4.564 3.31276 5.61867 3.25676 6.944H0.792762C0.867428 4.85333 1.5021 3.23867 2.69676 2.1C3.89143 0.961332 5.43143 0.391998 7.31676 0.391998C9.23943 0.391998 10.7608 0.923999 11.8808 1.988C13.0194 3.052 13.5888 4.51733 13.5888 6.384C13.5888 7.93333 13.1221 9.44533 12.1888 10.92C11.2741 12.376 10.2288 13.664 9.05276 14.784C7.87676 15.8853 6.3741 17.1733 4.54476 18.648H14.1768V20.776H0.708762V18.956Z" fill="white"/>
</svg>
