<svg width="25" height="24" viewBox="0 0 25 24" fill="none" xmlns="http://www.w3.org/2000/svg">
<g clip-path="url(#clip0_584_24528)">
<path d="M19.4435 20.276C18.0555 19.808 16.5675 20.644 16.2435 22.072C15.7275 24.34 12.6515 24.708 11.6155 22.624C10.9635 21.312 9.31951 20.848 8.07951 21.632C6.11151 22.872 3.67551 20.956 4.41551 18.752C4.88351 17.364 4.04751 15.876 2.61951 15.552C0.351512 15.036 -0.0164882 11.96 2.06751 10.924C3.37951 10.272 3.84351 8.62798 3.05951 7.38798C1.81951 5.41998 3.73551 2.98398 5.93951 3.72398C7.32751 4.19198 8.81551 3.35598 9.13951 1.92798C9.65551 -0.340017 12.7315 -0.708017 13.7675 1.37598C14.4195 2.68798 16.0635 3.15198 17.3035 2.36798C19.2715 1.12798 21.7075 3.04398 20.9675 5.24798C20.4995 6.63598 21.3355 8.12398 22.7635 8.44798C25.0315 8.96398 25.3995 12.04 23.3155 13.076C22.0035 13.728 21.5395 15.372 22.3235 16.612C23.5635 18.58 21.6475 21.016 19.4435 20.276Z" fill="#FFC61E"/>
<path d="M19.5236 9.95605C20.1596 10.3401 20.5236 10.7881 20.5236 11.2681C20.5236 12.7521 17.0876 13.9161 12.6956 13.9161C8.30758 13.9161 4.86758 12.7561 4.86758 11.2721C4.86758 10.7921 5.22758 10.3441 5.86358 9.96005C5.13558 10.3761 4.69958 10.8761 4.69958 11.4521C4.69958 13.2121 8.76358 14.2601 12.6916 14.2601C16.6196 14.2601 20.6836 13.2081 20.6836 11.4481C20.6836 10.8721 20.2476 10.3721 19.5196 9.95605H19.5236Z" fill="#FFE675"/>
<path d="M7.85963 13.44C7.04363 13.232 6.35963 12.972 5.84363 12.672V12.864C6.37963 13.156 7.06363 13.404 7.83963 13.6" fill="#FFF3A8"/>
<path d="M20.6836 11.5121C20.5796 13.2321 16.5716 14.2561 12.6956 14.2561C8.81961 14.2561 4.80761 13.2321 4.70361 11.5161C4.70361 11.5361 4.70361 11.5601 4.70361 11.5841C4.70361 13.3441 8.76761 14.3921 12.6956 14.3921C16.6236 14.3921 20.6876 13.3401 20.6876 11.5801C20.6876 11.5561 20.6876 11.5321 20.6876 11.5121H20.6836Z" fill="#F0BA07"/>
<path d="M12.6956 13.916C8.30755 13.916 4.86755 12.756 4.86755 11.272C4.86755 9.78802 8.30355 8.62802 12.6956 8.62402C17.0836 8.62402 20.5236 9.78402 20.5236 11.268C20.5236 12.752 17.0876 13.912 12.6956 13.916ZM12.6956 8.79202C8.47155 8.79202 5.03155 9.90802 5.03555 11.272C5.03955 12.636 8.47555 13.752 12.6996 13.748C16.9236 13.748 20.3636 12.632 20.3596 11.268C20.3556 9.90402 16.9196 8.79202 12.6956 8.79202Z" fill="#FFEFAB"/>
<path d="M12.6916 8.79199C8.46762 8.79199 5.03162 9.90399 5.03162 11.272C5.03162 12.004 6.01162 12.66 7.57162 13.112C7.47962 13.084 7.38762 13.056 7.29562 13.024C5.98362 12.588 5.19962 12 5.19962 11.448C5.19962 10.896 5.98362 10.308 7.29562 9.87199C8.73562 9.39599 10.6516 9.13599 12.6956 9.13199C14.7396 9.13199 16.6556 9.39199 18.0956 9.86799C19.4116 10.304 20.1956 10.892 20.1956 11.444C20.1956 11.996 19.4116 12.584 18.0956 13.02C18.0076 13.048 17.9116 13.076 17.8196 13.108C19.3796 12.652 20.3596 11.996 20.3596 11.268C20.3596 9.89999 16.9236 8.79199 12.6956 8.79199H12.6916Z" fill="#F0BA07"/>
<path d="M18.2836 9.93604C19.4396 10.352 20.1956 10.896 20.1956 11.448C20.1956 12 19.4116 12.588 18.0956 13.024C18.0076 13.052 17.9116 13.08 17.8196 13.112C19.3796 12.656 20.3596 12 20.3596 11.272C20.3596 10.596 19.5236 9.98804 18.1716 9.54004C18.2596 9.66404 18.3236 9.79204 18.2836 9.94004V9.93604Z" fill="#D8A20B"/>
<path d="M12.6956 13.892C12.9982 13.892 13.2436 13.6467 13.2436 13.344C13.2436 13.0414 12.9982 12.796 12.6956 12.796C12.3929 12.796 12.1476 13.0414 12.1476 13.344C12.1476 13.6467 12.3929 13.892 12.6956 13.892Z" fill="#FFC32B"/>
<path d="M12.6956 13.756C12.9231 13.756 13.1076 13.5715 13.1076 13.344C13.1076 13.1165 12.9231 12.932 12.6956 12.932C12.468 12.932 12.2836 13.1165 12.2836 13.344C12.2836 13.5715 12.468 13.756 12.6956 13.756Z" fill="#E3A50C"/>
<path d="M13.2196 14.108C13.5223 14.108 13.7676 13.8626 13.7676 13.56C13.7676 13.2573 13.5223 13.012 13.2196 13.012C12.917 13.012 12.6716 13.2573 12.6716 13.56C12.6716 13.8626 12.917 14.108 13.2196 14.108Z" fill="#FFC32B"/>
<path d="M13.2196 13.9719C13.4472 13.9719 13.6316 13.7875 13.6316 13.56C13.6316 13.3324 13.4472 13.1479 13.2196 13.1479C12.9921 13.1479 12.8076 13.3324 12.8076 13.56C12.8076 13.7875 12.9921 13.9719 13.2196 13.9719Z" fill="#E3A50C"/>
<path d="M13.4356 14.632C13.7382 14.632 13.9836 14.3867 13.9836 14.084C13.9836 13.7814 13.7382 13.536 13.4356 13.536C13.1329 13.536 12.8876 13.7814 12.8876 14.084C12.8876 14.3867 13.1329 14.632 13.4356 14.632Z" fill="#FFC32B"/>
<path d="M13.4356 14.496C13.6631 14.496 13.8476 14.3115 13.8476 14.084C13.8476 13.8565 13.6631 13.672 13.4356 13.672C13.208 13.672 13.0236 13.8565 13.0236 14.084C13.0236 14.3115 13.208 14.496 13.4356 14.496Z" fill="#E3A50C"/>
<path d="M13.2196 15.1561C13.5223 15.1561 13.7676 14.9107 13.7676 14.6081C13.7676 14.3054 13.5223 14.0601 13.2196 14.0601C12.917 14.0601 12.6716 14.3054 12.6716 14.6081C12.6716 14.9107 12.917 15.1561 13.2196 15.1561Z" fill="#FFC32B"/>
<path d="M13.5116 14.316C13.6716 14.476 13.6716 14.736 13.5116 14.896C13.3516 15.056 13.0916 15.056 12.9316 14.896C12.7716 14.736 12.7716 14.476 12.9316 14.316C13.0916 14.156 13.3516 14.156 13.5116 14.316Z" fill="#E3A50C"/>
<path d="M12.6956 15.372C12.9982 15.372 13.2436 15.1267 13.2436 14.824C13.2436 14.5214 12.9982 14.276 12.6956 14.276C12.3929 14.276 12.1476 14.5214 12.1476 14.824C12.1476 15.1267 12.3929 15.372 12.6956 15.372Z" fill="#FFC32B"/>
<path d="M12.6956 15.236C12.9231 15.236 13.1076 15.0515 13.1076 14.824C13.1076 14.5964 12.9231 14.412 12.6956 14.412C12.468 14.412 12.2836 14.5964 12.2836 14.824C12.2836 15.0515 12.468 15.236 12.6956 15.236Z" fill="#E3A50C"/>
<path d="M12.1715 15.1561C12.4742 15.1561 12.7195 14.9107 12.7195 14.6081C12.7195 14.3054 12.4742 14.0601 12.1715 14.0601C11.8689 14.0601 11.6235 14.3054 11.6235 14.6081C11.6235 14.9107 11.8689 15.1561 12.1715 15.1561Z" fill="#FFC32B"/>
<path d="M12.1715 15.02C12.3991 15.02 12.5835 14.8356 12.5835 14.608C12.5835 14.3805 12.3991 14.196 12.1715 14.196C11.944 14.196 11.7595 14.3805 11.7595 14.608C11.7595 14.8356 11.944 15.02 12.1715 15.02Z" fill="#E3A50C"/>
<path d="M11.9556 14.632C12.2582 14.632 12.5036 14.3867 12.5036 14.084C12.5036 13.7814 12.2582 13.536 11.9556 13.536C11.6529 13.536 11.4076 13.7814 11.4076 14.084C11.4076 14.3867 11.6529 14.632 11.9556 14.632Z" fill="#FFC32B"/>
<path d="M11.9556 14.496C12.1831 14.496 12.3676 14.3115 12.3676 14.084C12.3676 13.8565 12.1831 13.672 11.9556 13.672C11.728 13.672 11.5436 13.8565 11.5436 14.084C11.5436 14.3115 11.728 14.496 11.9556 14.496Z" fill="#E3A50C"/>
<path d="M12.1715 14.112C12.4742 14.112 12.7195 13.8666 12.7195 13.564C12.7195 13.2613 12.4742 13.016 12.1715 13.016C11.8689 13.016 11.6235 13.2613 11.6235 13.564C11.6235 13.8666 11.8689 14.112 12.1715 14.112Z" fill="#FFC32B"/>
<path d="M12.1715 13.976C12.3991 13.976 12.5835 13.7915 12.5835 13.564C12.5835 13.3364 12.3991 13.152 12.1715 13.152C11.944 13.152 11.7595 13.3364 11.7595 13.564C11.7595 13.7915 11.944 13.976 12.1715 13.976Z" fill="#E3A50C"/>
<path d="M12.6956 15.044C13.2258 15.044 13.6556 14.6142 13.6556 14.084C13.6556 13.5538 13.2258 13.124 12.6956 13.124C12.1654 13.124 11.7356 13.5538 11.7356 14.084C11.7356 14.6142 12.1654 15.044 12.6956 15.044Z" fill="#FFC32B"/>
<path d="M12.6956 14.852C13.1198 14.852 13.4636 14.5082 13.4636 14.084C13.4636 13.6599 13.1198 13.316 12.6956 13.316C12.2715 13.316 11.9276 13.6599 11.9276 14.084C11.9276 14.5082 12.2715 14.852 12.6956 14.852Z" fill="#F0AE0D"/>
<path d="M12.6956 14.716C13.0446 14.716 13.3276 14.4331 13.3276 14.084C13.3276 13.735 13.0446 13.452 12.6956 13.452C12.3466 13.452 12.0636 13.735 12.0636 14.084C12.0636 14.4331 12.3466 14.716 12.6956 14.716Z" fill="#FF5454"/>
<path d="M12.0636 14.084C12.0636 14.172 12.0836 14.26 12.1156 14.336C12.2116 14.56 12.4356 14.716 12.6956 14.716C13.0436 14.716 13.3276 14.432 13.3276 14.084C13.3276 13.88 13.2316 13.7 13.0836 13.584C12.9756 13.5 12.8436 13.452 12.6956 13.452C12.3476 13.452 12.0636 13.736 12.0636 14.084Z" fill="#C80014"/>
<path d="M12.0636 14.084C12.0636 14.172 12.0836 14.26 12.1156 14.336C12.2236 14.42 12.3556 14.468 12.5036 14.468C12.8516 14.468 13.1356 14.184 13.1356 13.836C13.1356 13.748 13.1156 13.66 13.0836 13.584C12.9756 13.5 12.8436 13.452 12.6956 13.452C12.3476 13.452 12.0636 13.736 12.0636 14.084Z" fill="#D62F33"/>
<path d="M12.4995 13.9681C12.5395 13.9441 12.5675 13.9001 12.5995 13.8641C12.6155 13.8441 12.6315 13.8241 12.6475 13.8081C12.6835 13.7721 12.6955 13.7441 12.7035 13.6921C12.7115 13.6321 12.6435 13.5681 12.5835 13.5721C12.4835 13.5801 12.4235 13.6641 12.3955 13.7561C12.3755 13.8241 12.3755 13.9041 12.4235 13.9601C12.4395 13.9801 12.4755 13.9841 12.4955 13.9681H12.4995Z" fill="#EEFFE3"/>
</g>
<defs>
<clipPath id="clip0_584_24528">
<rect width="24" height="24" fill="white" transform="translate(0.695557)"/>
</clipPath>
</defs>
</svg>
