<svg width="56" height="56" viewBox="0 0 56 56" fill="none" xmlns="http://www.w3.org/2000/svg">
<circle cx="28" cy="27.9998" r="21.3333" fill="#1FD39E" stroke="white" stroke-width="4" stroke-linecap="round"/>
<path fill-rule="evenodd" clip-rule="evenodd" d="M40.1849 15.8662V21.2677H31.3929V24.799C38.5123 25.1012 43.8667 26.4057 43.8667 27.9687C43.8667 29.5315 38.5123 30.8356 31.3929 31.1382V42.4662H25.1288V31.1408C17.9818 30.8427 12.6 29.5363 12.6 27.9687C12.6 26.4012 17.9818 25.0947 25.1288 24.7967V21.2677H16.3367V15.8662H40.1849ZM31.3927 29.786C37.0126 29.5459 41.174 28.6811 41.174 27.6502C41.174 26.6193 37.0121 25.7541 31.3873 25.5146V28.7784C30.3905 28.828 29.3266 28.8544 28.2277 28.8544C27.1462 28.8544 26.1033 28.8284 25.123 28.781V25.5049C19.4758 25.7439 15.2869 26.6091 15.2869 27.6452C15.2869 28.6811 19.4751 29.5489 25.123 29.7853L25.495 29.8003H25.4999C25.8736 29.8137 26.2528 29.8247 26.6379 29.8326H26.6736L26.9985 29.8389H27.093L27.365 29.8424H29.1052L29.38 29.8389H29.4784L29.8266 29.8322H29.8427C30.1023 29.8268 30.3587 29.8199 30.612 29.8119H30.6489L30.9894 29.8003H31.0295L31.3927 29.786Z" fill="white"/>
</svg>
