<svg width="174" height="40" viewBox="0 0 174 40" fill="none" xmlns="http://www.w3.org/2000/svg">
<rect width="174" height="40" rx="8" fill="url(#paint0_linear_226_21529)"/>
<path d="M38.4062 18.8984V20.2578H30.6094V18.8984H38.4062ZM35.2344 15.5781V23.8594H33.7891V15.5781H35.2344ZM48.7422 13.5625V25H47.2969V15.3672L44.3828 16.4297V15.125L48.5156 13.5625H48.7422ZM53.1719 24.2344C53.1719 23.9896 53.2474 23.7839 53.3984 23.6172C53.5547 23.4453 53.7786 23.3594 54.0703 23.3594C54.362 23.3594 54.5833 23.4453 54.7344 23.6172C54.8906 23.7839 54.9688 23.9896 54.9688 24.2344C54.9688 24.474 54.8906 24.6771 54.7344 24.8438C54.5833 25.0104 54.362 25.0938 54.0703 25.0938C53.7786 25.0938 53.5547 25.0104 53.3984 24.8438C53.2474 24.6771 53.1719 24.474 53.1719 24.2344ZM59.3203 18.6016H60.3516C60.8568 18.6016 61.2734 18.5182 61.6016 18.3516C61.9349 18.1797 62.1823 17.9479 62.3438 17.6562C62.5104 17.3594 62.5938 17.026 62.5938 16.6562C62.5938 16.2188 62.5208 15.8516 62.375 15.5547C62.2292 15.2578 62.0104 15.0339 61.7188 14.8828C61.4271 14.7318 61.0573 14.6562 60.6094 14.6562C60.2031 14.6562 59.8438 14.737 59.5312 14.8984C59.224 15.0547 58.9818 15.2786 58.8047 15.5703C58.6328 15.862 58.5469 16.2057 58.5469 16.6016H57.1016C57.1016 16.0234 57.2474 15.4974 57.5391 15.0234C57.8307 14.5495 58.2396 14.1719 58.7656 13.8906C59.2969 13.6094 59.9115 13.4688 60.6094 13.4688C61.2969 13.4688 61.8984 13.5911 62.4141 13.8359C62.9297 14.0755 63.3307 14.4349 63.6172 14.9141C63.9036 15.388 64.0469 15.9792 64.0469 16.6875C64.0469 16.974 63.9792 17.2812 63.8438 17.6094C63.7135 17.9323 63.5078 18.2344 63.2266 18.5156C62.9505 18.7969 62.5911 19.0286 62.1484 19.2109C61.7057 19.388 61.1745 19.4766 60.5547 19.4766H59.3203V18.6016ZM59.3203 19.7891V18.9219H60.5547C61.2786 18.9219 61.8776 19.0078 62.3516 19.1797C62.8255 19.3516 63.1979 19.5807 63.4688 19.8672C63.7448 20.1536 63.9375 20.4688 64.0469 20.8125C64.1615 21.151 64.2188 21.4896 64.2188 21.8281C64.2188 22.3594 64.1276 22.8307 63.9453 23.2422C63.7682 23.6536 63.5156 24.0026 63.1875 24.2891C62.8646 24.5755 62.4844 24.7917 62.0469 24.9375C61.6094 25.0833 61.1328 25.1562 60.6172 25.1562C60.1224 25.1562 59.6562 25.0859 59.2188 24.9453C58.7865 24.8047 58.4036 24.6016 58.0703 24.3359C57.737 24.0651 57.4766 23.7344 57.2891 23.3438C57.1016 22.9479 57.0078 22.4974 57.0078 21.9922H58.4531C58.4531 22.388 58.5391 22.7344 58.7109 23.0312C58.888 23.3281 59.138 23.5599 59.4609 23.7266C59.7891 23.888 60.1745 23.9688 60.6172 23.9688C61.0599 23.9688 61.4401 23.8932 61.7578 23.7422C62.0807 23.5859 62.3281 23.3516 62.5 23.0391C62.6771 22.7266 62.7656 22.3333 62.7656 21.8594C62.7656 21.3854 62.6667 20.9974 62.4688 20.6953C62.2708 20.388 61.9896 20.1615 61.625 20.0156C61.2656 19.8646 60.8411 19.7891 60.3516 19.7891H59.3203ZM68.3203 18.6016H69.3516C69.8568 18.6016 70.2734 18.5182 70.6016 18.3516C70.9349 18.1797 71.1823 17.9479 71.3438 17.6562C71.5104 17.3594 71.5938 17.026 71.5938 16.6562C71.5938 16.2188 71.5208 15.8516 71.375 15.5547C71.2292 15.2578 71.0104 15.0339 70.7188 14.8828C70.4271 14.7318 70.0573 14.6562 69.6094 14.6562C69.2031 14.6562 68.8438 14.737 68.5312 14.8984C68.224 15.0547 67.9818 15.2786 67.8047 15.5703C67.6328 15.862 67.5469 16.2057 67.5469 16.6016H66.1016C66.1016 16.0234 66.2474 15.4974 66.5391 15.0234C66.8307 14.5495 67.2396 14.1719 67.7656 13.8906C68.2969 13.6094 68.9115 13.4688 69.6094 13.4688C70.2969 13.4688 70.8984 13.5911 71.4141 13.8359C71.9297 14.0755 72.3307 14.4349 72.6172 14.9141C72.9036 15.388 73.0469 15.9792 73.0469 16.6875C73.0469 16.974 72.9792 17.2812 72.8438 17.6094C72.7135 17.9323 72.5078 18.2344 72.2266 18.5156C71.9505 18.7969 71.5911 19.0286 71.1484 19.2109C70.7057 19.388 70.1745 19.4766 69.5547 19.4766H68.3203V18.6016ZM68.3203 19.7891V18.9219H69.5547C70.2786 18.9219 70.8776 19.0078 71.3516 19.1797C71.8255 19.3516 72.1979 19.5807 72.4688 19.8672C72.7448 20.1536 72.9375 20.4688 73.0469 20.8125C73.1615 21.151 73.2188 21.4896 73.2188 21.8281C73.2188 22.3594 73.1276 22.8307 72.9453 23.2422C72.7682 23.6536 72.5156 24.0026 72.1875 24.2891C71.8646 24.5755 71.4844 24.7917 71.0469 24.9375C70.6094 25.0833 70.1328 25.1562 69.6172 25.1562C69.1224 25.1562 68.6562 25.0859 68.2188 24.9453C67.7865 24.8047 67.4036 24.6016 67.0703 24.3359C66.737 24.0651 66.4766 23.7344 66.2891 23.3438C66.1016 22.9479 66.0078 22.4974 66.0078 21.9922H67.4531C67.4531 22.388 67.5391 22.7344 67.7109 23.0312C67.888 23.3281 68.138 23.5599 68.4609 23.7266C68.7891 23.888 69.1745 23.9688 69.6172 23.9688C70.0599 23.9688 70.4401 23.8932 70.7578 23.7422C71.0807 23.5859 71.3281 23.3516 71.5 23.0391C71.6771 22.7266 71.7656 22.3333 71.7656 21.8594C71.7656 21.3854 71.6667 20.9974 71.4688 20.6953C71.2708 20.388 70.9896 20.1615 70.625 20.0156C70.2656 19.8646 69.8411 19.7891 69.3516 19.7891H68.3203ZM82.8984 21.1719V22.3594H74.6797V21.5078L79.7734 13.625H80.9531L79.6875 15.9062L76.3203 21.1719H82.8984ZM81.3125 13.625V25H79.8672V13.625H81.3125ZM91.3516 18.4062V20.1406C91.3516 21.0729 91.2682 21.8594 91.1016 22.5C90.9349 23.1406 90.6953 23.6562 90.3828 24.0469C90.0703 24.4375 89.6927 24.7214 89.25 24.8984C88.8125 25.0703 88.3177 25.1562 87.7656 25.1562C87.3281 25.1562 86.9245 25.1016 86.5547 24.9922C86.1849 24.8828 85.8516 24.7083 85.5547 24.4688C85.263 24.224 85.013 23.9062 84.8047 23.5156C84.5964 23.125 84.4375 22.651 84.3281 22.0938C84.2188 21.5365 84.1641 20.8854 84.1641 20.1406V18.4062C84.1641 17.474 84.2474 16.6927 84.4141 16.0625C84.5859 15.4323 84.8281 14.9271 85.1406 14.5469C85.4531 14.1615 85.8281 13.8854 86.2656 13.7188C86.7083 13.5521 87.2031 13.4688 87.75 13.4688C88.1927 13.4688 88.599 13.5234 88.9688 13.6328C89.3438 13.737 89.6771 13.9062 89.9688 14.1406C90.2604 14.3698 90.5078 14.6771 90.7109 15.0625C90.9193 15.4427 91.0781 15.9089 91.1875 16.4609C91.2969 17.013 91.3516 17.6615 91.3516 18.4062ZM89.8984 20.375V18.1641C89.8984 17.6536 89.8672 17.2057 89.8047 16.8203C89.7474 16.4297 89.6615 16.0964 89.5469 15.8203C89.4323 15.5443 89.2865 15.3203 89.1094 15.1484C88.9375 14.9766 88.737 14.8516 88.5078 14.7734C88.2839 14.6901 88.0312 14.6484 87.75 14.6484C87.4062 14.6484 87.1016 14.7135 86.8359 14.8438C86.5703 14.9688 86.3464 15.1693 86.1641 15.4453C85.987 15.7214 85.8516 16.0833 85.7578 16.5312C85.6641 16.9792 85.6172 17.5234 85.6172 18.1641V20.375C85.6172 20.8854 85.6458 21.3359 85.7031 21.7266C85.7656 22.1172 85.8568 22.4557 85.9766 22.7422C86.0964 23.0234 86.2422 23.2552 86.4141 23.4375C86.5859 23.6198 86.7839 23.7552 87.0078 23.8438C87.237 23.9271 87.4896 23.9688 87.7656 23.9688C88.1198 23.9688 88.4297 23.901 88.6953 23.7656C88.9609 23.6302 89.1823 23.4193 89.3594 23.1328C89.5417 22.8411 89.6771 22.4688 89.7656 22.0156C89.8542 21.5573 89.8984 21.0104 89.8984 20.375ZM93.0859 16.4141V15.8125C93.0859 15.3802 93.1797 14.987 93.3672 14.6328C93.5547 14.2786 93.8229 13.9948 94.1719 13.7812C94.5208 13.5677 94.9349 13.4609 95.4141 13.4609C95.9036 13.4609 96.3203 13.5677 96.6641 13.7812C97.013 13.9948 97.2812 14.2786 97.4688 14.6328C97.6562 14.987 97.75 15.3802 97.75 15.8125V16.4141C97.75 16.8359 97.6562 17.224 97.4688 17.5781C97.2865 17.9323 97.0208 18.2161 96.6719 18.4297C96.3281 18.6432 95.9141 18.75 95.4297 18.75C94.9453 18.75 94.526 18.6432 94.1719 18.4297C93.8229 18.2161 93.5547 17.9323 93.3672 17.5781C93.1797 17.224 93.0859 16.8359 93.0859 16.4141ZM94.1719 15.8125V16.4141C94.1719 16.6536 94.2161 16.8802 94.3047 17.0938C94.3984 17.3073 94.5391 17.4818 94.7266 17.6172C94.9141 17.7474 95.1484 17.8125 95.4297 17.8125C95.7109 17.8125 95.9427 17.7474 96.125 17.6172C96.3073 17.4818 96.4427 17.3073 96.5312 17.0938C96.6198 16.8802 96.6641 16.6536 96.6641 16.4141V15.8125C96.6641 15.5677 96.6172 15.3385 96.5234 15.125C96.4349 14.9062 96.2969 14.7318 96.1094 14.6016C95.9271 14.4661 95.6953 14.3984 95.4141 14.3984C95.138 14.3984 94.9062 14.4661 94.7188 14.6016C94.5365 14.7318 94.3984 14.9062 94.3047 15.125C94.2161 15.3385 94.1719 15.5677 94.1719 15.8125ZM98.625 22.8203V22.2109C98.625 21.7839 98.7188 21.3932 98.9062 21.0391C99.0938 20.6849 99.362 20.401 99.7109 20.1875C100.06 19.974 100.474 19.8672 100.953 19.8672C101.443 19.8672 101.859 19.974 102.203 20.1875C102.552 20.401 102.82 20.6849 103.008 21.0391C103.195 21.3932 103.289 21.7839 103.289 22.2109V22.8203C103.289 23.2474 103.195 23.638 103.008 23.9922C102.826 24.3464 102.56 24.6302 102.211 24.8438C101.867 25.0573 101.453 25.1641 100.969 25.1641C100.484 25.1641 100.068 25.0573 99.7188 24.8438C99.3698 24.6302 99.099 24.3464 98.9062 23.9922C98.7188 23.638 98.625 23.2474 98.625 22.8203ZM99.7109 22.2109V22.8203C99.7109 23.0599 99.7552 23.2891 99.8438 23.5078C99.9375 23.7214 100.078 23.8958 100.266 24.0312C100.453 24.1615 100.688 24.2266 100.969 24.2266C101.25 24.2266 101.482 24.1615 101.664 24.0312C101.852 23.8958 101.99 23.7214 102.078 23.5078C102.167 23.2943 102.211 23.0651 102.211 22.8203V22.2109C102.211 21.9661 102.164 21.737 102.07 21.5234C101.982 21.3099 101.844 21.138 101.656 21.0078C101.474 20.8724 101.24 20.8047 100.953 20.8047C100.677 20.8047 100.445 20.8724 100.258 21.0078C100.076 21.138 99.9375 21.3099 99.8438 21.5234C99.7552 21.737 99.7109 21.9661 99.7109 22.2109ZM101.312 15.2422L95.7578 24.1328L94.9453 23.6172L100.5 14.7266L101.312 15.2422Z" fill="black"/>
<path d="M142 15L134.131 22.8686C133.735 23.2646 133.537 23.4627 133.309 23.5368C133.108 23.6021 132.892 23.6021 132.691 23.5368C132.463 23.4627 132.265 23.2646 131.869 22.8686L129.131 20.1314C128.735 19.7354 128.537 19.5373 128.309 19.4632C128.108 19.3979 127.892 19.3979 127.691 19.4632C127.463 19.5373 127.265 19.7354 126.869 20.1314L122 25M142 15H135M142 15V22" stroke="black" stroke-width="2" stroke-linecap="round" stroke-linejoin="round"/>
<defs>
<linearGradient id="paint0_linear_226_21529" x1="-4.31576" y1="40" x2="117.59" y2="40" gradientUnits="userSpaceOnUse">
<stop stop-color="#F24E45" stop-opacity="0"/>
<stop offset="1" stop-color="#F24E45" stop-opacity="0.3"/>
</linearGradient>
</defs>
</svg>
