<svg width="15" height="22" viewBox="0 0 15 22" fill="none" xmlns="http://www.w3.org/2000/svg">
<path d="M1.10236 5.852C1.23303 4.13467 1.8957 2.79067 3.09036 1.82C4.28503 0.849332 5.83436 0.363999 7.73836 0.363999C9.0077 0.363999 10.0997 0.597332 11.0144 1.064C11.9477 1.512 12.6477 2.128 13.1144 2.912C13.5997 3.696 13.8424 4.58267 13.8424 5.572C13.8424 6.72933 13.5064 7.728 12.8344 8.568C12.181 9.408 11.3224 9.94933 10.2584 10.192V10.332C11.4717 10.6307 12.433 11.2187 13.1424 12.096C13.8517 12.9733 14.2064 14.1213 14.2064 15.54C14.2064 16.604 13.9637 17.5653 13.4784 18.424C12.993 19.264 12.265 19.9267 11.2944 20.412C10.3237 20.8973 9.15703 21.14 7.79436 21.14C5.8157 21.14 4.1917 20.6267 2.92236 19.6C1.65303 18.5547 0.943697 17.08 0.794363 15.176H3.25836C3.38903 16.296 3.84636 17.2107 4.63036 17.92C5.41436 18.6293 6.4597 18.984 7.76636 18.984C9.07303 18.984 10.0624 18.648 10.7344 17.976C11.425 17.2853 11.7704 16.3987 11.7704 15.316C11.7704 13.916 11.3037 12.908 10.3704 12.292C9.43703 11.676 8.0277 11.368 6.14236 11.368H5.49836V9.24H6.17036C7.8877 9.22133 9.18503 8.94133 10.0624 8.4C10.9397 7.84 11.3784 6.98133 11.3784 5.824C11.3784 4.83467 11.0517 4.04133 10.3984 3.444C9.7637 2.84667 8.84903 2.548 7.65436 2.548C6.49703 2.548 5.5637 2.84667 4.85436 3.444C4.14503 4.04133 3.72503 4.844 3.59436 5.852H1.10236Z" fill="white"/>
</svg>
