<svg width="15" height="22" viewBox="0 0 15 22" fill="none" xmlns="http://www.w3.org/2000/svg">
<path d="M1.10255 5.852C1.23321 4.13467 1.89588 2.79067 3.09055 1.82C4.28521 0.849332 5.83455 0.363999 7.73855 0.363999C9.00788 0.363999 10.0999 0.597332 11.0145 1.064C11.9479 1.512 12.6479 2.128 13.1145 2.912C13.5999 3.696 13.8425 4.58267 13.8425 5.572C13.8425 6.72933 13.5065 7.728 12.8345 8.568C12.1812 9.408 11.3225 9.94933 10.2585 10.192V10.332C11.4719 10.6307 12.4332 11.2187 13.1425 12.096C13.8519 12.9733 14.2065 14.1213 14.2065 15.54C14.2065 16.604 13.9639 17.5653 13.4785 18.424C12.9932 19.264 12.2652 19.9267 11.2945 20.412C10.3239 20.8973 9.15721 21.14 7.79455 21.14C5.81588 21.14 4.19188 20.6267 2.92255 19.6C1.65321 18.5547 0.94388 17.08 0.794546 15.176H3.25855C3.38921 16.296 3.84655 17.2107 4.63055 17.92C5.41455 18.6293 6.45988 18.984 7.76655 18.984C9.07321 18.984 10.0625 18.648 10.7345 17.976C11.4252 17.2853 11.7705 16.3987 11.7705 15.316C11.7705 13.916 11.3039 12.908 10.3705 12.292C9.43721 11.676 8.02788 11.368 6.14255 11.368H5.49855V9.24H6.17055C7.88788 9.22133 9.18521 8.94133 10.0625 8.4C10.9399 7.84 11.3785 6.98133 11.3785 5.824C11.3785 4.83467 11.0519 4.04133 10.3985 3.444C9.76388 2.84667 8.84921 2.548 7.65455 2.548C6.49721 2.548 5.56388 2.84667 4.85455 3.444C4.14521 4.04133 3.72521 4.844 3.59455 5.852H1.10255Z" fill="black"/>
</svg>
