<svg width="25" height="24" viewBox="0 0 25 24" fill="none" xmlns="http://www.w3.org/2000/svg">
<path d="M23.2073 21.293L17.532 15.6178C18.8089 14.0241 19.5032 12.0421 19.5 10C19.5 5.0295 15.4707 1 10.5 1C5.5295 1 1.5 5.0295 1.5 10C1.5 14.9705 5.5295 19 10.5 19C12.625 19 14.578 18.2635 16.1178 17.0317L21.793 22.707C21.8857 22.8 21.9959 22.8738 22.1173 22.924C22.2386 22.9743 22.3687 23.0001 22.5 23C22.6978 23 22.8911 22.9414 23.0556 22.8315C23.22 22.7216 23.3482 22.5655 23.4239 22.3828C23.4996 22.2001 23.5194 21.999 23.4808 21.805C23.4423 21.6111 23.3471 21.4329 23.2073 21.293ZM10.5 17C6.634 17 3.5 13.866 3.5 10C3.5 6.134 6.634 3 10.5 3C14.3663 3 17.5 6.134 17.5 10C17.5 13.866 14.3663 17 10.5 17Z" fill="black"/>
</svg>
