<svg width="25" height="24" viewBox="0 0 25 24" fill="none" xmlns="http://www.w3.org/2000/svg">
<rect x="0.5" width="24" height="24" rx="12" fill="white" fill-opacity="0.08"/>
<path d="M7.58054 7.19609L7.63313 7.13313C7.79092 6.97535 8.03585 6.95781 8.21301 7.08054L8.27596 7.13313L12.5 11.3573L16.724 7.13313C16.9016 6.95562 17.1894 6.95562 17.3669 7.13313C17.5444 7.31064 17.5444 7.59845 17.3669 7.77596L13.1427 12L17.3669 16.224C17.5247 16.3818 17.5422 16.6268 17.4195 16.8039L17.3669 16.8669C17.2091 17.0247 16.9641 17.0422 16.787 16.9195L16.724 16.8669L12.5 12.6427L8.27596 16.8669C8.09845 17.0444 7.81064 17.0444 7.63313 16.8669C7.45562 16.6894 7.45562 16.4016 7.63313 16.224L11.8573 12L7.63313 7.77596C7.47535 7.61817 7.45781 7.37324 7.58054 7.19609L7.63313 7.13313L7.58054 7.19609Z" fill="white" fill-opacity="0.6"/>
</svg>
