<svg width="15" height="22" viewBox="0 0 15 22" fill="none" xmlns="http://www.w3.org/2000/svg">
<path d="M3.86014 15.568C4.04681 16.632 4.47614 17.4533 5.14814 18.032C5.83881 18.6107 6.76281 18.9 7.92014 18.9C9.46948 18.9 10.6081 18.2933 11.3361 17.08C12.0828 15.8667 12.4375 13.8227 12.4001 10.948C12.0081 11.788 11.3548 12.4507 10.4401 12.936C9.52548 13.4027 8.50814 13.636 7.38814 13.636C6.13748 13.636 5.01748 13.384 4.02814 12.88C3.05748 12.3573 2.29214 11.6013 1.73214 10.612C1.17214 9.62267 0.892145 8.428 0.892145 7.028C0.892145 5.03067 1.47081 3.42533 2.62814 2.212C3.78548 0.979999 5.42814 0.363999 7.55615 0.363999C10.1695 0.363999 11.9988 1.21333 13.0441 2.912C14.1081 4.61067 14.6401 7.14 14.6401 10.5C14.6401 12.852 14.4255 14.7933 13.9961 16.324C13.5855 17.8547 12.8761 19.0213 11.8681 19.824C10.8788 20.6267 9.51615 21.028 7.78014 21.028C5.87614 21.028 4.39214 20.5147 3.32814 19.488C2.26414 18.4613 1.65748 17.1547 1.50814 15.568H3.86014ZM7.80815 11.48C9.05881 11.48 10.0855 11.0973 10.8881 10.332C11.6908 9.548 12.0921 8.49333 12.0921 7.168C12.0921 5.768 11.7001 4.63867 10.9161 3.78C10.1321 2.92133 9.03081 2.492 7.61215 2.492C6.30548 2.492 5.26014 2.90267 4.47614 3.724C3.71081 4.54533 3.32814 5.628 3.32814 6.972C3.32814 8.33467 3.71081 9.42667 4.47614 10.248C5.24148 11.0693 6.35214 11.48 7.80815 11.48Z" fill="white"/>
</svg>
