<svg width="15" height="22" viewBox="0 0 15 22" fill="none" xmlns="http://www.w3.org/2000/svg">
<path d="M13.1863 2.968H3.35833V9.352C3.78766 8.75467 4.42233 8.26933 5.26233 7.896C6.10233 7.504 7.00766 7.308 7.97833 7.308C9.52766 7.308 10.7877 7.63467 11.7583 8.288C12.729 8.92267 13.4197 9.75333 13.8303 10.78C14.2597 11.788 14.4743 12.8613 14.4743 14C14.4743 15.344 14.2223 16.548 13.7183 17.612C13.2143 18.676 12.4397 19.516 11.3943 20.132C10.3677 20.748 9.089 21.056 7.55833 21.056C5.59833 21.056 4.01166 20.552 2.79833 19.544C1.58499 18.536 0.847661 17.192 0.586328 15.512H3.07833C3.32099 16.576 3.83433 17.4067 4.61833 18.004C5.40233 18.6013 6.39166 18.9 7.58633 18.9C9.06099 18.9 10.1717 18.4613 10.9183 17.584C11.665 16.688 12.0383 15.512 12.0383 14.056C12.0383 12.6 11.665 11.48 10.9183 10.696C10.1717 9.89333 9.07033 9.492 7.61433 9.492C6.625 9.492 5.757 9.73467 5.01033 10.22C4.28233 10.6867 3.75033 11.3307 3.41433 12.152H1.00633V0.727999H13.1863V2.968Z" fill="black"/>
</svg>
