<svg width="15" height="22" viewBox="0 0 15 22" fill="none" xmlns="http://www.w3.org/2000/svg">
<path d="M13.1865 2.968H3.35848V9.352C3.78781 8.75467 4.42248 8.26933 5.26248 7.896C6.10248 7.504 7.00781 7.308 7.97848 7.308C9.52781 7.308 10.7878 7.63467 11.7585 8.288C12.7291 8.92267 13.4198 9.75333 13.8305 10.78C14.2598 11.788 14.4745 12.8613 14.4745 14C14.4745 15.344 14.2225 16.548 13.7185 17.612C13.2145 18.676 12.4398 19.516 11.3945 20.132C10.3678 20.748 9.08915 21.056 7.55848 21.056C5.59848 21.056 4.01181 20.552 2.79848 19.544C1.58515 18.536 0.847814 17.192 0.586481 15.512H3.07848C3.32115 16.576 3.83448 17.4067 4.61848 18.004C5.40248 18.6013 6.39181 18.9 7.58648 18.9C9.06115 18.9 10.1718 18.4613 10.9185 17.584C11.6651 16.688 12.0385 15.512 12.0385 14.056C12.0385 12.6 11.6651 11.48 10.9185 10.696C10.1718 9.89333 9.07048 9.492 7.61448 9.492C6.62515 9.492 5.75715 9.73467 5.01048 10.22C4.28248 10.6867 3.75048 11.3307 3.41448 12.152H1.00648V0.727999H13.1865V2.968Z" fill="white"/>
</svg>
