<svg width="174" height="40" viewBox="0 0 174 40" fill="none" xmlns="http://www.w3.org/2000/svg">
<rect width="174" height="40" rx="8" fill="url(#paint0_linear_226_21511)"/>
<path d="M36.1094 19.5703V20.7578H32.2969V19.5703H36.1094ZM46.0859 13.5625V25H44.6406V15.3672L41.7266 16.4297V15.125L45.8594 13.5625H46.0859ZM50.5156 24.2344C50.5156 23.9896 50.5911 23.7839 50.7422 23.6172C50.8984 23.4453 51.1224 23.3594 51.4141 23.3594C51.7057 23.3594 51.9271 23.4453 52.0781 23.6172C52.2344 23.7839 52.3125 23.9896 52.3125 24.2344C52.3125 24.474 52.2344 24.6771 52.0781 24.8438C51.9271 25.0104 51.7057 25.0938 51.4141 25.0938C51.1224 25.0938 50.8984 25.0104 50.7422 24.8438C50.5911 24.6771 50.5156 24.474 50.5156 24.2344ZM56.6641 18.6016H57.6953C58.2005 18.6016 58.6172 18.5182 58.9453 18.3516C59.2786 18.1797 59.526 17.9479 59.6875 17.6562C59.8542 17.3594 59.9375 17.026 59.9375 16.6562C59.9375 16.2188 59.8646 15.8516 59.7188 15.5547C59.5729 15.2578 59.3542 15.0339 59.0625 14.8828C58.7708 14.7318 58.401 14.6562 57.9531 14.6562C57.5469 14.6562 57.1875 14.737 56.875 14.8984C56.5677 15.0547 56.3255 15.2786 56.1484 15.5703C55.9766 15.862 55.8906 16.2057 55.8906 16.6016H54.4453C54.4453 16.0234 54.5911 15.4974 54.8828 15.0234C55.1745 14.5495 55.5833 14.1719 56.1094 13.8906C56.6406 13.6094 57.2552 13.4688 57.9531 13.4688C58.6406 13.4688 59.2422 13.5911 59.7578 13.8359C60.2734 14.0755 60.6745 14.4349 60.9609 14.9141C61.2474 15.388 61.3906 15.9792 61.3906 16.6875C61.3906 16.974 61.3229 17.2812 61.1875 17.6094C61.0573 17.9323 60.8516 18.2344 60.5703 18.5156C60.2943 18.7969 59.9349 19.0286 59.4922 19.2109C59.0495 19.388 58.5182 19.4766 57.8984 19.4766H56.6641V18.6016ZM56.6641 19.7891V18.9219H57.8984C58.6224 18.9219 59.2214 19.0078 59.6953 19.1797C60.1693 19.3516 60.5417 19.5807 60.8125 19.8672C61.0885 20.1536 61.2812 20.4688 61.3906 20.8125C61.5052 21.151 61.5625 21.4896 61.5625 21.8281C61.5625 22.3594 61.4714 22.8307 61.2891 23.2422C61.112 23.6536 60.8594 24.0026 60.5312 24.2891C60.2083 24.5755 59.8281 24.7917 59.3906 24.9375C58.9531 25.0833 58.4766 25.1562 57.9609 25.1562C57.4661 25.1562 57 25.0859 56.5625 24.9453C56.1302 24.8047 55.7474 24.6016 55.4141 24.3359C55.0807 24.0651 54.8203 23.7344 54.6328 23.3438C54.4453 22.9479 54.3516 22.4974 54.3516 21.9922H55.7969C55.7969 22.388 55.8828 22.7344 56.0547 23.0312C56.2318 23.3281 56.4818 23.5599 56.8047 23.7266C57.1328 23.888 57.5182 23.9688 57.9609 23.9688C58.4036 23.9688 58.7839 23.8932 59.1016 23.7422C59.4245 23.5859 59.6719 23.3516 59.8438 23.0391C60.0208 22.7266 60.1094 22.3333 60.1094 21.8594C60.1094 21.3854 60.0104 20.9974 59.8125 20.6953C59.6146 20.388 59.3333 20.1615 58.9688 20.0156C58.6094 19.8646 58.1849 19.7891 57.6953 19.7891H56.6641ZM65.6641 18.6016H66.6953C67.2005 18.6016 67.6172 18.5182 67.9453 18.3516C68.2786 18.1797 68.526 17.9479 68.6875 17.6562C68.8542 17.3594 68.9375 17.026 68.9375 16.6562C68.9375 16.2188 68.8646 15.8516 68.7188 15.5547C68.5729 15.2578 68.3542 15.0339 68.0625 14.8828C67.7708 14.7318 67.401 14.6562 66.9531 14.6562C66.5469 14.6562 66.1875 14.737 65.875 14.8984C65.5677 15.0547 65.3255 15.2786 65.1484 15.5703C64.9766 15.862 64.8906 16.2057 64.8906 16.6016H63.4453C63.4453 16.0234 63.5911 15.4974 63.8828 15.0234C64.1745 14.5495 64.5833 14.1719 65.1094 13.8906C65.6406 13.6094 66.2552 13.4688 66.9531 13.4688C67.6406 13.4688 68.2422 13.5911 68.7578 13.8359C69.2734 14.0755 69.6745 14.4349 69.9609 14.9141C70.2474 15.388 70.3906 15.9792 70.3906 16.6875C70.3906 16.974 70.3229 17.2812 70.1875 17.6094C70.0573 17.9323 69.8516 18.2344 69.5703 18.5156C69.2943 18.7969 68.9349 19.0286 68.4922 19.2109C68.0495 19.388 67.5182 19.4766 66.8984 19.4766H65.6641V18.6016ZM65.6641 19.7891V18.9219H66.8984C67.6224 18.9219 68.2214 19.0078 68.6953 19.1797C69.1693 19.3516 69.5417 19.5807 69.8125 19.8672C70.0885 20.1536 70.2812 20.4688 70.3906 20.8125C70.5052 21.151 70.5625 21.4896 70.5625 21.8281C70.5625 22.3594 70.4714 22.8307 70.2891 23.2422C70.112 23.6536 69.8594 24.0026 69.5312 24.2891C69.2083 24.5755 68.8281 24.7917 68.3906 24.9375C67.9531 25.0833 67.4766 25.1562 66.9609 25.1562C66.4661 25.1562 66 25.0859 65.5625 24.9453C65.1302 24.8047 64.7474 24.6016 64.4141 24.3359C64.0807 24.0651 63.8203 23.7344 63.6328 23.3438C63.4453 22.9479 63.3516 22.4974 63.3516 21.9922H64.7969C64.7969 22.388 64.8828 22.7344 65.0547 23.0312C65.2318 23.3281 65.4818 23.5599 65.8047 23.7266C66.1328 23.888 66.5182 23.9688 66.9609 23.9688C67.4036 23.9688 67.7839 23.8932 68.1016 23.7422C68.4245 23.5859 68.6719 23.3516 68.8438 23.0391C69.0208 22.7266 69.1094 22.3333 69.1094 21.8594C69.1094 21.3854 69.0104 20.9974 68.8125 20.6953C68.6146 20.388 68.3333 20.1615 67.9688 20.0156C67.6094 19.8646 67.1849 19.7891 66.6953 19.7891H65.6641ZM80.2422 21.1719V22.3594H72.0234V21.5078L77.1172 13.625H78.2969L77.0312 15.9062L73.6641 21.1719H80.2422ZM78.6562 13.625V25H77.2109V13.625H78.6562ZM88.6953 18.4062V20.1406C88.6953 21.0729 88.612 21.8594 88.4453 22.5C88.2786 23.1406 88.0391 23.6562 87.7266 24.0469C87.4141 24.4375 87.0365 24.7214 86.5938 24.8984C86.1562 25.0703 85.6615 25.1562 85.1094 25.1562C84.6719 25.1562 84.2682 25.1016 83.8984 24.9922C83.5286 24.8828 83.1953 24.7083 82.8984 24.4688C82.6068 24.224 82.3568 23.9062 82.1484 23.5156C81.9401 23.125 81.7812 22.651 81.6719 22.0938C81.5625 21.5365 81.5078 20.8854 81.5078 20.1406V18.4062C81.5078 17.474 81.5911 16.6927 81.7578 16.0625C81.9297 15.4323 82.1719 14.9271 82.4844 14.5469C82.7969 14.1615 83.1719 13.8854 83.6094 13.7188C84.0521 13.5521 84.5469 13.4688 85.0938 13.4688C85.5365 13.4688 85.9427 13.5234 86.3125 13.6328C86.6875 13.737 87.0208 13.9062 87.3125 14.1406C87.6042 14.3698 87.8516 14.6771 88.0547 15.0625C88.263 15.4427 88.4219 15.9089 88.5312 16.4609C88.6406 17.013 88.6953 17.6615 88.6953 18.4062ZM87.2422 20.375V18.1641C87.2422 17.6536 87.2109 17.2057 87.1484 16.8203C87.0911 16.4297 87.0052 16.0964 86.8906 15.8203C86.776 15.5443 86.6302 15.3203 86.4531 15.1484C86.2812 14.9766 86.0807 14.8516 85.8516 14.7734C85.6276 14.6901 85.375 14.6484 85.0938 14.6484C84.75 14.6484 84.4453 14.7135 84.1797 14.8438C83.9141 14.9688 83.6901 15.1693 83.5078 15.4453C83.3307 15.7214 83.1953 16.0833 83.1016 16.5312C83.0078 16.9792 82.9609 17.5234 82.9609 18.1641V20.375C82.9609 20.8854 82.9896 21.3359 83.0469 21.7266C83.1094 22.1172 83.2005 22.4557 83.3203 22.7422C83.4401 23.0234 83.5859 23.2552 83.7578 23.4375C83.9297 23.6198 84.1276 23.7552 84.3516 23.8438C84.5807 23.9271 84.8333 23.9688 85.1094 23.9688C85.4635 23.9688 85.7734 23.901 86.0391 23.7656C86.3047 23.6302 86.526 23.4193 86.7031 23.1328C86.8854 22.8411 87.0208 22.4688 87.1094 22.0156C87.1979 21.5573 87.2422 21.0104 87.2422 20.375ZM90.4297 16.4141V15.8125C90.4297 15.3802 90.5234 14.987 90.7109 14.6328C90.8984 14.2786 91.1667 13.9948 91.5156 13.7812C91.8646 13.5677 92.2786 13.4609 92.7578 13.4609C93.2474 13.4609 93.6641 13.5677 94.0078 13.7812C94.3568 13.9948 94.625 14.2786 94.8125 14.6328C95 14.987 95.0938 15.3802 95.0938 15.8125V16.4141C95.0938 16.8359 95 17.224 94.8125 17.5781C94.6302 17.9323 94.3646 18.2161 94.0156 18.4297C93.6719 18.6432 93.2578 18.75 92.7734 18.75C92.2891 18.75 91.8698 18.6432 91.5156 18.4297C91.1667 18.2161 90.8984 17.9323 90.7109 17.5781C90.5234 17.224 90.4297 16.8359 90.4297 16.4141ZM91.5156 15.8125V16.4141C91.5156 16.6536 91.5599 16.8802 91.6484 17.0938C91.7422 17.3073 91.8828 17.4818 92.0703 17.6172C92.2578 17.7474 92.4922 17.8125 92.7734 17.8125C93.0547 17.8125 93.2865 17.7474 93.4688 17.6172C93.651 17.4818 93.7865 17.3073 93.875 17.0938C93.9635 16.8802 94.0078 16.6536 94.0078 16.4141V15.8125C94.0078 15.5677 93.9609 15.3385 93.8672 15.125C93.7786 14.9062 93.6406 14.7318 93.4531 14.6016C93.2708 14.4661 93.0391 14.3984 92.7578 14.3984C92.4818 14.3984 92.25 14.4661 92.0625 14.6016C91.8802 14.7318 91.7422 14.9062 91.6484 15.125C91.5599 15.3385 91.5156 15.5677 91.5156 15.8125ZM95.9688 22.8203V22.2109C95.9688 21.7839 96.0625 21.3932 96.25 21.0391C96.4375 20.6849 96.7057 20.401 97.0547 20.1875C97.4036 19.974 97.8177 19.8672 98.2969 19.8672C98.7865 19.8672 99.2031 19.974 99.5469 20.1875C99.8958 20.401 100.164 20.6849 100.352 21.0391C100.539 21.3932 100.633 21.7839 100.633 22.2109V22.8203C100.633 23.2474 100.539 23.638 100.352 23.9922C100.169 24.3464 99.9036 24.6302 99.5547 24.8438C99.2109 25.0573 98.7969 25.1641 98.3125 25.1641C97.8281 25.1641 97.4115 25.0573 97.0625 24.8438C96.7135 24.6302 96.4427 24.3464 96.25 23.9922C96.0625 23.638 95.9688 23.2474 95.9688 22.8203ZM97.0547 22.2109V22.8203C97.0547 23.0599 97.099 23.2891 97.1875 23.5078C97.2812 23.7214 97.4219 23.8958 97.6094 24.0312C97.7969 24.1615 98.0312 24.2266 98.3125 24.2266C98.5938 24.2266 98.8255 24.1615 99.0078 24.0312C99.1953 23.8958 99.3333 23.7214 99.4219 23.5078C99.5104 23.2943 99.5547 23.0651 99.5547 22.8203V22.2109C99.5547 21.9661 99.5078 21.737 99.4141 21.5234C99.3255 21.3099 99.1875 21.138 99 21.0078C98.8177 20.8724 98.5833 20.8047 98.2969 20.8047C98.0208 20.8047 97.7891 20.8724 97.6016 21.0078C97.4193 21.138 97.2812 21.3099 97.1875 21.5234C97.099 21.737 97.0547 21.9661 97.0547 22.2109ZM98.6562 15.2422L93.1016 24.1328L92.2891 23.6172L97.8438 14.7266L98.6562 15.2422Z" fill="black"/>
<path d="M140 25L132.131 17.1314C131.735 16.7354 131.537 16.5373 131.309 16.4632C131.108 16.3979 130.892 16.3979 130.691 16.4632C130.463 16.5373 130.265 16.7354 129.869 17.1314L127.131 19.8686C126.735 20.2646 126.537 20.4627 126.309 20.5368C126.108 20.6021 125.892 20.6021 125.691 20.5368C125.463 20.4627 125.265 20.2646 124.869 19.8686L120 15M140 25H133M140 25V18" stroke="black" stroke-width="2" stroke-linecap="round" stroke-linejoin="round"/>
<defs>
<linearGradient id="paint0_linear_226_21511" x1="-4.31576" y1="40" x2="117.59" y2="40" gradientUnits="userSpaceOnUse">
<stop stop-color="#F24E45" stop-opacity="0"/>
<stop offset="1" stop-color="#F24E45" stop-opacity="0.3"/>
</linearGradient>
</defs>
</svg>
