<svg width="24" height="24" viewBox="0 0 24 24" fill="none" xmlns="http://www.w3.org/2000/svg">
<rect width="24" height="24" rx="12" fill="black" fill-opacity="0.08"/>
<path d="M7.08054 7.19609L7.13313 7.13313C7.29092 6.97535 7.53585 6.95781 7.71301 7.08054L7.77596 7.13313L12 11.3573L16.224 7.13313C16.4016 6.95562 16.6894 6.95562 16.8669 7.13313C17.0444 7.31064 17.0444 7.59845 16.8669 7.77596L12.6427 12L16.8669 16.224C17.0247 16.3818 17.0422 16.6268 16.9195 16.8039L16.8669 16.8669C16.7091 17.0247 16.4641 17.0422 16.287 16.9195L16.224 16.8669L12 12.6427L7.77596 16.8669C7.59845 17.0444 7.31064 17.0444 7.13313 16.8669C6.95562 16.6894 6.95562 16.4016 7.13313 16.224L11.3573 12L7.13313 7.77596C6.97535 7.61817 6.95781 7.37324 7.08054 7.19609L7.13313 7.13313L7.08054 7.19609Z" fill="black" fill-opacity="0.6"/>
</svg>
