<svg width="34" height="34" viewBox="0 0 34 34" fill="none" xmlns="http://www.w3.org/2000/svg">
<path d="M16.9843 33.6492C26.1762 33.6492 33.6277 26.3242 33.6277 17.2882C33.6277 8.25231 26.1762 0.927246 16.9843 0.927246C7.79248 0.927246 0.341007 8.25231 0.341007 17.2882C0.341007 26.3242 7.79248 33.6492 16.9843 33.6492Z" fill="#7747F2"/>
<path d="M16.9843 33.0716C26.1762 33.0716 33.6277 25.7465 33.6277 16.7106C33.6277 7.67467 26.1762 0.349609 16.9843 0.349609C7.79248 0.349609 0.341007 7.67467 0.341007 16.7106C0.341007 25.7465 7.79248 33.0716 16.9843 33.0716Z" fill="#EE4900"/>
<path d="M4.26162 11.2827C6.39552 6.30205 11.7245 2.92022 17.2207 3.06762C27.0915 3.2207 33.6633 13.25 29.7358 22.1538C25.8284 31.052 13.8324 33.2064 6.9982 26.2103C3.137 22.3551 2.01238 16.2151 4.26162 11.2827ZM4.26739 11.2827C2.03833 16.2151 3.17449 22.3381 7.03569 26.1706C13.8815 33.1072 25.7621 31.001 29.681 22.1312C33.6056 13.2556 27.0569 3.26038 17.2178 3.09597C11.7303 2.9429 6.40417 6.31338 4.26739 11.2855V11.2827Z" fill="black"/>
<path d="M16.9888 30.29C24.6152 30.29 30.7975 24.2125 30.7975 16.7156C30.7975 9.2186 24.6152 3.14111 16.9888 3.14111C9.3625 3.14111 3.18013 9.2186 3.18013 16.7156C3.18013 24.2125 9.3625 30.29 16.9888 30.29Z" fill="#F9A01E"/>
<path d="M4.30745 11.3047C6.43234 6.33765 11.7415 2.9706 17.2205 3.09205C27.0913 3.19831 33.6884 13.2782 29.766 22.1679C25.8714 31.1062 13.8046 33.2983 6.97591 26.2302C3.13999 22.3622 2.04049 16.2232 4.30745 11.3047ZM4.33524 11.3169C2.14858 16.2171 3.29442 22.2894 7.14887 26.0693C13.9405 32.8732 25.6428 30.8239 29.5405 22.0708C33.4413 13.2812 26.9585 3.3987 17.2174 3.19831C11.7631 3.02525 6.46631 6.38015 4.33524 11.3169Z" fill="black"/>
<path d="M3.45167 10.9381C5.71807 5.63861 11.3823 2.03647 17.23 2.18613C27.7316 2.329 34.7557 13.0436 30.5689 22.5098C26.4098 31.9931 13.6038 34.3095 6.33398 26.8331C2.23716 22.7207 1.04686 16.1831 3.45167 10.9381ZM3.46897 10.9449C1.11261 16.1831 2.32712 22.6833 6.43432 26.7412C13.7076 34.0748 26.2818 31.8638 30.4478 22.4554C34.6242 13.0606 27.6554 2.42424 17.2335 2.25416C11.3996 2.08749 5.74229 5.66582 3.46551 10.9449H3.46897Z" fill="black"/>
</svg>
