<svg width="27" height="28" viewBox="0 0 27 28" fill="none" xmlns="http://www.w3.org/2000/svg">
<g filter="url(#filter0_d_584_24524)">
<path d="M20.4486 22.2773C19.0604 21.8092 17.5722 22.6453 17.2481 24.0736C16.732 26.3419 13.6555 26.71 12.6194 24.6256C11.9673 23.3134 10.323 22.8494 9.08285 23.6335C7.11454 24.8737 4.67817 22.9574 5.41828 20.753C5.88635 19.3648 5.05023 17.8766 3.62201 17.5525C1.35366 17.0365 0.985601 13.96 3.06992 12.9238C4.38212 12.2717 4.84619 10.6275 4.06207 9.38729C2.82188 7.41899 4.73818 4.98261 6.94252 5.72273C8.33073 6.1908 9.81896 5.35467 10.143 3.92645C10.6591 1.6581 13.7356 1.29004 14.7717 3.37436C15.4238 4.68657 17.0681 5.15064 18.3083 4.36652C20.2766 3.12633 22.7129 5.04262 21.9728 7.24696C21.5048 8.63517 22.3409 10.1234 23.7691 10.4475C26.0375 10.9635 26.4055 14.04 24.3212 15.0762C23.009 15.7283 22.5449 17.3725 23.329 18.6127C24.5692 20.581 22.6529 23.0174 20.4486 22.2773Z" fill="#FFC61E"/>
<path d="M21.5048 16.1403C20.9407 17.3365 19.4404 18.0486 17.8962 18.4686C17.1321 18.6767 16.328 18.8247 15.5038 18.9087C13.4155 19.1207 11.2112 18.9287 9.28688 18.3406C7.75864 17.8726 6.28242 17.1164 5.75034 15.9043L6.23041 14.6361L7.37859 14.44C7.37859 14.44 7.02253 16.0923 10.191 17.1164C12.3033 17.8005 14.8997 17.8366 17.0281 17.2165C17.2041 17.1644 17.3721 17.1124 17.5241 17.0564C20.1926 16.1083 19.9165 14.6241 19.9165 14.6241L21.0607 14.8521L21.5008 16.1363L21.5048 16.1403Z" fill="#F0BA07"/>
<path d="M21.5048 16.1403C20.9407 17.3364 19.4404 18.0486 17.8962 18.4686C17.1321 18.6767 16.328 18.8247 15.5038 18.9087C16.0879 18.5366 16.868 17.9285 17.5281 17.0564C20.1966 16.1083 19.9205 14.624 19.9205 14.624L21.0647 14.8521L21.5048 16.1363L21.5048 16.1403Z" fill="#D99A00"/>
<path d="M22.0328 15.8723C21.6407 16.7044 21.0686 16.8724 21.0686 16.8724C21.0686 16.8724 20.4485 15.7763 17.6401 15.1842C16.632 14.9721 15.3398 14.8241 13.6955 14.8161L13.6675 14.8161C11.9112 14.7721 10.555 14.8961 9.51085 15.1042C6.85845 15.6242 6.23835 16.6524 6.23835 16.6524C6.23835 16.6524 5.67426 16.4684 5.30621 15.6282C5.08617 15.1242 4.93415 14.3841 5.02216 13.3039C5.03817 13.1039 5.06217 12.8918 5.09418 12.6678C5.21419 11.8517 5.78228 11.1716 6.5624 10.9115C7.17049 10.7075 8.03463 10.4875 9.23481 10.3314C10.399 10.1754 11.8752 10.0794 13.7355 10.1074L13.7635 10.1074C15.7398 10.1354 17.2801 10.2954 18.4722 10.4995C19.5524 10.6875 20.3445 10.9155 20.9086 11.1236C21.6807 11.4116 22.2288 12.1037 22.3248 12.9238C22.3528 13.1479 22.3688 13.3599 22.3808 13.5599C22.4368 14.6401 22.2648 15.3762 22.0288 15.8763L22.0328 15.8723Z" fill="#F0BA07"/>
<path d="M22.0328 15.8722C20.8686 15.1521 17.7321 13.4958 13.7195 13.6438L13.6875 13.6438C9.67891 13.3798 6.49442 14.944 5.31023 15.6282C5.0902 15.1241 4.93818 14.384 5.02619 13.3038C6.03835 12.7877 9.06681 11.4955 13.7155 11.7436L13.7475 11.7436C18.3962 11.6315 21.3847 13.0078 22.3849 13.5558C22.4409 14.636 22.2688 15.3721 22.0328 15.8722Z" fill="#F2CA11"/>
<path d="M13.7556 11.1516C19.5485 11.0115 22.7649 13.1839 22.7649 13.1839C22.7649 13.1839 23.073 14.5001 22.5329 15.6042C22.5329 15.6042 18.8403 12.8638 13.7276 13.0519L13.6995 13.0519C8.59476 12.7158 4.82218 15.3442 4.82218 15.3442C4.31411 14.224 4.66216 12.9198 4.66216 12.9198C4.66216 12.9198 7.94266 10.8435 13.7276 11.1556L13.7556 11.1556L13.7556 11.1516Z" fill="#FFE675"/>
<g style="mix-blend-mode:multiply" opacity="0.52">
<path d="M18.4763 10.4954C18.3403 11.8876 17.9482 14.0839 17.6402 15.1841C16.632 14.972 15.3398 14.824 13.6956 14.816L13.6676 14.816C11.9113 14.772 10.5551 14.896 9.51094 15.1041C9.12688 13.9719 9.18689 11.4475 9.2349 10.3233C10.3991 10.1673 11.8753 10.0713 13.7356 10.0993L13.7636 10.0993C15.7399 10.1273 17.2801 10.2873 18.4723 10.4914L18.4763 10.4954Z" fill="#E6C010"/>
</g>
<path d="M17.8362 10.8075L17.5321 12.9918L17.2841 14.7961C17.2561 15.0001 17.1641 15.1881 17.024 15.3362L16.896 15.4682C16.708 15.6642 16.444 15.7762 16.1719 15.7722L11.2672 15.7002C11.0751 15.7002 10.8871 15.6362 10.7271 15.5282L10.379 15.2882C10.315 15.2442 10.259 15.1961 10.211 15.1401C10.067 14.9801 9.97496 14.7761 9.95896 14.556L9.63891 10.3714C9.62291 10.1594 9.67491 9.94734 9.79093 9.76731L9.98696 9.45926C10.171 9.17522 10.487 9.00719 10.8231 9.01119L16.42 9.09521C16.72 9.09921 17 9.23923 17.1841 9.47927L17.6441 10.0794C17.8042 10.2874 17.8722 10.5474 17.8362 10.8075Z" fill="#FFD752"/>
<path d="M10.623 10.9195L10.7911 13.8879C10.8151 14.348 11.1911 14.708 11.6512 14.712L15.5558 14.7681C16.0199 14.7761 16.4079 14.42 16.4399 13.9599L16.664 10.9875C16.7 10.4834 16.3079 10.0513 15.7998 10.0473L11.5032 9.99532C10.9951 9.98732 10.591 10.4154 10.619 10.9195L10.623 10.9195Z" fill="#EDAE26"/>
<path d="M11.3592 13.5999L11.2152 11.0795C11.1952 10.7434 11.4632 10.4594 11.8033 10.4594L15.5519 10.4674C15.8839 10.4674 16.148 10.7434 16.14 11.0715L16.0559 13.7359C16.0439 14.0639 15.7719 14.32 15.4439 14.304L11.9193 14.152C11.6193 14.14 11.3752 13.8999 11.3592 13.5999Z" fill="#FFD752"/>
<path d="M7.37856 16.7964C7.40256 17.2605 7.85063 17.4525 8.22269 17.6365C8.61475 17.8246 9.11082 18.0686 9.55089 18.0606C10.051 18.0526 10.227 17.2445 9.68691 17.1485C9.39887 17.0965 9.11482 16.9844 8.84678 16.8724C8.72676 16.8204 8.60274 16.7684 8.48272 16.7164C8.44272 16.7004 8.06266 16.5084 8.13467 16.6044C7.92264 16.3163 7.35455 16.3483 7.37456 16.7964L7.37856 16.7964Z" fill="#FFC82E"/>
<path d="M10.5831 18.4886C10.7151 18.5446 10.8471 18.6166 10.9911 18.6086C11.0872 18.6046 11.1832 18.5846 11.2672 18.5366C11.3712 18.4766 11.4472 18.3846 11.4952 18.2806C11.5352 18.1886 11.5472 18.0966 11.5352 17.9965C11.5232 17.8845 11.4792 17.7565 11.3912 17.6805C11.2992 17.6005 11.2352 17.5485 11.1152 17.5125C11.0912 17.5045 11.0632 17.5005 11.0392 17.4925C10.9871 17.4805 10.9351 17.4645 10.8831 17.4525C10.7471 17.4165 10.5911 17.4285 10.4671 17.5005C10.3551 17.5645 10.247 17.6925 10.215 17.8205C10.183 17.9565 10.187 18.1126 10.263 18.2366C10.291 18.2726 10.319 18.3086 10.347 18.3486C10.4151 18.4166 10.4911 18.4646 10.5831 18.4926L10.5831 18.4886Z" fill="#FFC82E"/>
<path d="M10.447 10.3674C10.6751 10.1113 10.7751 9.94329 11.1512 9.89528C11.4752 9.85127 11.7953 9.87128 12.1193 9.80727C12.5554 9.71925 12.3713 9.08716 11.9473 9.14717C11.4672 9.21518 10.9751 9.07916 10.5151 9.27919C10.159 9.43521 9.81895 9.81527 9.94297 10.2233C10.003 10.4274 10.291 10.5434 10.451 10.3634L10.447 10.3674Z" fill="#FFE796"/>
<path d="M12.7394 9.81935C12.7874 9.83535 12.8274 9.84735 12.8835 9.85135L12.9075 9.85135C12.9435 9.85935 12.9395 9.85535 12.8955 9.85135C12.8955 9.85135 12.9595 9.86335 12.9635 9.86735C12.9955 9.87536 13.0235 9.88336 13.0515 9.89536C13.2395 9.95937 13.4355 9.81135 13.4635 9.62732C13.4755 9.5353 13.4555 9.45529 13.4035 9.38328C13.3355 9.29527 13.2555 9.26326 13.1475 9.25126C12.9915 9.23126 12.8234 9.23926 12.6834 9.31927C12.5874 9.37528 12.5354 9.47929 12.5474 9.59131C12.5594 9.70333 12.6354 9.78334 12.7394 9.81935Z" fill="#FFE796"/>
<path d="M11.2551 10.4874L11.2711 10.4714C11.2711 10.4714 11.2911 10.4514 11.2951 10.4354C11.3031 10.4234 11.3071 10.4074 11.3071 10.3914C11.3071 10.3754 11.3071 10.3634 11.2991 10.3474C11.2951 10.3354 11.2871 10.3193 11.2751 10.3113C11.2671 10.3073 11.2591 10.2993 11.2511 10.2953C11.2351 10.2833 11.2151 10.2793 11.1951 10.2793C11.1871 10.2793 11.1751 10.2793 11.1671 10.2793C11.1471 10.2833 11.1311 10.2953 11.1191 10.3073L11.1031 10.3234C11.1031 10.3234 11.0831 10.3434 11.0791 10.3594C11.0711 10.3714 11.0671 10.3874 11.0671 10.4034C11.0671 10.4194 11.0671 10.4314 11.0751 10.4474C11.0791 10.4594 11.0871 10.4754 11.0991 10.4834C11.1071 10.4874 11.1151 10.4954 11.1231 10.4994C11.1391 10.5114 11.1591 10.5154 11.1791 10.5154C11.1871 10.5154 11.1991 10.5154 11.2071 10.5154C11.2271 10.5114 11.2431 10.4994 11.2551 10.4874Z" fill="#FFE9A1"/>
<path d="M11.7712 10.2673C11.9152 10.2673 11.9192 10.0473 11.7712 10.0433C11.6232 10.0393 11.6232 10.2633 11.7712 10.2673Z" fill="#FFE9A1"/>
<path d="M12.3994 10.2794C12.5434 10.2794 12.5474 10.0594 12.3994 10.0554C12.2514 10.0514 12.2514 10.2754 12.3994 10.2794Z" fill="#FFE9A1"/>
<path d="M13.0274 10.2874C13.1715 10.2874 13.1755 10.0673 13.0274 10.0633C12.8794 10.0593 12.8794 10.2834 13.0274 10.2874Z" fill="#FFE9A1"/>
<path d="M13.6356 10.2954C13.7796 10.2954 13.7836 10.0754 13.6356 10.0714C13.4876 10.0674 13.4876 10.2914 13.6356 10.2954Z" fill="#FFE9A1"/>
<path d="M14.2276 10.3033C14.3717 10.3033 14.3757 10.0833 14.2276 10.0793C14.0796 10.0753 14.0796 10.2993 14.2276 10.3033Z" fill="#FFE9A1"/>
<path d="M14.8557 10.3154C14.9997 10.3154 15.0037 10.0954 14.8557 10.0914C14.7077 10.0874 14.7077 10.3114 14.8557 10.3154Z" fill="#FFE9A1"/>
<path d="M15.4999 10.3234C15.6439 10.3234 15.6479 10.1033 15.4999 10.0993C15.3518 10.0953 15.3518 10.3194 15.4999 10.3234Z" fill="#FFE9A1"/>
<path d="M16.0919 10.4194C16.2359 10.4194 16.2399 10.1994 16.0919 10.1954C15.9439 10.1914 15.9439 10.4154 16.0919 10.4194Z" fill="#FFE9A1"/>
<path d="M16.38 10.8755C16.524 10.8755 16.528 10.6555 16.38 10.6515C16.232 10.6475 16.232 10.8715 16.38 10.8755Z" fill="#FFE9A1"/>
<path d="M16.3719 11.4155C16.5159 11.4155 16.5199 11.1955 16.3719 11.1915C16.2239 11.1875 16.2239 11.4115 16.3719 11.4155Z" fill="#FFE9A1"/>
<path d="M16.348 11.9757C16.492 11.9757 16.496 11.7557 16.348 11.7517C16.2 11.7477 16.2 11.9717 16.348 11.9757Z" fill="#FFE9A1"/>
<path d="M16.3719 12.6038C16.5159 12.6038 16.5199 12.3837 16.3719 12.3797C16.2239 12.3757 16.2239 12.5998 16.3719 12.6038Z" fill="#FFE9A1"/>
<path d="M16.312 13.2998C16.456 13.2998 16.46 13.0798 16.312 13.0758C16.164 13.0718 16.164 13.2958 16.312 13.2998Z" fill="#FFE9A1"/>
<path d="M16.2679 13.8719C16.4119 13.8719 16.4159 13.6519 16.2679 13.6479C16.1199 13.6439 16.1199 13.8679 16.2679 13.8719Z" fill="#FFE9A1"/>
<path d="M16.0879 14.304C16.2319 14.304 16.2359 14.0839 16.0879 14.0799C15.9398 14.0759 15.9398 14.3 16.0879 14.304Z" fill="#FFE9A1"/>
<path d="M15.7518 14.6721C15.8958 14.6721 15.8998 14.4521 15.7518 14.4481C15.6038 14.4441 15.6038 14.6681 15.7518 14.6721Z" fill="#FFE9A1"/>
<path d="M15.1278 14.44L15.1118 14.44C15.1118 14.44 15.0838 14.44 15.0678 14.448C15.0558 14.452 15.0398 14.46 15.0318 14.472C15.0198 14.48 15.0118 14.492 15.0078 14.508C14.9998 14.52 14.9958 14.536 14.9958 14.552C14.9958 14.56 14.9958 14.572 14.9958 14.58C14.9998 14.6 15.0118 14.616 15.0238 14.628L15.0478 14.644C15.0478 14.644 15.0838 14.66 15.1038 14.66L15.1198 14.66C15.1198 14.66 15.1478 14.66 15.1638 14.652C15.1758 14.648 15.1918 14.64 15.1998 14.628C15.2118 14.62 15.2198 14.608 15.2238 14.592C15.2318 14.58 15.2358 14.564 15.2358 14.548C15.2358 14.54 15.2358 14.528 15.2358 14.52C15.2318 14.5 15.2198 14.484 15.2078 14.472C15.1998 14.468 15.1918 14.46 15.1838 14.456C15.1678 14.444 15.1478 14.44 15.1278 14.44Z" fill="#FFE9A1"/>
<path d="M14.4836 14.656C14.6276 14.656 14.6316 14.436 14.4836 14.432C14.3356 14.428 14.3356 14.652 14.4836 14.656Z" fill="#FFE9A1"/>
<path d="M13.2195 14.6361C13.3635 14.6361 13.3675 14.4161 13.2195 14.4121C13.0714 14.4081 13.0714 14.6321 13.2195 14.6361Z" fill="#FFE9A1"/>
<path d="M13.8515 14.644C13.9956 14.644 13.9996 14.424 13.8515 14.42C13.7035 14.416 13.7035 14.64 13.8515 14.644Z" fill="#FFE9A1"/>
<path d="M12.5833 14.6281C12.7274 14.6281 12.7314 14.408 12.5833 14.404C12.4353 14.4 12.4353 14.6241 12.5833 14.6281Z" fill="#FFE9A1"/>
<path d="M11.9513 14.6161C12.0953 14.6161 12.0993 14.3961 11.9513 14.3921C11.8032 14.3881 11.8032 14.6121 11.9513 14.6161Z" fill="#FFE9A1"/>
<path d="M11.4312 14.428C11.5753 14.428 11.5793 14.2079 11.4312 14.2039C11.2832 14.1999 11.2832 14.424 11.4312 14.428Z" fill="#FFE9A1"/>
<path d="M11.0552 14.0399C11.1992 14.0399 11.2032 13.8199 11.0552 13.8159C10.9071 13.8119 10.9071 14.0359 11.0552 14.0399Z" fill="#FFE9A1"/>
<path d="M11.0111 13.3239C11.1551 13.3239 11.1591 13.1038 11.0111 13.0998C10.8631 13.0958 10.8631 13.3199 11.0111 13.3239Z" fill="#FFE9A1"/>
<path d="M10.9712 12.6598C11.1152 12.6598 11.1192 12.4398 10.9712 12.4358C10.8231 12.4318 10.8231 12.6558 10.9712 12.6598Z" fill="#FFE9A1"/>
<path d="M10.9111 11.9636C11.0551 11.9636 11.0591 11.7436 10.9111 11.7396C10.7631 11.7356 10.7631 11.9596 10.9111 11.9636Z" fill="#FFE9A1"/>
<path d="M10.8832 11.4596C11.0272 11.4596 11.0312 11.2396 10.8832 11.2356C10.7351 11.2316 10.7351 11.4556 10.8832 11.4596Z" fill="#FFE9A1"/>
<path d="M10.8911 10.9515C11.0351 10.9515 11.0391 10.7315 10.8911 10.7275C10.7431 10.7235 10.7431 10.9475 10.8911 10.9515Z" fill="#FFE9A1"/>
<path d="M9.07479 12.0316C8.73874 11.9316 8.39469 12.0356 8.08264 12.1637C7.8146 12.2717 7.73059 12.6837 7.87461 12.9118C8.04263 13.1798 8.34268 13.2478 8.62272 13.1198C8.84276 13.0158 9.07879 12.9078 9.25082 12.7317C9.47085 12.5077 9.38284 12.1197 9.07479 12.0276L9.07479 12.0316Z" fill="#FFF3A8"/>
<path d="M7.2186 12.6197C6.91455 12.4917 6.5905 12.5957 6.29446 12.6957C5.99041 12.7957 5.69436 12.9157 5.39832 13.0358C4.72221 13.3118 5.19028 14.484 5.88239 14.2319C6.18244 14.1239 6.47848 14.0039 6.77053 13.8759C7.05457 13.7519 7.35462 13.6119 7.49064 13.3158C7.63066 13.0158 7.52264 12.7397 7.2186 12.6157L7.2186 12.6197Z" fill="#FFF3A8"/>
<path d="M18.1403 12.9478C18.3523 13.1758 18.6403 13.2599 18.9444 13.2679C19.1884 13.2759 19.4285 13.0558 19.4205 12.8078C19.4125 12.5637 19.2204 12.3237 18.9604 12.3317C18.9124 12.3317 18.8644 12.3317 18.8164 12.3317C18.7644 12.3237 18.7684 12.3277 18.8324 12.3317C18.7003 12.3117 18.6683 12.3077 18.7364 12.3157C18.7724 12.3237 18.7684 12.3197 18.7244 12.3157C18.6723 12.3037 18.6243 12.2957 18.5723 12.2917C18.5283 12.2917 18.4843 12.2877 18.4363 12.2837C18.2843 12.2637 18.1283 12.3917 18.0723 12.5197C18.0082 12.6678 18.0362 12.8358 18.1483 12.9518L18.1403 12.9478Z" fill="#FFF3A8"/>
<path d="M17.5362 12.9918L17.2881 14.7961C17.2601 15.0001 17.1681 15.1881 17.0281 15.3362L16.9001 15.4682C16.712 15.6642 16.448 15.7762 16.176 15.7722L11.2712 15.7002C11.0792 15.7002 10.8911 15.6362 10.7311 15.5282L10.3831 15.2882C10.319 15.2442 10.263 15.1961 10.215 15.1401C11.2752 15.3602 15.3478 15.7922 16.38 14.7921C16.9801 14.212 17.3361 13.5159 17.5402 12.9918L17.5362 12.9918Z" fill="#F2CA11"/>
<path d="M15.9279 10.9995C15.8759 10.8195 15.7319 10.6795 15.5519 10.6315C15.5079 10.6155 15.4599 10.6115 15.4118 10.6115L11.9473 10.6115C11.8993 10.6075 11.8553 10.6115 11.8113 10.6235C11.6313 10.6675 11.4872 10.8035 11.4272 10.9795C11.4072 11.0435 11.3992 11.1115 11.4032 11.1795L11.5353 13.5039C11.5353 13.5599 11.5473 13.6119 11.5713 13.6639C11.6353 13.836 11.7873 13.972 11.9713 14.004C11.9993 14.012 12.0233 14.016 12.0553 14.016L15.3118 14.156L15.3518 14.156C15.5479 14.148 15.7199 14.04 15.8119 13.876C15.8519 13.804 15.8759 13.7199 15.8799 13.6319L15.9559 11.1715C15.9559 11.1115 15.9519 11.0555 15.9319 10.9995L15.9279 10.9995ZM14.9718 13.7719L14.9518 13.7719L12.3994 13.6599C12.3794 13.6599 12.3554 13.6559 12.3354 13.6519C12.1473 13.6159 12.0033 13.4559 11.9913 13.2599L11.8873 11.4596L11.8873 11.4356C11.8753 11.2356 12.0033 11.0635 12.1794 11.0075C12.2234 10.9915 12.2634 10.9875 12.3114 10.9875L15.0278 10.9875C15.0758 10.9915 15.1198 10.9995 15.1598 11.0115C15.3358 11.0715 15.4599 11.2356 15.4519 11.4316L15.4519 11.4596L15.3918 13.3639C15.3918 13.3919 15.3878 13.4199 15.3798 13.4479C15.3358 13.6359 15.1638 13.7759 14.9678 13.7759L14.9718 13.7719Z" fill="#00A169"/>
<path d="M15.4558 11.4236L15.4558 11.4516L15.3958 13.3559C15.3958 13.3839 15.3918 13.4119 15.3838 13.4399C15.3398 13.6279 15.1678 13.7679 14.9717 13.7679L14.9517 13.7679L12.3993 13.6559C12.3793 13.6559 12.3553 13.6519 12.3353 13.6479C12.1473 13.6119 12.0033 13.4519 11.9913 13.2559L11.8873 11.4556L11.8873 11.4316C11.8753 11.2316 12.0033 11.0595 12.1793 11.0035C12.2233 10.9875 12.2633 10.9835 12.3113 10.9835L15.0277 10.9835C15.0758 10.9875 15.1198 10.9955 15.1598 11.0075C15.3358 11.0675 15.4598 11.2316 15.4518 11.4276L15.4558 11.4236Z" fill="url(#paint0_linear_584_24524)"/>
<path d="M11.8873 11.4316L11.8873 11.4556L11.4272 10.9795C11.4872 10.8035 11.6313 10.6674 11.8113 10.6234L12.1833 11.0035C12.0073 11.0595 11.8793 11.2315 11.8873 11.4316Z" fill="#1FDE9B"/>
<path d="M15.928 10.9955L15.4559 11.4515L15.4559 11.4235C15.4639 11.2315 15.3399 11.0635 15.1639 11.0035L15.5519 10.6274C15.7319 10.6754 15.872 10.8154 15.928 10.9955Z" fill="#1FDE9B"/>
<path d="M12.3353 13.648L11.9673 14.004C11.7832 13.968 11.6312 13.836 11.5672 13.664L11.9913 13.2519C12.0033 13.4559 12.1473 13.616 12.3353 13.652L12.3353 13.648Z" fill="#1FDE9B"/>
<path d="M15.8079 13.876C15.7158 14.04 15.5438 14.152 15.3478 14.156L14.9717 13.7679C15.1718 13.7679 15.3398 13.6279 15.3838 13.4399L15.8039 13.876L15.8079 13.876Z" fill="#1FDE9B"/>
<path d="M12.2273 11.6196C12.3713 11.7157 12.5434 11.7117 12.7114 11.7197C12.8794 11.7277 13.0514 11.7277 13.2195 11.7277C13.6035 11.7277 13.6155 11.1276 13.2275 11.1276C13.0594 11.1276 12.8874 11.1316 12.7194 11.1396C12.5554 11.1476 12.3753 11.1396 12.2353 11.2396C12.0953 11.3356 12.0873 11.5236 12.2313 11.6196L12.2273 11.6196Z" fill="#9FFFDA"/>
<path d="M12.0514 11.9076C12.0274 11.9476 12.0114 11.9916 12.0034 12.0356C11.9954 12.0836 11.9754 12.1357 11.9794 12.1837C11.9874 12.2637 12.0034 12.3277 12.0594 12.3877C12.1074 12.4397 12.1874 12.4757 12.2594 12.4757C12.3354 12.4757 12.4114 12.4517 12.4634 12.3957C12.4794 12.3757 12.4954 12.3557 12.5074 12.3397C12.5354 12.2957 12.5474 12.2477 12.5474 12.1957C12.5554 12.1477 12.5354 12.0956 12.5314 12.0476C12.5234 11.9996 12.5074 11.9596 12.4874 11.9156C12.4034 11.7476 12.1354 11.7436 12.0474 11.9076L12.0514 11.9076Z" fill="#66FFC1"/>
<path d="M15.0198 11.1956L14.9638 12.9638C14.9557 13.1799 14.7757 13.3519 14.5557 13.3399L12.2313 13.2399L12.2313 13.2719C12.2433 13.4719 12.4074 13.6319 12.6074 13.6399L14.9437 13.74C15.1598 13.748 15.3438 13.5799 15.3518 13.3639L15.4078 11.5956C15.4158 11.3756 15.2398 11.1956 15.0198 11.1916L15.0198 11.1956Z" fill="#15B779"/>
<path d="M11.9993 11.1676L12.1394 11.3516L12.3634 11.2796L12.1754 11.4196L12.2514 11.6437L12.1074 11.4556L11.8873 11.5317L12.0714 11.3876L11.9993 11.1676Z" fill="white"/>
</g>
<defs>
<filter id="filter0_d_584_24524" x="0.487371" y="0.791814" width="26.4164" height="26.4164" filterUnits="userSpaceOnUse" color-interpolation-filters="sRGB">
<feFlood flood-opacity="0" result="BackgroundImageFix"/>
<feColorMatrix in="SourceAlpha" type="matrix" values="0 0 0 0 0 0 0 0 0 0 0 0 0 0 0 0 0 0 127 0" result="hardAlpha"/>
<feOffset/>
<feGaussianBlur stdDeviation="0.604093"/>
<feColorMatrix type="matrix" values="0 0 0 0 0.94902 0 0 0 0 0.854902 0 0 0 0 0.188235 0 0 0 0.75 0"/>
<feBlend mode="normal" in2="BackgroundImageFix" result="effect1_dropShadow_584_24524"/>
<feBlend mode="normal" in="SourceGraphic" in2="effect1_dropShadow_584_24524" result="shape"/>
</filter>
<linearGradient id="paint0_linear_584_24524" x1="11.8181" y1="11.4167" x2="14.5088" y2="12.6249" gradientUnits="userSpaceOnUse">
<stop stop-color="#55F9BA"/>
<stop offset="1" stop-color="#00BD7B"/>
</linearGradient>
</defs>
</svg>
