<svg width="18" height="18" viewBox="0 0 18 18" fill="none" xmlns="http://www.w3.org/2000/svg">
<g clip-path="url(#clip0_105_2053)">
<path d="M2.25 6.75C2.25 4.95979 2.96116 3.2429 4.22703 1.97703C5.4929 0.711159 7.20979 0 9 0C10.7902 0 12.5071 0.711159 13.773 1.97703C15.0388 3.2429 15.75 4.95979 15.75 6.75C15.75 11.25 9 18 9 18C9 18 2.25 11.25 2.25 6.75ZM6.1875 6.75C6.1875 7.49592 6.48382 8.21129 7.01126 8.73874C7.53871 9.26618 8.25408 9.5625 9 9.5625C9.74592 9.5625 10.4613 9.26618 10.9887 8.73874C11.5162 8.21129 11.8125 7.49592 11.8125 6.75C11.8125 6.00408 11.5162 5.28871 10.9887 4.76126C10.4613 4.23382 9.74592 3.9375 9 3.9375C8.25408 3.9375 7.53871 4.23382 7.01126 4.76126C6.48382 5.28871 6.1875 6.00408 6.1875 6.75Z" fill="#CDCDCD"/>
</g>
<defs>
<clipPath id="clip0_105_2053">
<rect width="18" height="18" fill="white"/>
</clipPath>
</defs>
</svg>
