<svg width="27" height="28" viewBox="0 0 27 28" fill="none" xmlns="http://www.w3.org/2000/svg">
<g filter="url(#filter0_d_584_24529)">
<path d="M20.4486 22.2773C19.0604 21.8092 17.5722 22.6454 17.2481 24.0736C16.732 26.3419 13.6556 26.71 12.6194 24.6257C11.9673 23.3135 10.323 22.8494 9.08286 23.6335C7.11455 24.8737 4.67817 22.9574 5.41829 20.7531C5.88636 19.3648 5.05023 17.8766 3.62201 17.5526C1.35366 17.0365 0.985599 13.96 3.06992 12.9238C4.38213 12.2717 4.8462 10.6275 4.06208 9.3873C2.82188 7.41899 4.73818 4.98261 6.94252 5.72273C8.33074 6.1908 9.81897 5.35467 10.143 3.92645C10.6591 1.6581 13.7356 1.29004 14.7717 3.37437C15.4238 4.68657 17.0681 5.15064 18.3083 4.36652C20.2766 3.12633 22.713 5.04262 21.9729 7.24697C21.5048 8.63518 22.3409 10.1234 23.7691 10.4475C26.0375 10.9635 26.4055 14.04 24.3212 15.0762C23.009 15.7283 22.5449 17.3725 23.3291 18.6127C24.5693 20.581 22.653 23.0174 20.4486 22.2773Z" fill="#FFC61E"/>
<path d="M20.4525 12.6678V13.552V15.3963C20.4525 15.3963 20.4525 15.4083 20.4525 15.4123C20.4525 15.4403 20.4485 15.4723 20.4405 15.5043C20.2325 16.4564 17.288 17.2126 13.6875 17.2166C10.1549 17.2166 7.25446 16.4924 6.94641 15.5643V12.8319C7.10244 13.3119 7.95457 13.736 9.22276 14.0321C10.4149 14.3121 11.9752 14.4841 13.6835 14.4841C15.3917 14.4841 16.956 14.3121 18.1481 14.0321C19.5604 13.7 20.4525 13.2119 20.4525 12.6678Z" fill="#FFE675"/>
<path d="M20.4526 13.4919V13.5479V13.6439C19.9165 14.52 17.0881 15.1962 13.6916 15.1962C10.295 15.1962 7.51059 14.536 6.9425 13.6679V13.5279C6.99851 13.6759 7.13053 13.8239 7.31856 13.96C7.35057 13.98 7.38257 14.004 7.41458 14.024C7.44658 14.044 7.48259 14.064 7.51859 14.084C8.58676 14.7001 10.9511 15.1281 13.6916 15.1281C14.4197 15.1281 15.1158 15.0961 15.7759 15.0401C15.8839 15.0321 15.9919 15.0241 16.0959 15.0081C16.38 14.9801 16.656 14.9481 16.9241 14.9081C17.0041 14.8961 17.0841 14.8841 17.1601 14.8721C17.1761 14.8721 17.1921 14.8681 17.2081 14.8641C17.2681 14.8561 17.3281 14.8441 17.3881 14.8321C17.4481 14.8241 17.5081 14.8121 17.5682 14.8001C17.6282 14.7881 17.6842 14.7801 17.7402 14.7681C17.7962 14.7561 17.8522 14.7441 17.9082 14.7321C17.9642 14.7201 18.0202 14.7081 18.0722 14.6961C18.1282 14.6841 18.1802 14.6721 18.2323 14.6601C18.2723 14.6521 18.3083 14.6401 18.3483 14.6321C18.3883 14.6241 18.4243 14.6121 18.4603 14.6041C18.5003 14.5961 18.5403 14.5841 18.5803 14.5721C18.6523 14.5521 18.7203 14.532 18.7883 14.512C19.7205 14.232 20.3286 13.8759 20.4486 13.4839L20.4526 13.4919Z" fill="#FFEFAB"/>
<path d="M20.4525 13.2399V13.548V13.62C20.1845 13.9921 19.5204 14.3241 18.5842 14.5761C18.5442 14.5881 18.5042 14.5962 18.4642 14.6082C18.4242 14.6162 18.3882 14.6282 18.3522 14.6362C18.3162 14.6442 18.2762 14.6562 18.2362 14.6642C18.1842 14.6762 18.1282 14.6882 18.0762 14.7002C18.0202 14.7122 17.9682 14.7242 17.9121 14.7362C17.8561 14.7482 17.8001 14.7602 17.7441 14.7722C17.6881 14.7842 17.6281 14.7922 17.5721 14.8042C17.5121 14.8162 17.4521 14.8242 17.3921 14.8362C17.3321 14.8482 17.272 14.8562 17.212 14.8682C17.196 14.8722 17.18 14.8762 17.164 14.8762C17.088 14.8882 17.008 14.9002 16.928 14.9122C16.6639 14.9522 16.3839 14.9842 16.0999 15.0122C15.9918 15.0242 15.8838 15.0322 15.7798 15.0442C15.1277 15.1002 14.4356 15.1282 13.7115 15.1282C10.9631 15.1282 8.6427 14.7122 7.52653 14.0881C7.49052 14.0681 7.45452 14.0481 7.42251 14.0281C7.39051 14.0081 7.3585 13.9841 7.3265 13.9641C7.15847 13.852 7.03445 13.736 6.95044 13.612V13.1799C6.95044 13.1799 6.96244 13.2319 6.96244 13.2479C7.04645 14.1921 10.0549 14.9962 13.7115 14.9962C17.3681 14.9962 20.4605 14.1921 20.4605 13.2439L20.4525 13.2399Z" fill="#F0BA07"/>
<path d="M20.4525 15.1042V15.4003C20.4525 15.4003 20.4525 15.4123 20.4525 15.4163C20.4525 15.4443 20.4485 15.4763 20.4405 15.5083C20.4205 15.5363 20.3925 15.5643 20.3685 15.5923C19.6004 16.4084 16.948 16.9925 13.7075 16.9925C10.3749 16.9925 7.66652 16.3764 6.98642 15.5323C6.97042 15.5123 6.95841 15.4963 6.94641 15.4763V15.0442V15.0122C6.94641 15.0122 6.95441 15.0882 6.95841 15.1122C6.96641 15.1842 6.97442 15.2562 7.01042 15.3283V15.3323C7.44249 16.1804 10.3309 16.8605 13.7035 16.8605C17.276 16.8605 20.3045 16.0964 20.4445 15.1762C20.4485 15.1562 20.4485 15.1322 20.4485 15.1082L20.4525 15.1042Z" fill="#F0BA07"/>
<path d="M20.4525 15.2682V15.3962C20.4525 15.3962 20.4525 15.4082 20.4525 15.4122C20.4525 15.4402 20.4485 15.4722 20.4405 15.5042C20.2325 16.4564 17.288 17.2125 13.6875 17.2165C10.1549 17.2165 7.25446 16.4924 6.94641 15.5642V15.3402C6.94641 15.4042 6.95841 15.4642 6.98642 15.5282C7.35848 16.3924 10.2789 17.0885 13.6955 17.0885C17.024 17.0885 19.8804 16.4244 20.3685 15.5922C20.4165 15.5082 20.4405 15.4242 20.4405 15.3402V15.2722H20.4525V15.2682Z" fill="#F0BA07"/>
<path d="M20.4526 15.1522V15.3122C20.4526 15.3122 20.4446 15.3242 20.4406 15.3322C19.8765 16.2004 17.0641 16.8645 13.6916 16.8645C10.319 16.8645 7.50659 16.2044 6.9425 15.3362V15.1962C6.95851 15.2402 6.98251 15.2802 7.00651 15.3202V15.3242C7.5706 16.1564 10.351 16.7924 13.6876 16.7924C17.2201 16.7924 20.1326 16.0763 20.4406 15.1682C20.4406 15.1642 20.4446 15.1562 20.4446 15.1482L20.4526 15.1522Z" fill="#FFEFAB"/>
<path d="M20.4525 12.6678C20.4525 13.2119 19.5604 13.7 18.1481 14.0321C16.956 13.752 15.3957 13.58 13.6875 13.58C11.9792 13.58 10.4149 13.752 9.22276 14.0321C7.95457 13.732 7.10244 13.3079 6.94641 12.8319V12.5078C7.25046 11.5837 10.1509 10.8516 13.6875 10.8516C17.424 10.8516 20.4565 11.6637 20.4565 12.6678H20.4525Z" fill="#F0BA07"/>
<path d="M13.6835 10.8516C17.4201 10.8516 20.4525 11.6637 20.4525 12.6678C20.4525 13.2119 19.5604 13.7 18.1482 14.0321C17.372 12.9079 15.7598 11.8597 13.6835 10.8516Z" fill="#D8A20B"/>
<g style="mix-blend-mode:multiply" opacity="0.3">
<path d="M20.5325 12.6678C20.4685 13.708 17.488 14.5201 13.6955 14.5201C9.90287 14.5201 6.92241 13.712 6.8584 12.6718C6.8584 12.6838 6.8584 12.6959 6.8584 12.7079C6.8584 13.764 9.86286 14.5921 13.6955 14.5921C17.5281 14.5921 20.5325 13.764 20.5325 12.7039C20.5325 12.6919 20.5325 12.6798 20.5325 12.6678Z" fill="#D8A20B"/>
</g>
<path d="M13.6955 14.5562C9.86286 14.5562 6.8584 13.728 6.8584 12.6719C6.8584 11.6157 9.86286 10.7876 13.6955 10.7836C17.5281 10.7836 20.5325 11.6077 20.5325 12.6679C20.5325 13.728 17.5281 14.5522 13.6955 14.5562ZM13.6955 10.9236C10.0629 10.9236 6.99442 11.7277 6.99442 12.6759C6.99442 13.624 10.0629 14.4241 13.6955 14.4241C17.328 14.4241 20.3965 13.62 20.3965 12.6719C20.3965 11.7237 17.328 10.9236 13.6955 10.9236Z" fill="#FFEFAB"/>
<path d="M14.6677 14.8081H13.0795L13.8756 15.5602L14.6677 14.8081Z" fill="#549BB5"/>
<path d="M13.8716 15.5722L13.0635 14.8081V16.8004L13.8716 16.0443V15.5722Z" fill="#549BB5"/>
<path d="M13.8835 16.0403L14.6876 16.7964L14.6836 14.8081L13.8795 15.5682L13.8835 16.0403Z" fill="#4087A1"/>
<path d="M13.0714 16.8044H14.6837L13.8795 16.0522L13.0714 16.8044Z" fill="#4087A1"/>
<g style="mix-blend-mode:overlay" opacity="0.61">
<path d="M14.5757 14.9281H13.1715L13.8756 15.5922L14.5757 14.9281Z" fill="#B1F4E6"/>
</g>
<g style="mix-blend-mode:overlay" opacity="0.61">
<path d="M13.8715 15.6002L13.1594 14.9281V16.6844L13.8715 16.0163V15.6002Z" fill="#B1F4E6"/>
</g>
<g style="mix-blend-mode:overlay" opacity="0.57">
<path d="M13.8795 16.0163L14.5916 16.6804V14.9281H14.5876L13.8795 15.5962V16.0163Z" fill="#B1F4E6"/>
</g>
<g style="mix-blend-mode:overlay" opacity="0.57">
<path d="M13.1675 16.6884H14.5877L13.8796 16.0243L13.1675 16.6884Z" fill="#B1F4E6"/>
</g>
<g style="mix-blend-mode:overlay" opacity="0.26">
<path d="M14.4076 15.0641H13.3474L13.8795 15.6162L14.4076 15.0641Z" fill="#B1F4E6"/>
</g>
<g style="mix-blend-mode:overlay" opacity="0.26">
<path d="M13.8756 15.6242L13.3395 15.0641V16.5323L13.8756 15.9722V15.6242Z" fill="#B1F4E6"/>
</g>
<g style="mix-blend-mode:overlay" opacity="0.38">
<path d="M13.8835 15.9722L14.4196 16.5283V15.0641L13.8835 15.6242V15.9722Z" fill="#B1F4E6"/>
</g>
<g style="mix-blend-mode:overlay" opacity="0.38">
<path d="M13.3435 16.5364H14.4197L13.8796 15.9803L13.3435 16.5364Z" fill="#B1F4E6"/>
</g>
<path d="M14.6877 16.7964L13.8836 16.0403L13.8796 15.5682L14.6837 14.8081H14.6677L13.8756 15.5602L13.0795 14.8081H13.0635L13.8716 15.5722V16.0443L13.0635 16.8004V16.8044H13.0715L13.8796 16.0523L14.6837 16.8044H14.6877V16.7964Z" fill="#ADF5E5"/>
<g style="mix-blend-mode:overlay" opacity="0.86">
<path d="M13.1594 14.9001L13.1674 16.3484L13.8715 15.6563L13.8755 15.5602L13.1594 14.9001Z" fill="#D2F7EE"/>
</g>
<g style="mix-blend-mode:soft-light" opacity="0.86">
<path d="M13.0635 16.8004L13.8716 16.0443L14.0796 16.2483L13.8516 16.2603L13.0635 16.8004Z" fill="#D2F7EE"/>
</g>
<g style="mix-blend-mode:soft-light" opacity="0.86">
<path d="M13.8795 15.6162L14.6036 15.0201L14.5756 14.9281L13.8755 15.5602L13.8795 15.6162Z" fill="#D2F7EE"/>
</g>
<g style="mix-blend-mode:overlay" opacity="0.4">
<path d="M13.3516 15.0201L14.4437 14.9841L13.8756 15.5602L13.3516 15.0201Z" fill="#D2F7EE"/>
</g>
<path d="M12.9914 16.3564C13.0874 16.3564 13.1634 16.4405 13.1634 16.5405C13.1634 16.6405 13.0874 16.7245 12.9914 16.7245C12.8953 16.7245 12.8193 16.6405 12.8193 16.5405C12.8193 16.4405 12.8953 16.3564 12.9914 16.3564Z" fill="#7CBBE6"/>
<path d="M12.9913 16.4125C13.0593 16.4125 13.1153 16.4725 13.1153 16.5445C13.1153 16.6165 13.0593 16.6765 12.9913 16.6765C12.9233 16.6765 12.8673 16.6165 12.8673 16.5445C12.8673 16.4725 12.9233 16.4125 12.9913 16.4125Z" fill="#AED8EC"/>
<path d="M13.0714 16.5284C13.1194 16.5204 13.0714 16.6684 12.9673 16.6564C12.9193 16.6484 12.8873 16.6204 12.8873 16.5444C12.8873 16.4684 12.9273 16.5524 13.0714 16.5324V16.5284Z" fill="#CAE8F6"/>
<path d="M12.9914 15.9923C13.0874 15.9923 13.1634 16.0763 13.1634 16.1763C13.1634 16.2764 13.0874 16.3604 12.9914 16.3604C12.8953 16.3604 12.8193 16.2764 12.8193 16.1763C12.8193 16.0763 12.8953 15.9923 12.9914 15.9923Z" fill="#7CBBE6"/>
<path d="M12.9913 16.0443C13.0593 16.0443 13.1153 16.1043 13.1153 16.1763C13.1153 16.2483 13.0593 16.3084 12.9913 16.3084C12.9233 16.3084 12.8673 16.2483 12.8673 16.1763C12.8673 16.1043 12.9233 16.0443 12.9913 16.0443Z" fill="#AED8EC"/>
<path d="M13.0714 16.1604C13.1194 16.1524 13.0714 16.3004 12.9673 16.2884C12.9193 16.2804 12.8873 16.2524 12.8873 16.1764C12.8873 16.1004 12.9273 16.1844 13.0714 16.1644V16.1604Z" fill="#CAE8F6"/>
<path d="M12.9914 15.6243C13.0874 15.6243 13.1634 15.7083 13.1634 15.8083C13.1634 15.9083 13.0874 15.9923 12.9914 15.9923C12.8953 15.9923 12.8193 15.9083 12.8193 15.8083C12.8193 15.7083 12.8953 15.6243 12.9914 15.6243Z" fill="#7CBBE6"/>
<path d="M12.9913 15.6763C13.0593 15.6763 13.1153 15.7363 13.1153 15.8083C13.1153 15.8803 13.0593 15.9403 12.9913 15.9403C12.9233 15.9403 12.8673 15.8803 12.8673 15.8083C12.8673 15.7363 12.9233 15.6763 12.9913 15.6763Z" fill="#AED8EC"/>
<path d="M13.0714 15.7923C13.1194 15.7843 13.0714 15.9324 12.9673 15.9204C12.9193 15.9124 12.8873 15.8844 12.8873 15.8083C12.8873 15.7323 12.9273 15.8163 13.0714 15.7963V15.7923Z" fill="#CAE8F6"/>
<path d="M12.9914 15.2562C13.0874 15.2562 13.1634 15.3402 13.1634 15.4403C13.1634 15.5403 13.0874 15.6243 12.9914 15.6243C12.8953 15.6243 12.8193 15.5403 12.8193 15.4403C12.8193 15.3402 12.8953 15.2562 12.9914 15.2562Z" fill="#7CBBE6"/>
<path d="M12.9913 15.3121C13.0593 15.3121 13.1153 15.3721 13.1153 15.4442C13.1153 15.5162 13.0593 15.5762 12.9913 15.5762C12.9233 15.5762 12.8673 15.5162 12.8673 15.4442C12.8673 15.3721 12.9233 15.3121 12.9913 15.3121Z" fill="#AED8EC"/>
<path d="M13.0714 15.4282C13.1194 15.4202 13.0714 15.5682 12.9673 15.5562C12.9193 15.5482 12.8873 15.5202 12.8873 15.4442C12.8873 15.3682 12.9273 15.4522 13.0714 15.4322V15.4282Z" fill="#CAE8F6"/>
<path d="M12.9914 14.8921C13.0874 14.8921 13.1634 14.9761 13.1634 15.0761C13.1634 15.1761 13.0874 15.2601 12.9914 15.2601C12.8953 15.2601 12.8193 15.1761 12.8193 15.0761C12.8193 14.9761 12.8953 14.8921 12.9914 14.8921Z" fill="#7CBBE6"/>
<path d="M12.9913 14.9441C13.0593 14.9441 13.1153 15.0041 13.1153 15.0761C13.1153 15.1481 13.0593 15.2081 12.9913 15.2081C12.9233 15.2081 12.8673 15.1481 12.8673 15.0761C12.8673 15.0041 12.9233 14.9441 12.9913 14.9441Z" fill="#AED8EC"/>
<path d="M13.0714 15.06C13.1194 15.052 13.0714 15.2001 12.9673 15.1881C12.9193 15.1801 12.8873 15.1521 12.8873 15.076C12.8873 15 12.9273 15.084 13.0714 15.064V15.06Z" fill="#CAE8F6"/>
<path d="M13.3395 14.8921C13.4389 14.8921 13.5195 14.8151 13.5195 14.7201C13.5195 14.6251 13.4389 14.5481 13.3395 14.5481C13.24 14.5481 13.1594 14.6251 13.1594 14.7201C13.1594 14.8151 13.24 14.8921 13.3395 14.8921Z" fill="#7CBBE6"/>
<path d="M13.4675 14.7201C13.4675 14.7881 13.4115 14.8441 13.3394 14.8441C13.2674 14.8441 13.2114 14.7881 13.2114 14.7201C13.2114 14.6521 13.2674 14.5961 13.3394 14.5961C13.4115 14.5961 13.4675 14.6521 13.4675 14.7201Z" fill="#AED8EC"/>
<path d="M13.3554 14.8001C13.3634 14.8481 13.2194 14.8001 13.2314 14.6961C13.2394 14.6481 13.2634 14.6161 13.3394 14.6161C13.4155 14.6161 13.3314 14.6561 13.3514 14.8001H13.3554Z" fill="#CAE8F6"/>
<path d="M13.6955 14.8921C13.795 14.8921 13.8756 14.8151 13.8756 14.7201C13.8756 14.6251 13.795 14.5481 13.6955 14.5481C13.5961 14.5481 13.5155 14.6251 13.5155 14.7201C13.5155 14.8151 13.5961 14.8921 13.6955 14.8921Z" fill="#7CBBE6"/>
<path d="M13.8235 14.7201C13.8235 14.7881 13.7675 14.8441 13.6955 14.8441C13.6235 14.8441 13.5675 14.7881 13.5675 14.7201C13.5675 14.6521 13.6235 14.5961 13.6955 14.5961C13.7675 14.5961 13.8235 14.6521 13.8235 14.7201Z" fill="#AED8EC"/>
<path d="M13.7115 14.8001C13.7195 14.8481 13.5755 14.8001 13.5875 14.6961C13.5955 14.6481 13.6195 14.6161 13.6955 14.6161C13.7715 14.6161 13.6875 14.6561 13.7075 14.8001H13.7115Z" fill="#CAE8F6"/>
<path d="M14.2316 14.7201C14.2316 14.8161 14.1516 14.8921 14.0516 14.8921C13.9516 14.8921 13.8716 14.8161 13.8716 14.7201C13.8716 14.6241 13.9516 14.5481 14.0516 14.5481C14.1516 14.5481 14.2316 14.6241 14.2316 14.7201Z" fill="#7CBBE6"/>
<path d="M14.1796 14.7201C14.1796 14.7881 14.1236 14.8441 14.0516 14.8441C13.9796 14.8441 13.9236 14.7881 13.9236 14.7201C13.9236 14.6521 13.9796 14.5961 14.0516 14.5961C14.1236 14.5961 14.1796 14.6521 14.1796 14.7201Z" fill="#AED8EC"/>
<path d="M14.0676 14.8001C14.0756 14.8481 13.9316 14.8001 13.9436 14.6961C13.9516 14.6481 13.9756 14.6161 14.0516 14.6161C14.1276 14.6161 14.0436 14.6561 14.0636 14.8001H14.0676Z" fill="#CAE8F6"/>
<path d="M14.4076 14.8921C14.507 14.8921 14.5876 14.8151 14.5876 14.7201C14.5876 14.6251 14.507 14.5481 14.4076 14.5481C14.3081 14.5481 14.2275 14.6251 14.2275 14.7201C14.2275 14.8151 14.3081 14.8921 14.4076 14.8921Z" fill="#7CBBE6"/>
<path d="M14.5356 14.7201C14.5356 14.7881 14.4796 14.8441 14.4076 14.8441C14.3355 14.8441 14.2795 14.7881 14.2795 14.7201C14.2795 14.6521 14.3355 14.5961 14.4076 14.5961C14.4796 14.5961 14.5356 14.6521 14.5356 14.7201Z" fill="#AED8EC"/>
<path d="M14.4236 14.8001C14.4316 14.8481 14.2875 14.8001 14.2995 14.6961C14.3075 14.6481 14.3315 14.6161 14.4076 14.6161C14.4836 14.6161 14.3996 14.6561 14.4196 14.8001H14.4236Z" fill="#CAE8F6"/>
<path d="M14.7597 15.2562C14.6637 15.2562 14.5876 15.1722 14.5876 15.0722C14.5876 14.9722 14.6637 14.8882 14.7597 14.8882C14.8557 14.8882 14.9317 14.9722 14.9317 15.0722C14.9317 15.1722 14.8557 15.2562 14.7597 15.2562Z" fill="#7CBBE6"/>
<path d="M14.7596 15.2042C14.6916 15.2042 14.6356 15.1442 14.6356 15.0722C14.6356 15.0002 14.6916 14.9402 14.7596 14.9402C14.8277 14.9402 14.8837 15.0002 14.8837 15.0722C14.8837 15.1442 14.8277 15.2042 14.7596 15.2042Z" fill="#AED8EC"/>
<path d="M14.6797 15.0882C14.6317 15.0962 14.6797 14.9482 14.7837 14.9602C14.8317 14.9682 14.8637 14.9962 14.8637 15.0722C14.8637 15.1482 14.8237 15.0642 14.6797 15.0842V15.0882Z" fill="#CAE8F6"/>
<path d="M14.7597 15.6243C14.6637 15.6243 14.5876 15.5403 14.5876 15.4403C14.5876 15.3402 14.6637 15.2562 14.7597 15.2562C14.8557 15.2562 14.9317 15.3402 14.9317 15.4403C14.9317 15.5403 14.8557 15.6243 14.7597 15.6243Z" fill="#7CBBE6"/>
<path d="M14.7596 15.5723C14.6916 15.5723 14.6356 15.5123 14.6356 15.4402C14.6356 15.3682 14.6916 15.3082 14.7596 15.3082C14.8277 15.3082 14.8837 15.3682 14.8837 15.4402C14.8837 15.5123 14.8277 15.5723 14.7596 15.5723Z" fill="#AED8EC"/>
<path d="M14.6797 15.4562C14.6317 15.4642 14.6797 15.3162 14.7837 15.3282C14.8317 15.3362 14.8637 15.3642 14.8637 15.4402C14.8637 15.5162 14.8237 15.4322 14.6797 15.4522V15.4562Z" fill="#CAE8F6"/>
<path d="M14.7597 15.9923C14.6637 15.9923 14.5876 15.9083 14.5876 15.8083C14.5876 15.7083 14.6637 15.6243 14.7597 15.6243C14.8557 15.6243 14.9317 15.7083 14.9317 15.8083C14.9317 15.9083 14.8557 15.9923 14.7597 15.9923Z" fill="#7CBBE6"/>
<path d="M14.7596 15.9403C14.6916 15.9403 14.6356 15.8803 14.6356 15.8083C14.6356 15.7363 14.6916 15.6763 14.7596 15.6763C14.8277 15.6763 14.8837 15.7363 14.8837 15.8083C14.8837 15.8803 14.8277 15.9403 14.7596 15.9403Z" fill="#AED8EC"/>
<path d="M14.6797 15.8243C14.6317 15.8323 14.6797 15.6842 14.7837 15.6962C14.8317 15.7043 14.8637 15.7323 14.8637 15.8083C14.8637 15.8843 14.8237 15.8003 14.6797 15.8203V15.8243Z" fill="#CAE8F6"/>
<path d="M14.7597 16.3565C14.6637 16.3565 14.5876 16.2724 14.5876 16.1724C14.5876 16.0724 14.6637 15.9884 14.7597 15.9884C14.8557 15.9884 14.9317 16.0724 14.9317 16.1724C14.9317 16.2724 14.8557 16.3565 14.7597 16.3565Z" fill="#7CBBE6"/>
<path d="M14.7596 16.3044C14.6916 16.3044 14.6356 16.2444 14.6356 16.1724C14.6356 16.1004 14.6916 16.0404 14.7596 16.0404C14.8277 16.0404 14.8837 16.1004 14.8837 16.1724C14.8837 16.2444 14.8277 16.3044 14.7596 16.3044Z" fill="#AED8EC"/>
<path d="M14.6797 16.1884C14.6317 16.1964 14.6797 16.0484 14.7837 16.0604C14.8317 16.0684 14.8637 16.0964 14.8637 16.1724C14.8637 16.2484 14.8237 16.1644 14.6797 16.1844V16.1884Z" fill="#CAE8F6"/>
<path d="M14.7597 16.7245C14.6637 16.7245 14.5876 16.6405 14.5876 16.5405C14.5876 16.4405 14.6637 16.3564 14.7597 16.3564C14.8557 16.3564 14.9317 16.4405 14.9317 16.5405C14.9317 16.6405 14.8557 16.7245 14.7597 16.7245Z" fill="#7CBBE6"/>
<path d="M14.7596 16.6725C14.6916 16.6725 14.6356 16.6125 14.6356 16.5405C14.6356 16.4685 14.6916 16.4084 14.7596 16.4084C14.8277 16.4084 14.8837 16.4685 14.8837 16.5405C14.8837 16.6125 14.8277 16.6725 14.7596 16.6725Z" fill="#AED8EC"/>
<path d="M14.6797 16.5564C14.6317 16.5644 14.6797 16.4164 14.7837 16.4284C14.8317 16.4364 14.8637 16.4644 14.8637 16.5404C14.8637 16.6165 14.8237 16.5324 14.6797 16.5524V16.5564Z" fill="#CAE8F6"/>
<path d="M14.4116 17.0685C14.511 17.0685 14.5916 16.9915 14.5916 16.8965C14.5916 16.8015 14.511 16.7245 14.4116 16.7245C14.3122 16.7245 14.2316 16.8015 14.2316 16.8965C14.2316 16.9915 14.3122 17.0685 14.4116 17.0685Z" fill="#7CBBE6"/>
<path d="M14.2836 16.8965C14.2836 16.8285 14.3396 16.7725 14.4116 16.7725C14.4836 16.7725 14.5396 16.8285 14.5396 16.8965C14.5396 16.9645 14.4836 17.0205 14.4116 17.0205C14.3396 17.0205 14.2836 16.9645 14.2836 16.8965Z" fill="#AED8EC"/>
<path d="M14.3956 16.8165C14.3876 16.7685 14.5316 16.8165 14.5196 16.9205C14.5116 16.9686 14.4876 17.0006 14.4116 17.0006C14.3356 17.0006 14.4196 16.9606 14.3996 16.8165H14.3956Z" fill="#CAE8F6"/>
<path d="M13.8755 16.8965C13.8755 16.8005 13.9555 16.7245 14.0555 16.7245C14.1555 16.7245 14.2355 16.8005 14.2355 16.8965C14.2355 16.9925 14.1555 17.0685 14.0555 17.0685C13.9555 17.0685 13.8755 16.9925 13.8755 16.8965Z" fill="#7CBBE6"/>
<path d="M13.9275 16.8965C13.9275 16.8285 13.9835 16.7725 14.0555 16.7725C14.1275 16.7725 14.1835 16.8285 14.1835 16.8965C14.1835 16.9645 14.1275 17.0205 14.0555 17.0205C13.9835 17.0205 13.9275 16.9645 13.9275 16.8965Z" fill="#AED8EC"/>
<path d="M14.0395 16.8165C14.0315 16.7685 14.1756 16.8165 14.1636 16.9205C14.1556 16.9686 14.1316 17.0006 14.0555 17.0006C13.9795 17.0006 14.0635 16.9606 14.0435 16.8165H14.0395Z" fill="#CAE8F6"/>
<path d="M13.6955 17.0685C13.795 17.0685 13.8756 16.9915 13.8756 16.8965C13.8756 16.8015 13.795 16.7245 13.6955 16.7245C13.5961 16.7245 13.5155 16.8015 13.5155 16.8965C13.5155 16.9915 13.5961 17.0685 13.6955 17.0685Z" fill="#7CBBE6"/>
<path d="M13.5714 16.8965C13.5714 16.8285 13.6274 16.7725 13.6994 16.7725C13.7714 16.7725 13.8275 16.8285 13.8275 16.8965C13.8275 16.9645 13.7714 17.0205 13.6994 17.0205C13.6274 17.0205 13.5714 16.9645 13.5714 16.8965Z" fill="#AED8EC"/>
<path d="M13.6835 16.8165C13.6755 16.7685 13.8195 16.8165 13.8075 16.9205C13.7995 16.9686 13.7755 17.0006 13.6995 17.0006C13.6234 17.0006 13.7075 16.9606 13.6875 16.8165H13.6835Z" fill="#CAE8F6"/>
<path d="M13.3395 17.0685C13.4389 17.0685 13.5195 16.9915 13.5195 16.8965C13.5195 16.8015 13.4389 16.7245 13.3395 16.7245C13.24 16.7245 13.1594 16.8015 13.1594 16.8965C13.1594 16.9915 13.24 17.0685 13.3395 17.0685Z" fill="#7CBBE6"/>
<path d="M13.2155 16.8965C13.2155 16.8285 13.2715 16.7725 13.3435 16.7725C13.4155 16.7725 13.4715 16.8285 13.4715 16.8965C13.4715 16.9645 13.4155 17.0205 13.3435 17.0205C13.2715 17.0205 13.2155 16.9645 13.2155 16.8965Z" fill="#AED8EC"/>
<path d="M13.3275 16.8165C13.3195 16.7685 13.4635 16.8165 13.4515 16.9205C13.4435 16.9686 13.4195 17.0006 13.3435 17.0006C13.2675 17.0006 13.3515 16.9606 13.3315 16.8165H13.3275Z" fill="#CAE8F6"/>
<mask id="mask0_584_24529" style="mask-type:luminance" maskUnits="userSpaceOnUse" x="12" y="14" width="2" height="1">
<path d="M13.1634 14.8921L12.8193 14.5481V14.8921H13.1634Z" fill="white"/>
</mask>
<g mask="url(#mask0_584_24529)">
<path d="M12.9914 14.8921C13.0864 14.8921 13.1634 14.8151 13.1634 14.7201C13.1634 14.6251 13.0864 14.5481 12.9914 14.5481C12.8964 14.5481 12.8193 14.6251 12.8193 14.7201C12.8193 14.8151 12.8964 14.8921 12.9914 14.8921Z" fill="#7CBBE6"/>
<path d="M12.9913 14.5961C13.0593 14.5961 13.1153 14.6521 13.1153 14.7201C13.1153 14.7881 13.0593 14.8441 12.9913 14.8441C12.9233 14.8441 12.8673 14.7881 12.8673 14.7201C12.8673 14.6521 12.9233 14.5961 12.9913 14.5961Z" fill="#AED8EC"/>
<path d="M13.0714 14.7041C13.1194 14.6961 13.0714 14.8362 12.9673 14.8242C12.9193 14.8162 12.8873 14.7922 12.8873 14.7201C12.8873 14.6481 12.9273 14.7281 13.0714 14.7081V14.7041Z" fill="#CAE8F6"/>
</g>
<mask id="mask1_584_24529" style="mask-type:luminance" maskUnits="userSpaceOnUse" x="12" y="14" width="2" height="1">
<path d="M13.1634 14.8921L12.8193 14.5481H13.1634V14.8921Z" fill="white"/>
</mask>
<g mask="url(#mask1_584_24529)">
<path d="M12.9914 14.8921C13.0864 14.8921 13.1634 14.8151 13.1634 14.7201C13.1634 14.6251 13.0864 14.5481 12.9914 14.5481C12.8964 14.5481 12.8193 14.6251 12.8193 14.7201C12.8193 14.8151 12.8964 14.8921 12.9914 14.8921Z" fill="#7CBBE6"/>
<path d="M13.1114 14.7201C13.1114 14.7881 13.0554 14.8441 12.9874 14.8441C12.9194 14.8441 12.8634 14.7881 12.8634 14.7201C12.8634 14.6521 12.9194 14.5961 12.9874 14.5961C13.0554 14.5961 13.1114 14.6521 13.1114 14.7201Z" fill="#AED8EC"/>
<path d="M13.0034 14.8001C13.0114 14.8481 12.8714 14.8001 12.8834 14.6961C12.8914 14.6481 12.9154 14.6161 12.9874 14.6161C13.0594 14.6161 12.9794 14.6561 12.9994 14.8001H13.0034Z" fill="#CAE8F6"/>
</g>
<mask id="mask2_584_24529" style="mask-type:luminance" maskUnits="userSpaceOnUse" x="14" y="14" width="1" height="1">
<path d="M14.5876 14.8921L14.9317 14.5481H14.5876V14.8921Z" fill="white"/>
</mask>
<g mask="url(#mask2_584_24529)">
<path d="M14.7597 14.8921C14.8547 14.8921 14.9317 14.8151 14.9317 14.7201C14.9317 14.6251 14.8547 14.5481 14.7597 14.5481C14.6647 14.5481 14.5876 14.6251 14.5876 14.7201C14.5876 14.8151 14.6647 14.8921 14.7597 14.8921Z" fill="#7CBBE6"/>
<path d="M14.8837 14.7201C14.8837 14.7881 14.8277 14.8441 14.7596 14.8441C14.6916 14.8441 14.6356 14.7881 14.6356 14.7201C14.6356 14.6521 14.6916 14.5961 14.7596 14.5961C14.8277 14.5961 14.8837 14.6521 14.8837 14.7201Z" fill="#AED8EC"/>
<path d="M14.7757 14.8001C14.7837 14.8481 14.6436 14.8001 14.6556 14.6961C14.6636 14.6481 14.6876 14.6161 14.7597 14.6161C14.8317 14.6161 14.7517 14.6561 14.7717 14.8001H14.7757Z" fill="#CAE8F6"/>
</g>
<mask id="mask3_584_24529" style="mask-type:luminance" maskUnits="userSpaceOnUse" x="14" y="14" width="1" height="1">
<path d="M14.5876 14.8921L14.9317 14.5481V14.8921H14.5876Z" fill="white"/>
</mask>
<g mask="url(#mask3_584_24529)">
<path d="M14.7597 14.8921C14.8547 14.8921 14.9317 14.8151 14.9317 14.7201C14.9317 14.6251 14.8547 14.5481 14.7597 14.5481C14.6647 14.5481 14.5876 14.6251 14.5876 14.7201C14.5876 14.8151 14.6647 14.8921 14.7597 14.8921Z" fill="#7CBBE6"/>
<path d="M14.7596 14.8401C14.6916 14.8401 14.6356 14.7841 14.6356 14.7161C14.6356 14.6481 14.6916 14.592 14.7596 14.592C14.8277 14.592 14.8837 14.6481 14.8837 14.7161C14.8837 14.7841 14.8277 14.8401 14.7596 14.8401Z" fill="#AED8EC"/>
<path d="M14.6797 14.7322C14.6317 14.7402 14.6797 14.6002 14.7837 14.6122C14.8317 14.6202 14.8637 14.6442 14.8637 14.7162C14.8637 14.7882 14.8237 14.7082 14.6797 14.7282V14.7322Z" fill="#CAE8F6"/>
</g>
<mask id="mask4_584_24529" style="mask-type:luminance" maskUnits="userSpaceOnUse" x="14" y="16" width="1" height="2">
<path d="M14.5876 16.7245L14.9317 17.0685V16.7245H14.5876Z" fill="white"/>
</mask>
<g mask="url(#mask4_584_24529)">
<path d="M14.7597 17.0685C14.8547 17.0685 14.9317 16.9915 14.9317 16.8965C14.9317 16.8015 14.8547 16.7245 14.7597 16.7245C14.6647 16.7245 14.5876 16.8015 14.5876 16.8965C14.5876 16.9915 14.6647 17.0685 14.7597 17.0685Z" fill="#7CBBE6"/>
<path d="M14.7596 17.0205C14.6916 17.0205 14.6356 16.9645 14.6356 16.8965C14.6356 16.8285 14.6916 16.7725 14.7596 16.7725C14.8277 16.7725 14.8837 16.8285 14.8837 16.8965C14.8837 16.9645 14.8277 17.0205 14.7596 17.0205Z" fill="#AED8EC"/>
<path d="M14.6797 16.9125C14.6317 16.9205 14.6797 16.7805 14.7837 16.7925C14.8317 16.8005 14.8637 16.8245 14.8637 16.8965C14.8637 16.9685 14.8237 16.8885 14.6797 16.9085V16.9125Z" fill="#CAE8F6"/>
</g>
<mask id="mask5_584_24529" style="mask-type:luminance" maskUnits="userSpaceOnUse" x="14" y="16" width="1" height="2">
<path d="M14.5876 16.7245L14.9317 17.0685H14.5876V16.7245Z" fill="white"/>
</mask>
<g mask="url(#mask5_584_24529)">
<path d="M14.7597 17.0685C14.8547 17.0685 14.9317 16.9915 14.9317 16.8965C14.9317 16.8015 14.8547 16.7245 14.7597 16.7245C14.6647 16.7245 14.5876 16.8015 14.5876 16.8965C14.5876 16.9915 14.6647 17.0685 14.7597 17.0685Z" fill="#7CBBE6"/>
<path d="M14.6356 16.8965C14.6356 16.8285 14.6916 16.7725 14.7596 16.7725C14.8277 16.7725 14.8837 16.8285 14.8837 16.8965C14.8837 16.9645 14.8277 17.0205 14.7596 17.0205C14.6916 17.0205 14.6356 16.9645 14.6356 16.8965Z" fill="#AED8EC"/>
<path d="M14.7477 16.8165C14.7397 16.7685 14.8797 16.8165 14.8677 16.9205C14.8597 16.9686 14.8357 17.0006 14.7637 17.0006C14.6917 17.0006 14.7717 16.9606 14.7517 16.8165H14.7477Z" fill="#CAE8F6"/>
</g>
<mask id="mask6_584_24529" style="mask-type:luminance" maskUnits="userSpaceOnUse" x="12" y="16" width="2" height="2">
<path d="M13.1634 16.7245L12.8193 17.0685H13.1634V16.7245Z" fill="white"/>
</mask>
<g mask="url(#mask6_584_24529)">
<path d="M12.9914 17.0685C13.0864 17.0685 13.1634 16.9915 13.1634 16.8965C13.1634 16.8015 13.0864 16.7245 12.9914 16.7245C12.8964 16.7245 12.8193 16.8015 12.8193 16.8965C12.8193 16.9915 12.8964 17.0685 12.9914 17.0685Z" fill="#7CBBE6"/>
<path d="M12.8673 16.8965C12.8673 16.8285 12.9233 16.7725 12.9913 16.7725C13.0593 16.7725 13.1153 16.8285 13.1153 16.8965C13.1153 16.9645 13.0593 17.0205 12.9913 17.0205C12.9233 17.0205 12.8673 16.9645 12.8673 16.8965Z" fill="#AED8EC"/>
<path d="M12.9754 16.8165C12.9674 16.7685 13.1074 16.8165 13.0954 16.9205C13.0874 16.9686 13.0634 17.0006 12.9914 17.0006C12.9194 17.0006 12.9994 16.9606 12.9794 16.8165H12.9754Z" fill="#CAE8F6"/>
</g>
<mask id="mask7_584_24529" style="mask-type:luminance" maskUnits="userSpaceOnUse" x="12" y="16" width="2" height="2">
<path d="M13.1634 16.7245L12.8193 17.0685V16.7245H13.1634Z" fill="white"/>
</mask>
<g mask="url(#mask7_584_24529)">
<path d="M12.9914 17.0685C13.0864 17.0685 13.1634 16.9915 13.1634 16.8965C13.1634 16.8015 13.0864 16.7245 12.9914 16.7245C12.8964 16.7245 12.8193 16.8015 12.8193 16.8965C12.8193 16.9915 12.8964 17.0685 12.9914 17.0685Z" fill="#7CBBE6"/>
<path d="M12.9913 16.7725C13.0593 16.7725 13.1153 16.8285 13.1153 16.8965C13.1153 16.9645 13.0593 17.0205 12.9913 17.0205C12.9233 17.0205 12.8673 16.9645 12.8673 16.8965C12.8673 16.8285 12.9233 16.7725 12.9913 16.7725Z" fill="#AED8EC"/>
<path d="M13.0714 16.8846C13.1194 16.8766 13.0714 17.0166 12.9673 17.0046C12.9193 16.9966 12.8873 16.9726 12.8873 16.9006C12.8873 16.8286 12.9273 16.9086 13.0714 16.8886V16.8846Z" fill="#CAE8F6"/>
</g>
<path d="M8.24268 15.6404C8.53433 15.6404 8.77076 15.4111 8.77076 15.1283C8.77076 14.8455 8.53433 14.6162 8.24268 14.6162C7.95103 14.6162 7.7146 14.8455 7.7146 15.1283C7.7146 15.4111 7.95103 15.6404 8.24268 15.6404Z" fill="#7CBBE6"/>
<path d="M8.62272 15.1282C8.62272 15.3282 8.4547 15.4923 8.24666 15.4923C8.03863 15.4923 7.87061 15.3282 7.87061 15.1282C7.87061 14.9282 8.03863 14.7642 8.24666 14.7642C8.4547 14.7642 8.62272 14.9282 8.62272 15.1282Z" fill="#AED8EC"/>
<path d="M8.28667 15.3723C8.30667 15.5124 7.8786 15.3723 7.92261 15.0683C7.94261 14.9283 8.02263 14.8282 8.24666 14.8282C8.4707 14.8282 8.21866 14.9443 8.28667 15.3723Z" fill="#CAE8F6"/>
<path d="M9.93091 16.1684C10.2226 16.1684 10.459 15.9392 10.459 15.6564C10.459 15.3736 10.2226 15.1443 9.93091 15.1443C9.63926 15.1443 9.40283 15.3736 9.40283 15.6564C9.40283 15.9392 9.63926 16.1684 9.93091 16.1684Z" fill="#7CBBE6"/>
<path d="M10.3069 15.6564C10.3069 15.8564 10.1389 16.0205 9.93087 16.0205C9.72284 16.0205 9.55481 15.8564 9.55481 15.6564C9.55481 15.4564 9.72284 15.2924 9.93087 15.2924C10.1389 15.2924 10.3069 15.4564 10.3069 15.6564Z" fill="#AED8EC"/>
<path d="M9.9749 15.9004C9.9949 16.0404 9.56684 15.9004 9.61084 15.5964C9.63085 15.4563 9.71086 15.3563 9.93489 15.3563C10.1589 15.3563 9.90689 15.4723 9.9749 15.9004Z" fill="#CAE8F6"/>
<path d="M11.8911 16.5165C12.1828 16.5165 12.4192 16.2872 12.4192 16.0044C12.4192 15.7216 12.1828 15.4923 11.8911 15.4923C11.5995 15.4923 11.363 15.7216 11.363 16.0044C11.363 16.2872 11.5995 16.5165 11.8911 16.5165Z" fill="#7CBBE6"/>
<path d="M12.2673 16.0043C12.2673 16.2043 12.0992 16.3684 11.8912 16.3684C11.6832 16.3684 11.5151 16.2043 11.5151 16.0043C11.5151 15.8043 11.6832 15.6403 11.8912 15.6403C12.0992 15.6403 12.2673 15.8043 12.2673 16.0043Z" fill="#AED8EC"/>
<path d="M11.9312 16.2484C11.9512 16.3885 11.5231 16.2484 11.5671 15.9444C11.5871 15.8044 11.6672 15.7043 11.8912 15.7043C12.1152 15.7043 11.8632 15.8204 11.9312 16.2484Z" fill="#CAE8F6"/>
<path d="M19.6804 15.5083C19.9721 15.5083 20.2085 15.279 20.2085 14.9962C20.2085 14.7134 19.9721 14.4841 19.6804 14.4841C19.3888 14.4841 19.1523 14.7134 19.1523 14.9962C19.1523 15.279 19.3888 15.5083 19.6804 15.5083Z" fill="#7CBBE6"/>
<path d="M19.3044 14.9961C19.3044 15.1962 19.4725 15.3602 19.6805 15.3602C19.8885 15.3602 20.0566 15.1962 20.0566 14.9961C20.0566 14.7961 19.8885 14.6321 19.6805 14.6321C19.4725 14.6321 19.3044 14.7961 19.3044 14.9961Z" fill="#AED8EC"/>
<path d="M19.6364 15.2403C19.6164 15.3803 20.0445 15.2403 20.0005 14.9362C19.9805 14.7962 19.9005 14.6962 19.6765 14.7002C19.4524 14.7042 19.7045 14.8162 19.6364 15.2443V15.2403Z" fill="#CAE8F6"/>
<path d="M18.0361 16.2124C18.3278 16.2124 18.5642 15.9831 18.5642 15.7003C18.5642 15.4175 18.3278 15.1882 18.0361 15.1882C17.7445 15.1882 17.5081 15.4175 17.5081 15.7003C17.5081 15.9831 17.7445 16.2124 18.0361 16.2124Z" fill="#7CBBE6"/>
<path d="M17.6602 15.7004C17.6602 15.9004 17.8282 16.0644 18.0362 16.0644C18.2442 16.0644 18.4123 15.9004 18.4123 15.7004C18.4123 15.5003 18.2442 15.3363 18.0362 15.3363C17.8282 15.3363 17.6602 15.5003 17.6602 15.7004Z" fill="#AED8EC"/>
<path d="M17.9961 15.9444C17.9761 16.0844 18.4041 15.9444 18.3601 15.6403C18.3401 15.5003 18.2601 15.4003 18.0361 15.4043C17.812 15.4083 18.0641 15.5203 17.9961 15.9484V15.9444Z" fill="#CAE8F6"/>
<path d="M16.0358 16.4404C16.3274 16.4404 16.5639 16.2112 16.5639 15.9283C16.5639 15.6455 16.3274 15.4163 16.0358 15.4163C15.7441 15.4163 15.5077 15.6455 15.5077 15.9283C15.5077 16.2112 15.7441 16.4404 16.0358 16.4404Z" fill="#7CBBE6"/>
<path d="M15.6598 15.9283C15.6598 16.1283 15.8278 16.2923 16.0358 16.2923C16.2439 16.2923 16.4119 16.1283 16.4119 15.9283C16.4119 15.7282 16.2439 15.5642 16.0358 15.5642C15.8278 15.5642 15.6598 15.7282 15.6598 15.9283Z" fill="#AED8EC"/>
<path d="M15.9918 16.1724C15.9718 16.3124 16.3999 16.1724 16.3559 15.8684C16.3358 15.7283 16.2558 15.6283 16.0318 15.6323C15.8078 15.6363 16.0598 15.7483 15.9918 16.1764V16.1724Z" fill="#CAE8F6"/>
<path d="M10.7591 14.2722C10.6351 14.2362 10.503 14.2322 10.375 14.2162C10.247 14.2002 10.115 14.1802 9.98695 14.1602C9.86293 14.1402 9.73491 14.1162 9.61089 14.0882C9.54688 14.0762 9.48287 14.0602 9.41486 14.0482C9.35886 14.0362 9.29084 14.0202 9.23083 14.0282C9.27084 14.0602 9.33485 14.0802 9.38686 14.0962C9.45087 14.1162 9.51488 14.1322 9.57889 14.1482C9.70691 14.1802 9.83893 14.2042 9.96695 14.2282C10.099 14.2522 10.231 14.2722 10.363 14.2882C10.491 14.3042 10.6271 14.3282 10.7551 14.3082C10.7791 14.3082 10.7831 14.2802 10.7551 14.2722H10.7591Z" fill="#FFF7D4"/>
</g>
<defs>
<filter id="filter0_d_584_24529" x="0.487369" y="0.791812" width="26.4164" height="26.4164" filterUnits="userSpaceOnUse" color-interpolation-filters="sRGB">
<feFlood flood-opacity="0" result="BackgroundImageFix"/>
<feColorMatrix in="SourceAlpha" type="matrix" values="0 0 0 0 0 0 0 0 0 0 0 0 0 0 0 0 0 0 127 0" result="hardAlpha"/>
<feOffset/>
<feGaussianBlur stdDeviation="0.604094"/>
<feColorMatrix type="matrix" values="0 0 0 0 0.94902 0 0 0 0 0.854902 0 0 0 0 0.188235 0 0 0 0.75 0"/>
<feBlend mode="normal" in2="BackgroundImageFix" result="effect1_dropShadow_584_24529"/>
<feBlend mode="normal" in="SourceGraphic" in2="effect1_dropShadow_584_24529" result="shape"/>
</filter>
</defs>
</svg>
