<svg width="20" height="22" viewBox="0 0 20 22" fill="none" xmlns="http://www.w3.org/2000/svg">
<path d="M5.28994 10.7099C5.3829 10.8037 5.4935 10.8781 5.61536 10.9288C5.73722 10.9796 5.86793 11.0057 5.99994 11.0057C6.13195 11.0057 6.26266 10.9796 6.38452 10.9288C6.50637 10.8781 6.61698 10.8037 6.70994 10.7099C6.80367 10.617 6.87806 10.5064 6.92883 10.3845C6.9796 10.2627 7.00574 10.132 7.00574 9.99994C7.00574 9.86793 6.9796 9.73722 6.92883 9.61536C6.87806 9.4935 6.80367 9.3829 6.70994 9.28994L4.40994 6.99994H17.9999C18.2652 6.99994 18.5195 6.89458 18.707 6.70705C18.8946 6.51951 18.9999 6.26516 18.9999 5.99994C18.9999 5.73472 18.8946 5.48037 18.707 5.29283C18.5195 5.1053 18.2652 4.99994 17.9999 4.99994H4.40994L6.70994 2.70994C6.89824 2.52164 7.00403 2.26624 7.00403 1.99994C7.00403 1.73364 6.89824 1.47824 6.70994 1.28994C6.52164 1.10164 6.26624 0.99585 5.99994 0.99585C5.73364 0.99585 5.47824 1.10164 5.28994 1.28994L1.28994 5.28994C1.19621 5.3829 1.12182 5.49351 1.07105 5.61536C1.02028 5.73722 0.994141 5.86793 0.994141 5.99994C0.994141 6.13195 1.02028 6.26266 1.07105 6.38452C1.12182 6.50638 1.19621 6.61698 1.28994 6.70994L5.28994 10.7099ZM14.7099 11.2899C14.5216 11.1016 14.2662 10.9958 13.9999 10.9958C13.7336 10.9958 13.4782 11.1016 13.2899 11.2899C13.1016 11.4782 12.9958 11.7336 12.9958 11.9999C12.9958 12.2662 13.1016 12.5216 13.2899 12.7099L15.5899 14.9999H1.99994C1.73472 14.9999 1.48037 15.1053 1.29283 15.2928C1.1053 15.4804 0.999939 15.7347 0.999939 15.9999C0.999939 16.2652 1.1053 16.5195 1.29283 16.707C1.48037 16.8946 1.73472 16.9999 1.99994 16.9999H15.5899L13.2899 19.2899C13.1962 19.3829 13.1218 19.4935 13.071 19.6154C13.0203 19.7372 12.9941 19.8679 12.9941 19.9999C12.9941 20.132 13.0203 20.2627 13.071 20.3845C13.1218 20.5064 13.1962 20.617 13.2899 20.7099C13.3829 20.8037 13.4935 20.8781 13.6154 20.9288C13.7372 20.9796 13.8679 21.0057 13.9999 21.0057C14.132 21.0057 14.2627 20.9796 14.3845 20.9288C14.5064 20.8781 14.617 20.8037 14.7099 20.7099L18.7099 16.7099C18.8037 16.617 18.8781 16.5064 18.9288 16.3845C18.9796 16.2627 19.0057 16.132 19.0057 15.9999C19.0057 15.8679 18.9796 15.7372 18.9288 15.6154C18.8781 15.4935 18.8037 15.3829 18.7099 15.2899L14.7099 11.2899Z" fill="#B6CEFE"/>
</svg>
