<svg width="15" height="22" viewBox="0 0 15 22" fill="none" xmlns="http://www.w3.org/2000/svg">
<path d="M11.8 5.572C11.3893 3.5 10.1106 2.464 7.96397 2.464C6.30264 2.464 5.0613 3.108 4.23997 4.396C3.41864 5.66533 3.0173 7.76533 3.03597 10.696C3.4653 9.72533 4.17464 8.96933 5.16397 8.428C6.17197 7.868 7.29197 7.588 8.52397 7.588C10.4466 7.588 11.9773 8.18533 13.116 9.38C14.2733 10.5747 14.852 12.2267 14.852 14.336C14.852 15.6053 14.6 16.744 14.096 17.752C13.6106 18.76 12.864 19.5627 11.856 20.16C10.8666 20.7573 9.66264 21.056 8.24397 21.056C6.3213 21.056 4.81864 20.6267 3.73597 19.768C2.6533 18.9093 1.8973 17.724 1.46797 16.212C1.03864 14.7 0.823968 12.8333 0.823968 10.612C0.823968 3.76133 3.2133 0.335999 7.99197 0.335999C9.8213 0.335999 11.2586 0.830665 12.304 1.82C13.3493 2.80933 13.9653 4.06 14.152 5.572H11.8ZM7.99197 9.744C7.1893 9.744 6.4333 9.912 5.72397 10.248C5.01464 10.5653 4.43597 11.06 3.98797 11.732C3.55864 12.3853 3.34397 13.188 3.34397 14.14C3.34397 15.5587 3.75464 16.716 4.57597 17.612C5.3973 18.4893 6.5733 18.928 8.10397 18.928C9.41064 18.928 10.4466 18.5267 11.212 17.724C11.996 16.9027 12.388 15.8013 12.388 14.42C12.388 12.964 12.0146 11.8253 11.268 11.004C10.5213 10.164 9.4293 9.744 7.99197 9.744Z" fill="black"/>
</svg>
