<svg width="15" height="22" viewBox="0 0 15 22" fill="none" xmlns="http://www.w3.org/2000/svg">
<path d="M11.7998 5.572C11.3891 3.5 10.1105 2.464 7.96379 2.464C6.30245 2.464 5.06112 3.108 4.23979 4.396C3.41845 5.66533 3.01712 7.76533 3.03579 10.696C3.46512 9.72533 4.17445 8.96933 5.16379 8.428C6.17179 7.868 7.29179 7.588 8.52379 7.588C10.4465 7.588 11.9771 8.18533 13.1158 9.38C14.2731 10.5747 14.8518 12.2267 14.8518 14.336C14.8518 15.6053 14.5998 16.744 14.0958 17.752C13.6105 18.76 12.8638 19.5627 11.8558 20.16C10.8665 20.7573 9.66245 21.056 8.24379 21.056C6.32112 21.056 4.81845 20.6267 3.73579 19.768C2.65312 18.9093 1.89712 17.724 1.46779 16.212C1.03845 14.7 0.823785 12.8333 0.823785 10.612C0.823785 3.76133 3.21312 0.335999 7.99179 0.335999C9.82112 0.335999 11.2585 0.830665 12.3038 1.82C13.3491 2.80933 13.9651 4.06 14.1518 5.572H11.7998ZM7.99179 9.744C7.18912 9.744 6.43312 9.912 5.72379 10.248C5.01445 10.5653 4.43579 11.06 3.98779 11.732C3.55845 12.3853 3.34379 13.188 3.34379 14.14C3.34379 15.5587 3.75445 16.716 4.57579 17.612C5.39712 18.4893 6.57312 18.928 8.10379 18.928C9.41045 18.928 10.4465 18.5267 11.2118 17.724C11.9958 16.9027 12.3878 15.8013 12.3878 14.42C12.3878 12.964 12.0145 11.8253 11.2678 11.004C10.5211 10.164 9.42912 9.744 7.99179 9.744Z" fill="white"/>
</svg>
