<svg width="25" height="24" viewBox="0 0 25 24" fill="none" xmlns="http://www.w3.org/2000/svg">
<g clip-path="url(#clip0_584_24527)">
<path d="M19.4435 20.276C18.0555 19.808 16.5675 20.644 16.2435 22.072C15.7275 24.34 12.6475 24.708 11.6155 22.624C10.9635 21.312 9.31954 20.848 8.07954 21.628C6.11154 22.868 3.67554 20.952 4.41954 18.744C4.88754 17.356 4.05154 15.868 2.62354 15.544C0.35554 15.028 -0.0124601 11.948 2.07154 10.916C3.38354 10.264 3.84754 8.61996 3.06754 7.37996C1.82754 5.41196 3.74354 2.97596 5.95154 3.71996C7.33954 4.18795 8.82754 3.35195 9.15154 1.92395C9.66754 -0.344045 12.7475 -0.712045 13.7795 1.37196C14.4315 2.68396 16.0755 3.14796 17.3155 2.36795C19.2835 1.12796 21.7195 3.04396 20.9755 5.25196C20.5075 6.63996 21.3435 8.12795 22.7715 8.45195C25.0395 8.96795 25.4075 12.048 23.3235 13.08C22.0115 13.732 21.5475 15.376 22.3275 16.616C23.5675 18.584 21.6515 21.02 19.4435 20.276Z" fill="#FFC61E"/>
<path d="M15.7795 12.204C15.7795 12.308 15.8315 12.384 15.9035 12.384C15.9755 12.384 16.0275 12.304 16.0275 12.204C16.0275 12.104 15.9755 12.024 15.9035 12.024C15.8315 12.024 15.7795 12.104 15.7795 12.204ZM15.8515 12.204C15.8515 12.14 15.8795 12.096 15.8995 12.096C15.9195 12.096 15.9475 12.136 15.9475 12.204C15.9475 12.272 15.9195 12.312 15.8995 12.312C15.8795 12.312 15.8515 12.268 15.8515 12.204Z" fill="#FF855A"/>
<path d="M15.9036 12.0439C15.9636 12.0439 16.0076 12.1159 16.0076 12.2079H15.9716C15.9716 12.1399 15.9396 12.0839 15.9036 12.0839V12.0479V12.0439Z" fill="#FAEC22"/>
<path d="M15.7756 12.5641C15.7756 12.6681 15.8236 12.7441 15.8956 12.7481C15.9676 12.7481 16.0196 12.6721 16.0196 12.5721C16.0196 12.4721 15.9676 12.3881 15.8956 12.3881C15.8236 12.3881 15.7716 12.4681 15.7716 12.5641H15.7756ZM15.8476 12.5641C15.8476 12.5001 15.8796 12.4601 15.8956 12.4601C15.9156 12.4601 15.9436 12.5041 15.9436 12.5681C15.9436 12.6321 15.9116 12.6761 15.8916 12.6721C15.8716 12.6721 15.8436 12.6281 15.8436 12.5641H15.8476Z" fill="#FF855A"/>
<path d="M15.9036 12.4041C15.9636 12.4041 16.0076 12.4761 16.0076 12.5681H15.9716C15.9716 12.4961 15.9436 12.4441 15.9036 12.4401V12.4041Z" fill="#FAEC22"/>
<path d="M15.7716 12.928C15.7716 13.032 15.8196 13.108 15.8876 13.112C15.9596 13.112 16.0116 13.036 16.0156 12.932C16.0156 12.828 15.9676 12.748 15.8956 12.748C15.8236 12.748 15.7716 12.824 15.7676 12.928H15.7716ZM15.8436 12.928C15.8436 12.864 15.8756 12.824 15.8956 12.824C15.9156 12.824 15.9436 12.868 15.9436 12.932C15.9436 12.996 15.9116 13.036 15.8916 13.036C15.8716 13.036 15.8436 12.992 15.8436 12.928Z" fill="#FF855A"/>
<path d="M15.8997 12.7679C15.9597 12.7679 16.0037 12.8399 16.0037 12.9359H15.9677C15.9677 12.8639 15.9397 12.8079 15.9037 12.8079V12.7719L15.8997 12.7679Z" fill="#FAEC22"/>
<path d="M15.7596 13.2881C15.7596 13.3921 15.8076 13.4721 15.8756 13.4761C15.9476 13.4761 15.9996 13.4041 16.0076 13.3001C16.0076 13.1961 15.9596 13.1161 15.8916 13.1121C15.8196 13.1121 15.7676 13.1881 15.7636 13.2881H15.7596ZM15.8316 13.2881C15.8316 13.2241 15.8636 13.1841 15.8836 13.1841C15.9036 13.1841 15.9316 13.2281 15.9316 13.2921C15.9316 13.3561 15.8956 13.3961 15.8796 13.3961C15.8596 13.3961 15.8316 13.3521 15.8356 13.2881H15.8316Z" fill="#FF855A"/>
<path d="M15.8876 13.1281C15.9476 13.1281 15.9916 13.2041 15.9876 13.2961H15.9516C15.9516 13.2241 15.9236 13.1681 15.8876 13.1681V13.1321V13.1281Z" fill="#FAEC22"/>
<path d="M15.7396 13.648C15.7356 13.752 15.7836 13.832 15.8516 13.836C15.9236 13.836 15.9796 13.764 15.9876 13.66C15.9916 13.556 15.9396 13.476 15.8756 13.472C15.8036 13.472 15.7476 13.544 15.7436 13.648H15.7396ZM15.8116 13.648C15.8116 13.584 15.8476 13.544 15.8676 13.544C15.8876 13.544 15.9156 13.588 15.9116 13.652C15.9116 13.716 15.8756 13.756 15.8556 13.756C15.8356 13.756 15.8076 13.712 15.8116 13.648Z" fill="#FF855A"/>
<path d="M15.8716 13.4919C15.9316 13.4919 15.9756 13.5679 15.9676 13.6599H15.9316C15.9316 13.5879 15.9036 13.5319 15.8716 13.5279V13.4919Z" fill="#FAEC22"/>
<path d="M15.7196 14.0081C15.7156 14.1121 15.7636 14.1921 15.8316 14.1961C15.9036 14.2001 15.9596 14.1241 15.9676 14.0241C15.9716 13.9201 15.9236 13.8401 15.8556 13.8361C15.7836 13.8361 15.7276 13.9081 15.7196 14.0081ZM15.7916 14.0121C15.7916 13.9481 15.8276 13.9081 15.8476 13.9081C15.8676 13.9081 15.8956 13.9521 15.8916 14.0201C15.8916 14.0841 15.8556 14.1241 15.8356 14.1241C15.8156 14.1241 15.7876 14.0761 15.7916 14.0121Z" fill="#FF855A"/>
<path d="M15.8556 13.8521C15.9156 13.8521 15.9596 13.9321 15.9516 14.0201H15.9156C15.9196 13.9481 15.8916 13.8921 15.8556 13.8881V13.8521Z" fill="#FAEC22"/>
<path d="M15.6956 14.368C15.6876 14.472 15.7356 14.552 15.8036 14.556C15.8756 14.56 15.9316 14.484 15.9396 14.384C15.9436 14.28 15.8997 14.2 15.8277 14.196C15.7557 14.192 15.6997 14.268 15.6917 14.368H15.6956ZM15.7676 14.372C15.7716 14.308 15.8036 14.268 15.8236 14.268C15.8436 14.268 15.8716 14.312 15.8636 14.38C15.8596 14.444 15.8276 14.484 15.8036 14.484C15.7836 14.484 15.7556 14.436 15.7636 14.372H15.7676Z" fill="#FF855A"/>
<path d="M15.8316 14.216C15.8916 14.216 15.9316 14.296 15.9236 14.384H15.8876C15.8916 14.312 15.8636 14.252 15.8276 14.248V14.212L15.8316 14.216Z" fill="#FAEC22"/>
<path d="M15.6676 14.7281C15.6596 14.8321 15.7036 14.9121 15.7756 14.9161C15.8476 14.9201 15.9076 14.8481 15.9156 14.7481C15.9236 14.6441 15.8796 14.5601 15.8076 14.5561C15.7356 14.5521 15.6796 14.6281 15.6716 14.7241L15.6676 14.7281ZM15.7396 14.7361C15.7436 14.6721 15.7756 14.6321 15.7996 14.6321C15.8196 14.6321 15.8476 14.6801 15.8396 14.7441C15.8356 14.8081 15.8036 14.8481 15.7796 14.8481C15.7596 14.8481 15.7316 14.8001 15.7396 14.7361Z" fill="#FF855A"/>
<path d="M15.8036 14.576C15.8636 14.58 15.9036 14.656 15.8956 14.748H15.8596C15.8636 14.676 15.8396 14.616 15.7996 14.612V14.576H15.8036Z" fill="#FAEC22"/>
<path d="M15.6356 15.088C15.6236 15.188 15.6716 15.272 15.7396 15.28C15.8116 15.288 15.8716 15.212 15.8796 15.112C15.8876 15.008 15.8436 14.924 15.7756 14.92C15.7036 14.916 15.6436 14.988 15.6356 15.088ZM15.7076 15.092C15.7116 15.028 15.7436 14.988 15.7676 14.988C15.7876 14.988 15.8156 15.036 15.8036 15.1C15.7996 15.164 15.7636 15.204 15.7436 15.204C15.7236 15.204 15.6996 15.156 15.7076 15.092Z" fill="#FF855A"/>
<path d="M15.7716 14.9399C15.8316 14.9439 15.8716 15.0199 15.8636 15.1119H15.8276C15.8316 15.0399 15.8076 14.9799 15.7716 14.9759V14.9399Z" fill="#FAEC22"/>
<path d="M15.5996 15.4479C15.5876 15.5479 15.6316 15.6359 15.7036 15.6399C15.7716 15.6479 15.8356 15.5759 15.8476 15.4719C15.8596 15.3679 15.8116 15.2839 15.7436 15.2799C15.6716 15.2759 15.6116 15.3479 15.5996 15.4479ZM15.6716 15.4559C15.6756 15.3919 15.7116 15.3519 15.7316 15.3519C15.7516 15.3519 15.7756 15.3999 15.7676 15.4639C15.7636 15.5279 15.7276 15.5679 15.7076 15.5679C15.6876 15.5679 15.6636 15.5199 15.6716 15.4559Z" fill="#FF855A"/>
<path d="M15.7396 15.3C15.7996 15.304 15.8356 15.38 15.8276 15.472H15.7916C15.7996 15.4 15.7756 15.34 15.7396 15.336V15.3Z" fill="#FAEC22"/>
<path d="M15.5556 15.804C15.5436 15.904 15.5876 15.992 15.6556 16C15.7276 16.008 15.7916 15.936 15.7996 15.836C15.8156 15.732 15.7676 15.648 15.6996 15.64C15.6276 15.632 15.5676 15.704 15.5556 15.804ZM15.6276 15.812C15.6356 15.748 15.6716 15.708 15.6876 15.712C15.7076 15.712 15.7316 15.76 15.7236 15.824C15.7156 15.888 15.6796 15.928 15.6636 15.924C15.6436 15.924 15.6196 15.876 15.6276 15.812Z" fill="#FF855A"/>
<path d="M15.6956 15.66C15.7556 15.664 15.7916 15.744 15.7796 15.836H15.7436C15.7516 15.764 15.7277 15.7 15.6917 15.696V15.66H15.6956Z" fill="#FAEC22"/>
<path d="M15.5076 16.16C15.4916 16.26 15.5356 16.348 15.6036 16.356C15.6716 16.368 15.7396 16.296 15.7516 16.192C15.7676 16.088 15.7236 16.004 15.6516 15.996C15.5796 15.988 15.5156 16.056 15.5076 16.16ZM15.5796 16.172C15.5876 16.108 15.6236 16.068 15.6436 16.072C15.6636 16.072 15.6876 16.12 15.6796 16.184C15.6716 16.248 15.6356 16.288 15.6156 16.284C15.5956 16.284 15.5716 16.236 15.5796 16.172Z" fill="#FF855A"/>
<path d="M15.6516 16.016C15.7116 16.024 15.7436 16.1 15.7316 16.192H15.6956C15.7036 16.12 15.6796 16.056 15.6476 16.052V16.016H15.6516Z" fill="#FAEC22"/>
<path d="M15.4556 16.52C15.4396 16.62 15.4836 16.708 15.5476 16.72C15.6116 16.732 15.6836 16.66 15.6996 16.56C15.7156 16.456 15.6716 16.372 15.6076 16.36C15.5396 16.352 15.4716 16.42 15.4596 16.52H15.4556ZM15.5276 16.532C15.5356 16.468 15.5716 16.428 15.5916 16.432C15.6116 16.432 15.6356 16.48 15.6236 16.544C15.6156 16.608 15.5756 16.648 15.5556 16.644C15.5356 16.644 15.5156 16.596 15.5236 16.532H15.5276Z" fill="#FF855A"/>
<path d="M15.5996 16.376C15.6596 16.384 15.6916 16.464 15.6796 16.556H15.6436C15.6556 16.484 15.6316 16.42 15.5956 16.416V16.38H15.6036L15.5996 16.376Z" fill="#FAEC22"/>
<path d="M15.3956 16.8761C15.3796 16.9761 15.4156 17.0641 15.4876 17.0761C15.5556 17.0881 15.6236 17.0201 15.6436 16.9201C15.6596 16.8161 15.6196 16.7321 15.5516 16.7201C15.4836 16.7081 15.4156 16.7801 15.3996 16.8761H15.3956ZM15.4676 16.8881C15.4796 16.8241 15.5156 16.7881 15.5356 16.7921C15.5556 16.7921 15.5756 16.8401 15.5676 16.9041C15.5556 16.9681 15.5196 17.0041 15.4996 17.0001C15.4796 17.0001 15.4596 16.9521 15.4716 16.8881H15.4676Z" fill="#FF855A"/>
<path d="M15.5436 16.736C15.6036 16.744 15.6356 16.824 15.6196 16.912H15.5836C15.5956 16.84 15.5756 16.776 15.5356 16.772V16.736H15.5436Z" fill="#FAEC22"/>
<path d="M15.3316 17.228C15.3156 17.328 15.3476 17.416 15.4196 17.428C15.4876 17.444 15.5556 17.372 15.5756 17.272C15.5956 17.172 15.5556 17.084 15.4876 17.072C15.4196 17.06 15.3516 17.128 15.3316 17.228ZM15.4036 17.244C15.4156 17.18 15.4516 17.144 15.4716 17.148C15.4916 17.148 15.5116 17.1961 15.4996 17.2601C15.4876 17.3241 15.4516 17.36 15.4276 17.356C15.4036 17.352 15.3876 17.304 15.3996 17.244H15.4036Z" fill="#FF855A"/>
<path d="M15.4836 17.092C15.5436 17.104 15.5756 17.184 15.5556 17.272H15.5196C15.5316 17.2 15.5156 17.136 15.4756 17.128V17.092H15.4796H15.4836Z" fill="#FAEC22"/>
<path d="M15.2636 17.584C15.2436 17.684 15.2796 17.772 15.3436 17.784C15.4076 17.796 15.4796 17.732 15.4996 17.632C15.5196 17.532 15.4836 17.444 15.4156 17.428C15.3476 17.412 15.2796 17.48 15.2596 17.58L15.2636 17.584ZM15.3356 17.6C15.3516 17.536 15.3836 17.5 15.4076 17.508C15.4276 17.508 15.4476 17.556 15.4356 17.62C15.4196 17.684 15.3836 17.72 15.3636 17.712C15.3436 17.712 15.3236 17.66 15.3356 17.6Z" fill="#FF855A"/>
<path d="M15.4156 17.448C15.4756 17.46 15.5076 17.54 15.4876 17.628L15.4516 17.62C15.4676 17.552 15.4476 17.492 15.4116 17.484L15.4196 17.448H15.4156Z" fill="#FAEC22"/>
<path d="M15.1836 17.9321C15.1596 18.0321 15.1956 18.1201 15.2636 18.1361C15.3316 18.1521 15.4036 18.0881 15.4276 17.9881C15.4516 17.8881 15.4156 17.8001 15.3476 17.7841C15.2796 17.7681 15.2116 17.8321 15.1876 17.9321H15.1836ZM15.2556 17.9481C15.2716 17.8841 15.3076 17.8521 15.3276 17.8561C15.3476 17.8561 15.3676 17.9081 15.3516 17.9721C15.3356 18.0361 15.2996 18.0681 15.2796 18.0641C15.2596 18.0601 15.2436 18.0121 15.2556 17.9481Z" fill="#FF855A"/>
<path d="M15.3396 17.804C15.3996 17.816 15.4276 17.896 15.4076 17.984L15.3716 17.976C15.3876 17.908 15.3716 17.848 15.3356 17.84L15.3436 17.804H15.3396Z" fill="#FAEC22"/>
<path d="M15.0996 18.284C15.0756 18.38 15.1036 18.472 15.1716 18.492C15.2396 18.508 15.3116 18.444 15.3396 18.348C15.3676 18.248 15.3316 18.16 15.2636 18.14C15.1956 18.124 15.1276 18.188 15.0996 18.284ZM15.1716 18.3C15.1876 18.236 15.2276 18.204 15.2436 18.208C15.2636 18.212 15.2796 18.26 15.2636 18.324C15.2476 18.384 15.2076 18.42 15.1876 18.416C15.1676 18.412 15.1516 18.364 15.1676 18.3H15.1716Z" fill="#FF855A"/>
<path d="M15.2596 18.156C15.3196 18.172 15.3436 18.248 15.3196 18.34L15.2836 18.332C15.2996 18.264 15.2836 18.2 15.2476 18.196L15.2556 18.16L15.2596 18.156Z" fill="#FAEC22"/>
<path d="M15.0036 18.628C14.9756 18.724 15.0036 18.816 15.0756 18.836C15.1436 18.856 15.2196 18.796 15.2436 18.696C15.2716 18.596 15.2396 18.508 15.1716 18.488C15.1036 18.472 15.0316 18.532 15.0036 18.628ZM15.0756 18.648C15.0916 18.588 15.1316 18.552 15.1516 18.556C15.1716 18.56 15.1876 18.608 15.1676 18.672C15.1516 18.732 15.1076 18.768 15.0916 18.764C15.0756 18.76 15.0556 18.708 15.0756 18.648Z" fill="#FF855A"/>
<path d="M15.1675 18.5081C15.2235 18.5241 15.2515 18.6041 15.2275 18.6921L15.1915 18.6841C15.2075 18.6161 15.1915 18.5521 15.1595 18.5441L15.1675 18.5081Z" fill="#FAEC22"/>
<path d="M14.9036 18.972C14.8756 19.068 14.9036 19.16 14.9636 19.184C15.0276 19.204 15.1076 19.148 15.1356 19.048C15.1676 18.948 15.1356 18.86 15.0716 18.836C15.0036 18.816 14.9316 18.876 14.9036 18.972ZM14.9756 18.996C14.9956 18.936 15.0356 18.904 15.0556 18.908C15.0756 18.912 15.0916 18.964 15.0716 19.024C15.0516 19.084 15.0116 19.116 14.9916 19.112C14.9756 19.108 14.9556 19.056 14.9756 18.996Z" fill="#FF855A"/>
<path d="M15.0675 18.856C15.1235 18.872 15.1475 18.956 15.1195 19.044L15.0835 19.032C15.1035 18.968 15.0915 18.904 15.0555 18.892L15.0675 18.856Z" fill="#FAEC22"/>
<path d="M14.7916 19.316C14.7596 19.408 14.7836 19.504 14.8476 19.528C14.9116 19.552 14.9916 19.496 15.0276 19.396C15.0636 19.3 15.0356 19.208 14.9676 19.184C14.9036 19.164 14.8236 19.22 14.7916 19.316ZM14.8636 19.344C14.8836 19.284 14.9236 19.252 14.9436 19.26C14.9636 19.264 14.9756 19.316 14.9556 19.376C14.9356 19.436 14.8916 19.468 14.8756 19.46C14.8596 19.456 14.8436 19.404 14.8636 19.344Z" fill="#FF855A"/>
<path d="M14.9596 19.2C15.0156 19.216 15.0356 19.304 15.0076 19.388L14.9716 19.376C14.9956 19.312 14.9836 19.248 14.9476 19.236L14.9596 19.2Z" fill="#FAEC22"/>
<path d="M14.6676 19.652C14.6316 19.744 14.6516 19.84 14.7156 19.864C14.7796 19.892 14.8596 19.836 14.8996 19.74C14.9356 19.644 14.9156 19.552 14.8516 19.528C14.7876 19.504 14.7076 19.56 14.6716 19.652H14.6676ZM14.7396 19.676C14.7636 19.616 14.8036 19.584 14.8236 19.596C14.8396 19.6 14.8556 19.652 14.8316 19.712C14.8076 19.772 14.7636 19.8 14.7476 19.792C14.7316 19.784 14.7196 19.732 14.7436 19.676H14.7396Z" fill="#FF855A"/>
<path d="M14.8435 19.544C14.8995 19.564 14.9155 19.648 14.8835 19.732L14.8475 19.716C14.8755 19.652 14.8635 19.588 14.8315 19.572L14.8435 19.536V19.544Z" fill="#FAEC22"/>
<path d="M14.5316 19.976C14.4916 20.068 14.5036 20.16 14.5676 20.192C14.6276 20.22 14.7116 20.172 14.7556 20.08C14.7956 19.988 14.7796 19.892 14.7156 19.864C14.6516 19.836 14.5716 19.892 14.5316 19.98V19.976ZM14.5996 20.004C14.6276 19.944 14.6716 19.92 14.6876 19.924C14.7036 19.932 14.7156 19.984 14.6876 20.044C14.6596 20.104 14.6156 20.128 14.5956 20.12C14.5796 20.112 14.5676 20.06 14.5956 20.004H14.5996Z" fill="#FF855A"/>
<path d="M14.7076 19.88C14.7636 19.904 14.7796 19.988 14.7396 20.072L14.7036 20.056C14.7316 19.992 14.7277 19.928 14.6917 19.912L14.7076 19.876V19.88Z" fill="#FAEC22"/>
<path d="M14.3756 20.3C14.3276 20.388 14.3396 20.48 14.3996 20.516C14.4596 20.552 14.5476 20.508 14.5956 20.412C14.6436 20.32 14.6276 20.224 14.5676 20.192C14.5036 20.164 14.4236 20.208 14.3796 20.296L14.3756 20.3ZM14.4436 20.336C14.4716 20.276 14.5196 20.256 14.5356 20.264C14.5516 20.272 14.5636 20.324 14.5316 20.384C14.5036 20.444 14.4556 20.464 14.4396 20.456C14.4236 20.448 14.4156 20.396 14.4436 20.34V20.336Z" fill="#FF855A"/>
<path d="M14.5596 20.212C14.6116 20.24 14.6236 20.324 14.5796 20.404L14.5476 20.388C14.5796 20.328 14.5756 20.26 14.5476 20.244L14.5636 20.212H14.5596Z" fill="#FAEC22"/>
<path d="M14.2036 20.604C14.1516 20.684 14.1556 20.78 14.2076 20.82C14.2636 20.86 14.3556 20.82 14.4116 20.732C14.4676 20.64 14.4596 20.544 14.3996 20.512C14.3396 20.476 14.2556 20.52 14.1996 20.604H14.2036ZM14.2676 20.644C14.3036 20.588 14.3476 20.568 14.3636 20.58C14.3796 20.588 14.3836 20.64 14.3476 20.696C14.3116 20.752 14.2636 20.772 14.2476 20.76C14.2316 20.748 14.2316 20.7 14.2636 20.644H14.2676Z" fill="#FF855A"/>
<path d="M14.3916 20.532C14.4396 20.56 14.4476 20.648 14.3956 20.728L14.3636 20.708C14.3996 20.648 14.3996 20.584 14.3676 20.564L14.3836 20.532H14.3916Z" fill="#FAEC22"/>
<path d="M14.0037 20.892C13.9437 20.968 13.9317 21.06 13.9837 21.108C14.0317 21.156 14.1317 21.132 14.1957 21.048C14.2637 20.964 14.2637 20.864 14.2077 20.828C14.1477 20.792 14.0637 20.824 14.0037 20.9V20.892ZM14.0637 20.936C14.0997 20.888 14.1517 20.868 14.1677 20.88C14.1837 20.892 14.1837 20.944 14.1397 20.996C14.0997 21.048 14.0477 21.06 14.0317 21.048C14.0157 21.036 14.0197 20.984 14.0597 20.936H14.0637Z" fill="#FF855A"/>
<path d="M14.1956 20.84C14.2436 20.872 14.2396 20.96 14.1796 21.036L14.1516 21.012C14.1956 20.956 14.2036 20.892 14.1716 20.868L14.1916 20.84H14.1956Z" fill="#FAEC22"/>
<path d="M13.7716 21.144C13.7036 21.208 13.6756 21.292 13.7156 21.352C13.7516 21.408 13.8596 21.4 13.9396 21.328C14.0196 21.256 14.0356 21.152 13.9836 21.108C13.9316 21.06 13.8396 21.08 13.7716 21.144ZM13.8196 21.196C13.8676 21.152 13.9156 21.144 13.9316 21.16C13.9476 21.176 13.9356 21.224 13.8876 21.272C13.8396 21.316 13.7836 21.32 13.7756 21.308C13.7636 21.292 13.7756 21.244 13.8236 21.204L13.8196 21.196Z" fill="#FF855A"/>
<path d="M13.9717 21.12C14.0157 21.156 13.9997 21.244 13.9277 21.312L13.8997 21.284C13.9517 21.236 13.9717 21.172 13.9437 21.148C13.9517 21.14 13.9597 21.132 13.9717 21.12Z" fill="#FAEC22"/>
<path d="M13.5036 21.336C13.4236 21.376 13.3756 21.448 13.3916 21.516C13.3996 21.548 13.4276 21.576 13.4716 21.58C13.4916 21.58 13.5156 21.58 13.5436 21.58C13.5676 21.576 13.5916 21.564 13.6196 21.552C13.7236 21.496 13.7556 21.404 13.7156 21.348C13.6756 21.292 13.5836 21.292 13.5036 21.332V21.336ZM13.5396 21.408C13.5956 21.38 13.6436 21.38 13.6516 21.396C13.6636 21.412 13.6436 21.46 13.5796 21.496C13.5196 21.528 13.4676 21.516 13.4596 21.496C13.4556 21.48 13.4796 21.436 13.5356 21.408H13.5396Z" fill="#FF855A"/>
<path d="M13.6996 21.36C13.7356 21.408 13.6996 21.492 13.6076 21.54L13.5916 21.508C13.6556 21.472 13.6876 21.416 13.6676 21.384L13.6996 21.364V21.36Z" fill="#FAEC22"/>
<path d="M13.2075 21.428C13.1235 21.436 13.0515 21.476 13.0395 21.544C13.0355 21.58 13.0515 21.616 13.0875 21.636C13.1035 21.648 13.1235 21.656 13.1515 21.664C13.1755 21.668 13.2035 21.672 13.2315 21.668C13.2595 21.668 13.2875 21.656 13.3115 21.648C13.3355 21.636 13.3555 21.624 13.3715 21.612C13.3995 21.584 13.4115 21.544 13.3995 21.512C13.3755 21.444 13.2955 21.42 13.2115 21.424L13.2075 21.428ZM13.2115 21.5C13.2715 21.496 13.3155 21.512 13.3235 21.532C13.3275 21.552 13.2915 21.592 13.2195 21.6C13.1475 21.604 13.1075 21.572 13.1075 21.552C13.1075 21.532 13.1515 21.504 13.2115 21.504V21.5Z" fill="#FF855A"/>
<path d="M13.3756 21.52C13.3836 21.548 13.3756 21.58 13.3476 21.604C13.3196 21.632 13.2756 21.648 13.2236 21.652V21.616C13.2956 21.608 13.3476 21.564 13.3356 21.528C13.3476 21.528 13.3596 21.524 13.3716 21.52H13.3756Z" fill="#FAEC22"/>
<path d="M12.8996 21.3881C12.8196 21.3601 12.7316 21.3681 12.6956 21.4281C12.6596 21.4881 12.7076 21.5801 12.8196 21.6201C12.8476 21.6281 12.8756 21.6361 12.8996 21.6361C12.9276 21.6361 12.9476 21.6321 12.9716 21.6241C13.0116 21.6081 13.0356 21.5801 13.0436 21.5441C13.0476 21.4721 12.9916 21.4161 12.9076 21.3881H12.8996ZM12.8756 21.4601C12.9036 21.4681 12.9276 21.4841 12.9436 21.4961C12.9596 21.5121 12.9676 21.5241 12.9636 21.5321C12.9636 21.5401 12.9476 21.5521 12.9276 21.5601C12.9076 21.5601 12.8796 21.5601 12.8476 21.5521C12.7836 21.5281 12.7556 21.4801 12.7676 21.4641C12.7756 21.4481 12.8276 21.4361 12.8796 21.4601H12.8756Z" fill="#FF855A"/>
<path d="M13.0196 21.54C13.0156 21.568 12.9916 21.592 12.9596 21.604C12.9236 21.616 12.8796 21.616 12.8276 21.6L12.8396 21.564C12.9116 21.588 12.9756 21.568 12.9836 21.532C12.9956 21.532 13.0076 21.536 13.0196 21.536V21.54Z" fill="#FAEC22"/>
<path d="M12.6196 21.228C12.5476 21.172 12.4556 21.156 12.4076 21.208C12.3596 21.256 12.3796 21.356 12.4676 21.424C12.5556 21.496 12.6596 21.488 12.6916 21.424C12.7236 21.364 12.6916 21.28 12.6156 21.224L12.6196 21.228ZM12.5756 21.288C12.6236 21.324 12.6436 21.372 12.6356 21.392C12.6236 21.408 12.5716 21.412 12.5196 21.368C12.4676 21.328 12.4556 21.276 12.4676 21.26C12.4836 21.244 12.5316 21.252 12.5796 21.288H12.5756Z" fill="#FF855A"/>
<path d="M12.6796 21.416C12.6516 21.468 12.5596 21.468 12.4796 21.408L12.5036 21.38C12.5596 21.424 12.6276 21.428 12.6476 21.396C12.6556 21.4 12.6676 21.408 12.6796 21.416Z" fill="#FAEC22"/>
<path d="M12.3756 20.996C12.3116 20.924 12.2236 20.896 12.1676 20.936C12.1116 20.976 12.1196 21.076 12.1916 21.156C12.2636 21.236 12.3636 21.256 12.4116 21.204C12.4596 21.156 12.4396 21.064 12.3796 20.992L12.3756 20.996ZM12.3196 21.044C12.3596 21.092 12.3676 21.14 12.3556 21.156C12.3396 21.172 12.2876 21.16 12.2436 21.108C12.1996 21.06 12.1956 21.004 12.2116 20.996C12.2276 20.984 12.2756 20.996 12.3156 21.044H12.3196Z" fill="#FF855A"/>
<path d="M12.3956 21.196C12.3556 21.24 12.2676 21.22 12.2076 21.148L12.2356 21.124C12.2836 21.176 12.3476 21.196 12.3716 21.172C12.3796 21.18 12.3876 21.188 12.3996 21.2L12.3956 21.196Z" fill="#FAEC22"/>
<path d="M12.1676 20.72C12.1116 20.64 12.0276 20.6 11.9676 20.636C11.9076 20.672 11.9036 20.772 11.9636 20.856C12.0236 20.944 12.1196 20.976 12.1716 20.936C12.2276 20.892 12.2196 20.8 12.1716 20.72H12.1676ZM12.1076 20.76C12.1436 20.812 12.1436 20.864 12.1276 20.876C12.1116 20.888 12.0636 20.872 12.0236 20.816C11.9876 20.76 11.9876 20.708 12.0076 20.7C12.0236 20.692 12.0716 20.708 12.1076 20.76Z" fill="#FF855A"/>
<path d="M12.1556 20.924C12.1076 20.96 12.0276 20.928 11.9756 20.852L12.0076 20.832C12.0476 20.892 12.1076 20.92 12.1356 20.896L12.1596 20.924H12.1556Z" fill="#FAEC22"/>
<path d="M11.9837 20.42C11.9357 20.336 11.8517 20.288 11.7917 20.32C11.7317 20.352 11.7197 20.448 11.7677 20.54C11.8157 20.632 11.9077 20.676 11.9677 20.636C12.0277 20.6 12.0317 20.504 11.9837 20.42ZM11.9197 20.456C11.9517 20.512 11.9477 20.56 11.9277 20.572C11.9117 20.58 11.8637 20.56 11.8317 20.5C11.7997 20.44 11.8037 20.392 11.8237 20.384C11.8397 20.376 11.8877 20.4 11.9157 20.456H11.9197Z" fill="#FF855A"/>
<path d="M11.9556 20.624C11.9076 20.656 11.8276 20.616 11.7836 20.532L11.8156 20.516C11.8476 20.576 11.9076 20.608 11.9396 20.592L11.9556 20.624Z" fill="#FAEC22"/>
<path d="M11.8237 20.108C11.7797 20.016 11.6997 19.968 11.6357 19.996C11.5717 20.024 11.5557 20.12 11.5997 20.216C11.6437 20.308 11.7317 20.36 11.7917 20.328C11.8517 20.296 11.8637 20.204 11.8237 20.112V20.108ZM11.7557 20.136C11.7837 20.196 11.7757 20.244 11.7557 20.252C11.7397 20.26 11.6917 20.236 11.6637 20.176C11.6357 20.116 11.6477 20.064 11.6637 20.056C11.6797 20.048 11.7277 20.072 11.7557 20.132V20.136Z" fill="#FF855A"/>
<path d="M11.7796 20.304C11.7276 20.332 11.6556 20.288 11.6116 20.2L11.6436 20.184C11.6716 20.244 11.7276 20.284 11.7596 20.268L11.7756 20.3L11.7796 20.304Z" fill="#FAEC22"/>
<path d="M11.6757 19.78C11.6397 19.688 11.5597 19.636 11.4957 19.66C11.4317 19.684 11.4077 19.78 11.4477 19.876C11.4837 19.972 11.5717 20.024 11.6357 19.996C11.6997 19.968 11.7157 19.872 11.6797 19.784L11.6757 19.78ZM11.6077 19.808C11.6357 19.868 11.6237 19.92 11.6037 19.924C11.5877 19.932 11.5437 19.904 11.5157 19.844C11.4877 19.784 11.5037 19.732 11.5197 19.728C11.5357 19.72 11.5797 19.748 11.6037 19.808H11.6077Z" fill="#FF855A"/>
<path d="M11.6277 19.976C11.5717 20 11.5037 19.952 11.4677 19.864L11.5037 19.848C11.5317 19.912 11.5837 19.952 11.6157 19.94L11.6317 19.976H11.6277Z" fill="#FAEC22"/>
<path d="M11.5476 19.448C11.5116 19.356 11.4356 19.296 11.3716 19.32C11.3036 19.344 11.2796 19.436 11.3156 19.532C11.3516 19.628 11.4316 19.684 11.4956 19.66C11.5596 19.632 11.5836 19.544 11.5476 19.448ZM11.4756 19.476C11.4996 19.536 11.4836 19.588 11.4676 19.592C11.4516 19.596 11.4076 19.572 11.3836 19.508C11.3596 19.448 11.3756 19.396 11.3916 19.392C11.4076 19.388 11.4516 19.416 11.4716 19.476H11.4756Z" fill="#FF855A"/>
<path d="M11.4875 19.644C11.4315 19.664 11.3635 19.616 11.3315 19.528L11.3675 19.516C11.3915 19.58 11.4395 19.624 11.4755 19.608L11.4875 19.644Z" fill="#FAEC22"/>
<path d="M11.4316 19.108C11.3996 19.012 11.3276 18.952 11.2596 18.972C11.1916 18.992 11.1636 19.084 11.1996 19.184C11.2316 19.284 11.3116 19.34 11.3756 19.32C11.4436 19.296 11.4676 19.208 11.4356 19.108H11.4316ZM11.3596 19.132C11.3796 19.192 11.3636 19.244 11.3436 19.248C11.3236 19.252 11.2836 19.224 11.2636 19.16C11.2436 19.1 11.2596 19.048 11.2796 19.044C11.2956 19.04 11.3396 19.072 11.3596 19.132Z" fill="#FF855A"/>
<path d="M11.3676 19.3001C11.3116 19.3201 11.2436 19.2641 11.2156 19.1761L11.2516 19.1641C11.2716 19.2281 11.3236 19.2761 11.3556 19.2641L11.3676 19.3001Z" fill="#FAEC22"/>
<path d="M11.3237 18.7681C11.2957 18.6721 11.2197 18.6121 11.1557 18.6281C11.0877 18.6441 11.0597 18.7401 11.0837 18.8401C11.1117 18.9401 11.1877 19.0001 11.2557 18.9801C11.3237 18.9601 11.3477 18.8681 11.3237 18.7721V18.7681ZM11.2517 18.7841C11.2677 18.8441 11.2517 18.8961 11.2357 18.9001C11.2157 18.9041 11.1757 18.8721 11.1557 18.8121C11.1397 18.7521 11.1557 18.7001 11.1717 18.6961C11.1917 18.6921 11.2317 18.7241 11.2477 18.7841H11.2517Z" fill="#FF855A"/>
<path d="M11.2516 18.9559C11.1956 18.9719 11.1276 18.9199 11.1036 18.8319L11.1396 18.8199C11.1596 18.8879 11.2076 18.9319 11.2436 18.9239L11.2556 18.9599L11.2516 18.9559Z" fill="#FAEC22"/>
<path d="M11.2276 18.42C11.1996 18.324 11.1316 18.26 11.0636 18.276C10.9956 18.292 10.9636 18.384 10.9916 18.484C11.0196 18.584 11.0916 18.648 11.1596 18.628C11.2276 18.612 11.2596 18.52 11.2316 18.42H11.2276ZM11.1556 18.436C11.1716 18.5 11.1556 18.548 11.1356 18.552C11.1156 18.556 11.0756 18.524 11.0596 18.46C11.0436 18.4 11.0596 18.348 11.0796 18.344C11.0996 18.34 11.1396 18.372 11.1556 18.436Z" fill="#FF855A"/>
<path d="M11.1516 18.608C11.0916 18.624 11.0316 18.568 11.0076 18.476L11.0436 18.468C11.0596 18.536 11.1076 18.58 11.1436 18.572L11.1516 18.608Z" fill="#FAEC22"/>
<path d="M11.1436 18.072C11.1196 17.972 11.0516 17.908 10.9836 17.924C10.9156 17.94 10.8796 18.028 10.9036 18.128C10.9276 18.228 10.9996 18.292 11.0676 18.272C11.1356 18.256 11.1716 18.164 11.1436 18.068V18.072ZM11.0716 18.092C11.0876 18.156 11.0716 18.204 11.0476 18.208C11.0276 18.212 10.9876 18.18 10.9756 18.116C10.9596 18.052 10.9796 18.004 10.9996 18C11.0196 17.996 11.0596 18.028 11.0716 18.092Z" fill="#FF855A"/>
<path d="M11.0596 18.26C10.9996 18.276 10.9396 18.216 10.9196 18.124L10.9556 18.116C10.9716 18.184 11.0156 18.228 11.0516 18.22L11.0596 18.256V18.26Z" fill="#FAEC22"/>
<path d="M11.0596 17.724C11.0396 17.624 10.9676 17.556 10.9036 17.572C10.8356 17.588 10.7996 17.676 10.8236 17.776C10.8476 17.876 10.9156 17.944 10.9836 17.928C11.0516 17.912 11.0876 17.824 11.0636 17.724H11.0596ZM10.9876 17.74C11.0036 17.804 10.9836 17.852 10.9596 17.852C10.9396 17.856 10.8996 17.824 10.8876 17.76C10.8716 17.696 10.8916 17.648 10.9156 17.648C10.9356 17.648 10.9756 17.68 10.9876 17.74Z" fill="#FF855A"/>
<path d="M10.9756 17.904C10.9156 17.92 10.8596 17.856 10.8396 17.768L10.8756 17.76C10.8916 17.828 10.9356 17.876 10.9676 17.868L10.9756 17.904Z" fill="#FAEC22"/>
<path d="M10.9876 17.3681C10.9676 17.2681 10.8996 17.2001 10.8316 17.2121C10.7636 17.2241 10.7236 17.3161 10.7436 17.4121C10.7636 17.5121 10.8356 17.5801 10.8996 17.5681C10.9676 17.5521 11.0036 17.4641 10.9836 17.3681H10.9876ZM10.9156 17.3841C10.9276 17.4481 10.9076 17.4961 10.8876 17.4961C10.8676 17.4961 10.8316 17.4641 10.8156 17.4001C10.8036 17.3361 10.8236 17.2881 10.8436 17.2881C10.8636 17.2881 10.8996 17.3201 10.9156 17.3841Z" fill="#FF855A"/>
<path d="M10.8995 17.552C10.8395 17.564 10.7835 17.504 10.7635 17.412H10.7995C10.8155 17.472 10.8555 17.524 10.8915 17.516L10.8995 17.552Z" fill="#FAEC22"/>
<path d="M10.9196 17.012C10.9036 16.912 10.8356 16.844 10.7676 16.856C10.6996 16.868 10.6596 16.956 10.6756 17.056C10.6916 17.16 10.7636 17.224 10.8316 17.212C10.8996 17.2 10.9396 17.108 10.9196 17.012ZM10.8476 17.024C10.8596 17.088 10.8396 17.136 10.8196 17.136C10.7996 17.136 10.7636 17.104 10.7516 17.04C10.7396 16.976 10.7636 16.928 10.7796 16.928C10.7996 16.928 10.8356 16.964 10.8476 17.024Z" fill="#FF855A"/>
<path d="M10.8276 17.196C10.7676 17.208 10.7116 17.144 10.6956 17.056H10.7316C10.7436 17.116 10.7836 17.168 10.8236 17.16V17.196H10.8276Z" fill="#FAEC22"/>
<path d="M10.8596 16.66C10.8436 16.56 10.7796 16.492 10.7076 16.5C10.6396 16.512 10.5956 16.6 10.6156 16.7C10.6316 16.804 10.6996 16.868 10.7676 16.856C10.8356 16.844 10.8756 16.756 10.8596 16.656V16.66ZM10.7876 16.676C10.7996 16.74 10.7756 16.788 10.7556 16.788C10.7356 16.788 10.6996 16.756 10.6876 16.692C10.6756 16.628 10.6996 16.58 10.7196 16.58C10.7396 16.58 10.7756 16.616 10.7876 16.68V16.676Z" fill="#FF855A"/>
<path d="M10.7636 16.84C10.7036 16.848 10.6476 16.788 10.6316 16.696H10.6676C10.6796 16.756 10.7156 16.808 10.7556 16.804V16.84H10.7596H10.7636Z" fill="#FAEC22"/>
<path d="M10.8076 16.304C10.7916 16.204 10.7276 16.132 10.6596 16.144C10.5876 16.152 10.5476 16.24 10.5636 16.344C10.5796 16.448 10.6436 16.516 10.7116 16.504C10.7836 16.492 10.8236 16.408 10.8076 16.304ZM10.7356 16.316C10.7436 16.38 10.7236 16.428 10.7036 16.428C10.6836 16.428 10.6476 16.392 10.6396 16.328C10.6316 16.264 10.6556 16.216 10.6756 16.216C10.6956 16.216 10.7316 16.252 10.7396 16.316H10.7356Z" fill="#FF855A"/>
<path d="M10.7076 16.4801C10.6476 16.4881 10.5956 16.4241 10.5796 16.3361H10.6156C10.6236 16.3961 10.6636 16.4481 10.6996 16.4441V16.4801H10.7076Z" fill="#FAEC22"/>
<path d="M10.7556 15.944C10.7436 15.844 10.6796 15.772 10.6116 15.78C10.5396 15.788 10.4996 15.872 10.5116 15.976C10.5276 16.08 10.5916 16.148 10.6556 16.14C10.7276 16.132 10.7676 16.044 10.7556 15.944ZM10.6836 15.952C10.6916 16.016 10.6676 16.064 10.6476 16.064C10.6276 16.064 10.5916 16.028 10.5836 15.964C10.5756 15.9 10.5996 15.852 10.6196 15.852C10.6396 15.852 10.6756 15.888 10.6796 15.952H10.6836Z" fill="#FF855A"/>
<path d="M10.6556 16.124C10.5956 16.132 10.5436 16.068 10.5316 15.976H10.5676C10.5756 16.036 10.6156 16.088 10.6516 16.088V16.124H10.6556Z" fill="#FAEC22"/>
<path d="M10.7117 15.588C10.6997 15.488 10.6397 15.416 10.5677 15.42C10.4957 15.428 10.4557 15.512 10.4637 15.616C10.4717 15.72 10.5397 15.792 10.6077 15.784C10.6757 15.776 10.7197 15.692 10.7117 15.588ZM10.6397 15.596C10.6477 15.66 10.6237 15.708 10.6037 15.708C10.5837 15.708 10.5517 15.672 10.5437 15.608C10.5357 15.544 10.5597 15.496 10.5797 15.496C10.5997 15.496 10.6317 15.532 10.6397 15.596Z" fill="#FF855A"/>
<path d="M10.6076 15.764C10.5476 15.772 10.4956 15.704 10.4836 15.616H10.5196C10.5276 15.68 10.5676 15.732 10.5996 15.728V15.764H10.6076Z" fill="#FAEC22"/>
<path d="M10.6716 15.2321C10.6596 15.1321 10.5996 15.0561 10.5316 15.0641C10.4596 15.0681 10.4196 15.1561 10.4276 15.2561C10.4396 15.3601 10.4996 15.4321 10.5716 15.4241C10.6436 15.4161 10.6836 15.3321 10.6756 15.2321H10.6716ZM10.5996 15.2401C10.6036 15.3041 10.5836 15.3481 10.5636 15.3521C10.5436 15.3521 10.5116 15.3161 10.5036 15.2481C10.4996 15.1841 10.5196 15.1361 10.5396 15.1361C10.5596 15.1361 10.5916 15.1721 10.5996 15.2401Z" fill="#FF855A"/>
<path d="M10.5676 15.404C10.5076 15.408 10.4556 15.344 10.4436 15.252H10.4796C10.4836 15.316 10.5236 15.368 10.5596 15.364V15.4L10.5676 15.404Z" fill="#FAEC22"/>
<path d="M10.6357 14.872C10.6277 14.768 10.5637 14.696 10.4957 14.704C10.4237 14.708 10.3797 14.796 10.3877 14.896C10.3957 14.996 10.4597 15.072 10.5277 15.064C10.5997 15.06 10.6437 14.972 10.6317 14.872H10.6357ZM10.5637 14.876C10.5677 14.94 10.5437 14.984 10.5277 14.988C10.5077 14.988 10.4757 14.952 10.4677 14.884C10.4597 14.816 10.4877 14.772 10.5077 14.772C10.5277 14.772 10.5597 14.808 10.5677 14.876H10.5637Z" fill="#FF855A"/>
<path d="M10.5276 15.044C10.4676 15.048 10.4156 14.984 10.4076 14.892H10.4436C10.4476 14.956 10.4876 15.012 10.5236 15.008V15.044H10.5276Z" fill="#FAEC22"/>
<path d="M10.6076 14.508C10.5996 14.404 10.5396 14.332 10.4716 14.336C10.3996 14.34 10.3556 14.424 10.3596 14.524C10.3676 14.628 10.4316 14.7 10.4956 14.696C10.5676 14.692 10.6116 14.604 10.6036 14.508H10.6076ZM10.5356 14.512C10.5396 14.576 10.5156 14.62 10.4956 14.624C10.4756 14.624 10.4436 14.588 10.4356 14.52C10.4316 14.456 10.4556 14.412 10.4756 14.408C10.4956 14.408 10.5276 14.444 10.5356 14.512Z" fill="#FF855A"/>
<path d="M10.4956 14.68C10.4356 14.684 10.3836 14.62 10.3796 14.524H10.4156C10.4196 14.588 10.4556 14.644 10.4956 14.64V14.676V14.68Z" fill="#FAEC22"/>
<path d="M10.5796 14.1519C10.5756 14.0479 10.5156 13.9719 10.4436 13.9799C10.3716 13.9799 10.3236 14.0679 10.3316 14.1679C10.3356 14.2719 10.3996 14.3479 10.4676 14.3399C10.5396 14.3359 10.5836 14.2519 10.5796 14.1519ZM10.5076 14.1559C10.5076 14.2199 10.4876 14.2639 10.4676 14.2679C10.4476 14.2679 10.4156 14.2319 10.4116 14.1639C10.4116 14.0999 10.4356 14.0559 10.4556 14.0519C10.4756 14.0519 10.5076 14.0919 10.5116 14.1559H10.5076Z" fill="#FF855A"/>
<path d="M10.4676 14.324C10.4076 14.324 10.3556 14.26 10.3516 14.168H10.3876C10.3916 14.236 10.4276 14.288 10.4636 14.288V14.324H10.4676Z" fill="#FAEC22"/>
<path d="M10.5596 13.792C10.5556 13.688 10.4956 13.616 10.4276 13.616C10.3556 13.616 10.3076 13.7 10.3156 13.804C10.3196 13.908 10.3796 13.984 10.4516 13.98C10.5236 13.98 10.5716 13.892 10.5636 13.792H10.5596ZM10.4876 13.792C10.4876 13.856 10.4636 13.9 10.4436 13.904C10.4236 13.904 10.3916 13.868 10.3876 13.8C10.3876 13.736 10.4116 13.692 10.4316 13.688C10.4516 13.688 10.4836 13.728 10.4876 13.792Z" fill="#FF855A"/>
<path d="M10.4435 13.96C10.3835 13.96 10.3355 13.896 10.3315 13.804H10.3675C10.3675 13.872 10.4035 13.928 10.4435 13.924V13.96Z" fill="#FAEC22"/>
<path d="M10.5396 13.428C10.5396 13.324 10.4796 13.248 10.4076 13.252C10.3356 13.252 10.2876 13.336 10.2916 13.44C10.2916 13.544 10.3556 13.616 10.4236 13.616C10.4956 13.616 10.5436 13.532 10.5356 13.428H10.5396ZM10.4676 13.428C10.4676 13.492 10.4436 13.536 10.4236 13.536C10.4036 13.536 10.3716 13.496 10.3676 13.432C10.3676 13.368 10.3956 13.324 10.4116 13.324C10.4316 13.324 10.4636 13.364 10.4636 13.428H10.4676Z" fill="#FF855A"/>
<path d="M10.4236 13.6C10.3636 13.6 10.3156 13.532 10.3116 13.444H10.3476C10.3476 13.512 10.3836 13.568 10.4196 13.564V13.6H10.4236Z" fill="#FAEC22"/>
<path d="M10.5276 13.072C10.5276 12.968 10.4676 12.892 10.3996 12.892C10.3316 12.892 10.2756 12.972 10.2796 13.076C10.2796 13.18 10.3396 13.256 10.4076 13.256C10.4796 13.256 10.5276 13.172 10.5236 13.072H10.5276ZM10.4556 13.072C10.4556 13.136 10.4276 13.18 10.4076 13.18C10.3876 13.18 10.3596 13.14 10.3556 13.076C10.3556 13.012 10.3836 12.968 10.4036 12.968C10.4236 12.968 10.4516 13.008 10.4556 13.072Z" fill="#FF855A"/>
<path d="M10.4077 13.2361C10.3477 13.2361 10.2997 13.168 10.2957 13.076H10.3317C10.3317 13.144 10.3677 13.2001 10.4037 13.2001V13.2361H10.4077Z" fill="#FAEC22"/>
<path d="M10.5156 12.708C10.5156 12.604 10.4556 12.528 10.3916 12.528C10.3196 12.528 10.2676 12.608 10.2716 12.712C10.2716 12.816 10.3316 12.892 10.3996 12.892C10.4716 12.892 10.5196 12.812 10.5196 12.708H10.5156ZM10.4436 12.708C10.4436 12.772 10.4156 12.816 10.3956 12.816C10.3756 12.816 10.3476 12.776 10.3436 12.712C10.3436 12.648 10.3716 12.604 10.3916 12.604C10.4116 12.604 10.4396 12.644 10.4436 12.708Z" fill="#FF855A"/>
<path d="M10.3996 12.872C10.3396 12.872 10.2916 12.8 10.2916 12.712H10.3276C10.3276 12.78 10.3636 12.836 10.3996 12.836V12.872Z" fill="#FAEC22"/>
<path d="M10.5116 12.348C10.5116 12.244 10.4555 12.168 10.3875 12.168C10.3195 12.168 10.2635 12.248 10.2635 12.352C10.2635 12.456 10.3195 12.532 10.3875 12.532C10.4555 12.532 10.5116 12.452 10.5116 12.352V12.348ZM10.4396 12.348C10.4396 12.412 10.4115 12.456 10.3915 12.456C10.3715 12.456 10.3436 12.416 10.3436 12.348C10.3436 12.28 10.3715 12.24 10.3915 12.24C10.4115 12.24 10.4396 12.284 10.4396 12.348Z" fill="#FF855A"/>
<path d="M10.3916 12.5121C10.3316 12.5121 10.2876 12.4401 10.2836 12.3521H10.3196C10.3196 12.4201 10.3516 12.4761 10.3916 12.4761V12.5121Z" fill="#FAEC22"/>
<path d="M10.5116 11.984C10.5116 11.88 10.4515 11.8 10.3875 11.804C10.3155 11.804 10.2635 11.884 10.2675 11.984C10.2675 12.088 10.3235 12.164 10.3915 12.164C10.4595 12.164 10.5155 12.084 10.5155 11.984H10.5116ZM10.4396 11.984C10.4396 12.052 10.4115 12.092 10.3915 12.092C10.3715 12.092 10.3436 12.052 10.3436 11.984C10.3436 11.916 10.3715 11.876 10.3915 11.876C10.4115 11.876 10.4396 11.916 10.4396 11.984Z" fill="#FF855A"/>
<path d="M10.3876 12.148C10.3276 12.148 10.2836 12.076 10.2836 11.984H10.3196C10.3196 12.052 10.3516 12.108 10.3916 12.108V12.144L10.3876 12.148Z" fill="#FAEC22"/>
<path d="M10.4996 11.616C10.4996 11.512 10.4356 11.436 10.3676 11.44C10.2956 11.44 10.2516 11.524 10.2556 11.628C10.2596 11.728 10.3156 11.808 10.3876 11.804C10.4596 11.804 10.5116 11.72 10.5036 11.616H10.4996ZM10.4276 11.616C10.4276 11.684 10.4036 11.724 10.3836 11.724C10.3636 11.724 10.3316 11.684 10.3316 11.62C10.3316 11.556 10.3596 11.512 10.3756 11.512C10.3956 11.512 10.4276 11.552 10.4276 11.616Z" fill="#FF855A"/>
<path d="M10.3836 11.788C10.3236 11.788 10.2756 11.72 10.2716 11.632H10.3076C10.3076 11.7 10.3436 11.756 10.3796 11.752V11.788H10.3836Z" fill="#FAEC22"/>
<path d="M10.4796 11.252C10.4716 11.148 10.4076 11.076 10.3436 11.08C10.2716 11.084 10.2276 11.172 10.2356 11.268C10.2396 11.368 10.3036 11.444 10.3716 11.44C10.4436 11.44 10.4876 11.352 10.4836 11.252H10.4796ZM10.4076 11.256C10.4076 11.32 10.3836 11.364 10.3676 11.368C10.3476 11.368 10.3156 11.332 10.3116 11.264C10.3116 11.2 10.3316 11.156 10.3516 11.152C10.3716 11.152 10.4036 11.188 10.4116 11.256H10.4076Z" fill="#FF855A"/>
<path d="M10.3676 11.4239C10.3076 11.4239 10.2556 11.3599 10.2516 11.2679H10.2876C10.2916 11.3319 10.3236 11.3879 10.3636 11.3839V11.4199L10.3676 11.4239Z" fill="#FAEC22"/>
<path d="M10.4476 10.888C10.4356 10.784 10.3756 10.712 10.3036 10.72C10.2316 10.724 10.1916 10.812 10.1996 10.912C10.2116 11.012 10.2716 11.088 10.3396 11.08C10.4116 11.076 10.4556 10.988 10.4436 10.888H10.4476ZM10.3756 10.896C10.3796 10.96 10.3556 11.008 10.3396 11.008C10.3196 11.008 10.2876 10.972 10.2796 10.904C10.2756 10.84 10.2956 10.796 10.3156 10.792C10.3356 10.792 10.3676 10.828 10.3756 10.896Z" fill="#FF855A"/>
<path d="M10.3396 11.064C10.2796 11.068 10.2276 11.004 10.2196 10.912H10.2556C10.2636 10.976 10.2996 11.028 10.3356 11.024V11.06L10.3396 11.064Z" fill="#FAEC22"/>
<path d="M10.4076 10.528C10.3956 10.424 10.3316 10.352 10.2636 10.36C10.1956 10.368 10.1516 10.452 10.1636 10.556C10.1756 10.656 10.2396 10.728 10.3076 10.724C10.3796 10.716 10.4196 10.632 10.4116 10.528H10.4076ZM10.3356 10.536C10.3436 10.6 10.3196 10.648 10.2996 10.648C10.2796 10.648 10.2436 10.612 10.2396 10.548C10.2316 10.484 10.2556 10.436 10.2756 10.436C10.2956 10.436 10.3316 10.472 10.3356 10.536Z" fill="#FF855A"/>
<path d="M10.3036 10.7C10.2436 10.704 10.1916 10.64 10.1796 10.552H10.2156C10.2236 10.612 10.2636 10.664 10.2956 10.664V10.7H10.3036Z" fill="#FAEC22"/>
<path d="M10.3636 10.164C10.3476 10.06 10.2836 9.99203 10.2156 10C10.1436 10.008 10.1036 10.096 10.1196 10.196C10.1356 10.296 10.1996 10.368 10.2636 10.36C10.3316 10.352 10.3756 10.264 10.3636 10.164ZM10.2916 10.172C10.2996 10.236 10.2756 10.284 10.2556 10.284C10.2356 10.284 10.1996 10.248 10.1916 10.184C10.1836 10.12 10.2076 10.072 10.2276 10.072C10.2476 10.072 10.2836 10.108 10.2916 10.172Z" fill="#FF855A"/>
<path d="M10.2596 10.344C10.1996 10.352 10.1476 10.284 10.1356 10.2H10.1716C10.1796 10.26 10.2196 10.312 10.2556 10.308V10.344H10.2596Z" fill="#FAEC22"/>
<path d="M10.3116 9.80395C10.2956 9.69995 10.2316 9.63195 10.1636 9.64395C10.0956 9.65595 10.0516 9.73995 10.0716 9.84395C10.0876 9.94395 10.1516 10.0119 10.2196 10.0039C10.2876 9.99595 10.3316 9.90795 10.3156 9.80395H10.3116ZM10.2396 9.81595C10.2476 9.87995 10.2236 9.92795 10.2076 9.92795C10.1876 9.92795 10.1516 9.89195 10.1436 9.82795C10.1356 9.76395 10.1556 9.71595 10.1756 9.71595C10.1956 9.71595 10.2316 9.75195 10.2396 9.81595Z" fill="#FF855A"/>
<path d="M10.2116 9.98397C10.1516 9.99197 10.0996 9.92797 10.0836 9.83997H10.1196C10.1276 9.89997 10.1676 9.95197 10.2036 9.94797V9.98397H10.2116Z" fill="#FAEC22"/>
<path d="M10.2556 9.44799C10.2396 9.34799 10.1756 9.27999 10.1036 9.28799C10.0356 9.29999 9.99557 9.38799 10.0116 9.48799C10.0276 9.58799 10.0916 9.65599 10.1636 9.64799C10.2316 9.63599 10.2756 9.54799 10.2556 9.44799ZM10.1836 9.45999C10.1956 9.52399 10.1716 9.57199 10.1516 9.57199C10.1316 9.57199 10.0956 9.53999 10.0836 9.47199C10.0716 9.40799 10.0956 9.35999 10.1156 9.35999C10.1356 9.35999 10.1716 9.39599 10.1836 9.45999Z" fill="#FF855A"/>
<path d="M10.1596 9.62398C10.0996 9.63198 10.0476 9.56798 10.0316 9.47998H10.0676C10.0796 9.53998 10.1156 9.59198 10.1556 9.58798V9.62398H10.1596Z" fill="#FAEC22"/>
<path d="M10.1916 9.08803C10.1756 8.98803 10.1076 8.92004 10.0396 8.93204C9.97161 8.94404 9.93161 9.03204 9.94761 9.13204C9.96361 9.23204 10.0316 9.30003 10.0996 9.28803C10.1676 9.27603 10.2076 9.18803 10.1916 9.08803ZM10.1196 9.10004C10.1316 9.16404 10.1076 9.21204 10.0876 9.21204C10.0676 9.21204 10.0316 9.18004 10.0196 9.11604C10.0076 9.05204 10.0316 9.00404 10.0516 9.00404C10.0716 9.00404 10.1076 9.04004 10.1196 9.10004Z" fill="#FF855A"/>
<path d="M10.0997 9.26802C10.0397 9.27602 9.98365 9.21602 9.96765 9.12402H10.0037C10.0157 9.18402 10.0557 9.23602 10.0917 9.23202V9.26802H10.0957H10.0997Z" fill="#FAEC22"/>
<path d="M10.1315 8.72805C10.1155 8.62805 10.0475 8.56005 9.97955 8.57205C9.91155 8.58405 9.87155 8.67205 9.88755 8.77205C9.90355 8.87205 9.97155 8.94005 10.0395 8.92805C10.1075 8.91605 10.1475 8.82805 10.1315 8.72805ZM10.0595 8.74005C10.0715 8.80405 10.0475 8.85205 10.0315 8.85205C10.0115 8.85205 9.97555 8.82005 9.96355 8.75605C9.95155 8.69205 9.97555 8.64405 9.99155 8.64405C10.0115 8.64405 10.0475 8.67605 10.0595 8.74005Z" fill="#FF855A"/>
<path d="M10.0396 8.90804C9.97959 8.91604 9.92359 8.85604 9.90759 8.76404H9.94359C9.95559 8.82404 9.99559 8.87604 10.0316 8.86804V8.90404L10.0396 8.90804Z" fill="#FAEC22"/>
<path d="M10.0676 8.37197C10.0516 8.27197 9.98356 8.20397 9.91156 8.21597C9.84356 8.22797 9.80355 8.31597 9.81955 8.41597C9.83555 8.51597 9.90356 8.58397 9.97556 8.57197C10.0436 8.55997 10.0836 8.47197 10.0676 8.37197ZM9.99556 8.38397C10.0076 8.44797 9.98756 8.49597 9.96756 8.49597C9.94756 8.49597 9.91156 8.46397 9.89956 8.39997C9.88756 8.33597 9.91156 8.28797 9.92756 8.28797C9.94756 8.28797 9.98356 8.31997 9.99556 8.38397Z" fill="#FF855A"/>
<path d="M9.97563 8.55196C9.91563 8.56396 9.85963 8.49996 9.84363 8.40796H9.87963C9.89163 8.46796 9.93163 8.51996 9.96763 8.51196V8.54796L9.97563 8.55196Z" fill="#FAEC22"/>
<path d="M10.0036 8.01199C9.98758 7.91199 9.91958 7.84399 9.84758 7.85599C9.77558 7.86799 9.73958 7.95599 9.75558 8.05599C9.77158 8.15599 9.83958 8.22399 9.91158 8.21199C9.97958 8.19999 10.0196 8.11199 10.0036 8.01199ZM9.93158 8.02399C9.94358 8.08799 9.92358 8.13599 9.90358 8.13599C9.88358 8.13599 9.84758 8.10399 9.83558 8.03999C9.82358 7.97599 9.84758 7.92799 9.86358 7.92799C9.88358 7.92799 9.91958 7.95999 9.93158 8.02399Z" fill="#FF855A"/>
<path d="M9.91154 8.196C9.85154 8.208 9.79554 8.144 9.77954 8.052H9.81554C9.82754 8.112 9.86754 8.164 9.90754 8.156V8.192L9.91154 8.196Z" fill="#FAEC22"/>
<path d="M9.94356 7.65603C9.92756 7.55603 9.85956 7.48803 9.79156 7.50003C9.72356 7.51203 9.68356 7.60003 9.69956 7.70003C9.71556 7.80003 9.78356 7.86803 9.85556 7.85603C9.92356 7.84403 9.96356 7.75603 9.94756 7.65603H9.94356ZM9.87156 7.66803C9.88356 7.73203 9.86356 7.78003 9.84356 7.78003C9.82356 7.78003 9.78756 7.74803 9.77556 7.68403C9.76356 7.62003 9.78756 7.57203 9.80356 7.57203C9.81956 7.57203 9.85956 7.60403 9.87156 7.66803Z" fill="#FF855A"/>
<path d="M9.84758 7.84005C9.78758 7.85205 9.73158 7.78804 9.71558 7.69604H9.75158C9.76358 7.75604 9.80358 7.80805 9.83958 7.80005V7.83605L9.84758 7.84005Z" fill="#FAEC22"/>
<path d="M9.87959 7.29995C9.86359 7.19995 9.79559 7.13195 9.72759 7.14395C9.65959 7.15595 9.6196 7.24395 9.6356 7.34395C9.6516 7.44395 9.71959 7.51195 9.78759 7.49995C9.85559 7.48795 9.89559 7.39995 9.87959 7.29995ZM9.8076 7.31195C9.8196 7.37595 9.79559 7.42395 9.77959 7.42395C9.75959 7.42395 9.7236 7.39195 9.7116 7.32795C9.6996 7.26395 9.7236 7.21595 9.7396 7.21595C9.7596 7.21595 9.7956 7.25195 9.8076 7.31195Z" fill="#FF855A"/>
<path d="M9.78361 7.48397C9.72361 7.49197 9.66761 7.43197 9.65161 7.33997H9.68761C9.69961 7.39997 9.73961 7.45197 9.77561 7.44397V7.47997L9.78361 7.48397Z" fill="#FAEC22"/>
<path d="M9.81965 6.94399C9.80365 6.84399 9.73965 6.77599 9.66765 6.78799C9.59965 6.79999 9.55565 6.88799 9.57565 6.98799C9.59165 7.08799 9.65965 7.15599 9.72765 7.14399C9.79565 7.13199 9.83565 7.04399 9.81965 6.94399ZM9.74765 6.95599C9.75965 7.01999 9.73565 7.06799 9.71565 7.06799C9.69565 7.06799 9.65965 7.03599 9.64765 6.97199C9.63565 6.90799 9.65965 6.85999 9.67965 6.85999C9.69965 6.85999 9.73565 6.89599 9.74765 6.95599Z" fill="#FF855A"/>
<path d="M9.72355 7.12801C9.66355 7.13601 9.60755 7.07601 9.59155 6.98401H9.62755C9.63955 7.04401 9.67955 7.09601 9.71555 7.09201V7.12801H9.71955H9.72355Z" fill="#FAEC22"/>
<path d="M9.75962 6.58801C9.74362 6.48801 9.67962 6.42001 9.61162 6.42801C9.54362 6.43601 9.49962 6.52401 9.51562 6.62801C9.53162 6.73201 9.59562 6.80001 9.66362 6.78801C9.73562 6.77601 9.77162 6.68801 9.75562 6.58801H9.75962ZM9.68762 6.60001C9.69562 6.66401 9.67562 6.71201 9.65562 6.71201C9.63562 6.71201 9.59962 6.68001 9.59162 6.61201C9.58362 6.54801 9.60762 6.50001 9.62362 6.50001C9.64362 6.50001 9.67962 6.53601 9.68762 6.60001Z" fill="#FF855A"/>
<path d="M9.66364 6.76802C9.60364 6.77602 9.54764 6.71202 9.53564 6.62402H9.57164C9.57964 6.68402 9.61964 6.73602 9.65964 6.73202V6.76802H9.66364Z" fill="#FAEC22"/>
<path d="M9.70766 6.23199C9.69166 6.13199 9.62766 6.05999 9.56366 6.06799C9.49166 6.07599 9.45166 6.16399 9.46366 6.26399C9.47966 6.36799 9.54366 6.43599 9.61166 6.42799C9.67966 6.41999 9.72366 6.33199 9.70766 6.23199ZM9.63566 6.23999C9.64366 6.30399 9.61966 6.35199 9.59966 6.35199C9.57966 6.35199 9.54366 6.31599 9.53566 6.25199C9.52766 6.18799 9.55166 6.13999 9.57166 6.13999C9.59166 6.13999 9.62766 6.17599 9.63566 6.23999Z" fill="#FF855A"/>
<path d="M9.61155 6.41194C9.55155 6.41994 9.49955 6.35594 9.48755 6.26794H9.52355C9.53155 6.32794 9.57155 6.37994 9.60755 6.37594V6.41194H9.61155Z" fill="#FAEC22"/>
<path d="M9.66356 5.87604C9.65156 5.77604 9.59156 5.70404 9.51956 5.70804C9.44756 5.71204 9.40756 5.80004 9.41556 5.90404C9.42756 6.00804 9.49156 6.08004 9.55956 6.07204C9.63156 6.06404 9.67156 5.98004 9.65956 5.87604H9.66356ZM9.59156 5.88404C9.59956 5.94804 9.57556 5.99604 9.55556 5.99604C9.53556 5.99604 9.49956 5.96004 9.49556 5.89604C9.48756 5.83204 9.51156 5.78404 9.53156 5.78404C9.55156 5.78404 9.58356 5.82004 9.59156 5.88404Z" fill="#FF855A"/>
<path d="M9.55955 6.05205C9.49955 6.06005 9.44755 5.99205 9.43555 5.90405H9.47155C9.47955 5.96805 9.51955 6.02005 9.55155 6.01605V6.05205H9.55955Z" fill="#FAEC22"/>
<path d="M9.62762 5.52002C9.61962 5.42002 9.55562 5.34402 9.49162 5.35202C9.41962 5.35602 9.37562 5.44402 9.38362 5.54402C9.39162 5.64802 9.45562 5.72002 9.52362 5.71202C9.59562 5.70402 9.63562 5.62002 9.62762 5.52002ZM9.55562 5.52402C9.55962 5.58802 9.53562 5.63202 9.51562 5.63602C9.49562 5.63602 9.46362 5.60002 9.45562 5.53202C9.45162 5.46802 9.47563 5.42002 9.49562 5.42002C9.51562 5.42002 9.54762 5.45602 9.55562 5.52402Z" fill="#FF855A"/>
<path d="M9.51966 5.69204C9.45966 5.69604 9.40766 5.63204 9.39966 5.54004H9.43566C9.43966 5.60404 9.47966 5.66004 9.51566 5.65604V5.69204H9.51966Z" fill="#FAEC22"/>
<path d="M9.59964 5.16404C9.59564 5.06404 9.53964 4.98804 9.46764 4.98804C9.39564 4.98804 9.34364 5.07204 9.35164 5.17604C9.35564 5.28004 9.41964 5.35604 9.48764 5.35204C9.55964 5.34804 9.60364 5.26404 9.59964 5.16404ZM9.52764 5.16404C9.52764 5.22804 9.50364 5.27204 9.48364 5.27604C9.46364 5.27604 9.43164 5.24004 9.42764 5.17204C9.42764 5.10804 9.45564 5.06404 9.47164 5.06004C9.49164 5.06004 9.51964 5.10004 9.52764 5.16404Z" fill="#FF855A"/>
<path d="M9.48758 5.33203C9.42758 5.33603 9.37558 5.26803 9.37158 5.17603H9.40758C9.41158 5.24403 9.44358 5.30003 9.48358 5.29603V5.33203H9.48758Z" fill="#FAEC22"/>
<path d="M9.5876 4.80805C9.5876 4.70805 9.5356 4.62805 9.4636 4.62805C9.3916 4.62805 9.3396 4.70805 9.3396 4.80805C9.3396 4.91205 9.3996 4.99205 9.4676 4.98805C9.5396 4.98805 9.5876 4.90805 9.5876 4.80805ZM9.5156 4.80805C9.5156 4.87205 9.4876 4.91605 9.4676 4.91605C9.4476 4.91605 9.4196 4.87605 9.4196 4.80805C9.4196 4.74405 9.4476 4.70005 9.4676 4.70005C9.4876 4.70005 9.5156 4.74405 9.5156 4.80805Z" fill="#FF855A"/>
<path d="M9.46762 4.97201C9.40762 4.97201 9.35962 4.90001 9.35962 4.81201H9.39562C9.39562 4.88401 9.42762 4.93601 9.46762 4.93601V4.97201Z" fill="#FAEC22"/>
<path d="M9.59566 4.45198C9.60366 4.35198 9.55566 4.27198 9.48766 4.26398C9.41566 4.25598 9.35966 4.33598 9.35166 4.43598C9.34766 4.53998 9.39966 4.62398 9.46766 4.62398C9.53966 4.62398 9.59166 4.54798 9.59966 4.44798L9.59566 4.45198ZM9.52366 4.45198C9.51966 4.51598 9.49166 4.55598 9.47166 4.55598C9.45166 4.55598 9.42366 4.51198 9.42766 4.44398C9.43166 4.37998 9.46366 4.33998 9.48766 4.33998C9.51166 4.33998 9.53566 4.38798 9.52766 4.45198H9.52366Z" fill="#FF855A"/>
<path d="M9.46756 4.60404C9.40756 4.60404 9.36356 4.52804 9.36756 4.43604H9.40356C9.39956 4.50804 9.43156 4.56804 9.46356 4.56804V4.60404H9.46756Z" fill="#FAEC22"/>
<path d="M9.63156 4.10396C9.64756 4.01196 9.61156 3.92396 9.54356 3.90396C9.47556 3.88796 9.40756 3.95996 9.38756 4.06396C9.37156 4.16796 9.41556 4.25596 9.48756 4.26396C9.55956 4.26796 9.61956 4.19996 9.63156 4.10396ZM9.55956 4.09196C9.55156 4.15596 9.51956 4.19596 9.49956 4.19196C9.47956 4.19196 9.45556 4.14396 9.46356 4.07996C9.47556 4.01596 9.51156 3.97596 9.53156 3.98396C9.55156 3.98396 9.57156 4.03196 9.55956 4.09596V4.09196Z" fill="#FF855A"/>
<path d="M9.49157 4.24396C9.43157 4.23996 9.39557 4.15996 9.40757 4.06396H9.44357C9.43557 4.13996 9.45957 4.19996 9.49557 4.20396V4.23997L9.49157 4.24396Z" fill="#FAEC22"/>
<path d="M9.70763 3.76398C9.73963 3.67598 9.71163 3.58798 9.65163 3.55598C9.58763 3.52798 9.50763 3.58398 9.47163 3.69198C9.44363 3.79598 9.47163 3.89198 9.54363 3.90398C9.61163 3.91998 9.68363 3.85598 9.70763 3.76398ZM9.63563 3.74798C9.61963 3.80798 9.57963 3.83998 9.55963 3.83998C9.53963 3.83598 9.52363 3.78798 9.53963 3.72398C9.56363 3.65998 9.60363 3.63198 9.61963 3.63598C9.63563 3.63998 9.65163 3.69198 9.63163 3.75198L9.63563 3.74798Z" fill="#FF855A"/>
<path d="M9.54759 3.88795C9.48759 3.87595 9.46359 3.79195 9.48759 3.69995L9.52359 3.71195C9.50759 3.77995 9.52359 3.84795 9.55559 3.85195L9.54759 3.88795Z" fill="#FAEC22"/>
<path d="M9.83959 3.45998C9.88359 3.37998 9.88759 3.29198 9.83159 3.24798C9.80359 3.22798 9.76759 3.22398 9.72759 3.24398C9.68759 3.25998 9.65159 3.29198 9.62359 3.34398C9.59559 3.39198 9.58759 3.44398 9.59559 3.47998C9.59959 3.51998 9.62359 3.55198 9.65559 3.56398C9.68759 3.57998 9.72359 3.57198 9.75959 3.55198C9.79159 3.53598 9.81959 3.50398 9.84759 3.45998H9.84359H9.83959ZM9.77559 3.42398C9.74359 3.47598 9.70359 3.50398 9.68359 3.49598C9.66759 3.48798 9.65559 3.43598 9.68759 3.37598C9.71959 3.31598 9.76759 3.29598 9.78759 3.30798C9.80359 3.31998 9.80359 3.36798 9.77559 3.42398Z" fill="#FF855A"/>
<path d="M9.65957 3.54399C9.63157 3.53199 9.61557 3.50799 9.61157 3.46799V3.40799C9.61557 3.38799 9.62757 3.36799 9.63957 3.34399L9.67157 3.35999C9.63557 3.41999 9.64357 3.49199 9.67157 3.50399L9.65557 3.53999L9.65957 3.54399Z" fill="#FAEC22"/>
<path d="M10.0357 3.19199C10.0677 3.15999 10.0877 3.11999 10.0957 3.07999C10.1037 3.04399 10.0957 3.00799 10.0797 2.97999C10.0557 2.95199 10.0197 2.94399 9.97965 2.94799C9.93965 2.95599 9.89565 2.97999 9.85565 3.01999C9.81965 3.05999 9.79565 3.10799 9.79565 3.14799C9.79565 3.18799 9.80365 3.22399 9.83165 3.24399C9.85965 3.26399 9.89565 3.26799 9.93165 3.25599C9.96765 3.24799 10.0077 3.22399 10.0357 3.18799V3.19199ZM9.97965 3.14399C9.93965 3.19199 9.88765 3.20399 9.87565 3.19199C9.85965 3.17999 9.86365 3.12799 9.91165 3.07999C9.95965 3.03199 10.0117 3.02399 10.0237 3.03999C10.0357 3.05599 10.0237 3.10399 9.98365 3.14799L9.97965 3.14399Z" fill="#FF855A"/>
<path d="M9.83964 3.23201C9.79164 3.19601 9.80364 3.10801 9.86764 3.03601L9.89564 3.06401C9.84764 3.12001 9.83564 3.18401 9.86364 3.20801C9.85564 3.21601 9.84764 3.22801 9.83964 3.23601V3.23201Z" fill="#FAEC22"/>
<path d="M10.2915 2.97606C10.3715 2.92406 10.4075 2.84006 10.3755 2.78006C10.3595 2.74806 10.3275 2.73206 10.2835 2.73206C10.2395 2.73206 10.1915 2.74006 10.1475 2.77206C10.0555 2.83206 10.0275 2.93206 10.0715 2.98406C10.1195 3.03606 10.2075 3.02806 10.2835 2.98006L10.2915 2.97606ZM10.2515 2.91206C10.1995 2.94806 10.1475 2.94806 10.1395 2.93206C10.1235 2.91606 10.1435 2.86806 10.1995 2.82806C10.2555 2.79206 10.3075 2.79606 10.3195 2.81206C10.3315 2.82806 10.3075 2.87206 10.2555 2.90806L10.2515 2.91206Z" fill="#FF855A"/>
<path d="M10.0916 2.97196C10.0556 2.92796 10.0836 2.83996 10.1636 2.78796L10.1836 2.81996C10.1236 2.85996 10.0956 2.91996 10.1196 2.95196L10.0916 2.97596V2.97196Z" fill="#FAEC22"/>
<path d="M10.5876 2.81196C10.6756 2.77596 10.7316 2.69996 10.7076 2.63196C10.6876 2.56796 10.5876 2.53996 10.4876 2.58396C10.4396 2.60396 10.3996 2.63996 10.3796 2.67596C10.3596 2.71196 10.3556 2.74796 10.3716 2.77996C10.3876 2.80796 10.4196 2.82796 10.4596 2.83596C10.4956 2.83996 10.5396 2.83596 10.5836 2.81596L10.5876 2.81196ZM10.5596 2.74396C10.4996 2.76796 10.4516 2.75996 10.4436 2.74396C10.4356 2.72796 10.4596 2.67996 10.5236 2.65196C10.5836 2.62396 10.6356 2.63596 10.6436 2.65596C10.6476 2.67196 10.6196 2.71596 10.5636 2.73996L10.5596 2.74396Z" fill="#FF855A"/>
<path d="M10.3917 2.76798C10.3757 2.73998 10.3837 2.70798 10.3997 2.67998C10.4157 2.64798 10.4517 2.61998 10.4957 2.59998L10.5117 2.63598C10.4477 2.66398 10.4077 2.71998 10.4237 2.75198L10.3917 2.76798Z" fill="#FAEC22"/>
<path d="M10.9156 2.70405C10.9636 2.69205 11.0036 2.66805 11.0276 2.64005C11.0556 2.61205 11.0636 2.58005 11.0596 2.54405C11.0556 2.50805 11.0276 2.48405 10.9876 2.46805C10.9516 2.45205 10.8996 2.45205 10.8516 2.46805C10.7476 2.49605 10.6876 2.57205 10.7116 2.64005C10.7356 2.70405 10.8236 2.73205 10.9156 2.70805V2.70405ZM10.8956 2.62805C10.8356 2.64405 10.7876 2.62805 10.7796 2.61205C10.7756 2.59605 10.8076 2.55205 10.8716 2.53205C10.9356 2.51605 10.9836 2.53205 10.9876 2.55205C10.9876 2.57205 10.9596 2.61205 10.8956 2.62405V2.62805Z" fill="#FF855A"/>
<path d="M10.7276 2.62798C10.7076 2.57198 10.7636 2.50398 10.8556 2.47998L10.8636 2.51598C10.7956 2.53198 10.7516 2.58398 10.7596 2.61998C10.7476 2.61998 10.7356 2.62398 10.7236 2.63198L10.7276 2.62798Z" fill="#FAEC22"/>
<path d="M11.2556 2.63196C11.3516 2.61596 11.4236 2.55596 11.4156 2.48796C11.4116 2.41996 11.3236 2.37596 11.2156 2.39196C11.1116 2.40796 11.0396 2.47996 11.0556 2.54796C11.0716 2.61596 11.1556 2.65196 11.2556 2.63996V2.63196ZM11.2436 2.55596C11.1796 2.56796 11.1316 2.54396 11.1316 2.52396C11.1316 2.50396 11.1636 2.46796 11.2316 2.45596C11.2956 2.44396 11.3436 2.47196 11.3436 2.49196C11.3436 2.51196 11.3076 2.54396 11.2436 2.55596Z" fill="#FF855A"/>
<path d="M11.0756 2.53996C11.0636 2.47996 11.1236 2.41996 11.2196 2.40796V2.44396C11.1556 2.45596 11.1076 2.49596 11.1116 2.53196L11.0756 2.53996Z" fill="#FAEC22"/>
<path d="M11.6076 2.59201C11.7076 2.58401 11.7836 2.52801 11.7796 2.45601C11.7796 2.38401 11.6956 2.33601 11.5916 2.34401C11.4876 2.35201 11.4156 2.41601 11.4196 2.48401C11.4276 2.55601 11.5116 2.59601 11.6076 2.59201ZM11.6036 2.52001C11.5396 2.52001 11.4956 2.50001 11.4916 2.48001C11.4916 2.46001 11.5276 2.42401 11.5956 2.42001C11.6596 2.41601 11.7076 2.44401 11.7076 2.46001C11.7076 2.47601 11.6676 2.51201 11.6036 2.51601V2.52001Z" fill="#FF855A"/>
<path d="M11.4316 2.48401C11.4276 2.42401 11.4916 2.37201 11.5876 2.36401V2.40001C11.5196 2.40001 11.4636 2.44401 11.4716 2.48001H11.4356L11.4316 2.48401Z" fill="#FAEC22"/>
<path d="M11.9597 2.576C12.0597 2.576 12.1397 2.52 12.1397 2.452C12.1397 2.38 12.0597 2.328 11.9557 2.328C11.8517 2.328 11.7717 2.388 11.7757 2.456C11.7757 2.528 11.8597 2.576 11.9597 2.576ZM11.9597 2.5C11.8957 2.5 11.8517 2.472 11.8517 2.452C11.8517 2.432 11.8917 2.404 11.9557 2.4C12.0197 2.4 12.0637 2.428 12.0637 2.448C12.0637 2.468 12.0197 2.496 11.9597 2.496V2.5Z" fill="#FF855A"/>
<path d="M11.7957 2.45602C11.7957 2.39602 11.8637 2.34802 11.9557 2.34802V2.38402C11.8877 2.38402 11.8317 2.42002 11.8317 2.45602H11.7957Z" fill="#FAEC22"/>
<path d="M12.3196 2.58003C12.4196 2.58003 12.4996 2.53203 12.5036 2.46403C12.5036 2.39203 12.4316 2.33603 12.3236 2.33203C12.2196 2.33203 12.1396 2.38003 12.1396 2.45203C12.1396 2.52403 12.2156 2.57603 12.3196 2.58003ZM12.3196 2.50803C12.2556 2.50803 12.2156 2.47603 12.2156 2.45603C12.2156 2.43603 12.2596 2.40803 12.3236 2.40803C12.3876 2.40803 12.4276 2.44403 12.4276 2.46003C12.4276 2.48003 12.3836 2.50803 12.3196 2.50803Z" fill="#FF855A"/>
<path d="M12.1556 2.45202C12.1556 2.39202 12.2276 2.34802 12.3236 2.34802V2.38402C12.2516 2.38402 12.1956 2.41202 12.1956 2.44802H12.1596L12.1556 2.45202Z" fill="#FAEC22"/>
<path d="M12.6756 2.59601C12.7796 2.60001 12.8596 2.55201 12.8636 2.48401C12.8636 2.41201 12.7916 2.35601 12.6876 2.34801C12.5836 2.34401 12.5036 2.39201 12.4996 2.46001C12.4996 2.53201 12.5716 2.58801 12.6756 2.59201V2.59601ZM12.6756 2.52401C12.6116 2.52401 12.5716 2.48801 12.5716 2.46801C12.5716 2.44801 12.6156 2.42001 12.6836 2.42401C12.7476 2.42401 12.7876 2.46001 12.7876 2.48001C12.7876 2.50001 12.7396 2.52801 12.6756 2.52401Z" fill="#FF855A"/>
<path d="M12.5197 2.46401C12.5197 2.40401 12.5957 2.36001 12.6877 2.36801V2.40401C12.6157 2.40401 12.5597 2.42801 12.5557 2.46401H12.5197Z" fill="#FAEC22"/>
<path d="M13.0396 2.61604C13.1476 2.61604 13.2236 2.56804 13.2276 2.50004C13.2276 2.42804 13.1476 2.37204 13.0516 2.36804C12.9516 2.36804 12.8716 2.41204 12.8636 2.48004C12.8636 2.55204 12.9356 2.60804 13.0396 2.61204V2.61604ZM13.0396 2.54404C12.9716 2.54404 12.9356 2.50804 12.9356 2.48804C12.9356 2.46804 12.9796 2.44004 13.0436 2.44404C13.1076 2.44404 13.1476 2.47604 13.1476 2.49604C13.1476 2.51604 13.1036 2.54404 13.0396 2.54404Z" fill="#FF855A"/>
<path d="M12.8796 2.48397C12.8796 2.42397 12.9596 2.38397 13.0476 2.38797V2.42397C12.9796 2.42397 12.9196 2.45197 12.9196 2.48397H12.8836H12.8796Z" fill="#FAEC22"/>
<path d="M13.3956 2.63205C13.4916 2.64005 13.5756 2.60405 13.5836 2.53205C13.5956 2.46405 13.5236 2.39605 13.4156 2.38805C13.3116 2.38405 13.2276 2.43205 13.2236 2.50005C13.2236 2.57205 13.2956 2.62805 13.3916 2.63605L13.3956 2.63205ZM13.3996 2.55605C13.3356 2.55605 13.2956 2.52005 13.2956 2.50005C13.2956 2.48005 13.3396 2.45205 13.4076 2.45605C13.4716 2.45605 13.5116 2.50005 13.5116 2.51605C13.5116 2.53605 13.4636 2.55605 13.3996 2.55205V2.55605Z" fill="#FF855A"/>
<path d="M13.2437 2.50002C13.2437 2.44002 13.3237 2.39602 13.4157 2.40402V2.44002C13.3437 2.44002 13.2797 2.46402 13.2797 2.50002H13.2437Z" fill="#FAEC22"/>
<path d="M13.7356 2.684C13.8276 2.708 13.9156 2.676 13.9396 2.608C13.9596 2.54 13.8956 2.468 13.7916 2.44C13.7636 2.436 13.7436 2.428 13.7156 2.432C13.6916 2.432 13.6716 2.44 13.6516 2.448C13.6156 2.464 13.5916 2.492 13.5836 2.528C13.5796 2.564 13.5916 2.596 13.6196 2.62C13.6356 2.636 13.6476 2.644 13.6676 2.656C13.6876 2.664 13.7076 2.676 13.7316 2.684H13.7356ZM13.7516 2.612C13.6916 2.596 13.6556 2.564 13.6596 2.54C13.6596 2.52 13.7076 2.496 13.7756 2.512C13.8396 2.528 13.8756 2.568 13.8676 2.588C13.8636 2.604 13.8156 2.624 13.7556 2.612H13.7516Z" fill="#FF855A"/>
<path d="M13.6036 2.53603C13.6076 2.50803 13.6316 2.48403 13.6636 2.46803C13.6796 2.46403 13.6996 2.45603 13.7196 2.45203C13.7396 2.45203 13.7636 2.45203 13.7876 2.46003L13.7796 2.49603C13.7116 2.47603 13.6476 2.50003 13.6436 2.53603H13.6076H13.6036Z" fill="#FAEC22"/>
<path d="M14.0636 2.78799C14.0876 2.79599 14.1076 2.79999 14.1316 2.80399C14.1516 2.80399 14.1716 2.80399 14.1916 2.80399C14.2276 2.79999 14.2596 2.77999 14.2756 2.74799C14.2916 2.71599 14.2876 2.67999 14.2676 2.64399C14.2556 2.62799 14.2436 2.60799 14.2236 2.59599C14.2076 2.57999 14.1836 2.56799 14.1556 2.55999C14.0516 2.52399 13.9596 2.54399 13.9396 2.61199C13.9236 2.67599 13.9756 2.75599 14.0636 2.79199V2.78799ZM14.0916 2.71599C14.0316 2.69199 14.0036 2.65199 14.0116 2.63199C14.0196 2.61199 14.0676 2.59999 14.1316 2.62399C14.1636 2.63599 14.1836 2.65199 14.1996 2.66799C14.2116 2.68399 14.2156 2.70399 14.2156 2.71199C14.2156 2.71999 14.1996 2.72799 14.1796 2.72799C14.1596 2.72799 14.1316 2.72799 14.0996 2.71599H14.0916Z" fill="#FF855A"/>
<path d="M13.9596 2.616C13.9756 2.56 14.0636 2.544 14.1516 2.576L14.1356 2.612C14.0676 2.588 14.0036 2.596 13.9916 2.632L13.9556 2.62L13.9596 2.616Z" fill="#FAEC22"/>
<path d="M14.3676 2.94004C14.4476 2.99204 14.5396 2.98804 14.5836 2.94004C14.6276 2.88404 14.5876 2.79604 14.4996 2.73204C14.4556 2.70004 14.4036 2.69604 14.3636 2.69604C14.3236 2.69604 14.2916 2.72004 14.2756 2.74804C14.2596 2.78004 14.2636 2.81605 14.2796 2.85205C14.2956 2.88805 14.3276 2.91205 14.3676 2.94405V2.94004ZM14.4036 2.87605C14.3756 2.86005 14.3596 2.84005 14.3476 2.82005C14.3356 2.80405 14.3316 2.78804 14.3396 2.78004C14.3436 2.77204 14.3596 2.76404 14.3796 2.76404C14.4036 2.76404 14.4276 2.76805 14.4556 2.79205C14.5116 2.82805 14.5276 2.87604 14.5196 2.89604C14.5076 2.91204 14.4556 2.91204 14.4076 2.88004L14.4036 2.87605Z" fill="#FF855A"/>
<path d="M14.2916 2.75604C14.3076 2.72804 14.3316 2.71604 14.3716 2.71204C14.4076 2.71204 14.4516 2.71604 14.4916 2.74804L14.4716 2.78004C14.4716 2.78004 14.4436 2.76404 14.4276 2.75604C14.4116 2.75604 14.3996 2.75204 14.3836 2.75204C14.3556 2.75204 14.3356 2.76004 14.3276 2.77604L14.2956 2.76004L14.2916 2.75604Z" fill="#FAEC22"/>
<path d="M14.6356 3.14404C14.6716 3.17204 14.7116 3.19604 14.7476 3.20404C14.7836 3.20804 14.8196 3.20404 14.8476 3.18004C14.8756 3.15604 14.8836 3.12004 14.8756 3.08004C14.8676 3.04004 14.8476 2.99604 14.8036 2.96004C14.7236 2.88804 14.6236 2.88004 14.5836 2.93204C14.5436 2.98804 14.5676 3.08004 14.6396 3.14404H14.6356ZM14.6836 3.08804C14.6356 3.04804 14.6236 2.99604 14.6356 2.98404C14.6476 2.96804 14.6996 2.97204 14.7476 3.01604C14.7996 3.05604 14.8076 3.11204 14.7916 3.12804C14.7756 3.14404 14.7316 3.12804 14.6796 3.09204L14.6836 3.08804Z" fill="#FF855A"/>
<path d="M14.5956 2.94803C14.6316 2.90003 14.7156 2.91203 14.7916 2.97603L14.7636 3.00403C14.7116 2.95603 14.6436 2.94403 14.6236 2.97203L14.5956 2.94803Z" fill="#FAEC22"/>
<path d="M14.8716 3.39595C14.9316 3.47195 15.0196 3.49995 15.0756 3.46395C15.1356 3.42395 15.1276 3.32795 15.0636 3.24395C15.0476 3.22395 15.0276 3.20795 15.0116 3.19195C14.9916 3.17995 14.9716 3.17195 14.9516 3.16395C14.9116 3.15595 14.8756 3.16395 14.8476 3.18395C14.8196 3.20795 14.8116 3.24395 14.8196 3.27995C14.8196 3.29595 14.8276 3.31595 14.8356 3.33995C14.8436 3.35995 14.8516 3.37995 14.8676 3.39995L14.8716 3.39595ZM14.9316 3.34795C14.9116 3.31995 14.9036 3.29595 14.8956 3.27595C14.8876 3.25595 14.8956 3.23995 14.8996 3.23595C14.9076 3.23195 14.9236 3.23195 14.9436 3.23595C14.9636 3.24395 14.9836 3.26395 15.0036 3.28795C15.0436 3.33995 15.0436 3.39195 15.0316 3.40395C15.0156 3.41595 14.9676 3.39995 14.9276 3.34795H14.9316Z" fill="#FF855A"/>
<path d="M14.8636 3.19198C14.8836 3.17198 14.9156 3.16798 14.9516 3.17598C14.9876 3.18398 15.0236 3.21198 15.0516 3.24798L15.0236 3.27198C14.9836 3.21198 14.9196 3.19198 14.8876 3.21598L14.8596 3.18798L14.8636 3.19198Z" fill="#FAEC22"/>
<path d="M15.0676 3.67602C15.0956 3.71602 15.1276 3.74802 15.1596 3.76802C15.1956 3.78402 15.2316 3.78802 15.2636 3.77202C15.2956 3.75602 15.3116 3.72402 15.3156 3.68402C15.3156 3.64402 15.3156 3.59202 15.2836 3.54802C15.2276 3.45602 15.1396 3.41602 15.0836 3.45602C15.0276 3.49602 15.0236 3.59202 15.0716 3.67202L15.0676 3.67602ZM15.1316 3.64002C15.0956 3.58402 15.0996 3.53602 15.1156 3.52402C15.1316 3.51202 15.1796 3.53202 15.2156 3.59202C15.2516 3.64802 15.2436 3.70002 15.2236 3.71202C15.2076 3.72002 15.1636 3.69602 15.1276 3.64402L15.1316 3.64002Z" fill="#FF855A"/>
<path d="M15.0876 3.47997C15.1356 3.44797 15.2116 3.47997 15.2636 3.56397L15.2316 3.57997C15.1956 3.51997 15.1396 3.48797 15.1076 3.50797L15.0876 3.47597V3.47997Z" fill="#FAEC22"/>
<path d="M15.2275 3.98796C15.2635 4.07996 15.3475 4.12796 15.4115 4.10396C15.4755 4.07996 15.4955 3.98396 15.4555 3.88396C15.4395 3.83596 15.3995 3.79996 15.3635 3.77996C15.3275 3.75996 15.2915 3.75596 15.2595 3.77196C15.2275 3.78796 15.2115 3.81996 15.2035 3.85596C15.1995 3.89196 15.2035 3.93596 15.2235 3.98396L15.2275 3.98796ZM15.2955 3.95996C15.2715 3.89996 15.2755 3.85196 15.2955 3.84396C15.3115 3.83596 15.3635 3.85996 15.3875 3.91996C15.4155 3.97996 15.4035 4.03196 15.3875 4.03996C15.3715 4.04796 15.3275 4.01996 15.2995 3.95996H15.2955Z" fill="#FF855A"/>
<path d="M15.2676 3.79205C15.2956 3.77605 15.3276 3.78405 15.3556 3.80005C15.3836 3.81605 15.4156 3.84805 15.4356 3.89205L15.3996 3.90805C15.3716 3.84405 15.3156 3.80405 15.2836 3.82405L15.2676 3.79205Z" fill="#FAEC22"/>
<path d="M15.3515 4.31604C15.3675 4.36404 15.3955 4.40004 15.4275 4.42404C15.4595 4.44804 15.4915 4.46004 15.5275 4.44804C15.5595 4.44004 15.5875 4.41204 15.5995 4.37204C15.6115 4.33604 15.6075 4.28404 15.5915 4.23604C15.5595 4.13604 15.4795 4.08004 15.4115 4.10404C15.3475 4.13204 15.3235 4.22004 15.3555 4.31604H15.3515ZM15.4235 4.29204C15.4035 4.23204 15.4195 4.18004 15.4355 4.17604C15.4515 4.17204 15.4955 4.20004 15.5155 4.26004C15.5355 4.32004 15.5195 4.37204 15.5035 4.37604C15.4875 4.38004 15.4435 4.34804 15.4235 4.29204Z" fill="#FF855A"/>
<path d="M15.4156 4.11997C15.4716 4.09597 15.5396 4.14797 15.5716 4.23997L15.5356 4.25197C15.5116 4.18797 15.4636 4.13997 15.4316 4.15597C15.4316 4.14397 15.4236 4.13197 15.4156 4.11997Z" fill="#FAEC22"/>
<path d="M15.4556 4.65599C15.4836 4.74799 15.5476 4.81599 15.6196 4.79999C15.6876 4.78399 15.7236 4.69199 15.6956 4.59199C15.6676 4.49199 15.5916 4.42799 15.5276 4.44799C15.4596 4.46799 15.4316 4.55999 15.4556 4.65599ZM15.5276 4.63599C15.5116 4.57599 15.5276 4.52399 15.5436 4.51999C15.5636 4.51599 15.6036 4.54799 15.6196 4.61199C15.6356 4.67199 15.6196 4.72399 15.5996 4.72799C15.5796 4.73199 15.5436 4.69999 15.5236 4.63599H15.5276Z" fill="#FF855A"/>
<path d="M15.5316 4.46396C15.5876 4.44796 15.6516 4.50396 15.6756 4.59196L15.6396 4.59996C15.6236 4.53196 15.5756 4.48796 15.5396 4.49596L15.5316 4.45996V4.46396Z" fill="#FAEC22"/>
<path d="M15.5396 5.00002C15.5596 5.10002 15.6276 5.16802 15.6956 5.15202C15.7636 5.14002 15.8036 5.04802 15.7836 4.94802C15.7596 4.84402 15.6916 4.78002 15.6236 4.79602C15.5556 4.81202 15.5196 4.90002 15.5436 4.99602L15.5396 5.00002ZM15.6116 4.98802C15.5956 4.92402 15.6156 4.87602 15.6356 4.87602C15.6556 4.87202 15.6956 4.90402 15.7076 4.96802C15.7196 5.03202 15.6996 5.08002 15.6796 5.08402C15.6596 5.08402 15.6236 5.05202 15.6076 4.98802H15.6116Z" fill="#FF855A"/>
<path d="M15.6237 4.81606C15.6837 4.80006 15.7437 4.86406 15.7637 4.95206L15.7277 4.96006C15.7117 4.89206 15.6677 4.84406 15.6317 4.85206L15.6237 4.81606Z" fill="#FAEC22"/>
<path d="M15.6076 5.34796C15.6236 5.44796 15.6876 5.51596 15.7556 5.50396C15.8236 5.49596 15.8676 5.40796 15.8476 5.30396C15.8316 5.19996 15.7596 5.13196 15.6916 5.14796C15.6236 5.16396 15.5876 5.24796 15.5996 5.34796H15.6076ZM15.6796 5.33596C15.6716 5.27196 15.6876 5.22396 15.7076 5.22396C15.7276 5.22396 15.7676 5.25596 15.7756 5.31996C15.7836 5.38396 15.7596 5.43196 15.7436 5.43196C15.7236 5.43196 15.6876 5.39596 15.6796 5.33196V5.33596Z" fill="#FF855A"/>
<path d="M15.6996 5.16795C15.7596 5.15595 15.8156 5.21995 15.8316 5.31195H15.7956C15.7836 5.25195 15.7436 5.19995 15.7036 5.20395V5.16795H15.6996Z" fill="#FAEC22"/>
<path d="M15.6595 5.70402C15.6715 5.80402 15.7355 5.87602 15.8035 5.86802C15.8755 5.86002 15.9155 5.77602 15.9075 5.67202C15.8955 5.56802 15.8275 5.49602 15.7595 5.50802C15.6875 5.52002 15.6515 5.60402 15.6635 5.70402H15.6595ZM15.7315 5.69602C15.7275 5.63202 15.7475 5.58402 15.7675 5.58402C15.7875 5.58402 15.8235 5.62002 15.8315 5.68402C15.8395 5.74802 15.8155 5.79602 15.7955 5.79602C15.7755 5.79602 15.7395 5.76002 15.7355 5.69602H15.7315Z" fill="#FF855A"/>
<path d="M15.7596 5.52802C15.8196 5.52002 15.8756 5.58402 15.8836 5.67602H15.8476C15.8396 5.61602 15.7996 5.56402 15.7636 5.56402V5.52802H15.7596Z" fill="#FAEC22"/>
<path d="M15.6996 6.06004C15.7076 6.16004 15.7716 6.23604 15.8396 6.22804C15.9116 6.22404 15.9556 6.13604 15.9436 6.03604C15.9356 5.93204 15.8676 5.86004 15.7996 5.86804C15.7276 5.87604 15.6876 5.96004 15.6956 6.06004H15.6996ZM15.7716 6.04804C15.7676 5.98404 15.7876 5.94004 15.8076 5.93604C15.8276 5.93604 15.8636 5.97204 15.8676 6.04004C15.8716 6.10404 15.8476 6.15204 15.8316 6.15204C15.8116 6.15204 15.7796 6.11604 15.7716 6.04804Z" fill="#FF855A"/>
<path d="M15.8036 5.88799C15.8636 5.88399 15.9156 5.94799 15.9276 6.03999H15.8916C15.8876 5.97599 15.8476 5.91999 15.8116 5.92799V5.89199L15.8036 5.88799Z" fill="#FAEC22"/>
<path d="M15.7275 6.416C15.7315 6.516 15.7955 6.59199 15.8635 6.58799C15.9355 6.58399 15.9795 6.49999 15.9755 6.39999C15.9715 6.29599 15.9035 6.21999 15.8395 6.22799C15.7675 6.23199 15.7275 6.32 15.7315 6.416H15.7275ZM15.7995 6.412C15.7995 6.348 15.8195 6.30399 15.8395 6.29999C15.8595 6.29999 15.8915 6.33599 15.8995 6.40399C15.9035 6.46799 15.8755 6.512 15.8595 6.516C15.8395 6.516 15.8075 6.48 15.8035 6.412H15.7995Z" fill="#FF855A"/>
<path d="M15.8396 6.24798C15.8996 6.24398 15.9516 6.30798 15.9556 6.40398H15.9196C15.9196 6.33998 15.8796 6.28398 15.8396 6.28798V6.25198V6.24798Z" fill="#FAEC22"/>
<path d="M15.7556 6.77995C15.7596 6.88395 15.8196 6.95995 15.8876 6.95595C15.9596 6.95595 16.0076 6.87195 15.9996 6.76795C15.9956 6.66395 15.9316 6.58795 15.8636 6.59195C15.7916 6.59595 15.7476 6.67995 15.7516 6.77995H15.7556ZM15.8276 6.77995C15.8276 6.71595 15.8516 6.67195 15.8716 6.66795C15.8916 6.66795 15.9236 6.70395 15.9276 6.77195C15.9276 6.83595 15.9036 6.87995 15.8836 6.88395C15.8636 6.88395 15.8316 6.84395 15.8276 6.77995Z" fill="#FF855A"/>
<path d="M15.8676 6.60803C15.9276 6.60803 15.9796 6.67203 15.9796 6.76403H15.9436C15.9436 6.69603 15.9076 6.64003 15.8676 6.64403V6.60803Z" fill="#FAEC22"/>
<path d="M15.7716 7.14006C15.7716 7.24406 15.8316 7.32006 15.9036 7.31606C15.9756 7.31606 16.0236 7.23206 16.0196 7.12806C16.0196 7.02406 15.9556 6.94806 15.8876 6.95206C15.8156 6.95206 15.7676 7.03606 15.7756 7.14006H15.7716ZM15.8436 7.14006C15.8436 7.07606 15.8676 7.03206 15.8876 7.03206C15.9076 7.03206 15.9396 7.07206 15.9436 7.13606C15.9436 7.20006 15.9156 7.24406 15.8956 7.24406C15.8756 7.24406 15.8476 7.20406 15.8436 7.14006Z" fill="#FF855A"/>
<path d="M15.8876 6.96802C15.9476 6.96802 15.9956 7.03602 15.9996 7.12402H15.9636C15.9636 7.05602 15.9276 7.00002 15.8916 7.00402V6.96802H15.8876Z" fill="#FAEC22"/>
<path d="M15.7836 7.49601C15.7836 7.60001 15.8436 7.67601 15.9116 7.67601C15.9796 7.67601 16.0356 7.59601 16.0316 7.49201C16.0316 7.38801 15.9716 7.31201 15.8996 7.31201C15.8276 7.31201 15.7796 7.39601 15.7836 7.49601ZM15.8556 7.49601C15.8556 7.43201 15.8836 7.38801 15.9036 7.38801C15.9236 7.38801 15.9516 7.42801 15.9556 7.49201C15.9556 7.55601 15.9276 7.60001 15.9076 7.60001C15.8876 7.60001 15.8596 7.56001 15.8556 7.49601Z" fill="#FF855A"/>
<path d="M15.9036 7.33203C15.9636 7.33203 16.0116 7.40003 16.0156 7.49203H15.9796C15.9796 7.42403 15.9436 7.36803 15.9076 7.36803V7.33203H15.9036Z" fill="#FAEC22"/>
<path d="M15.7916 7.86C15.7916 7.964 15.8476 8.04 15.9156 8.036C15.9876 8.036 16.0396 7.956 16.0356 7.852C16.0356 7.748 15.9756 7.672 15.9076 7.672C15.8356 7.672 15.7836 7.752 15.7876 7.856L15.7916 7.86ZM15.8636 7.86C15.8636 7.796 15.8916 7.752 15.9116 7.752C15.9316 7.752 15.9596 7.792 15.9636 7.856C15.9636 7.92 15.9356 7.964 15.9156 7.964C15.8956 7.964 15.8676 7.924 15.8636 7.86Z" fill="#FF855A"/>
<path d="M15.9116 7.69604C15.9716 7.69604 16.0196 7.76804 16.0196 7.85604H15.9836C15.9836 7.78804 15.9476 7.73204 15.9116 7.73204V7.69604Z" fill="#FAEC22"/>
<path d="M15.7996 8.22001C15.7996 8.32401 15.8556 8.40001 15.9236 8.40001C15.9916 8.40001 16.0476 8.32001 16.0476 8.21601C16.0476 8.11201 15.9916 8.03601 15.9236 8.03601C15.8556 8.03601 15.7996 8.11601 15.7996 8.22001ZM15.8716 8.22001C15.8716 8.15601 15.8996 8.11201 15.9196 8.11201C15.9396 8.11201 15.9676 8.15201 15.9676 8.22001C15.9676 8.28401 15.9396 8.32801 15.9196 8.32801C15.8996 8.32801 15.8716 8.28801 15.8716 8.22001Z" fill="#FF855A"/>
<path d="M15.9196 8.05603C15.9796 8.05603 16.0236 8.12803 16.0276 8.21603H15.9916C15.9916 8.14803 15.9596 8.09203 15.9196 8.09203V8.05603Z" fill="#FAEC22"/>
<path d="M15.8036 8.58405C15.8036 8.68805 15.8596 8.76405 15.9276 8.76405C15.9956 8.76405 16.0516 8.68405 16.0516 8.58405C16.0516 8.48405 15.9956 8.40405 15.9276 8.40405C15.8596 8.40405 15.8036 8.48405 15.8036 8.58405ZM15.8756 8.58405C15.8756 8.52005 15.9036 8.47605 15.9236 8.47605C15.9436 8.47605 15.9716 8.51605 15.9716 8.58405C15.9716 8.65205 15.9436 8.69205 15.9236 8.69205C15.9036 8.69205 15.8756 8.64805 15.8756 8.58405Z" fill="#FF855A"/>
<path d="M15.9236 8.42004C15.9836 8.42004 16.0276 8.49204 16.0276 8.58404H15.9916C15.9916 8.51604 15.9596 8.46004 15.9236 8.46004V8.42404V8.42004Z" fill="#FAEC22"/>
<path d="M15.8036 8.94404C15.8036 9.04804 15.8556 9.12404 15.9276 9.12404C15.9996 9.12404 16.0516 9.04404 16.0516 8.94404C16.0516 8.84404 15.9996 8.76404 15.9276 8.76404C15.8556 8.76404 15.8036 8.84404 15.8036 8.94404ZM15.8756 8.94404C15.8756 8.88004 15.9036 8.83604 15.9236 8.83604C15.9436 8.83604 15.9716 8.87604 15.9716 8.94404C15.9716 9.01204 15.9436 9.05204 15.9236 9.05204C15.9036 9.05204 15.8756 9.00804 15.8756 8.94404Z" fill="#FF855A"/>
<path d="M15.9236 8.78003C15.9836 8.78003 16.0276 8.85203 16.0276 8.94403H15.9916C15.9916 8.87603 15.9596 8.82003 15.9236 8.82003V8.78403V8.78003Z" fill="#FAEC22"/>
<path d="M15.7996 9.30805C15.7996 9.41205 15.8516 9.48805 15.9236 9.48805C15.9956 9.48805 16.0476 9.40805 16.0476 9.30805C16.0476 9.20805 15.9956 9.12805 15.9236 9.12805C15.8516 9.12805 15.7996 9.20805 15.7996 9.30805ZM15.8716 9.30805C15.8716 9.24405 15.8996 9.20005 15.9196 9.20005C15.9396 9.20005 15.9676 9.24005 15.9676 9.30805C15.9676 9.37605 15.9396 9.41605 15.9196 9.41605C15.8996 9.41605 15.8716 9.37205 15.8716 9.30805Z" fill="#FF855A"/>
<path d="M15.9236 9.14404C15.9836 9.14404 16.0276 9.21604 16.0276 9.30804H15.9916C15.9916 9.24004 15.9636 9.18404 15.9236 9.18404V9.14804V9.14404Z" fill="#FAEC22"/>
<path d="M15.7996 9.66804C15.7996 9.77204 15.8516 9.84804 15.9236 9.84804C15.9956 9.84804 16.0476 9.76804 16.0476 9.66804C16.0476 9.56804 15.9956 9.48804 15.9236 9.48804C15.8516 9.48804 15.7996 9.56804 15.7996 9.66804ZM15.8716 9.66804C15.8716 9.60404 15.8996 9.56004 15.9196 9.56004C15.9396 9.56004 15.9676 9.60004 15.9676 9.66804C15.9676 9.73604 15.9356 9.77604 15.9196 9.77604C15.8996 9.77604 15.8716 9.73204 15.8716 9.66804Z" fill="#FF855A"/>
<path d="M15.9196 9.50806C15.9796 9.50806 16.0236 9.58006 16.0236 9.67206H15.9876C15.9876 9.60406 15.9596 9.54806 15.9196 9.54806V9.51206V9.50806Z" fill="#FAEC22"/>
<path d="M15.7957 10.0321C15.7957 10.1361 15.8477 10.2121 15.9197 10.2121C15.9917 10.2121 16.0437 10.1321 16.0437 10.0321C16.0437 9.93205 15.9917 9.85205 15.9197 9.85205C15.8477 9.85205 15.7957 9.93205 15.7957 10.0321ZM15.8677 10.0321C15.8677 9.96805 15.8957 9.92405 15.9157 9.92405C15.9357 9.92405 15.9637 9.96405 15.9637 10.0321C15.9637 10.0961 15.9317 10.1401 15.9157 10.1401C15.8957 10.1401 15.8677 10.0961 15.8677 10.0321Z" fill="#FF855A"/>
<path d="M15.9196 9.86804C15.9796 9.86804 16.0236 9.94004 16.0236 10.032H15.9876C15.9876 9.96404 15.9596 9.90804 15.9196 9.90804V9.87204V9.86804Z" fill="#FAEC22"/>
<path d="M15.7916 10.392C15.7916 10.496 15.8436 10.572 15.9156 10.572C15.9876 10.572 16.0396 10.492 16.0396 10.392C16.0396 10.292 15.9876 10.212 15.9156 10.212C15.8436 10.212 15.7916 10.292 15.7916 10.392ZM15.8636 10.392C15.8636 10.328 15.8916 10.284 15.9116 10.284C15.9316 10.284 15.9596 10.324 15.9596 10.392C15.9596 10.46 15.9276 10.5 15.9116 10.5C15.8916 10.5 15.8636 10.456 15.8636 10.392Z" fill="#FF855A"/>
<path d="M15.9156 10.2321C15.9756 10.2321 16.0197 10.3041 16.0197 10.3961H15.9837C15.9837 10.3281 15.9556 10.2721 15.9156 10.2721V10.2361V10.2321Z" fill="#FAEC22"/>
<path d="M15.7876 10.752C15.7876 10.856 15.8396 10.932 15.9116 10.932C15.9836 10.932 16.0356 10.852 16.0356 10.752C16.0356 10.652 15.9836 10.572 15.9116 10.572C15.8396 10.572 15.7876 10.652 15.7876 10.752ZM15.8596 10.752C15.8596 10.688 15.8876 10.644 15.9076 10.644C15.9276 10.644 15.9556 10.684 15.9556 10.752C15.9556 10.82 15.9236 10.86 15.9076 10.86C15.8916 10.86 15.8596 10.816 15.8596 10.752Z" fill="#FF855A"/>
<path d="M15.9116 10.592C15.9716 10.592 16.0156 10.664 16.0156 10.756H15.9796C15.9796 10.688 15.9516 10.632 15.9116 10.632V10.596V10.592Z" fill="#FAEC22"/>
<path d="M15.7836 11.1201C15.7836 11.2241 15.8356 11.3001 15.9076 11.3001C15.9796 11.3001 16.0316 11.2201 16.0316 11.1201C16.0316 11.0201 15.9796 10.9401 15.9076 10.9401C15.8356 10.9401 15.7836 11.0201 15.7836 11.1201ZM15.8556 11.1201C15.8556 11.0561 15.8836 11.0121 15.9036 11.0121C15.9236 11.0121 15.9516 11.0521 15.9516 11.1201C15.9516 11.1881 15.9236 11.2281 15.9036 11.2281C15.8836 11.2281 15.8556 11.1841 15.8556 11.1201Z" fill="#FF855A"/>
<path d="M15.9116 10.9561C15.9716 10.9561 16.0156 11.0281 16.0156 11.1201H15.9796C15.9796 11.0521 15.9516 10.9961 15.9116 10.9961V10.9601V10.9561Z" fill="#FAEC22"/>
<path d="M15.7836 11.48C15.7836 11.584 15.8356 11.66 15.9076 11.66C15.9796 11.66 16.0316 11.58 16.0316 11.48C16.0316 11.376 15.9796 11.3 15.9076 11.3C15.8356 11.3 15.7836 11.38 15.7836 11.48ZM15.8556 11.48C15.8556 11.416 15.8836 11.372 15.9036 11.372C15.9236 11.372 15.9516 11.412 15.9516 11.48C15.9516 11.548 15.9236 11.588 15.9036 11.588C15.8836 11.588 15.8556 11.544 15.8556 11.48Z" fill="#FF855A"/>
<path d="M15.9076 11.316C15.9676 11.316 16.0116 11.388 16.0116 11.48H15.9756C15.9756 11.412 15.9476 11.356 15.9076 11.356V11.32V11.316Z" fill="#FAEC22"/>
<path d="M15.7795 11.8441C15.7795 11.9481 15.8315 12.0241 15.9035 12.0241C15.9755 12.0241 16.0275 11.9441 16.0275 11.8441C16.0275 11.7441 15.9755 11.6641 15.9035 11.6641C15.8315 11.6641 15.7795 11.7441 15.7795 11.8441ZM15.8515 11.8441C15.8515 11.7801 15.8795 11.7361 15.8995 11.7361C15.9195 11.7361 15.9475 11.7761 15.9475 11.8441C15.9475 11.9121 15.9195 11.9521 15.8995 11.9521C15.8795 11.9521 15.8515 11.9081 15.8515 11.8441Z" fill="#FF855A"/>
<path d="M15.9076 11.6801C15.9676 11.6801 16.0116 11.7521 16.0116 11.8441H15.9756C15.9756 11.7761 15.9436 11.7201 15.9076 11.7201V11.6841V11.6801Z" fill="#FAEC22"/>
</g>
<defs>
<clipPath id="clip0_584_24527">
<rect width="24" height="24" fill="white" transform="translate(0.695557)"/>
</clipPath>
</defs>
</svg>
