<svg width="25" height="24" viewBox="0 0 25 24" fill="none" xmlns="http://www.w3.org/2000/svg">
<g clip-path="url(#clip0_584_24526)">
<path d="M19.4435 20.276C18.0555 19.808 16.5675 20.644 16.2435 22.072C15.7275 24.34 12.6515 24.708 11.6155 22.624C10.9635 21.312 9.31951 20.848 8.07951 21.632C6.11151 22.872 3.67551 20.956 4.41551 18.752C4.88351 17.364 4.04751 15.876 2.61951 15.552C0.351512 15.036 -0.0164882 11.96 2.06751 10.924C3.37951 10.272 3.84351 8.62798 3.05951 7.38798C1.81951 5.41998 3.73551 2.98398 5.93951 3.72398C7.32751 4.19198 8.81551 3.35598 9.13951 1.92798C9.65551 -0.340017 12.7315 -0.708017 13.7675 1.37598C14.4195 2.68798 16.0635 3.15198 17.3035 2.36798C19.2715 1.12798 21.7075 3.04398 20.9675 5.24798C20.4995 6.63598 21.3355 8.12398 22.7635 8.44798C25.0315 8.96398 25.3995 12.04 23.3155 13.076C22.0035 13.728 21.5395 15.372 22.3235 16.612C23.5635 18.58 21.6475 21.016 19.4435 20.276Z" fill="#FFC61E"/>
<g clip-path="url(#clip1_584_24526)">
<path d="M17.4424 4.06948C17.3225 4.01641 17.1849 4.06948 17.1318 4.19135L17.0492 4.38005C17.0355 4.4115 17.0296 4.44295 17.0296 4.4744C17.0296 4.55499 17.0709 4.63165 17.1397 4.67489C17.1259 4.71617 17.1082 4.75548 17.0925 4.79676C16.9844 4.77514 16.8723 4.83018 16.8291 4.93436L16.7465 5.12306C16.721 5.18203 16.719 5.24689 16.7426 5.30586C16.7583 5.3491 16.7858 5.38449 16.8212 5.40807C16.7996 5.45525 16.776 5.50242 16.7524 5.5496C16.7072 5.53584 16.66 5.53584 16.6168 5.5496C16.5559 5.56926 16.5067 5.61053 16.4772 5.66754L16.3829 5.85034C16.3652 5.88572 16.3573 5.9211 16.3573 5.95845C16.3573 6.02725 16.3868 6.09211 16.4399 6.13732C16.4065 6.19433 16.3731 6.25133 16.3377 6.30833C16.2355 6.27099 16.1175 6.30833 16.0605 6.40662L15.9505 6.58156C15.917 6.63463 15.9072 6.69753 15.921 6.75846C15.9308 6.80171 15.9504 6.83905 15.9839 6.8705C15.9465 6.92554 15.9072 6.98058 15.8699 7.03562C15.8305 7.01793 15.7873 7.014 15.7441 7.02186C15.6812 7.03169 15.6281 7.0651 15.5907 7.11817L15.4708 7.28525C15.4335 7.33636 15.4197 7.39926 15.4296 7.46216C15.4374 7.49951 15.4512 7.53292 15.4748 7.56241C15.4433 7.60172 15.4119 7.643 15.3785 7.68231C15.3372 7.65872 15.288 7.6489 15.2389 7.65479C15.176 7.66265 15.121 7.6941 15.0816 7.74325L14.9539 7.90639C14.9146 7.95553 14.8969 8.01843 14.9047 8.08133C14.9087 8.11868 14.9224 8.1521 14.9441 8.18355C14.9008 8.23072 14.8576 8.2779 14.8143 8.32311C14.775 8.29755 14.7298 8.28773 14.6846 8.28969C14.6217 8.29362 14.5647 8.32114 14.5214 8.36832L14.3839 8.52164C14.3426 8.56881 14.321 8.62975 14.3229 8.69265C14.3229 8.72606 14.3347 8.75948 14.3504 8.78896C14.3052 8.83221 14.26 8.87545 14.2128 8.91869C14.1205 8.8499 13.9907 8.85972 13.9101 8.94228L13.7647 9.08774C13.692 9.16047 13.6762 9.26661 13.7195 9.3531C13.6644 9.40027 13.6074 9.44548 13.5504 9.49266C13.519 9.46907 13.4797 9.45335 13.4384 9.44745C13.3755 9.43959 13.3126 9.45531 13.2634 9.49462L13.1003 9.62042C13.0394 9.6676 13.0079 9.73836 13.0079 9.80913C13.0079 9.84058 13.0138 9.87006 13.0256 9.89954C12.8703 10.0155 12.7111 10.1295 12.546 10.2396C12.4497 10.1728 12.3553 10.102 12.2629 10.0312C12.2806 9.99193 12.2865 9.94869 12.2806 9.90544C12.2728 9.84254 12.2413 9.7875 12.1922 9.74819L12.029 9.62239C11.9445 9.55556 11.8285 9.55752 11.748 9.61649C11.691 9.56932 11.6359 9.52018 11.5809 9.47104C11.6261 9.38258 11.6123 9.27054 11.5376 9.19781L11.3922 9.05236C11.3175 8.97766 11.1917 8.96587 11.1032 9.01894C11.0561 8.97373 11.0108 8.92656 10.9656 8.87938C10.9912 8.844 11.0069 8.80076 11.0089 8.75555C11.0128 8.69265 10.9912 8.63171 10.9499 8.58454L10.8123 8.43122C10.7691 8.38404 10.7121 8.35652 10.6472 8.35259C10.602 8.35259 10.5568 8.36045 10.5175 8.38601C10.4762 8.33883 10.4369 8.29166 10.3976 8.24252C10.4605 8.16389 10.4644 8.04595 10.4035 7.96143L10.2836 7.79435C10.2148 7.69804 10.085 7.66855 9.98479 7.72162C9.95334 7.68231 9.92386 7.64103 9.89241 7.59975C9.91599 7.57027 9.92975 7.53489 9.93762 7.49754C9.94744 7.43464 9.93369 7.37174 9.89634 7.32063L9.77644 7.15356C9.71747 7.06903 9.61132 7.03562 9.52091 7.06117C9.48356 7.00613 9.44621 6.94913 9.40886 6.89213C9.44031 6.86264 9.46194 6.82333 9.47176 6.78009C9.48552 6.71915 9.4757 6.65428 9.44228 6.60121L9.33221 6.42627C9.2752 6.33389 9.16316 6.29654 9.06488 6.32799C9.03343 6.27295 9.00198 6.21595 8.97053 6.15895C9.04129 6.08818 9.06095 5.97614 9.01377 5.88572L8.91943 5.70292C8.86832 5.60464 8.75824 5.55746 8.658 5.58105C8.63441 5.53191 8.60886 5.4808 8.5833 5.43166C8.61279 5.40807 8.63441 5.37662 8.64817 5.34124C8.67176 5.28227 8.66979 5.21741 8.64424 5.1604L8.56168 4.9717C8.51647 4.86752 8.40443 4.81249 8.30025 4.83411C8.2806 4.79087 8.26094 4.74762 8.24325 4.70438C8.27863 4.67882 8.30812 4.64344 8.32581 4.6002C8.34743 4.54123 8.34743 4.47636 8.32188 4.4174L8.23735 4.22869C8.21377 4.17169 8.16659 4.12648 8.10762 4.10289C8.04866 4.08127 7.98379 4.08127 7.92679 4.10683C7.88158 4.13041 7.83833 4.17759 7.81475 4.23656C7.79116 4.29553 7.79312 4.36039 7.81868 4.4174L7.90123 4.6061C7.94055 4.69455 8.02703 4.74762 8.11745 4.74762C8.13514 4.74762 8.15087 4.74762 8.16659 4.74369C8.18428 4.78693 8.20394 4.82821 8.2236 4.87146C8.13318 4.93436 8.09583 5.05623 8.143 5.15647L8.22556 5.34714C8.26487 5.43559 8.35136 5.48866 8.44374 5.48866C8.46733 5.48866 8.48895 5.48473 8.51254 5.47687C8.53809 5.52405 8.56168 5.57122 8.58527 5.61643C8.49289 5.68326 8.46144 5.81103 8.51451 5.91324L8.60886 6.09605C8.63834 6.15305 8.68748 6.19433 8.74842 6.21398C8.772 6.22185 8.79559 6.22578 8.82114 6.22578C8.84866 6.22578 8.87618 6.21988 8.9037 6.20809C8.93515 6.26312 8.9666 6.3162 8.99805 6.36927C8.95874 6.40072 8.93318 6.44593 8.91943 6.49507C8.90567 6.556 8.91943 6.62087 8.95088 6.67394L9.05898 6.84888C9.10419 6.92161 9.18085 6.96092 9.26144 6.96092C9.29093 6.96092 9.32041 6.95503 9.34793 6.94323C9.38331 6.99827 9.41869 7.05134 9.45407 7.10638C9.35972 7.18304 9.34007 7.3226 9.4128 7.42285L9.5327 7.58993C9.57791 7.65479 9.65064 7.69017 9.72533 7.69017C9.76464 7.69017 9.80395 7.68035 9.8413 7.65872C9.87079 7.7 9.90027 7.73931 9.92975 7.77863C9.86489 7.85922 9.85899 7.97519 9.92189 8.06168L10.0418 8.22876C10.087 8.29362 10.1597 8.329 10.2344 8.329C10.2718 8.329 10.3111 8.32114 10.3465 8.29952C10.3838 8.34866 10.4251 8.39584 10.4664 8.44301C10.4388 8.48036 10.4231 8.5236 10.4212 8.57078C10.4212 8.63368 10.4388 8.69461 10.4821 8.74179L10.6197 8.89511C10.661 8.94228 10.7199 8.9698 10.7828 8.97373H10.7966C10.8398 8.97373 10.8811 8.96194 10.9165 8.93835C10.9617 8.98553 11.0089 9.03467 11.0561 9.07988C10.9932 9.17226 11.001 9.30003 11.0836 9.38062L11.229 9.52607C11.2742 9.57128 11.3352 9.59487 11.3961 9.59487C11.4492 9.59487 11.5023 9.57718 11.5455 9.53983C11.5986 9.58897 11.6536 9.63812 11.7086 9.68332C11.6792 9.72853 11.6693 9.77964 11.6752 9.83271C11.6831 9.89561 11.7165 9.95262 11.7656 9.98996L11.9288 10.1177C11.9701 10.1492 12.0212 10.1669 12.0742 10.1669C12.0841 10.1669 12.0939 10.1669 12.1037 10.1669C12.1529 10.161 12.1981 10.1413 12.2335 10.1079C12.3376 10.1865 12.4418 10.2612 12.546 10.3359L12.5735 10.3556L12.601 10.3359C12.776 10.218 12.945 10.0961 13.1101 9.97424C13.1534 10.0194 13.2123 10.0411 13.2713 10.0411C13.3224 10.0411 13.3735 10.0253 13.4168 9.99193L13.5799 9.86613C13.6743 9.7934 13.6978 9.66367 13.6428 9.56539C13.6978 9.52018 13.7529 9.47497 13.806 9.42976C13.8492 9.46907 13.9042 9.48873 13.9593 9.48873C14.0202 9.48873 14.0811 9.46514 14.1264 9.41796L14.2718 9.27251C14.3504 9.19388 14.3622 9.07594 14.3092 8.98749C14.3544 8.94621 14.3996 8.90493 14.4428 8.86366C14.4861 8.89904 14.5372 8.91476 14.5902 8.91476C14.6551 8.91476 14.72 8.88921 14.7671 8.83614L14.9047 8.68282C14.9794 8.59633 14.9834 8.4725 14.9185 8.38797C14.9617 8.34276 15.005 8.29559 15.0443 8.25038C15.0836 8.27593 15.1269 8.28969 15.1701 8.28969C15.2409 8.28969 15.3097 8.25824 15.3568 8.19927L15.4846 8.03612C15.5534 7.94964 15.5495 7.82973 15.4846 7.74718C15.518 7.70786 15.5475 7.67052 15.5789 7.6312C15.6143 7.65086 15.6536 7.66069 15.6949 7.66069C15.7087 7.66069 15.7205 7.66069 15.7342 7.66069C15.7971 7.6489 15.8522 7.61548 15.8876 7.56437L16.0075 7.39533C16.0448 7.34422 16.0586 7.28132 16.0487 7.22039C16.0409 7.17125 16.0173 7.128 15.9839 7.09262C16.0212 7.03955 16.0586 6.98648 16.0959 6.93144C16.1234 6.94127 16.1549 6.94716 16.1824 6.94716C16.263 6.94716 16.3396 6.90785 16.3849 6.83512L16.493 6.66018C16.5283 6.60711 16.5382 6.54421 16.5244 6.48131C16.5146 6.4361 16.489 6.39482 16.4556 6.36337C16.491 6.30637 16.5264 6.2474 16.5598 6.18843C16.5814 6.19629 16.605 6.20022 16.6266 6.20022C16.7131 6.20022 16.7957 6.15305 16.8389 6.07246L16.9333 5.88769C16.9627 5.83265 16.9667 5.76778 16.947 5.70685C16.9352 5.66361 16.9077 5.62626 16.8743 5.59874C16.8979 5.5496 16.9215 5.50242 16.9431 5.45328C16.9608 5.45721 16.9785 5.45918 16.9962 5.45918C17.0256 5.45918 17.0532 5.45525 17.0826 5.44346C17.1416 5.41987 17.1868 5.37662 17.2124 5.31765L17.2949 5.12895C17.3401 5.02478 17.3048 4.90684 17.2163 4.84394C17.234 4.80266 17.2517 4.75942 17.2674 4.71617C17.2792 4.71617 17.291 4.71617 17.3028 4.71617C17.3932 4.71617 17.4797 4.6631 17.519 4.57465L17.6016 4.38594C17.6546 4.26604 17.6016 4.12845 17.4797 4.07537L17.4424 4.06948ZM8.12531 4.64737C8.06831 4.65131 8.01524 4.61986 7.99165 4.56482L7.90713 4.37612C7.89337 4.3427 7.89337 4.30535 7.90713 4.26997C7.91499 4.24835 7.92875 4.23066 7.94448 4.21887C7.95627 4.20707 7.96806 4.19921 7.98182 4.19331C7.99951 4.18545 8.01917 4.18152 8.03686 4.18152C8.08993 4.18152 8.14104 4.21297 8.16463 4.26408L8.24718 4.45474C8.26094 4.48816 8.26291 4.5255 8.24718 4.56089C8.23932 4.57858 8.22949 4.5943 8.21573 4.60806C8.20394 4.61986 8.19018 4.62968 8.17445 4.63558C8.15873 4.64148 8.143 4.64541 8.12531 4.64737ZM8.49682 5.37466C8.49682 5.37466 8.47716 5.38252 8.46733 5.38449C8.40443 5.39431 8.34153 5.36286 8.31401 5.3039L8.23146 5.11323C8.2059 5.05819 8.22163 4.99529 8.26291 4.95598C8.2747 4.94615 8.2865 4.93632 8.30222 4.93043C8.31991 4.92256 8.3376 4.9206 8.35529 4.9206C8.41033 4.9206 8.45947 4.95008 8.48306 5.00315L8.56561 5.19185C8.57348 5.20954 8.57741 5.2292 8.57741 5.24886C8.57741 5.27834 8.56758 5.30783 8.54989 5.33141C8.53613 5.3491 8.51844 5.36483 8.49485 5.37466H8.49682ZM8.88011 6.10587C8.88011 6.10587 8.86046 6.11374 8.85259 6.11767C8.82704 6.12356 8.79952 6.1216 8.77397 6.11374C8.73859 6.10391 8.7091 6.07835 8.69338 6.0469L8.59903 5.86213C8.56954 5.8071 8.5833 5.74027 8.62655 5.69899C8.63638 5.68916 8.6462 5.6813 8.658 5.6754C8.67962 5.66557 8.69928 5.65967 8.71893 5.65967C8.77004 5.65967 8.81918 5.68719 8.84277 5.73633L8.93712 5.91914C8.9607 5.96435 8.95677 6.01742 8.92925 6.05673C8.91943 6.07639 8.89977 6.09408 8.87815 6.10587H8.88011ZM9.32827 6.83119C9.31648 6.83905 9.30272 6.84495 9.28896 6.84692C9.23196 6.86068 9.16906 6.83905 9.13761 6.78598L9.02753 6.61104C9.00788 6.57959 9.00198 6.54421 9.00984 6.50686C9.01574 6.48327 9.02557 6.46165 9.04129 6.44593C9.04916 6.4361 9.05898 6.42627 9.07078 6.42037C9.08847 6.40858 9.11009 6.40268 9.12975 6.40268C9.13564 6.40268 9.13957 6.40268 9.14547 6.40268C9.19068 6.40268 9.23589 6.42431 9.26341 6.46755L9.37152 6.64249C9.39117 6.67394 9.39707 6.71129 9.38921 6.74667C9.38528 6.76436 9.37938 6.78009 9.36955 6.79384C9.35776 6.80957 9.344 6.82333 9.32827 6.83316V6.83119ZM9.79806 7.55454C9.79806 7.55454 9.7843 7.56437 9.77447 7.56634C9.7155 7.59386 9.64277 7.57617 9.60346 7.52113L9.48552 7.35405C9.44425 7.29705 9.45211 7.22039 9.50125 7.17518C9.50518 7.16732 9.51108 7.16338 9.51697 7.15945C9.5386 7.14373 9.56611 7.13586 9.59167 7.1339H9.59756C9.64081 7.1339 9.68405 7.15356 9.7096 7.19287L9.82951 7.35995C9.85113 7.3914 9.86096 7.42678 9.85309 7.46413C9.85309 7.47395 9.84916 7.48378 9.84327 7.49361C9.8354 7.5172 9.81968 7.53882 9.79806 7.55454ZM10.3052 8.19338C10.3052 8.19338 10.2836 8.20713 10.2718 8.21107C10.2148 8.23072 10.1479 8.21107 10.1106 8.15996L9.99069 7.99288C9.95924 7.94767 9.95727 7.89067 9.98283 7.84546C9.99265 7.82777 10.0064 7.81204 10.0241 7.79828C10.0339 7.79042 10.0457 7.78452 10.0575 7.78256C10.0732 7.77666 10.089 7.77273 10.1047 7.77273C10.1479 7.77273 10.1892 7.79435 10.2167 7.8317L10.3366 7.99878C10.3543 8.02433 10.3622 8.05185 10.3622 8.07937C10.3622 8.10296 10.3563 8.12654 10.3465 8.1462C10.3366 8.16389 10.3229 8.18158 10.3052 8.19338ZM10.8772 8.82631C10.8654 8.8381 10.8516 8.84793 10.8359 8.85186C10.8162 8.85972 10.7966 8.86366 10.7769 8.86169C10.7396 8.86169 10.7062 8.844 10.6806 8.81648L10.543 8.6612C10.5194 8.63368 10.5057 8.5983 10.5076 8.56095C10.5076 8.54326 10.5135 8.5236 10.5234 8.50788C10.5312 8.49215 10.5411 8.47839 10.5548 8.4666C10.5666 8.4548 10.5804 8.44694 10.5941 8.44105C10.6099 8.43515 10.6275 8.43122 10.6472 8.43122H10.6551C10.6904 8.43122 10.7258 8.44891 10.7494 8.47643L10.887 8.63171C10.9126 8.65923 10.9244 8.69461 10.9224 8.72999C10.9224 8.74965 10.9165 8.76931 10.9067 8.78503C10.9008 8.80076 10.8909 8.81452 10.8772 8.82631ZM11.2841 9.44352L11.1386 9.2961C11.0954 9.25285 11.0875 9.18799 11.115 9.13688C11.1209 9.12312 11.1288 9.11133 11.1386 9.1015C11.1524 9.08774 11.1661 9.07791 11.1838 9.07005C11.1995 9.06415 11.2172 9.06022 11.2349 9.06022C11.2723 9.06022 11.3057 9.07398 11.3332 9.1015L11.4787 9.24695C11.5062 9.27447 11.5199 9.30985 11.5199 9.34524C11.5199 9.35703 11.5199 9.37079 11.514 9.38258C11.5081 9.4042 11.4964 9.42583 11.4787 9.44352C11.4728 9.45138 11.4649 9.45531 11.457 9.46121C11.404 9.49659 11.3312 9.49069 11.2821 9.44352H11.2841ZM12.0742 10.0509C12.0369 10.0568 11.9996 10.047 11.972 10.0234L11.8089 9.89758C11.7794 9.87399 11.7597 9.84254 11.7558 9.80519C11.7558 9.77964 11.7558 9.75409 11.7696 9.73247C11.7696 9.72264 11.7774 9.71281 11.7833 9.70298C11.7971 9.68529 11.8148 9.67153 11.8344 9.66367C11.8541 9.65384 11.8738 9.64991 11.8934 9.64991C11.9229 9.64991 11.9524 9.65777 11.9779 9.67743L12.1411 9.80519C12.1706 9.82682 12.1883 9.86023 12.1941 9.89561V9.91134C12.1941 9.92313 12.1941 9.93493 12.1883 9.94672C12.1883 9.96638 12.1784 9.98407 12.1666 9.99979C12.1568 10.0096 12.147 10.0194 12.1352 10.0293C12.1175 10.0411 12.0978 10.0489 12.0742 10.0509ZM13.5013 9.76981L13.3381 9.89561C13.287 9.93493 13.2182 9.93493 13.1691 9.89561C13.1593 9.88972 13.1494 9.87989 13.1416 9.87006C13.1278 9.85237 13.12 9.83271 13.118 9.81306C13.1062 9.76392 13.1239 9.70888 13.1671 9.67546L13.3303 9.54966C13.3598 9.52607 13.3971 9.51625 13.4325 9.52018C13.4482 9.52018 13.4639 9.52804 13.4777 9.53394C13.4954 9.54377 13.5131 9.55556 13.5249 9.57325C13.5327 9.58308 13.5386 9.59487 13.5426 9.60667C13.5662 9.6617 13.5504 9.72853 13.5013 9.76785V9.76981ZM14.1814 9.18602L14.0359 9.33148C13.9868 9.38062 13.9121 9.38651 13.859 9.3472C13.8512 9.34327 13.8453 9.33737 13.8394 9.33148C13.8217 9.31379 13.8079 9.29216 13.802 9.26858C13.7902 9.22337 13.802 9.17226 13.8394 9.13491L13.9848 8.98946C14.0123 8.96194 14.0477 8.94818 14.0831 8.94818C14.1047 8.94818 14.1283 8.95408 14.148 8.9639C14.1598 8.9698 14.1716 8.97963 14.1814 8.98946C14.1952 9.00322 14.205 9.01894 14.2128 9.03663C14.2325 9.08577 14.2227 9.14474 14.1814 9.18602ZM14.8065 8.60026L14.6689 8.75358C14.6237 8.80469 14.547 8.81255 14.492 8.7752C14.4861 8.7752 14.4802 8.76734 14.4743 8.76341C14.4546 8.74572 14.4389 8.72213 14.431 8.69658C14.431 8.68871 14.4271 8.67889 14.4271 8.66906C14.4271 8.63171 14.4389 8.59633 14.4625 8.56881L14.6001 8.41353C14.6256 8.38601 14.659 8.37028 14.6964 8.36832C14.716 8.36832 14.7337 8.36832 14.7514 8.37814C14.7691 8.38208 14.7829 8.3919 14.7966 8.4037C14.8084 8.41549 14.8183 8.42729 14.8242 8.44105C14.8536 8.49215 14.8458 8.55505 14.8065 8.60026ZM15.3804 7.9575L15.2546 8.12065C15.2271 8.15603 15.1858 8.17372 15.1445 8.17372C15.1249 8.17372 15.1052 8.16979 15.0875 8.15996C15.0777 8.15996 15.0679 8.1521 15.0581 8.14423C15.0404 8.12851 15.0266 8.11082 15.0187 8.0892C15.0109 8.0774 15.0089 8.06561 15.007 8.05185C15.003 8.0145 15.0128 7.97912 15.0345 7.94964L15.1622 7.78649C15.1858 7.75897 15.2192 7.73931 15.2546 7.73538C15.2605 7.73538 15.2664 7.73538 15.2723 7.73538C15.288 7.73538 15.3038 7.73538 15.3175 7.74325C15.3313 7.74914 15.3431 7.757 15.3549 7.76487C15.3706 7.77666 15.3824 7.79239 15.3902 7.80811C15.4178 7.85529 15.4138 7.91622 15.3785 7.95947L15.3804 7.9575ZM15.9229 7.21842C15.9288 7.2538 15.919 7.29115 15.8993 7.32063L15.7794 7.48968C15.7578 7.51916 15.7244 7.53882 15.689 7.54668C15.6812 7.54668 15.6753 7.54668 15.6674 7.54668C15.6477 7.54668 15.6281 7.54275 15.6124 7.53292C15.6025 7.53292 15.5927 7.52506 15.5848 7.51916C15.5652 7.5054 15.5495 7.48575 15.5416 7.46413C15.5357 7.4543 15.5318 7.4425 15.5298 7.43071C15.5219 7.39336 15.5298 7.35602 15.5534 7.32653L15.6733 7.15945C15.6949 7.128 15.7264 7.10835 15.7618 7.10245C15.7696 7.10245 15.7775 7.10245 15.7853 7.10245C15.7932 7.10245 15.803 7.10245 15.8109 7.10638C15.8305 7.10638 15.8502 7.11621 15.8659 7.128C15.8777 7.13586 15.8876 7.14569 15.8954 7.15749C15.9092 7.17518 15.919 7.19483 15.9229 7.21842ZM16.3966 6.49114C16.4045 6.52652 16.3966 6.56387 16.379 6.59532L16.2689 6.77026C16.2374 6.82136 16.1785 6.84495 16.1234 6.83119C16.1077 6.82726 16.092 6.82136 16.0782 6.8135C16.0625 6.80367 16.0507 6.79188 16.0389 6.77812C16.0291 6.76239 16.0212 6.7447 16.0173 6.72701C16.0094 6.69163 16.0173 6.65428 16.035 6.62283L16.1431 6.44789C16.1745 6.39875 16.2335 6.37516 16.2866 6.38696C16.3043 6.38696 16.32 6.39482 16.3357 6.40465C16.3495 6.41448 16.3632 6.42431 16.3711 6.43807C16.3849 6.45182 16.3927 6.47148 16.3966 6.49114ZM16.8212 5.72847C16.833 5.76385 16.8291 5.8012 16.8114 5.83265L16.717 6.01742C16.6895 6.07049 16.6325 6.09801 16.5755 6.09015C16.5598 6.09015 16.5441 6.08425 16.5303 6.07639C16.5126 6.06656 16.4989 6.05477 16.489 6.04101C16.4536 5.99973 16.4458 5.94076 16.4713 5.88965L16.5657 5.70685C16.5834 5.67343 16.6109 5.64985 16.6463 5.63805C16.6659 5.63216 16.6876 5.63019 16.7072 5.63412C16.7229 5.63412 16.7387 5.63805 16.7524 5.64592C16.7681 5.65378 16.7819 5.66557 16.7937 5.67933C16.8055 5.69309 16.8153 5.71078 16.8212 5.72847ZM17.1711 5.08178L17.0885 5.27048C17.065 5.32355 17.0139 5.35304 16.9608 5.35304H16.9529C16.9372 5.35304 16.9215 5.34714 16.9057 5.34124C16.8881 5.33535 16.8743 5.32552 16.8625 5.31372C16.8487 5.29996 16.8389 5.28227 16.831 5.26458C16.8173 5.23117 16.8193 5.19382 16.831 5.15844L16.9136 4.96974C16.9372 4.91863 16.9883 4.88718 17.0414 4.88718C17.0414 4.88718 17.0473 4.88718 17.0492 4.88718C17.0669 4.88718 17.0807 4.89111 17.0964 4.89701C17.1121 4.90487 17.1279 4.9147 17.1397 4.92649C17.179 4.96581 17.1908 5.02478 17.1691 5.07981L17.1711 5.08178ZM17.4758 4.3427L17.3913 4.5314C17.3696 4.58251 17.3205 4.61199 17.2694 4.61396C17.2497 4.61396 17.2301 4.61396 17.2104 4.60216C17.1986 4.59823 17.1868 4.59037 17.177 4.58054C17.1593 4.56875 17.1455 4.54909 17.1357 4.5255C17.122 4.49209 17.1239 4.45474 17.1357 4.41936L17.2183 4.23066C17.2399 4.18348 17.2851 4.154 17.3323 4.15007C17.3539 4.14614 17.3775 4.15007 17.4011 4.1599C17.4109 4.16383 17.4188 4.16776 17.4266 4.17562C17.4797 4.211 17.4994 4.28177 17.4738 4.3427H17.4758Z" fill="#F0BA07"/>
<path d="M13.1653 11.0003C13.1653 11.4897 12.9333 11.8848 12.6483 11.8848C12.3633 11.8848 12.1313 11.4897 12.1313 11.0003C12.1313 10.5108 12.3633 10.1157 12.6483 10.1157C12.9333 10.1157 13.1653 10.5108 13.1653 11.0003Z" fill="#F0BA07"/>
<path d="M12.7212 10.1235C12.8784 10.2749 12.9865 10.5638 12.9865 10.896C12.9865 11.3855 12.7546 11.7806 12.4696 11.7806C12.444 11.7806 12.4205 11.7766 12.3949 11.7707C12.4696 11.8415 12.5561 11.8828 12.6485 11.8828C12.9354 11.8828 13.1654 11.4877 13.1654 10.9982C13.1654 10.552 12.9728 10.1845 12.7212 10.1235Z" fill="#DDA100"/>
<path d="M12.5501 10.4241C12.552 10.3809 12.5009 10.3691 12.4734 10.3927C12.3633 10.4831 12.3201 10.6521 12.3004 10.7858C12.2886 10.8723 12.2493 11.1436 12.385 11.1671C12.5108 11.1888 12.4734 10.9706 12.4734 10.9077C12.4734 10.7386 12.5402 10.5892 12.5501 10.4241Z" fill="#FFE675"/>
<path d="M12.4872 11.3895C12.4773 11.3698 12.4695 11.3403 12.4714 11.3167C12.4754 11.2755 12.4105 11.2578 12.3928 11.2951C12.3712 11.3423 12.3673 11.3954 12.3987 11.4406C12.4144 11.4622 12.442 11.474 12.4675 11.4583C12.4931 11.4425 12.497 11.4131 12.4852 11.3895H12.4872Z" fill="#FFE6BA"/>
<path d="M14.779 16.6376H14.7672C14.7672 16.6376 14.775 16.6435 14.777 16.6455C15.1603 17.0288 15.3824 18.3438 15.3903 18.4008L15.4139 18.5384L15.2802 18.5148C15.2252 18.505 13.9062 18.2848 13.5229 17.9015C13.521 17.8996 13.517 17.8956 13.517 17.8937V17.9035C13.517 18.4441 12.7406 19.535 12.7072 19.5802L12.6266 19.6922L12.548 19.5802C12.5146 19.535 11.7382 18.4441 11.7382 17.9035V17.8937C11.7382 17.8937 11.7362 17.8996 11.7323 17.9015C11.349 18.2848 10.03 18.507 9.97499 18.5148L9.84133 18.5384L9.86492 18.4047C9.87278 18.3458 10.0949 17.0308 10.4782 16.6475C10.4802 16.6455 10.4841 16.6416 10.488 16.6396H10.4762C9.93372 16.6396 8.84476 15.8651 8.79955 15.8337L8.68555 15.7531L8.79955 15.6745C8.84476 15.6411 9.93372 14.8646 10.4762 14.8646H10.4861C10.4861 14.8646 10.4802 14.8627 10.4782 14.8587C10.0949 14.4754 9.87278 13.1565 9.86099 13.1015L9.84133 12.9639L9.97499 12.9875C10.03 12.9973 11.349 13.2214 11.7323 13.6047C11.7342 13.6066 11.7382 13.6106 11.7382 13.6125V13.6027C11.7382 13.0602 12.5146 11.9712 12.548 11.9241L12.6266 11.812L12.7072 11.9241C12.7406 11.9732 13.5131 13.0602 13.5131 13.6027V13.6145C13.5131 13.6145 13.519 13.6066 13.521 13.6047C13.9043 13.2194 15.2232 12.9993 15.2782 12.9875L15.4119 12.9639L15.3883 13.1015C15.3805 13.1565 15.1583 14.4754 14.775 14.8587C14.7731 14.8607 14.7691 14.8646 14.7672 14.8646H14.777C15.3195 14.8646 16.4085 15.6391 16.4537 15.6705L16.5657 15.7511L16.4537 15.8317C16.4085 15.8651 15.3195 16.6376 14.777 16.6376H14.779Z" fill="#FFE675"/>
<path d="M14.3623 16.4668H14.3525C14.3525 16.4668 14.3584 16.4707 14.3603 16.4727C14.6689 16.7813 14.8498 17.8427 14.8557 17.8879L14.8734 17.998L14.7652 17.9803C14.72 17.9725 13.6566 17.7936 13.348 17.485C13.3461 17.483 13.3441 17.4811 13.3441 17.4791V17.487C13.3441 17.9233 12.719 18.802 12.6915 18.8393L12.6267 18.9297L12.5638 18.8393C12.5362 18.802 11.9112 17.9233 11.9112 17.487V17.4791C11.9112 17.4791 11.9092 17.483 11.9072 17.485C11.5986 17.7936 10.5352 17.9744 10.49 17.9803L10.3819 17.998L10.3996 17.8899C10.4055 17.8427 10.5863 16.7813 10.8949 16.4727C10.8969 16.4707 10.8989 16.4688 10.9028 16.4668H10.893C10.4546 16.4668 9.57797 15.8437 9.54063 15.8162L9.44824 15.7513L9.54063 15.6884C9.57797 15.6609 10.4546 15.0358 10.893 15.0358H10.9008C10.9008 15.0358 10.8969 15.0338 10.8949 15.0319C10.5863 14.7233 10.4055 13.6599 10.3976 13.6147L10.3819 13.5046L10.49 13.5223C10.5352 13.5301 11.5986 13.711 11.9072 14.0196C11.9092 14.0215 11.9112 14.0235 11.9112 14.0255V14.0176C11.9112 13.5793 12.5362 12.7026 12.5638 12.6633L12.6267 12.5729L12.6915 12.6633C12.719 12.7026 13.3421 13.5793 13.3421 14.0176V14.0274C13.3421 14.0274 13.3461 14.0215 13.348 14.0196C13.6566 13.709 14.72 13.5301 14.7652 13.5223L14.8734 13.5046L14.8557 13.6147C14.8498 13.6599 14.6689 14.7233 14.3603 15.0319C14.3584 15.0338 14.3564 15.0358 14.3544 15.0358H14.3623C14.8006 15.0358 15.6773 15.6589 15.7146 15.6864L15.8051 15.7513L15.7146 15.8162C15.6773 15.8437 14.8006 16.4668 14.3623 16.4668Z" fill="#7747F2" stroke="#3F25A0" stroke-width="0.196563" stroke-miterlimit="10"/>
<path d="M12.6266 15.2341L12.55 15.1417C12.5165 15.1004 11.7382 14.1451 11.7382 13.6006C11.7382 13.0561 12.5126 11.9691 12.546 11.9239L12.6266 11.8119L12.7072 11.9239C12.7406 11.9691 13.5151 13.0601 13.5151 13.6006C13.5151 14.1412 12.7367 15.1024 12.7033 15.1417L12.6266 15.2341ZM12.6266 12.1519C12.379 12.5176 11.9347 13.2448 11.9347 13.5986C11.9347 13.9525 12.3809 14.6011 12.6266 14.9196C12.8723 14.6011 13.3185 13.9525 13.3185 13.5986C13.3185 13.2448 12.8743 12.5176 12.6266 12.1519Z" fill="#F0BA07"/>
<path d="M12.9924 15.3855L13.0042 15.2656C13.0101 15.2145 13.1359 13.986 13.5212 13.6007C13.9045 13.2174 15.2214 12.9953 15.2784 12.9855L15.4141 12.9639L15.3925 13.0995C15.3826 13.1545 15.1605 14.4735 14.7772 14.8568C14.392 15.242 13.1654 15.3678 13.1123 15.3737L12.9924 15.3855ZM15.1723 13.2056C14.7379 13.2882 13.9104 13.4887 13.6607 13.7403C13.4111 13.9899 13.2657 14.7644 13.2145 15.1634C13.6136 15.1123 14.388 14.9688 14.6377 14.7172C14.8893 14.4656 15.0897 13.6381 15.1723 13.2056Z" fill="#F0BA07"/>
<path d="M14.7792 16.6395C14.2328 16.6395 13.2775 15.8611 13.2362 15.8277L13.1438 15.751L13.2362 15.6744C13.2775 15.6409 14.2328 14.8625 14.7792 14.8625C15.3256 14.8625 16.4107 15.637 16.4559 15.6704L16.5679 15.751L16.4559 15.8316C16.4107 15.865 15.3197 16.6395 14.7792 16.6395ZM13.4583 15.751C13.7767 15.9967 14.4254 16.4429 14.7792 16.4429C15.133 16.4429 15.8603 15.9987 16.2259 15.751C15.8603 15.5033 15.133 15.0591 14.7792 15.0591C14.4254 15.0591 13.7748 15.5033 13.4583 15.751Z" fill="#F0BA07"/>
<path d="M15.4141 18.5364L15.2784 18.5148C15.2234 18.505 13.9045 18.2828 13.5212 17.8995C13.1359 17.5143 13.0101 16.2877 13.0042 16.2346L12.9924 16.1147L13.1123 16.1265C13.1634 16.1324 14.39 16.2563 14.7772 16.6435C15.1605 17.0268 15.3826 18.3438 15.3925 18.4008L15.4141 18.5364ZM13.2145 16.3369C13.2657 16.7359 13.4091 17.5103 13.6607 17.76C13.9123 18.0116 14.7399 18.2121 15.1723 18.2946C15.0897 17.8602 14.8893 17.0327 14.6377 16.7831C14.388 16.5334 13.6136 16.388 13.2145 16.3369Z" fill="#F0BA07"/>
<path d="M12.6266 19.6923L12.546 19.5803C12.5126 19.5351 11.7382 18.4441 11.7382 17.9036C11.7382 17.363 12.5165 16.4019 12.55 16.3606L12.6266 16.2682L12.7033 16.3606C12.7367 16.4019 13.5151 17.3571 13.5151 17.9036C13.5151 18.4441 12.7406 19.5351 12.7072 19.5803L12.6266 19.6923ZM12.6266 16.5827C12.3809 16.9011 11.9347 17.5498 11.9347 17.9036C11.9347 18.2574 12.379 18.9847 12.6266 19.3503C12.8743 18.9847 13.3185 18.2574 13.3185 17.9036C13.3185 17.5498 12.8723 16.9011 12.6266 16.5827Z" fill="#F0BA07"/>
<path d="M9.8396 18.5384L9.86122 18.4027C9.87105 18.3457 10.0932 17.0288 10.4765 16.6455C10.8617 16.2602 12.0883 16.1344 12.1413 16.1285L12.2612 16.1167L12.2495 16.2366C12.2436 16.2877 12.1178 17.5143 11.7325 17.9015C11.3492 18.2848 10.0322 18.5069 9.97523 18.5167L9.8396 18.5384ZM12.0391 16.3388C11.6401 16.3899 10.8657 16.5334 10.616 16.785C10.3644 17.0346 10.1639 17.8641 10.0814 18.2966C10.5158 18.214 11.3433 18.0135 11.5929 17.7619C11.8426 17.5103 11.988 16.7378 12.0391 16.3388Z" fill="#F0BA07"/>
<path d="M10.4745 16.6395C9.93396 16.6395 8.84304 15.865 8.79783 15.8316L8.68579 15.751L8.79783 15.6704C8.84304 15.637 9.93396 14.8625 10.4745 14.8625C11.0151 14.8625 11.9762 15.6409 12.0175 15.6744L12.1099 15.751L12.0175 15.8277C11.9762 15.8611 11.0209 16.6395 10.4745 16.6395ZM9.02781 15.751C9.39341 15.9987 10.1207 16.4429 10.4745 16.4429C10.8283 16.4429 11.477 15.9967 11.7954 15.751C11.477 15.5053 10.8283 15.0591 10.4745 15.0591C10.1207 15.0591 9.39341 15.5033 9.02781 15.751Z" fill="#F0BA07"/>
<path d="M12.2612 15.3855L12.1413 15.3737C12.0902 15.3678 10.8617 15.242 10.4765 14.8568C10.0932 14.4735 9.87105 13.1565 9.86122 13.0995L9.8396 12.9639L9.97523 12.9855C10.0322 12.9953 11.3492 13.2174 11.7325 13.6007C12.1178 13.986 12.2436 15.2126 12.2495 15.2656L12.2612 15.3855ZM10.0814 13.2056C10.1639 13.64 10.3644 14.4676 10.616 14.7172C10.8657 14.9668 11.6401 15.1123 12.0391 15.1634C11.988 14.7644 11.8445 13.9899 11.5929 13.7403C11.3433 13.4887 10.5138 13.2882 10.0814 13.2056Z" fill="#F0BA07"/>
<path d="M12.6265 11.5526C10.3091 11.5526 8.42798 13.4318 8.42798 15.7512C8.42798 18.0707 10.3071 19.9498 12.6265 19.9498C14.946 19.9498 16.8251 18.0707 16.8251 15.7512C16.8251 13.4318 14.946 11.5526 12.6265 11.5526ZM12.6265 19.5213C10.543 19.5213 8.85452 17.8328 8.85452 15.7492C8.85452 13.6657 10.543 11.9772 12.6265 11.9772C14.7101 11.9772 16.3986 13.6657 16.3986 15.7492C16.3986 17.8328 14.7101 19.5213 12.6265 19.5213Z" fill="#F0BA07"/>
<path d="M12.6267 19.8516C10.3662 19.8516 8.52637 18.0118 8.52637 15.7513C8.52637 13.4908 10.3662 11.651 12.6267 11.651C14.8871 11.651 16.7269 13.4908 16.7269 15.7513C16.7269 18.0118 14.8871 19.8516 12.6267 19.8516ZM12.6267 11.8829C10.492 11.8829 8.75634 13.6186 8.75634 15.7533C8.75634 17.888 10.492 19.6236 12.6267 19.6236C14.7613 19.6236 16.497 17.888 16.497 15.7533C16.497 13.6186 14.7613 11.8829 12.6267 11.8829Z" fill="#FFE675"/>
<path d="M12.56 17.8504C12.1669 17.4573 11.6322 17.2352 11.0759 17.2352C11.0759 16.6789 10.8558 16.1443 10.4607 15.7512C10.8538 15.358 11.0759 14.8234 11.0759 14.2671C11.6322 14.2671 12.1669 14.045 12.56 13.6519C12.9531 14.045 13.4877 14.2671 14.044 14.2671C14.044 14.8234 14.2642 15.358 14.6593 15.7512C14.2661 16.1443 14.044 16.6789 14.044 17.2352C13.4877 17.2352 12.9531 17.4573 12.56 17.8504Z" fill="#F0BA07"/>
<path d="M12.5598 17.6599C12.202 17.3022 11.7165 17.0997 11.2094 17.0997C11.2094 16.5926 11.0089 16.1071 10.6492 15.7493C11.0069 15.3916 11.2094 14.9061 11.2094 14.399C11.7165 14.399 12.202 14.1985 12.5598 13.8387C12.9175 14.1965 13.403 14.399 13.9101 14.399C13.9101 14.9041 14.1106 15.3916 14.4684 15.7493C14.1106 16.1071 13.9101 16.5926 13.9082 17.0997C13.401 17.0997 12.9155 17.3002 12.5578 17.658L12.5598 17.6599Z" fill="#FFE675"/>
<path d="M12.3513 13.9369C12.3848 13.9212 12.4005 13.931 12.3848 13.9448C12.3277 14.0057 12.2019 14.0784 12.0997 14.1315C12.0349 14.1669 11.8285 14.275 11.7931 14.2475C11.7617 14.2219 11.9346 14.1531 11.9838 14.1295C12.1135 14.0686 12.2236 13.9978 12.3494 13.9349L12.3513 13.9369Z" fill="#FFE675"/>
<path d="M11.7028 14.2533C11.687 14.2612 11.6635 14.269 11.6438 14.273C11.6104 14.2808 11.6006 14.3064 11.632 14.3064C11.6733 14.3064 11.7185 14.2966 11.7519 14.2749C11.7696 14.2651 11.7755 14.2533 11.7617 14.2454C11.748 14.2395 11.7224 14.2435 11.7028 14.2533Z" fill="#FFE6BA"/>
<path d="M13.6683 17.1683C13.7018 17.1545 13.7057 17.1368 13.686 17.1368C13.6015 17.1368 13.4639 17.1781 13.3558 17.2174C13.285 17.243 13.0669 17.3196 13.0629 17.3629C13.059 17.4042 13.228 17.3236 13.2792 17.302C13.4128 17.2469 13.5386 17.2174 13.6703 17.1683H13.6683Z" fill="#FFE675"/>
<path d="M12.9941 17.4279C12.9784 17.4338 12.9548 17.4455 12.9391 17.4573C12.9115 17.477 12.884 17.4652 12.9076 17.4436C12.9371 17.4141 12.9744 17.3866 13.0118 17.3767C13.0315 17.3709 13.0452 17.3748 13.0393 17.3905C13.0334 17.4062 13.0138 17.422 12.9941 17.4298V17.4279Z" fill="#FFE6BA"/>
<path d="M12.5443 17.2175C13.3726 17.2175 14.0441 16.546 14.0441 15.7177C14.0441 14.8894 13.3726 14.2179 12.5443 14.2179C11.716 14.2179 11.0446 14.8894 11.0446 15.7177C11.0446 16.546 11.716 17.2175 12.5443 17.2175Z" fill="#C8DCE8"/>
<path d="M12.5441 17.129C13.3236 17.129 13.9554 16.4972 13.9554 15.7177C13.9554 14.9383 13.3236 14.3064 12.5441 14.3064C11.7647 14.3064 11.1328 14.9383 11.1328 15.7177C11.1328 16.4972 11.7647 17.129 12.5441 17.129Z" fill="#265E00"/>
<path d="M12.5442 16.907C13.201 16.907 13.7334 16.3746 13.7334 15.7178C13.7334 15.061 13.201 14.5286 12.5442 14.5286C11.8874 14.5286 11.355 15.061 11.355 15.7178C11.355 16.3746 11.8874 16.907 12.5442 16.907Z" fill="#49A805"/>
<path d="M12.7191 16.333C12.6267 16.3488 12.5402 16.3861 12.4478 16.4038C12.3476 16.4215 12.2375 16.4235 12.1353 16.4038C11.9486 16.3704 11.8031 16.276 11.6655 16.1738C11.7186 16.3448 11.9152 16.4647 12.1157 16.51C12.3201 16.5552 12.6346 16.5335 12.7584 16.3743C12.7761 16.3527 12.7466 16.3271 12.7191 16.333Z" fill="#7AC728"/>
<path d="M13.2498 15.5468C13.2321 15.5133 13.1712 15.4956 13.1299 15.5074C12.9884 15.5428 12.8331 15.7748 13.0257 15.8396C13.2203 15.9045 13.3127 15.6608 13.2498 15.5487V15.5468Z" fill="#398504"/>
<path d="M13.2437 15.2499C13.2339 15.246 13.2221 15.2421 13.2103 15.2421C13.1985 15.2421 13.1887 15.244 13.1769 15.2499C13.1749 15.2499 13.173 15.2539 13.169 15.2539C13.1651 15.2558 13.1632 15.2578 13.1592 15.2598C13.1533 15.2617 13.1494 15.2657 13.1474 15.2696C13.1415 15.2755 13.1376 15.2814 13.1356 15.2892C13.1356 15.2951 13.1337 15.301 13.1337 15.3069C13.1337 15.3168 13.1376 15.3286 13.1435 15.3364C13.1435 15.3364 13.1455 15.3403 13.1474 15.3403C13.1514 15.3443 13.1533 15.3462 13.1573 15.3502C13.1632 15.3541 13.169 15.358 13.1769 15.36C13.1808 15.362 13.1867 15.3639 13.1926 15.3639C13.2005 15.3639 13.2084 15.3639 13.2162 15.3639H13.2241C13.2241 15.3639 13.2359 15.36 13.2418 15.358C13.2496 15.3541 13.2575 15.3482 13.2634 15.3423C13.2673 15.3384 13.2713 15.3345 13.2732 15.3286C13.2772 15.3246 13.2772 15.3187 13.2772 15.3148C13.2772 15.3109 13.2772 15.3069 13.2772 15.303V15.2951C13.2772 15.2774 13.2654 15.2598 13.2457 15.2499H13.2437Z" fill="#398504"/>
<path d="M11.5318 15.8554C11.5318 15.8554 11.4689 14.735 12.3868 14.6407C13.0905 14.5699 13.3225 15.2009 13.3225 15.2009C13.3225 15.2009 12.8645 14.6348 12.2375 14.8765C11.7991 15.0436 11.5161 15.5075 11.5318 15.8554Z" fill="#7AC728"/>
<path d="M12.1745 14.7566C12.0939 14.7429 12.0055 14.7999 11.9504 14.8431C11.8895 14.8922 11.862 14.9551 11.8345 15.02C11.8345 15.022 11.8384 15.0239 11.8404 15.022C11.8915 14.9768 11.9563 14.9473 12.0173 14.9139C12.0448 14.9001 12.0723 14.8863 12.1018 14.8726C12.1352 14.8588 12.1726 14.851 12.1961 14.8254C12.2178 14.8018 12.2158 14.7605 12.1726 14.7527L12.1745 14.7566Z" fill="#CEFC9D"/>
<path d="M12.5933 14.6662C12.5657 14.6446 12.5225 14.6465 12.4871 14.6564C12.4498 14.6662 12.4242 14.678 12.4006 14.7035C12.3849 14.7193 12.3908 14.7389 12.4144 14.7468C12.4517 14.7586 12.4812 14.7586 12.5186 14.7527C12.5539 14.7468 12.5933 14.7311 12.6031 14.7016C12.607 14.6898 12.6031 14.676 12.5913 14.6682L12.5933 14.6662Z" fill="#CEFC9D"/>
<path d="M13.5211 15.1969C13.5211 15.5487 13.1162 16.4195 12.5619 16.5139C12.153 16.5827 11.7107 16.4215 11.5299 16.0559C11.6655 16.5217 12.0763 16.8598 12.5619 16.8598C13.1574 16.8598 13.641 16.3507 13.641 15.7217C13.641 15.533 13.5977 15.3561 13.5211 15.1989V15.1969Z" fill="#398504"/>
<path d="M12.5362 16.6966C12.5225 16.6809 12.5048 16.675 12.4812 16.6789C12.3632 16.6986 12.2512 16.7064 12.1313 16.6966C12.1254 16.6966 12.1254 16.7025 12.1293 16.7045C12.2355 16.7713 12.379 16.791 12.5087 16.7556C12.5283 16.7497 12.5441 16.7359 12.5441 16.7163C12.5441 16.7084 12.5441 16.7025 12.5382 16.6966H12.5362Z" fill="#49A805"/>
<path d="M10.8047 13.6519L10.789 13.756L10.8833 13.8052L10.7791 13.7894L10.73 13.8838L10.7457 13.7796L10.6514 13.7305L10.7555 13.7462L10.8047 13.6519Z" fill="white"/>
<path d="M12.8843 18.3851L12.8568 18.5699L13.0238 18.6564L12.8391 18.6289L12.7526 18.794L12.7801 18.6092L12.615 18.5247L12.7998 18.5522L12.8843 18.3851Z" fill="white"/>
<path d="M15.3175 15.4722L15.29 15.6569L15.4551 15.7415L15.2703 15.7139L15.1858 15.881L15.2133 15.6962L15.0463 15.6117L15.231 15.6392L15.3175 15.4722Z" fill="white"/>
<path d="M12.6248 13.0229C12.6248 13.0229 12.3201 13.3945 12.326 13.5301C12.3319 13.6795 12.4754 13.2687 12.6248 13.0229Z" fill="#9F85FF"/>
<path d="M10.8872 13.8427C10.8872 13.8427 11.2921 13.9252 11.4749 14.0156C11.6577 14.106 11.0936 13.9232 10.9855 13.9056C10.8774 13.8879 10.8872 13.8427 10.8872 13.8427Z" fill="#9F85FF"/>
<path d="M14.5628 17.6678C14.5628 17.6678 14.5097 17.1902 14.4075 17.0997C14.2974 16.9995 14.49 17.3887 14.5628 17.6678Z" fill="#9F85FF"/>
<path d="M13.0632 17.764C13.0632 17.764 12.8961 18.1414 12.7684 18.3006C12.6406 18.4598 12.9394 17.9487 12.9807 17.8465C13.0219 17.7443 13.0632 17.764 13.0632 17.764Z" fill="#9F85FF"/>
</g>
</g>
<defs>
<clipPath id="clip0_584_24526">
<rect width="24" height="24" fill="white" transform="translate(0.695557)"/>
</clipPath>
<clipPath id="clip1_584_24526">
<rect width="9.78486" height="15.9" fill="white" transform="translate(7.79907 4.04993)"/>
</clipPath>
</defs>
</svg>
