<svg width="23" height="23" viewBox="0 0 23 23" fill="none" xmlns="http://www.w3.org/2000/svg">
<path d="M11.5 22.6018C17.5081 22.6018 22.3785 17.7254 22.3785 11.7101C22.3785 5.69476 17.5081 0.818359 11.5 0.818359C5.49199 0.818359 0.621521 5.69476 0.621521 11.7101C0.621521 17.7254 5.49199 22.6018 11.5 22.6018Z" fill="#7747F2"/>
<g style="mix-blend-mode:multiply" opacity="0.2">
<path d="M11.5 22.6018C17.5081 22.6018 22.3785 17.7254 22.3785 11.7101C22.3785 5.69476 17.5081 0.818359 11.5 0.818359C5.49199 0.818359 0.621521 5.69476 0.621521 11.7101C0.621521 17.7254 5.49199 22.6018 11.5 22.6018Z" fill="#7A4ECE"/>
</g>
<g filter="url(#filter0_d_745_12713)">
<path d="M11.913 11.5394L15.3237 19.8125C15.1895 19.8757 15.0534 19.936 14.915 19.9931C12.736 20.8939 10.4049 20.8694 8.3587 20.1006L11.9125 11.5394H11.913Z" fill="url(#paint0_linear_745_12713)" stroke="#B671FF" stroke-width="0.0942803" stroke-miterlimit="10"/>
<path d="M11.913 11.5394L19.773 8.29095C20.6727 10.4731 20.6483 12.8065 19.8808 14.8552L11.913 11.5394Z" fill="url(#paint1_linear_745_12713)" stroke="#B671FF" stroke-width="0.0942803" stroke-miterlimit="10"/>
<path d="M8.50232 3.26632C10.7712 2.45645 13.172 2.62191 15.2248 3.56189L11.913 11.5394L8.50232 3.26632Z" fill="url(#paint2_linear_745_12713)" stroke="#B671FF" stroke-width="0.0942803" stroke-miterlimit="10"/>
<path d="M3.36226 7.98125L11.913 11.5394L3.22713 15.1291C2.24074 12.7367 2.36504 10.1624 3.36226 7.98077V7.98125Z" fill="url(#paint3_linear_745_12713)" stroke="#B671FF" stroke-width="0.0942803" stroke-miterlimit="10"/>
<path d="M15.3241 19.8125L11.9135 11.5394L19.8813 14.8552C19.0889 16.9713 17.5036 18.7839 15.3246 19.8125H15.3241Z" fill="url(#paint4_linear_745_12713)" stroke="#B671FF" stroke-width="0.0942803" stroke-miterlimit="10"/>
<path d="M19.773 8.29093L11.913 11.5394L15.2248 3.56183C17.2121 4.47163 18.8732 6.10834 19.773 8.29093Z" fill="url(#paint5_linear_745_12713)" stroke="#B671FF" stroke-width="0.0942803" stroke-miterlimit="10"/>
<path d="M8.08513 3.42704C8.22355 3.37 8.36245 3.31626 8.50228 3.2663L11.913 11.5394L3.36224 7.98126C4.27094 5.991 5.90613 4.32789 8.08513 3.42704Z" fill="url(#paint6_linear_745_12713)" stroke="#B671FF" stroke-width="0.0942803" stroke-miterlimit="10"/>
<path d="M3.22711 15.1291L11.913 11.5394L8.35915 20.1005C6.11565 19.2586 4.2135 17.5215 3.22758 15.1291H3.22711Z" fill="url(#paint7_linear_745_12713)" stroke="#B671FF" stroke-width="0.0942803" stroke-miterlimit="10"/>
</g>
<path d="M21.717 11.2849C21.717 11.4885 21.5569 11.6578 21.3517 11.6667C21.1407 11.6761 20.9623 11.5126 20.9529 11.3014L20.951 11.2641C20.9416 11.0544 21.104 10.8738 21.3149 10.8639C21.5259 10.854 21.7048 11.0171 21.7147 11.2283L21.7165 11.2674C21.7165 11.2731 21.7165 11.2788 21.7165 11.2844L21.717 11.2849ZM21.6304 13.1158C21.6304 13.1337 21.629 13.1516 21.6266 13.17L21.621 13.2091C21.5908 13.4184 21.3964 13.5632 21.1878 13.533C20.9788 13.5024 20.8342 13.3081 20.8643 13.0993L20.8695 13.0625C20.8992 12.8532 21.0927 12.7076 21.3017 12.7373C21.4924 12.7646 21.6304 12.9282 21.6304 13.1158ZM21.4576 9.43086C21.4576 9.60387 21.3394 9.76084 21.1638 9.8028C20.9585 9.85182 20.7523 9.72455 20.7033 9.51901L20.6948 9.48413C20.6449 9.2786 20.7707 9.07165 20.9755 9.02168C21.1807 8.97172 21.3874 9.09758 21.4373 9.30264L21.4468 9.34177C21.4538 9.37146 21.4571 9.40116 21.4571 9.43086H21.4576ZM21.1944 14.9364C21.1944 14.9774 21.1878 15.0193 21.1737 15.0603L21.1605 15.0985C21.0908 15.2979 20.8728 15.4035 20.6737 15.3338C20.4745 15.264 20.369 15.0457 20.4387 14.8463L20.4505 14.8119C20.5188 14.612 20.7363 14.5055 20.9359 14.5739C21.0946 14.6281 21.1944 14.777 21.1944 14.9359V14.9364ZM20.8512 7.65933C20.8512 7.805 20.7674 7.94453 20.6261 8.00817C20.4335 8.09538 20.2071 8.00959 20.1204 7.81678L20.1058 7.78426C20.0178 7.59239 20.1016 7.36471 20.2937 7.27656C20.4853 7.1884 20.7127 7.27231 20.8008 7.46465L20.8177 7.50141C20.8408 7.55233 20.8516 7.60607 20.8516 7.65886L20.8512 7.65933ZM20.4204 16.6409C20.4204 16.706 20.4039 16.7715 20.369 16.8319L20.3493 16.8658C20.2433 17.0487 20.0093 17.1105 19.8266 17.0044C19.6444 16.8983 19.5823 16.664 19.6882 16.4811L19.707 16.4486C19.8125 16.2657 20.0465 16.203 20.2292 16.3086C20.3516 16.3793 20.4204 16.508 20.4204 16.6405V16.6409ZM19.9199 6.0363C19.9199 6.15651 19.8638 6.27436 19.7584 6.34884C19.586 6.47093 19.3473 6.42992 19.2254 6.25739L19.2042 6.22769C19.0813 6.05563 19.1213 5.81663 19.2927 5.69359C19.4646 5.57055 19.7033 5.61062 19.8262 5.78221L19.8492 5.81474C19.8968 5.88168 19.9194 5.95899 19.9194 6.03536L19.9199 6.0363ZM19.3379 18.1678C19.3379 18.2564 19.3073 18.3455 19.2447 18.4181L19.2197 18.4469C19.0818 18.6067 18.8403 18.6246 18.6806 18.486C18.521 18.3479 18.5031 18.1061 18.6416 17.9463L18.6665 17.9175C18.8045 17.7577 19.046 17.7398 19.2056 17.8784C19.2932 17.9543 19.3379 18.0608 19.3379 18.1683V18.1678ZM18.6995 4.61879C18.6995 4.71402 18.6642 4.80971 18.5931 4.88372C18.4471 5.03646 18.2051 5.04117 18.0526 4.89504L18.0262 4.86958C17.8732 4.72392 17.867 4.48162 18.0125 4.32841C18.158 4.17521 18.4 4.16908 18.553 4.31474L18.5818 4.34208C18.6599 4.41703 18.6995 4.51791 18.6995 4.61832V4.61879ZM17.9881 19.4628C17.9881 19.5754 17.9386 19.6871 17.8435 19.7626L17.8115 19.7876C17.6453 19.9181 17.4052 19.8889 17.2747 19.7225C17.1448 19.5561 17.1735 19.3157 17.3397 19.1851L17.368 19.1629C17.5332 19.0314 17.7738 19.0592 17.9052 19.2247C17.9612 19.2949 17.9881 19.3788 17.9881 19.4623V19.4628ZM17.2343 3.45585C17.2343 3.5275 17.214 3.6001 17.1721 3.66421C17.0568 3.84145 16.8199 3.89142 16.6434 3.77593L16.6132 3.7566C16.4357 3.64252 16.3839 3.40541 16.4983 3.22769C16.6123 3.04997 16.8491 2.99812 17.0266 3.11267L17.061 3.13482C17.1735 3.20836 17.2347 3.33093 17.2347 3.45585H17.2343ZM16.4188 20.48C16.4188 20.6182 16.3439 20.7516 16.2126 20.8199L16.1777 20.8378C15.9903 20.9349 15.7596 20.8614 15.6626 20.6733C15.5656 20.4857 15.6391 20.2547 15.8269 20.1576L15.8599 20.1406C16.0473 20.0431 16.278 20.1161 16.3755 20.3037C16.4047 20.3603 16.4188 20.4206 16.4188 20.48ZM15.576 2.59082C15.576 2.63891 15.567 2.68793 15.5477 2.73507C15.4682 2.93071 15.245 3.02499 15.0496 2.94532L15.0162 2.93212C14.8203 2.85387 14.7247 2.63089 14.8029 2.43479C14.8811 2.23869 15.1038 2.14299 15.2996 2.22125L15.3373 2.23633C15.4856 2.29667 15.5755 2.43998 15.5755 2.59082H15.576ZM14.6852 21.1815C14.6852 21.3465 14.5778 21.4987 14.4116 21.5482L14.3735 21.5596C14.171 21.6189 13.9587 21.502 13.8994 21.2993C13.8405 21.0966 13.9563 20.884 14.1593 20.8246L14.1941 20.8143C14.3966 20.7539 14.6094 20.8699 14.6692 21.0721C14.68 21.1084 14.6852 21.1452 14.6852 21.181V21.1815ZM13.7831 2.05673C13.7831 2.08124 13.7807 2.10622 13.776 2.13121C13.7351 2.33862 13.534 2.47345 13.3268 2.4329L13.2915 2.42583C13.0844 2.38624 12.9483 2.18589 12.9878 1.978C13.0274 1.77059 13.2275 1.63435 13.4351 1.67395L13.4747 1.68149C13.6569 1.71732 13.7831 1.87759 13.7831 2.05673ZM12.8504 21.5398C12.8504 21.7344 12.7025 21.9008 12.5048 21.9202L12.4657 21.9239C12.2557 21.9437 12.0693 21.7891 12.0495 21.5789C12.0292 21.3682 12.1841 21.182 12.3941 21.1622L12.4313 21.1589C12.6413 21.1386 12.8282 21.2923 12.849 21.503C12.8504 21.5157 12.8508 21.528 12.8508 21.5402L12.8504 21.5398ZM11.9228 1.87429V1.87524C11.9224 2.08642 11.7505 2.25754 11.5396 2.25707H11.5024C11.4981 2.25707 11.4939 2.25707 11.4901 2.25707C11.4864 2.25707 11.4826 2.25707 11.4788 2.25707H11.4416C11.2307 2.25849 11.0584 2.08831 11.057 1.87665C11.057 1.66358 11.226 1.49293 11.4369 1.49152H11.4765C11.4812 1.49152 11.4854 1.49152 11.4901 1.49152C11.4944 1.49152 11.4981 1.49152 11.5024 1.49152H11.5419C11.7529 1.49246 11.9233 1.66358 11.9233 1.87429H11.9228ZM10.9812 21.5449C10.9812 21.5567 10.9807 21.5685 10.9798 21.5803C10.9605 21.791 10.7745 21.9461 10.5645 21.9268L10.5254 21.923C10.3154 21.9032 10.161 21.717 10.1808 21.5058C10.2005 21.2956 10.387 21.1409 10.5974 21.1607L10.6342 21.164C10.8324 21.182 10.9816 21.3493 10.9816 21.5449H10.9812ZM9.99761 2.05578C9.99761 2.23539 9.87096 2.39566 9.68828 2.43102L9.65202 2.43809C9.44486 2.4791 9.24381 2.34428 9.20285 2.13686C9.16189 1.92945 9.29655 1.72816 9.50371 1.68715L9.54232 1.67961C9.74948 1.63954 9.95006 1.77483 9.99055 1.98225C9.99526 2.00676 9.99761 2.03127 9.99761 2.05531V2.05578ZM9.14211 21.1994C9.14211 21.2348 9.13741 21.2706 9.12705 21.3059C9.06819 21.5091 8.85632 21.626 8.65339 21.5671L8.61573 21.5563C8.41327 21.4969 8.29698 21.2843 8.3563 21.0811C8.41563 20.8784 8.62797 20.7619 8.8309 20.8213L8.86621 20.8317C9.03335 20.8803 9.14211 21.033 9.14211 21.1989V21.1994ZM8.20422 2.58564C8.20422 2.73743 8.11335 2.88121 7.9641 2.94108L7.93067 2.95475C7.73528 3.03488 7.51211 2.9406 7.43206 2.74497C7.35202 2.54934 7.44619 2.3259 7.64158 2.24623L7.67925 2.23115C7.87511 2.15242 8.09782 2.24764 8.17644 2.44375C8.19528 2.49042 8.20422 2.5385 8.20422 2.58611V2.58564ZM7.40334 20.5097C7.40334 20.5687 7.38969 20.6281 7.36144 20.6842C7.26539 20.8723 7.03468 20.9467 6.84682 20.8501L6.81151 20.8317C6.62412 20.7346 6.55067 20.5036 6.64719 20.316C6.74418 20.1284 6.97489 20.0544 7.16228 20.1515L7.19524 20.1684C7.32754 20.2363 7.40334 20.3702 7.40334 20.5093V20.5097ZM6.54455 3.44783C6.54455 3.57323 6.48287 3.69626 6.36987 3.7698L6.33927 3.7896C6.16224 3.90509 5.92541 3.85512 5.81006 3.67835C5.69471 3.5011 5.74461 3.26399 5.92117 3.14849L5.9546 3.12681C6.13163 3.01179 6.36846 3.0627 6.48334 3.24042C6.52478 3.30453 6.54455 3.37665 6.54455 3.44783ZM5.82701 19.5019C5.82701 19.5844 5.80064 19.6673 5.74603 19.7371C5.61608 19.9035 5.37595 19.9332 5.20928 19.8031L5.17773 19.7781C5.012 19.6471 4.98375 19.4067 5.11464 19.2407C5.24553 19.0748 5.48566 19.0465 5.65139 19.1776L5.67964 19.1997C5.77616 19.2751 5.82654 19.3878 5.82654 19.5019H5.82701ZM5.07745 4.60889C5.07745 4.70977 5.0379 4.81018 4.95974 4.88561L4.93337 4.91106C4.7813 5.05767 4.53929 5.05343 4.39286 4.90164C4.24643 4.74937 4.25067 4.50707 4.40228 4.36047L4.431 4.33265C4.58355 4.18652 4.82556 4.1917 4.97151 4.34444C5.04261 4.41845 5.07745 4.51414 5.07745 4.60889ZM4.46867 18.2145C4.46867 18.321 4.42441 18.4271 4.33778 18.503C4.17864 18.642 3.9371 18.6255 3.79821 18.4667L3.77278 18.4375C3.63436 18.2781 3.65131 18.0363 3.81045 17.8977C3.96959 17.7591 4.21112 17.7761 4.34955 17.9354L4.37403 17.9637C4.43712 18.0363 4.4682 18.1259 4.4682 18.2154L4.46867 18.2145ZM3.85471 6.02546C3.85471 6.10182 3.83163 6.17961 3.78408 6.24654L3.76242 6.27718C3.64048 6.44972 3.40224 6.4912 3.22944 6.36911C3.05712 6.24702 3.01616 6.00849 3.13763 5.83548L3.16023 5.80343C3.28265 5.63089 3.52089 5.59035 3.69321 5.71292C3.79821 5.7874 3.85423 5.90572 3.85423 6.02546H3.85471ZM3.37681 16.6947C3.37681 16.8262 3.30901 16.9544 3.18707 17.0256C3.00486 17.1321 2.77086 17.0704 2.66445 16.888L2.64515 16.8545C2.53921 16.6716 2.60089 16.4373 2.78357 16.3312C2.96625 16.2252 3.20025 16.2869 3.30619 16.4698L3.32502 16.5024C3.36033 16.5632 3.37728 16.6292 3.37728 16.6947H3.37681ZM2.92058 7.64755C2.92058 7.70082 2.90928 7.75456 2.88574 7.80641L2.87067 7.83988C2.78357 8.03269 2.5571 8.11801 2.365 8.0308C2.17243 7.94359 2.08721 7.71732 2.17385 7.52451L2.19032 7.48822C2.2779 7.29588 2.50484 7.21103 2.69694 7.29918C2.83771 7.36329 2.92058 7.50236 2.92058 7.64755ZM2.59194 14.9962C2.59194 15.1541 2.49354 15.3022 2.33628 15.3573C2.13712 15.4276 1.91913 15.3224 1.84897 15.123L1.83579 15.0849C1.76705 14.8855 1.87299 14.6672 2.07262 14.5984C2.27225 14.5295 2.48977 14.6356 2.55851 14.8355L2.57028 14.8699C2.58488 14.9118 2.59194 14.9547 2.59194 14.9967V14.9962ZM2.31133 9.41719C2.31133 9.44689 2.30803 9.47706 2.3005 9.50723L2.29202 9.54305C2.24353 9.74859 2.03731 9.87634 1.83202 9.82731C1.62674 9.77876 1.49962 9.57228 1.54811 9.36675L1.55753 9.3281C1.60697 9.12256 1.81366 8.99623 2.01894 9.04573C2.19409 9.08815 2.3118 9.24466 2.3118 9.41766L2.31133 9.41719ZM2.14418 13.179C2.14418 13.3657 2.00717 13.5292 1.81743 13.557C1.60838 13.5877 1.4144 13.443 1.38379 13.2337L1.37814 13.1945C1.34801 12.9857 1.49303 12.7915 1.70208 12.7613C1.91112 12.7311 2.10463 12.8763 2.13477 13.0856L2.13995 13.1224C2.14277 13.1413 2.14418 13.1601 2.14418 13.1785V13.179ZM2.04908 11.2703C2.04908 11.2759 2.04908 11.2821 2.04908 11.2882L2.04766 11.3254C2.03872 11.5366 1.86027 11.7007 1.64934 11.6917C1.44406 11.6827 1.28351 11.5135 1.28351 11.3094C1.28351 11.3037 1.28351 11.2986 1.28351 11.2929L1.28539 11.2538C1.29481 11.0426 1.47372 10.879 1.68465 10.8889C1.88947 10.8983 2.04955 11.0676 2.04955 11.2707L2.04908 11.2703Z" fill="#FFA300"/>
<path d="M11.5 13.7598C12.6307 13.7598 13.5472 12.8421 13.5472 11.7101C13.5472 10.5781 12.6307 9.66046 11.5 9.66046C10.3694 9.66046 9.45288 10.5781 9.45288 11.7101C9.45288 12.8421 10.3694 13.7598 11.5 13.7598Z" fill="#7747F2"/>
<g filter="url(#filter1_d_745_12713)">
<path d="M11.5 13.0475C12.2378 13.0475 12.8358 12.4487 12.8358 11.7101C12.8358 10.9715 12.2378 10.3727 11.5 10.3727C10.7623 10.3727 10.1643 10.9715 10.1643 11.7101C10.1643 12.4487 10.7623 13.0475 11.5 13.0475Z" fill="#3C12D8"/>
</g>
<path d="M10.5885 1.16249C10.5904 0.580782 10.9064 0.0796825 11.5038 0.0820395C12.1018 0.0843965 12.4135 0.587382 12.4116 1.16909C12.4097 1.63578 11.8796 2.83832 11.6022 3.28946C11.5514 3.37195 11.4323 3.37148 11.3819 3.28851C11.1079 2.8355 10.5862 1.62918 10.5881 1.16249H10.5885Z" fill="#7747F2"/>
<path d="M11.4921 3.43275C11.4181 3.43275 11.3508 3.39457 11.3127 3.33093C11.0288 2.86094 10.5052 1.65038 10.5071 1.16201C10.508 0.847114 10.5975 0.560031 10.7585 0.353085C10.9393 0.121156 11.1968 -0.000937384 11.5043 5.41915e-06C11.8118 0.000948222 12.0688 0.124927 12.2477 0.358271C12.4074 0.56663 12.4945 0.854657 12.4935 1.16908C12.4916 1.65745 11.9596 2.86424 11.6724 3.33187C11.6333 3.39504 11.566 3.43275 11.4921 3.43228V3.43275ZM11.5038 0.163582C10.9304 0.161696 10.6723 0.663739 10.6705 1.16248C10.6691 1.60796 11.1907 2.81286 11.4525 3.24608C11.4648 3.26682 11.485 3.26918 11.4925 3.26918C11.5001 3.26918 11.5203 3.26682 11.533 3.24655C11.7981 2.81522 12.3283 1.61456 12.3301 1.16908C12.332 0.670338 12.0773 0.16641 11.5038 0.164053V0.163582Z" fill="#F39800"/>
<g filter="url(#filter2_d_745_12713)">
<path d="M11.5 1.48443C11.6815 1.48443 11.8287 1.33712 11.8287 1.15539C11.8287 0.97367 11.6815 0.826355 11.5 0.826355C11.3185 0.826355 11.1714 0.97367 11.1714 1.15539C11.1714 1.33712 11.3185 1.48443 11.5 1.48443Z" fill="#F5F5CB"/>
</g>
<path d="M11.4798 2.00112C11.5516 2.00112 11.6098 1.94287 11.6098 1.87101C11.6098 1.79916 11.5516 1.74091 11.4798 1.74091C11.408 1.74091 11.3499 1.79916 11.3499 1.87101C11.3499 1.94287 11.408 2.00112 11.4798 2.00112Z" fill="#F5F5CB"/>
<path d="M11.4784 2.3872C11.5255 2.3872 11.5636 2.349 11.5636 2.30188C11.5636 2.25475 11.5255 2.21655 11.4784 2.21655C11.4313 2.21655 11.3932 2.25475 11.3932 2.30188C11.3932 2.349 11.4313 2.3872 11.4784 2.3872Z" fill="#F5F5CB"/>
<path d="M11.4699 12.7726C12.1267 12.7726 12.6592 12.2395 12.6592 11.5819C12.6592 10.9242 12.1267 10.3911 11.4699 10.3911C10.8131 10.3911 10.2806 10.9242 10.2806 11.5819C10.2806 12.2395 10.8131 12.7726 11.4699 12.7726Z" fill="#5638D6"/>
<path d="M11.3399 12.4573C11.9024 12.4573 12.3583 12.0007 12.3583 11.4376C12.3583 10.8745 11.9024 10.418 11.3399 10.418C10.7775 10.418 10.3215 10.8745 10.3215 11.4376C10.3215 12.0007 10.7775 12.4573 11.3399 12.4573Z" fill="#6A55FF"/>
<path d="M10.9922 11.1373C11.0771 11.0442 11.0846 10.9129 11.0092 10.8439C10.9337 10.7749 10.8037 10.7945 10.7189 10.8875C10.634 10.9806 10.6264 11.1119 10.7019 11.1809C10.7774 11.2499 10.9074 11.2304 10.9922 11.1373Z" fill="#E0DEFF"/>
<defs>
<filter id="filter0_d_745_12713" x="2.45341" y="2.65232" width="18.7533" height="18.7752" filterUnits="userSpaceOnUse" color-interpolation-filters="sRGB">
<feFlood flood-opacity="0" result="BackgroundImageFix"/>
<feColorMatrix in="SourceAlpha" type="matrix" values="0 0 0 0 0 0 0 0 0 0 0 0 0 0 0 0 0 0 127 0" result="hardAlpha"/>
<feOffset dx="0.329981" dy="0.329981"/>
<feGaussianBlur stdDeviation="0.188561"/>
<feColorMatrix type="matrix" values="0 0 0 0 0.32549 0 0 0 0 0.192157 0 0 0 0 0.537255 0 0 0 0.4 0"/>
<feBlend mode="normal" in2="BackgroundImageFix" result="effect1_dropShadow_745_12713"/>
<feBlend mode="normal" in="SourceGraphic" in2="effect1_dropShadow_745_12713" result="shape"/>
</filter>
<filter id="filter1_d_745_12713" x="9.6929" y="9.90134" width="3.61431" height="3.61755" filterUnits="userSpaceOnUse" color-interpolation-filters="sRGB">
<feFlood flood-opacity="0" result="BackgroundImageFix"/>
<feColorMatrix in="SourceAlpha" type="matrix" values="0 0 0 0 0 0 0 0 0 0 0 0 0 0 0 0 0 0 127 0" result="hardAlpha"/>
<feOffset/>
<feGaussianBlur stdDeviation="0.235701"/>
<feColorMatrix type="matrix" values="0 0 0 0 0.45098 0 0 0 0 0.0117647 0 0 0 0 0.909804 0 0 0 0.75 0"/>
<feBlend mode="normal" in2="BackgroundImageFix" result="effect1_dropShadow_745_12713"/>
<feBlend mode="normal" in="SourceGraphic" in2="effect1_dropShadow_745_12713" result="shape"/>
</filter>
<filter id="filter2_d_745_12713" x="11.062" y="0.71699" width="0.876018" height="0.876811" filterUnits="userSpaceOnUse" color-interpolation-filters="sRGB">
<feFlood flood-opacity="0" result="BackgroundImageFix"/>
<feColorMatrix in="SourceAlpha" type="matrix" values="0 0 0 0 0 0 0 0 0 0 0 0 0 0 0 0 0 0 127 0" result="hardAlpha"/>
<feOffset/>
<feGaussianBlur stdDeviation="0.0546826"/>
<feColorMatrix type="matrix" values="0 0 0 0 0.368627 0 0 0 0 0.0352941 0 0 0 0 0.847059 0 0 0 0.75 0"/>
<feBlend mode="normal" in2="BackgroundImageFix" result="effect1_dropShadow_745_12713"/>
<feBlend mode="normal" in="SourceGraphic" in2="effect1_dropShadow_745_12713" result="shape"/>
</filter>
<linearGradient id="paint0_linear_745_12713" x1="11.8414" y1="20.6733" x2="11.8414" y2="11.5394" gradientUnits="userSpaceOnUse">
<stop stop-color="#AE94FF"/>
<stop offset="1" stop-color="#7747F2"/>
</linearGradient>
<linearGradient id="paint1_linear_745_12713" x1="16.1829" y1="14.8548" x2="16.1829" y2="8.29095" gradientUnits="userSpaceOnUse">
<stop stop-color="#AE94FF"/>
<stop offset="1" stop-color="#7747F2"/>
</linearGradient>
<linearGradient id="paint2_linear_745_12713" x1="11.8636" y1="11.5394" x2="11.8636" y2="2.74683" gradientUnits="userSpaceOnUse">
<stop stop-color="#AE94FF"/>
<stop offset="1" stop-color="#7747F2"/>
</linearGradient>
<linearGradient id="paint3_linear_745_12713" x1="10.4172" y1="11.5323" x2="1.28355" y2="11.5615" gradientUnits="userSpaceOnUse">
<stop stop-color="#AE94FF"/>
<stop offset="1" stop-color="#7747F2"/>
</linearGradient>
<linearGradient id="paint4_linear_745_12713" x1="11.9106" y1="11.6087" x2="18.0747" y2="17.7935" gradientUnits="userSpaceOnUse">
<stop stop-color="#94D1FF"/>
<stop offset="1" stop-color="#4598F2"/>
</linearGradient>
<linearGradient id="paint5_linear_745_12713" x1="15.843" y1="1.40422" x2="15.843" y2="1.38065" gradientUnits="userSpaceOnUse">
<stop stop-color="#94D1FF"/>
<stop offset="1" stop-color="#4598F2"/>
</linearGradient>
<linearGradient id="paint6_linear_745_12713" x1="11.8588" y1="11.5238" x2="5.40633" y2="5.11543" gradientUnits="userSpaceOnUse">
<stop stop-color="#94D1FF"/>
<stop offset="1" stop-color="#4598F2"/>
</linearGradient>
<linearGradient id="paint7_linear_745_12713" x1="11.8353" y1="11.5045" x2="5.26104" y2="18.1367" gradientUnits="userSpaceOnUse">
<stop stop-color="#94D1FF"/>
<stop offset="1" stop-color="#4598F2"/>
</linearGradient>
</defs>
</svg>
